<svg xmlns="http://www.w3.org/2000/svg" width="446" height="446" viewBox="0 0 446 446" version="1.1"><path d="" stroke="none" fill="#ffc107" fill-rule="evenodd"/><path d="M 167.597 73.490 C 166.328 74.859, 163.924 78.572, 162.255 81.740 C 160.586 84.908, 158.084 90.926, 156.694 95.114 C 155.305 99.301, 153.261 106.951, 152.153 112.114 C 151.044 117.276, 149.544 126.225, 148.819 132 C 148.030 138.278, 147.515 152.553, 147.536 167.500 C 147.556 181.250, 148.148 198.800, 148.851 206.500 C 149.554 214.200, 150.791 225, 151.599 230.500 C 152.407 236, 153.963 244.325, 155.057 249 L 157.047 257.500 149.774 268.743 C 145.773 274.927, 140.761 282.828, 138.636 286.301 C 136.510 289.774, 132.685 294.910, 130.136 297.714 C 127.586 300.518, 124.517 303.304, 123.316 303.906 C 122.114 304.508, 119.556 305, 117.631 305 C 115.705 305, 113.020 304.578, 111.663 304.062 C 110.306 303.546, 108.067 301.907, 106.688 300.419 C 105.309 298.932, 103.577 295.641, 102.840 293.107 C 102.055 290.407, 101.512 283.740, 101.528 277 C 101.551 267.866, 102.031 263.971, 103.861 258.072 C 105.129 253.987, 109.019 244.987, 112.507 238.072 C 115.994 231.158, 120.611 221.225, 122.767 216 C 124.923 210.775, 127.270 203.401, 127.982 199.613 C 128.777 195.392, 129.061 189.391, 128.717 184.113 C 128.409 179.376, 127.179 172.525, 125.983 168.889 C 124.788 165.253, 122.041 159.941, 119.879 157.085 C 117.718 154.229, 116.243 151.415, 116.603 150.833 C 116.964 150.250, 119.177 148.925, 121.522 147.887 C 123.867 146.850, 126.072 145.256, 126.421 144.345 C 126.812 143.327, 126.179 141.750, 124.778 140.250 C 123.525 138.909, 118.605 135.202, 113.845 132.013 C 109.085 128.824, 102.566 125.233, 99.360 124.033 C 96.153 122.834, 91.066 121.210, 88.055 120.426 C 85.043 119.642, 79.308 119, 75.309 119 C 68.311 119, 68.014 119.098, 67.385 121.602 C 67.026 123.034, 67.012 127.225, 67.356 130.916 C 67.699 134.607, 68.860 140.187, 69.937 143.317 C 71.014 146.447, 73.570 152.195, 75.617 156.091 C 77.665 159.987, 82.317 166.353, 85.955 170.238 C 92.014 176.705, 92.758 177.200, 94.785 176.115 C 96.003 175.463, 97 174.331, 97 173.600 C 97 172.868, 97.933 171.084, 99.073 169.635 C 100.212 168.186, 101.985 167, 103.011 167 C 104.462 167, 105.031 168.023, 105.566 171.594 C 105.945 174.121, 106.038 179.183, 105.772 182.844 C 105.497 186.624, 104.273 191.850, 102.939 194.939 C 101.648 197.931, 98.084 203.781, 95.020 207.939 C 91.956 212.098, 87.157 219.100, 84.356 223.500 C 81.554 227.900, 77.341 235.325, 74.993 240 C 72.645 244.675, 69.629 251.407, 68.291 254.961 C 66.953 258.514, 64.717 266.164, 63.322 271.961 C 61.291 280.397, 60.789 284.995, 60.809 295 C 60.829 305.477, 61.252 308.923, 63.425 316.297 C 64.852 321.135, 67.315 327.663, 68.901 330.803 C 70.486 333.944, 73.880 339.303, 76.443 342.713 C 79.007 346.123, 83.443 350.779, 86.302 353.061 C 89.161 355.342, 94.083 358.516, 97.240 360.114 C 100.397 361.711, 105.797 363.683, 109.240 364.494 C 112.683 365.306, 119.325 365.966, 124 365.961 C 128.675 365.956, 134.287 365.538, 136.472 365.031 C 138.656 364.525, 140.583 364.249, 140.752 364.419 C 140.922 364.588, 141.491 367.376, 142.017 370.614 C 142.585 374.112, 143.665 377.007, 144.678 377.750 C 145.987 378.710, 157.895 379, 196.069 379 C 239.273 379, 245.919 378.802, 247.015 377.482 C 247.850 376.476, 248.078 374.310, 247.692 371.051 C 247.372 368.348, 246.205 364.363, 245.099 362.194 C 243.993 360.026, 241.763 357.137, 240.143 355.774 C 238.515 354.404, 237.507 352.797, 237.889 352.180 C 238.364 351.411, 241.986 352.264, 249.539 354.923 C 255.568 357.046, 265.225 359.816, 271 361.079 L 281.500 363.376 287.452 369.823 C 290.725 373.369, 294.873 376.885, 296.670 377.635 C 299.083 378.644, 305.510 379, 321.277 379 C 337.600 379, 343.051 378.683, 344.462 377.652 C 346.017 376.515, 346.221 375.370, 345.765 370.343 C 345.468 367.065, 344.307 362.384, 343.186 359.941 C 342.065 357.499, 339.427 353.857, 337.324 351.848 C 335.221 349.840, 331.708 347.253, 329.518 346.100 C 327.328 344.947, 324.062 343.727, 322.259 343.389 C 320.034 342.971, 317.532 341.161, 314.462 337.747 L 309.943 332.720 314.721 329.457 C 317.350 327.663, 321.134 324.627, 323.132 322.711 C 325.129 320.795, 328.578 316.814, 330.797 313.864 C 333.015 310.914, 336.393 305.350, 338.303 301.500 C 340.213 297.650, 342.964 291.174, 344.417 287.109 C 345.870 283.044, 349.504 269.878, 352.492 257.851 C 355.481 245.824, 358.643 233.850, 359.519 231.242 C 360.396 228.634, 363.337 221.695, 366.056 215.823 C 368.775 209.950, 372.143 200.950, 373.541 195.823 C 375.315 189.312, 376.263 182.721, 376.682 173.971 C 377.061 166.060, 376.846 158.937, 376.099 154.645 C 375.448 150.906, 374.038 145.519, 372.965 142.674 C 371.893 139.828, 369.201 135.113, 366.983 132.196 L 362.949 126.892 366.225 120.196 C 369.238 114.036, 369.497 112.740, 369.465 104 C 369.436 96.118, 369.046 93.769, 367.174 90.209 C 365.933 87.849, 363.185 84.237, 361.069 82.182 C 358.653 79.838, 354.790 77.590, 350.693 76.143 C 347.103 74.876, 343.162 73.988, 341.935 74.170 C 340.708 74.351, 339.211 75.287, 338.607 76.250 C 337.871 77.424, 337.838 78.447, 338.505 79.360 C 339.052 80.108, 340.348 81.922, 341.385 83.391 C 342.422 84.860, 343.088 86.246, 342.864 86.469 C 342.640 86.693, 340.331 86.176, 337.733 85.321 C 334.288 84.187, 331.265 83.953, 326.567 84.456 C 323.023 84.835, 319.609 85.766, 318.979 86.525 C 318.350 87.283, 317.986 88.713, 318.170 89.702 C 318.355 90.691, 319.998 92.246, 321.822 93.157 C 323.646 94.069, 326.007 95.601, 327.069 96.562 C 328.199 97.585, 328.991 99.594, 328.978 101.405 C 328.966 103.107, 328.130 106.319, 327.120 108.541 C 326.111 110.764, 323.783 113.846, 321.949 115.390 C 320.114 116.934, 317.462 118.640, 316.056 119.182 C 314.650 119.724, 310.125 120.980, 306 121.972 C 301.875 122.965, 295.039 124.336, 290.808 125.020 C 285.955 125.804, 281.229 127.341, 278.003 129.183 C 274.316 131.289, 271.789 133.806, 268.945 138.207 C 265.982 142.790, 265.001 145.330, 265.005 148.405 C 265.008 151.155, 265.747 153.409, 267.255 155.267 C 269.033 157.459, 271.060 158.354, 277 159.571 C 281.125 160.417, 286.975 162.244, 290 163.633 C 293.025 165.021, 297.300 166.756, 299.500 167.488 C 301.700 168.220, 306.751 169.348, 310.725 169.995 C 314.920 170.679, 319.016 172.012, 320.495 173.174 C 321.895 174.276, 323.706 176.465, 324.520 178.039 C 325.334 179.613, 326 183.535, 326 186.754 C 326 191.028, 325.310 193.992, 323.443 197.739 C 322.036 200.561, 319.132 204.455, 316.988 206.392 C 314.844 208.329, 311.382 210.772, 309.295 211.821 C 307.208 212.870, 303.106 214.292, 300.180 214.981 C 297.254 215.670, 293.145 215.959, 291.049 215.624 C 288.953 215.289, 283.059 213.400, 277.951 211.428 C 271.451 208.917, 266.238 207.640, 260.582 207.171 L 252.500 206.500 251.932 199.898 C 251.524 195.160, 250.595 192.055, 248.641 188.898 C 247.143 186.479, 244.474 182.547, 242.709 180.160 C 239.540 175.874, 239.502 175.686, 239.643 165.160 C 239.721 159.297, 240.569 150.225, 241.527 145 C 242.486 139.775, 245.009 130.104, 247.135 123.509 C 249.304 116.781, 250.995 109.539, 250.988 107.009 C 250.982 104.529, 250.369 100.250, 249.626 97.500 C 248.884 94.750, 247.559 90.806, 246.683 88.736 C 245.807 86.666, 244.315 84.674, 243.366 84.310 C 242.150 83.844, 240.734 84.700, 238.559 87.217 C 236.862 89.179, 233.594 94.545, 231.295 99.142 C 228.996 103.739, 225.476 111.744, 223.473 116.932 C 221.469 122.120, 218.102 133.145, 215.989 141.432 C 213.877 149.719, 211.572 160.173, 210.867 164.661 L 209.586 172.823 204.095 170.046 L 198.603 167.269 198.872 162.207 C 199.095 158.009, 198.800 156.963, 197.143 156.076 C 196.044 155.488, 194.472 155.265, 193.650 155.581 C 192.827 155.896, 191.879 156.873, 191.542 157.750 C 191.206 158.627, 190.442 164.105, 189.845 169.923 C 189.220 176.014, 189 188.346, 189.325 199 C 189.636 209.175, 190.590 221.775, 191.445 227 C 192.301 232.225, 193.239 237.531, 193.530 238.791 C 194.054 241.061, 194.030 241.067, 190.872 239.434 C 189.120 238.528, 185.512 235.753, 182.855 233.268 C 179.918 230.521, 177.622 227.329, 176.998 225.125 C 176.433 223.131, 175.252 216.550, 174.375 210.500 C 173.277 202.934, 172.802 192.788, 172.854 178 C 172.895 166.175, 173.339 155.150, 173.841 153.500 C 174.667 150.784, 174.829 150.689, 175.554 152.500 C 175.994 153.600, 177.405 156.188, 178.689 158.250 C 180.344 160.907, 181.731 162, 183.445 162 C 184.998 162, 186.096 161.273, 186.509 159.973 C 186.944 158.602, 186.150 156.432, 184.060 153.277 C 182.360 150.710, 180.075 145.611, 178.984 141.947 C 177.893 138.282, 177 133.533, 177 131.392 C 177 129.251, 177.740 124.349, 178.644 120.500 C 179.548 116.650, 180.486 108.194, 180.728 101.708 C 181.099 91.796, 180.840 88.832, 179.105 83.118 C 177.969 79.379, 176.098 75.123, 174.947 73.660 C 173.796 72.197, 172.191 71, 171.380 71 C 170.568 71, 168.866 72.120, 167.597 73.490 M 168.573 86.488 C 167.667 88.396, 166.291 91.757, 165.515 93.956 C 164.740 96.155, 163.420 100.777, 162.582 104.227 C 161.745 107.677, 160.390 114.325, 159.572 119 C 158.754 123.675, 157.543 132, 156.882 137.500 C 156.221 143, 155.683 158.750, 155.687 172.500 C 155.691 186.250, 156.219 202, 156.861 207.500 C 157.503 213, 158.728 221.775, 159.583 227 C 160.438 232.225, 162.457 241.789, 164.071 248.253 C 165.685 254.717, 167.943 262.817, 169.089 266.253 C 170.236 269.689, 173.573 277.473, 176.504 283.552 C 179.436 289.630, 184.487 298.180, 187.728 302.552 C 190.969 306.923, 196.736 313.311, 200.542 316.746 C 204.349 320.181, 209.918 324.193, 212.918 325.661 C 215.918 327.128, 220.643 328.548, 223.418 328.814 L 228.463 329.299 222.482 324.309 C 219.192 321.565, 213.620 316.234, 210.099 312.462 C 206.579 308.690, 201.072 302.062, 197.862 297.733 C 194.652 293.403, 189.578 284.973, 186.588 278.999 C 183.597 273.025, 179.272 262.369, 176.977 255.318 C 174.682 248.268, 171.727 237.301, 170.411 230.946 C 169.095 224.591, 167.340 212.955, 166.509 205.089 C 165.679 197.222, 165.006 184.422, 165.012 176.643 C 165.019 168.864, 165.915 154.850, 167.003 145.500 C 168.091 136.150, 169.903 124.450, 171.031 119.500 C 172.159 114.550, 173.348 107.229, 173.673 103.231 C 174.033 98.813, 173.765 93.606, 172.990 89.952 C 172.288 86.646, 171.378 83.734, 170.967 83.480 C 170.556 83.225, 169.479 84.579, 168.573 86.488 M 351.553 89.507 C 351.965 92.253, 353.021 95.048, 353.901 95.718 C 354.780 96.388, 356.063 96.951, 356.750 96.968 C 357.438 96.986, 358 96.303, 358 95.450 C 358 94.598, 357.371 92.684, 356.602 91.198 C 355.834 89.711, 354.215 87.599, 353.005 86.504 L 350.804 84.513 351.553 89.507 M 346.911 105.807 C 345.361 108.532, 345.412 108.707, 348.938 112.801 C 350.927 115.110, 353.089 117, 353.742 117 C 354.395 117, 355.395 116.130, 355.965 115.066 C 356.534 114.002, 357 111.789, 357 110.147 C 357 107.838, 356.239 106.693, 353.632 105.082 C 351.780 103.937, 349.867 103.003, 349.382 103.006 C 348.897 103.010, 347.785 104.270, 346.911 105.807 M 335.214 116.973 C 332.949 118.861, 332.945 118.915, 334.714 122.599 C 335.696 124.645, 337.264 126.793, 338.197 127.371 C 339.340 128.079, 340.811 128.102, 342.697 127.441 C 344.470 126.821, 345.620 125.620, 345.827 124.175 C 346.017 122.844, 345.056 120.451, 343.526 118.445 C 342.081 116.550, 340.134 115.015, 339.199 115.033 C 338.265 115.052, 336.471 115.924, 335.214 116.973 M 322.450 124.914 C 321.928 125.417, 318.575 126.787, 315 127.958 C 311.425 129.130, 303.426 130.963, 297.225 132.032 C 291.024 133.100, 284.724 134.613, 283.225 135.392 C 281.726 136.172, 279.540 137.865, 278.367 139.155 C 277.194 140.445, 275.506 142.940, 274.617 144.700 C 273.728 146.461, 273 148.566, 273 149.379 C 273 150.383, 274.846 151.217, 278.750 151.976 C 281.913 152.590, 288.325 154.626, 293 156.499 C 297.675 158.372, 303.659 160.435, 306.299 161.083 C 309.369 161.837, 315.851 162.082, 324.299 161.763 C 334.402 161.381, 338.145 161.591, 340.250 162.658 C 341.762 163.424, 343 163.721, 343 163.318 C 343 162.914, 341.380 160.925, 339.399 158.897 C 336.727 156.161, 335.967 154.680, 336.451 153.156 C 336.809 152.026, 337.900 150.849, 338.875 150.540 C 339.850 150.230, 341.876 148.695, 343.376 147.129 L 346.105 144.281 339.803 143.041 C 336.336 142.360, 332.777 141.415, 331.893 140.942 C 330.864 140.392, 330.053 138.107, 329.641 134.602 C 329.287 131.588, 328.559 127.970, 328.023 126.561 C 327.469 125.104, 326.263 124, 325.225 124 C 324.221 124, 322.972 124.411, 322.450 124.914 M 304.571 134.571 C 303.707 135.436, 303 136.365, 303 136.637 C 303 136.909, 303.466 138.002, 304.035 139.066 C 304.692 140.294, 306.127 141, 307.964 141 C 309.555 141, 311.564 140.293, 312.429 139.429 C 313.293 138.564, 314 137.304, 314 136.629 C 314 135.953, 313.460 134.860, 312.800 134.200 C 312.140 133.540, 310.372 133, 308.871 133 C 307.371 133, 305.436 133.707, 304.571 134.571 M 197.658 176.675 C 197.296 177.037, 197 183.351, 197 190.706 C 197 198.061, 197.465 208.449, 198.033 213.789 C 198.602 219.130, 199.974 228.176, 201.082 233.890 C 202.191 239.605, 204.469 248.605, 206.146 253.890 C 207.823 259.176, 211.029 266.971, 213.270 271.212 C 216.411 277.157, 218.027 279.162, 220.322 279.962 C 221.959 280.533, 224.619 281, 226.233 281 C 227.846 281, 229.013 280.663, 228.826 280.250 C 228.639 279.837, 227.078 276.800, 225.358 273.500 C 223.637 270.200, 221.314 264.531, 220.194 260.902 C 219.075 257.273, 217.374 250.073, 216.415 244.902 C 215.072 237.664, 214.651 229.723, 214.585 210.404 C 214.521 191.493, 214.182 184.925, 213.211 183.754 C 212.502 182.900, 209.352 181.182, 206.211 179.937 C 203.070 178.692, 200.009 177.300, 199.408 176.845 C 198.807 176.390, 198.020 176.313, 197.658 176.675 M 333.474 186.251 C 333.457 191.751, 332.862 195.951, 331.690 198.855 C 330.723 201.251, 330.197 204.045, 330.520 205.064 C 330.844 206.084, 332.772 208.234, 334.804 209.843 C 336.837 211.451, 340.242 213.495, 342.372 214.384 C 344.502 215.273, 347.229 216, 348.433 216 C 350.218 216, 350.832 215.124, 351.759 211.250 C 352.385 208.637, 353.187 204.137, 353.542 201.248 C 354.099 196.723, 353.832 195.389, 351.614 191.604 C 350.198 189.188, 347.620 186.017, 345.886 184.558 C 344.152 183.098, 341.011 181.026, 338.906 179.952 C 336.802 178.878, 334.724 178, 334.290 178.001 C 333.855 178.001, 333.488 181.713, 333.474 186.251 M 322.342 218.762 C 320.605 221.918, 316.676 227.875, 313.612 232 C 310.547 236.125, 308.031 240.477, 308.020 241.672 C 308.008 242.999, 309.622 245.233, 312.171 247.414 C 314.465 249.378, 318.756 251.888, 321.708 252.992 C 324.660 254.096, 329.497 255, 332.458 255 C 337.632 255, 337.867 254.883, 338.503 251.985 C 338.867 250.327, 340.926 243.531, 343.078 236.883 C 345.230 230.234, 346.741 224.391, 346.436 223.897 C 346.131 223.404, 345.121 222.996, 344.191 222.990 C 343.261 222.985, 340.250 221.930, 337.500 220.645 C 334.750 219.361, 331.085 217.116, 329.356 215.655 C 327.626 214.195, 326.051 213.005, 325.856 213.012 C 325.660 213.018, 324.079 215.606, 322.342 218.762 M 242.819 215.014 C 238.594 215.418, 233.869 216.055, 232.319 216.430 C 230.768 216.804, 227.748 217.570, 225.608 218.132 L 221.715 219.154 222.325 228.327 C 222.660 233.372, 223.823 241.550, 224.908 246.500 C 225.994 251.450, 227.753 257.997, 228.818 261.048 C 229.882 264.100, 231.728 268.507, 232.920 270.843 C 234.112 273.179, 236.755 276.939, 238.793 279.198 C 240.832 281.457, 243.948 283.912, 245.718 284.653 C 247.488 285.394, 250.841 286, 253.170 286 C 256.549 286, 258.050 285.375, 260.595 282.908 C 263.322 280.265, 264.092 279.979, 265.893 280.943 C 267.092 281.584, 268 283.055, 268 284.355 C 268 285.612, 266.328 288.593, 264.284 290.981 C 262.241 293.369, 257.210 297.515, 253.105 300.194 C 249 302.874, 244.987 306.001, 244.187 307.143 C 243.295 308.416, 242.700 311.791, 242.650 315.860 C 242.604 319.512, 242.905 324.075, 243.318 326 C 244.001 329.187, 244.757 329.812, 251.784 332.994 C 256.028 334.916, 263.550 339.162, 268.500 342.429 C 274.157 346.163, 281.653 352.573, 288.681 359.685 L 299.862 371 310.900 371 C 320.980 371, 321.884 370.848, 321.320 369.250 C 320.980 368.288, 319.757 366.424, 318.601 365.108 C 317.445 363.793, 313.575 361.386, 310 359.760 C 305.153 357.555, 301.084 354.452, 294 347.559 C 288.775 342.475, 280.337 335.532, 275.250 332.132 C 269.962 328.597, 266 325.258, 266 324.335 C 266 323.448, 269.344 319.222, 273.431 314.944 C 278.968 309.149, 281.871 305.041, 284.818 298.833 C 286.993 294.250, 289.289 287.726, 289.920 284.336 C 290.551 280.947, 291.944 272.198, 293.015 264.895 C 294.087 257.593, 295.900 248.806, 297.044 245.369 C 298.188 241.931, 300.878 236.505, 303.022 233.310 C 305.166 230.114, 308.258 225.667, 309.893 223.427 L 312.865 219.353 307.683 221.144 C 304.495 222.245, 299.523 222.947, 294.765 222.967 C 288.566 222.994, 284.992 222.320, 276.765 219.577 C 271.119 217.695, 262.980 215.670, 258.678 215.077 C 254.375 214.485, 250.775 214.063, 250.678 214.140 C 250.580 214.217, 247.043 214.610, 242.819 215.014 M 251.164 224.325 C 249.928 225.641, 248.460 228.371, 247.902 230.393 C 247.344 232.415, 247.180 234.992, 247.538 236.119 C 247.981 237.517, 247.468 238.937, 245.927 240.577 C 244.326 242.282, 243.533 244.586, 243.211 248.470 C 242.781 253.659, 242.943 254.143, 246.219 257.419 C 248.124 259.324, 250.948 261.200, 252.496 261.588 C 254.043 261.977, 256.027 261.845, 256.905 261.295 C 257.782 260.745, 258.647 259.306, 258.826 258.097 C 259.088 256.334, 258.349 255.583, 255.098 254.306 C 252.868 253.431, 250.784 251.895, 250.467 250.895 C 250.149 249.894, 250.381 248.156, 250.983 247.032 C 251.985 245.160, 252.306 245.107, 254.804 246.398 C 256.317 247.181, 258.330 249.620, 259.327 251.880 C 260.315 254.119, 262.467 256.908, 264.109 258.077 C 265.750 259.246, 268.779 260.429, 270.838 260.705 C 273.483 261.060, 274.962 260.750, 275.874 259.652 C 276.584 258.796, 276.895 257.243, 276.564 256.201 C 276.218 255.113, 274.336 253.818, 272.146 253.162 C 269.663 252.418, 267.918 251.115, 267.152 249.434 C 266.504 248.013, 266.244 246.414, 266.573 245.881 C 266.903 245.348, 266.448 243.807, 265.563 242.456 C 264.571 240.942, 263.004 240, 261.477 240 C 260.115 240, 258.100 239.100, 257 238 C 255.900 236.900, 255 235.057, 255 233.904 C 255 232.752, 255.778 230.491, 256.730 228.880 C 258.046 226.652, 258.200 225.539, 257.373 224.226 C 256.775 223.277, 255.639 222.372, 254.849 222.216 C 254.058 222.060, 252.400 223.009, 251.164 224.325 M 98.885 233.380 C 96.897 234.090, 93.944 235.616, 92.323 236.770 C 90.702 237.924, 87.560 240.839, 85.340 243.247 C 83.120 245.656, 80.105 249.670, 78.641 252.169 C 77.177 254.667, 74.927 259.814, 73.641 263.606 C 72.355 267.398, 70.506 274.526, 69.533 279.446 C 68.336 285.502, 67.967 290.374, 68.392 294.526 C 68.738 297.900, 69.698 303.324, 70.525 306.580 C 71.353 309.836, 73.570 315.655, 75.452 319.511 C 77.550 323.812, 81.067 328.734, 84.545 332.240 C 87.684 335.404, 92.667 339.116, 95.701 340.552 C 98.717 341.979, 104.406 343.835, 108.343 344.677 C 113.646 345.810, 118.738 346.059, 128 345.638 C 136.576 345.247, 143.577 344.271, 150.302 342.528 C 155.693 341.131, 161.768 339.141, 163.802 338.106 C 165.836 337.071, 170.794 335.246, 174.821 334.049 C 180.551 332.346, 182.453 332.131, 183.571 333.059 C 184.357 333.711, 185 335.035, 185 336 C 185 336.965, 184.438 338.206, 183.750 338.757 C 183.063 339.308, 179.800 340.524, 176.500 341.459 C 173.200 342.394, 167.638 344.748, 164.139 346.690 C 160.640 348.633, 156.090 351.910, 154.026 353.974 C 151.653 356.347, 150.017 359.093, 149.576 361.447 C 149.192 363.493, 149.166 366.480, 149.518 368.084 L 150.159 371 186.153 371 C 219.889 371, 222.126 370.890, 221.823 369.250 C 221.645 368.288, 219.925 366.735, 218 365.801 C 216.075 364.866, 211.575 363.632, 208 363.058 C 204.425 362.485, 198.737 362.012, 195.361 362.008 C 190.775 362.002, 188.624 361.510, 186.861 360.063 C 184.957 358.500, 184.711 357.781, 185.589 356.344 C 186.188 355.364, 190.495 353.081, 195.160 351.271 C 200.078 349.362, 204.988 346.663, 206.846 344.846 L 210.051 341.713 203.275 337.200 C 199.549 334.718, 193.326 329.482, 189.448 325.564 C 185.569 321.647, 180.683 315.669, 178.592 312.279 C 174.792 306.124, 174.782 306.117, 169.144 305.486 C 166.040 305.139, 162.907 304.665, 162.183 304.433 C 161.402 304.183, 160.995 302.890, 161.183 301.256 C 161.468 298.779, 161.938 298.468, 165.833 298.188 C 168.725 297.981, 169.992 297.481, 169.642 296.688 C 169.354 296.035, 167.795 292.125, 166.177 288 C 164.560 283.875, 162.652 278.025, 161.936 275 C 161.221 271.975, 160.354 269.160, 160.011 268.744 C 159.668 268.328, 156.488 272.822, 152.944 278.731 C 149.400 284.640, 143.028 293.809, 138.784 299.107 C 133.758 305.381, 129.763 309.359, 127.324 310.516 C 125.265 311.494, 121.758 312.498, 119.530 312.750 C 117.302 313.001, 113.518 312.678, 111.122 312.033 C 108.206 311.248, 105.222 309.311, 102.104 306.180 C 98.879 302.941, 96.894 299.806, 95.660 296 C 94.678 292.975, 93.617 287.505, 93.301 283.845 C 92.985 280.185, 93.302 273.435, 94.007 268.845 C 94.712 264.255, 96.600 256.495, 98.203 251.601 C 99.806 246.707, 102.216 240.534, 103.559 237.884 C 104.901 235.235, 106 232.827, 106 232.533 C 106 232.240, 105.213 232.020, 104.250 232.044 C 103.287 232.068, 100.873 232.669, 98.885 233.380 M 303.759 251.668 C 303.506 252.126, 302.778 255.200, 302.143 258.500 C 301.507 261.800, 300.082 269.900, 298.976 276.500 C 297.870 283.100, 296.707 289.674, 296.393 291.109 C 295.967 293.051, 296.291 293.904, 297.660 294.448 C 298.672 294.850, 302.908 295.423, 307.073 295.720 C 312.893 296.136, 315.449 295.881, 318.112 294.617 C 320.018 293.713, 323.261 291.585, 325.318 289.890 C 327.375 288.194, 329.921 285.115, 330.975 283.049 C 332.030 280.982, 333.519 275.664, 334.284 271.231 L 335.676 263.170 328.888 262.489 C 324.611 262.059, 319.769 260.708, 315.800 258.837 C 312.335 257.203, 308.312 254.735, 306.860 253.351 C 305.408 251.968, 304.012 251.210, 303.759 251.668 M 144.989 299.250 C 143.805 301.192, 143.006 304.280, 143.004 306.921 C 143.001 309.642, 142.358 312.052, 141.331 313.187 C 140.372 314.246, 139.469 317.356, 139.209 320.493 C 138.778 325.685, 138.934 326.134, 142.341 329.541 C 145.389 332.589, 146.491 333.078, 149.713 332.813 C 152.966 332.544, 153.543 332.128, 153.806 329.859 C 154.060 327.664, 153.469 326.904, 150.306 325.359 C 148.213 324.337, 146.345 322.665, 146.156 321.644 C 145.967 320.623, 146.280 319.320, 146.851 318.749 C 147.568 318.032, 148.832 318.102, 150.944 318.977 C 152.625 319.673, 154.016 320.976, 154.035 321.871 C 154.055 322.767, 154.648 324.540, 155.353 325.810 C 156.058 327.081, 157.955 328.990, 159.567 330.054 C 161.180 331.117, 164.139 331.990, 166.143 331.993 C 168.538 331.998, 169.993 331.461, 170.389 330.428 C 170.721 329.563, 170.529 327.988, 169.961 326.928 C 169.394 325.867, 168.131 325, 167.156 325 C 166.180 325, 164.548 324.390, 163.527 323.644 C 162.448 322.854, 161.428 320.488, 161.086 317.982 C 160.541 313.976, 160.222 313.599, 156.500 312.557 C 153.744 311.785, 152.091 310.584, 151.184 308.694 C 150.019 306.266, 150.116 305.548, 152.033 302.447 C 153.775 299.627, 153.960 298.656, 152.977 297.472 C 152.305 296.662, 150.679 296, 149.363 296 C 147.737 296, 146.336 297.041, 144.989 299.250" stroke="none" fill="#ffc107" fill-rule="evenodd"/></svg>