<svg xmlns="http://www.w3.org/2000/svg" width="446" height="446" viewBox="0 0 446 446" version="1.1"><path d="" stroke="none" fill="#0d6efd" fill-rule="evenodd"/><path d="M 66.327 83.696 C 65.132 83.928, 63.005 85.268, 61.601 86.672 C 60.197 88.075, 58.769 90.714, 58.428 92.534 C 58.086 94.354, 58.110 97.223, 58.480 98.910 C 58.851 100.596, 60.305 102.881, 61.712 103.988 C 63.412 105.326, 65.817 106.012, 68.885 106.036 C 71.423 106.055, 75.975 106.680, 79 107.425 C 82.025 108.169, 85.765 109.277, 87.310 109.887 C 88.856 110.497, 89.842 111.447, 89.501 111.998 C 89.161 112.549, 87.961 113, 86.836 113 C 85.711 113, 82.475 114.155, 79.645 115.566 C 76.815 116.977, 72.552 120.015, 70.170 122.316 C 67.789 124.617, 64.690 128.444, 63.284 130.821 C 61.656 133.571, 60.727 136.636, 60.727 139.254 C 60.727 142.606, 61.311 143.888, 63.879 146.184 C 66.082 148.151, 68.101 149, 70.582 149 C 72.534 149, 75.002 148.534, 76.066 147.965 C 77.829 147.021, 78 147.285, 78 150.950 C 78 153.622, 76.826 157.185, 74.500 161.569 C 72.508 165.323, 71 169.611, 71 171.518 C 71 173.361, 71.413 175.955, 71.917 177.282 C 72.421 178.608, 74.506 180.487, 76.549 181.456 C 78.992 182.615, 81.466 183.024, 83.775 182.649 C 85.707 182.336, 88.420 181.049, 89.805 179.790 C 91.189 178.530, 91.944 178.175, 91.482 179 C 91.020 179.825, 89.628 181.852, 88.389 183.504 C 87.151 185.157, 85.664 187.754, 85.085 189.276 C 84.276 191.404, 84.404 192.970, 85.641 196.060 C 86.604 198.468, 88.380 200.662, 90.074 201.538 C 91.629 202.342, 93.845 203, 95 203 C 96.155 203, 98.373 202.341, 99.931 201.536 C 101.488 200.731, 103.828 198.766, 105.131 197.170 C 106.434 195.574, 107.960 193.482, 108.523 192.521 C 109.451 190.935, 109.868 191.075, 113.023 194.034 C 114.935 195.828, 117.948 197.904, 119.718 198.647 C 121.488 199.391, 124.673 200, 126.796 200 C 129.422 200, 132.122 199.030, 135.234 196.968 C 137.752 195.301, 140.592 192.745, 141.546 191.290 L 143.280 188.643 144.810 192.572 C 145.652 194.732, 147.580 198.332, 149.095 200.571 C 150.611 202.811, 153.828 205.692, 156.246 206.975 C 159.262 208.575, 161.459 209.102, 163.244 208.654 C 164.675 208.294, 167.232 206.834, 168.926 205.409 C 171.021 203.646, 172.205 201.568, 172.631 198.909 C 173.029 196.417, 173.789 195, 174.728 195 C 175.538 195, 177.730 193.470, 179.600 191.600 C 182.464 188.736, 183 187.488, 183 183.677 C 183 180.073, 182.309 178.248, 179.602 174.702 C 177.733 172.254, 175.708 169.324, 175.102 168.191 C 174.496 167.058, 174 165.851, 174 165.509 C 174 165.167, 175 165.587, 176.223 166.443 C 177.445 167.299, 180.225 168, 182.402 168 C 184.578 168, 187.764 167.491, 189.484 166.870 C 192.324 165.843, 193.424 166.154, 201.555 170.291 C 206.475 172.795, 215.225 176.842, 221 179.285 C 226.775 181.728, 232.500 184.040, 233.722 184.422 C 234.944 184.804, 237.475 186.905, 239.345 189.090 C 241.216 191.276, 243.526 195.542, 244.478 198.570 C 245.914 203.135, 246.001 204.583, 244.987 207.031 C 244.314 208.655, 243.789 211.772, 243.819 213.958 C 243.849 216.143, 244.633 219.531, 245.560 221.485 C 246.488 223.440, 248.560 225.974, 250.165 227.117 C 251.770 228.260, 254.302 229.519, 255.791 229.916 C 257.434 230.353, 259.652 232.380, 261.427 235.068 C 263.037 237.506, 267.947 243.042, 272.339 247.372 L 280.323 255.244 273.412 254.837 C 268.715 254.561, 264.948 253.649, 261.657 251.992 C 258.994 250.650, 255.562 248.126, 254.030 246.382 C 252.499 244.637, 250.457 241.025, 249.493 238.355 C 248.528 235.685, 246.451 230.644, 244.877 227.153 C 243.302 223.662, 240.583 218.937, 238.834 216.653 C 237.085 214.369, 233.369 210.307, 230.577 207.626 C 227.785 204.945, 221.675 200.177, 217 197.030 C 212.325 193.883, 204.752 188.989, 200.171 186.154 C 195.590 183.319, 191.443 181, 190.956 181 C 190.469 181, 189.600 181.878, 189.026 182.952 C 188.264 184.376, 188.322 185.204, 189.241 186.014 C 189.933 186.624, 197.700 191.795, 206.500 197.504 C 215.300 203.213, 222.500 208.362, 222.500 208.946 C 222.500 209.531, 220.331 212.218, 217.680 214.917 C 215.030 217.617, 209.855 221.384, 206.180 223.290 C 202.506 225.195, 197.025 227.545, 194 228.513 C 190.975 229.481, 183.950 232.438, 178.388 235.084 C 172.826 237.730, 164.051 242.728, 158.888 246.190 C 153.725 249.653, 145.164 256.764, 139.865 261.993 C 134.566 267.222, 128.105 274.804, 125.507 278.842 C 122.909 282.880, 119.087 289.855, 117.013 294.342 C 114.938 298.829, 112.948 303.850, 112.589 305.500 C 112.230 307.150, 111.839 309.113, 111.719 309.862 C 111.598 310.610, 112.217 311.689, 113.093 312.258 C 114.288 313.034, 115.412 312.761, 117.593 311.166 C 119.192 309.997, 123.537 307.946, 127.250 306.609 C 130.963 305.272, 134 304.349, 134 304.558 C 134 304.767, 132.032 307.989, 129.628 311.719 C 127.223 315.448, 123.908 321.200, 122.262 324.500 C 120.615 327.800, 118.329 333.200, 117.182 336.500 C 116.035 339.800, 114.226 345.875, 113.162 350 C 112.097 354.125, 110.930 359.904, 110.567 362.841 C 110.132 366.360, 110.306 368.664, 111.076 369.591 C 111.719 370.366, 112.623 371, 113.085 371 C 113.547 371, 115.828 368.187, 118.153 364.750 C 120.478 361.313, 124.882 355.861, 127.940 352.635 C 130.998 349.409, 135.448 345.426, 137.828 343.783 C 140.209 342.140, 144.825 339.712, 148.088 338.386 C 151.350 337.061, 160.877 334.614, 169.259 332.950 C 177.642 331.285, 187.147 329.237, 190.383 328.400 C 193.619 327.562, 198.456 325.820, 201.133 324.528 C 203.810 323.237, 205.996 322.477, 205.990 322.840 C 205.985 323.203, 204.522 325.330, 202.740 327.567 C 200.958 329.803, 197.925 332.982, 196 334.630 C 194.075 336.279, 191.037 338.642, 189.250 339.882 C 187.463 341.122, 186 342.957, 186 343.961 C 186 344.965, 186.712 346.059, 187.582 346.393 C 188.452 346.727, 194.189 347, 200.332 347 C 206.475 347, 214.426 346.387, 218 345.638 C 221.575 344.888, 228.533 342.884, 233.463 341.184 C 238.392 339.483, 242.628 338.295, 242.876 338.543 C 243.124 338.791, 242.803 343.832, 242.162 349.747 C 241.521 355.661, 240.998 362.082, 240.999 364.015 C 241 367.375, 240.703 367.669, 234.250 370.696 C 230.537 372.437, 224.350 375.949, 220.500 378.499 C 216.650 381.050, 212.262 384.463, 210.750 386.084 C 209.237 387.705, 208 389.909, 208 390.981 C 208 392.053, 208.787 393.342, 209.750 393.846 C 210.713 394.350, 214.673 395.321, 218.550 396.005 C 222.958 396.783, 230.454 397.066, 238.550 396.761 C 248.119 396.401, 253.327 395.692, 258.500 394.047 C 262.350 392.822, 270.815 389.172, 277.310 385.935 C 283.806 382.697, 293.031 378.708, 297.810 377.068 C 302.590 375.429, 311.675 372.780, 318 371.180 C 324.325 369.581, 332.200 367.750, 335.500 367.112 C 338.800 366.473, 345.100 365.361, 349.500 364.640 C 353.900 363.920, 357.580 363.593, 357.677 363.915 C 357.775 364.237, 358.575 367.088, 359.455 370.250 C 360.484 373.946, 361.586 376, 362.539 376 C 363.354 376, 366.060 375.042, 368.552 373.870 C 371.177 372.637, 373.696 370.554, 374.541 368.920 C 375.344 367.369, 376 365.096, 376 363.871 C 376 362.645, 375.444 360.103, 374.764 358.223 C 373.590 354.978, 373.679 354.677, 376.514 352.311 C 378.156 350.941, 381.188 348.349, 383.250 346.553 C 386.493 343.727, 387 342.706, 387 338.995 C 387 335.801, 385.854 332.601, 382.521 326.487 C 378.742 319.552, 377.801 316.662, 376.494 307.963 C 375.643 302.294, 374.285 294.246, 373.476 290.078 C 372.668 285.910, 371.503 280.025, 370.888 277 C 370.273 273.975, 369.300 269.925, 368.725 268 C 368.150 266.075, 366.964 263.334, 366.090 261.908 C 365.215 260.482, 363.153 257.369, 361.506 254.989 C 359.432 251.993, 358.900 250.533, 359.777 250.241 C 360.473 250.009, 361.708 248.532, 362.521 246.959 C 363.334 245.386, 363.998 243.064, 363.996 241.800 C 363.994 240.535, 363.137 238.098, 362.092 236.384 C 361.047 234.670, 358.374 231.970, 356.151 230.384 C 353.209 228.284, 351.396 225.825, 349.480 221.336 C 348.032 217.946, 346.001 214.406, 344.965 213.468 C 343.814 212.427, 341.511 211.785, 339.046 211.819 C 336.828 211.849, 334.543 212.165, 333.969 212.519 C 333.395 212.874, 331.529 211.799, 329.823 210.131 C 328.116 208.462, 325.459 206.821, 323.919 206.482 C 322.378 206.144, 320.220 206.347, 319.124 206.933 C 318.028 207.520, 315.189 207.997, 312.816 207.994 C 310.442 207.991, 306.904 207.546, 304.954 207.004 C 303.003 206.462, 300.672 205.452, 299.772 204.759 C 298.872 204.067, 297.850 201.475, 297.501 199 C 296.911 194.816, 297.124 194.220, 300.532 190.516 C 302.548 188.325, 305.012 184.936, 306.008 182.985 C 307.003 181.033, 308.309 176.781, 308.909 173.535 C 309.509 170.289, 310.001 166.253, 310.003 164.566 C 310.005 162.047, 310.674 161.143, 313.753 159.500 C 316.288 158.147, 318.318 155.907, 320.029 152.574 C 321.420 149.864, 323.062 147.479, 323.677 147.274 C 324.293 147.069, 325.594 148.988, 326.568 151.539 C 327.542 154.089, 329.384 156.861, 330.662 157.698 C 332.048 158.606, 333.969 158.974, 335.423 158.609 C 336.763 158.272, 338.567 157.291, 339.430 156.427 C 340.294 155.564, 341.036 153.652, 341.081 152.179 C 341.156 149.695, 341.296 149.788, 343.005 153.458 C 344.018 155.634, 345.643 157.997, 346.615 158.708 C 347.587 159.418, 349.546 160, 350.969 160 C 352.391 160, 354.555 159.299, 355.777 158.443 C 357.395 157.311, 358 155.877, 358 153.179 C 358 151.140, 357.149 147.144, 356.109 144.298 C 355.069 141.452, 352.738 136.509, 350.930 133.312 C 349.121 130.115, 344.631 124.517, 340.952 120.872 C 337.272 117.227, 331.347 112.614, 327.785 110.622 C 324.222 108.630, 320.093 107, 318.608 107 C 317.076 107, 314.848 108.061, 313.455 109.455 C 311.970 110.939, 311 113.062, 311 114.827 C 311 116.433, 311.928 119.844, 313.063 122.409 C 314.198 124.974, 314.985 128.155, 314.813 129.477 C 314.527 131.672, 313.801 131.204, 306.470 124.112 C 302.054 119.839, 296.313 115.096, 293.712 113.571 C 291.038 112.004, 287.496 110.800, 285.562 110.800 C 283.265 110.800, 280.239 112.062, 276.360 114.637 C 273.180 116.747, 267.524 121.411, 263.789 125 L 257 131.525 257 128.223 C 257 126.406, 257.900 123.156, 259 121 C 260.100 118.844, 261 116.127, 261 114.963 C 261 113.799, 259.629 111.475, 257.954 109.800 C 255.454 107.300, 254.327 106.847, 251.676 107.278 C 249.899 107.566, 245.757 109.382, 242.472 111.313 C 239.188 113.245, 234.001 117.272, 230.946 120.263 C 227.892 123.254, 223.811 128.131, 221.878 131.101 C 219.944 134.070, 217.374 138.939, 216.166 141.921 C 214.958 144.902, 213.690 149.083, 213.350 151.213 C 212.841 154.397, 213.141 155.521, 215.040 157.542 C 216.532 159.131, 218.437 159.995, 220.424 159.985 C 222.116 159.976, 224.045 159.623, 224.711 159.200 C 225.377 158.776, 226.644 156.702, 227.527 154.591 L 229.131 150.751 230.815 154.115 C 231.754 155.989, 233.683 157.889, 235.173 158.405 C 237.175 159.099, 238.479 158.916, 240.371 157.677 C 241.760 156.766, 243.795 153.992, 244.892 151.511 C 245.990 149.030, 247.379 147, 247.979 147 C 248.580 147, 249.906 148.912, 250.926 151.250 C 251.946 153.588, 253.748 156.512, 254.929 157.750 C 256.111 158.988, 257.680 160, 258.417 160 C 259.153 160, 260.205 160.563, 260.755 161.250 C 261.305 161.938, 261.958 165.068, 262.206 168.207 L 262.657 173.915 258.373 173.328 C 256.017 173.005, 251.963 173.276, 249.365 173.930 C 246.767 174.584, 243.415 175.992, 241.916 177.060 C 240.418 178.127, 238.476 179, 237.603 179 C 236.729 179, 232.073 177.406, 227.257 175.459 C 222.441 173.511, 213.325 169.348, 207 166.209 L 195.500 160.500 195.178 156.553 C 195.001 154.382, 193.980 151.377, 192.910 149.874 C 191.840 148.371, 189.427 146.191, 187.549 145.030 C 184.980 143.442, 183.718 141.630, 182.454 137.710 C 181.530 134.844, 179.694 130.609, 178.373 128.298 C 177.053 125.987, 174.629 123.303, 172.986 122.333 C 171.344 121.363, 170 120.254, 170 119.870 C 170 119.485, 173.488 118.905, 177.750 118.581 C 182.012 118.257, 187.419 117.543, 189.764 116.996 C 192.110 116.448, 194.702 116, 195.525 116 C 196.348 116, 199.093 115.026, 201.625 113.836 C 204.209 112.621, 207.054 110.319, 208.111 108.586 C 209.146 106.889, 209.994 104.219, 209.996 102.654 C 209.998 101.089, 209.232 98.509, 208.294 96.920 C 207.356 95.332, 205.150 93.350, 203.393 92.516 C 201.636 91.682, 199.584 91, 198.834 91 C 198.084 91, 194.552 92.426, 190.985 94.169 C 186.563 96.330, 181.478 97.784, 175 98.738 C 169.775 99.507, 162.812 101.219, 159.527 102.542 L 153.555 104.947 150.752 102.263 C 148.464 100.071, 146.899 99.537, 142.225 99.356 C 139.076 99.233, 132.900 98.926, 128.500 98.673 C 123.003 98.357, 119.695 98.629, 117.927 99.541 C 116.512 100.271, 114.791 101.547, 114.102 102.377 C 113.023 103.677, 112.060 103.091, 107.160 98.161 C 103.642 94.621, 98.930 91.211, 94.815 89.226 C 91.154 87.461, 85.554 85.337, 82.370 84.508 C 79.185 83.679, 74.762 83.061, 72.540 83.136 C 70.318 83.211, 67.522 83.463, 66.327 83.696 M 191.200 100.490 C 186.391 102.990, 182.626 104.052, 175.290 104.975 C 170.005 105.641, 164.177 106.902, 162.340 107.778 C 160.401 108.702, 159 110.117, 159 111.150 C 159 112.129, 159.909 113.416, 161.021 114.011 C 162.132 114.606, 163.408 114.866, 163.857 114.589 C 164.305 114.311, 170.815 113.373, 178.323 112.502 C 185.831 111.632, 193.870 110.251, 196.188 109.434 C 198.505 108.616, 201.211 107.214, 202.200 106.319 C 203.190 105.423, 204 103.660, 204 102.402 C 204 101.143, 203 99.413, 201.777 98.557 C 200.555 97.701, 199.093 97.048, 198.527 97.108 C 197.962 97.167, 194.665 98.689, 191.200 100.490 M 193.494 101.009 C 193.152 101.564, 193.164 102.940, 193.521 104.067 C 193.962 105.457, 194.868 106.017, 196.336 105.808 C 197.856 105.592, 198.594 104.682, 198.816 102.750 C 199.087 100.397, 198.771 100, 196.625 100 C 195.246 100, 193.837 100.454, 193.494 101.009 M 120.009 105.489 C 119.287 106.359, 118.366 110.767, 117.962 115.285 C 117.558 119.803, 117.427 123.838, 117.672 124.250 C 117.917 124.662, 119.195 125, 120.511 125 C 122.749 125, 122.924 124.593, 123.202 118.750 C 123.488 112.760, 123.614 112.487, 126.250 112.184 L 129 111.867 129 118.934 C 129 125.742, 129.088 126, 131.420 126 C 133.662 126, 133.892 125.518, 134.538 119.486 C 134.922 115.903, 135.637 112.724, 136.127 112.422 C 136.617 112.119, 137.953 112.168, 139.095 112.530 C 140.972 113.126, 141.140 113.831, 140.836 119.845 C 140.503 126.437, 140.526 126.503, 143.215 126.813 C 145.373 127.062, 146.028 126.652, 146.409 124.813 C 146.672 123.541, 147.080 119.211, 147.315 115.192 C 147.634 109.714, 147.380 107.523, 146.299 106.442 C 145.506 105.649, 144.642 105, 144.379 105 C 144.116 105, 142.640 105.652, 141.099 106.449 C 138.656 107.712, 138.035 107.713, 136.234 106.451 C 134.991 105.581, 132.246 105.088, 129.335 105.213 C 126.676 105.327, 123.785 105.080, 122.910 104.664 C 121.918 104.193, 120.828 104.503, 120.009 105.489 M 279.500 119.623 C 277.300 121.130, 272.852 124.869, 269.617 127.932 C 266.381 130.994, 261.993 135.678, 259.867 138.340 C 257.737 141.005, 256 144.285, 256 145.639 C 256 146.992, 256.687 149.427, 257.526 151.050 C 258.367 152.677, 259.867 154, 260.871 154 C 261.871 154, 263.547 153.048, 264.595 151.885 C 265.643 150.722, 269.906 146.926, 274.069 143.450 C 278.232 139.973, 282.803 136.837, 284.226 136.479 C 285.659 136.120, 287.859 136.381, 289.157 137.065 C 290.446 137.745, 295.643 141.833, 300.707 146.150 C 305.770 150.468, 310.532 154, 311.288 154 C 312.044 154, 313.147 152.988, 313.740 151.750 C 314.333 150.512, 315.080 148.687, 315.399 147.694 C 315.719 146.701, 315.354 144.451, 314.589 142.694 C 313.824 140.937, 310.499 136.552, 307.199 132.948 C 303.899 129.345, 298.722 124.486, 295.696 122.151 C 292.669 119.816, 288.687 117.676, 286.846 117.395 C 284.290 117.004, 282.556 117.531, 279.500 119.623 M 84.869 119.905 C 82.323 120.901, 78.578 122.983, 76.549 124.531 C 74.519 126.079, 71.540 129.261, 69.929 131.603 C 68.307 133.960, 67 137.183, 67 138.823 C 67 140.602, 67.632 142.029, 68.582 142.393 C 69.452 142.727, 70.788 143, 71.550 143 C 72.313 143, 76.439 139.463, 80.718 135.139 C 88.185 127.597, 88.768 127.226, 95.138 125.978 C 98.789 125.263, 102.802 123.904, 104.055 122.958 L 106.334 121.239 100.763 119.620 C 97.699 118.729, 93.911 118.021, 92.346 118.047 C 90.781 118.073, 87.416 118.909, 84.869 119.905 M 284.250 121.662 C 283.493 121.968, 283 124.064, 283 126.976 C 283 130.496, 283.436 131.953, 284.627 132.410 C 285.521 132.754, 286.871 132.522, 287.627 131.895 C 288.382 131.268, 289 129.100, 289 127.078 C 289 125.055, 288.460 122.860, 287.800 122.200 C 287.140 121.540, 286.353 121.036, 286.050 121.079 C 285.748 121.122, 284.938 121.385, 284.250 121.662 M 272.153 129.247 C 271.519 129.881, 271 131.349, 271 132.509 C 271 133.669, 271.574 135.403, 272.276 136.363 C 273.076 137.457, 274.196 137.862, 275.276 137.447 C 276.434 137.003, 277 135.684, 277 133.428 C 277 131.187, 276.386 129.742, 275.153 129.082 C 273.883 128.402, 272.947 128.453, 272.153 129.247 M 296.690 129.154 C 295.629 129.747, 295 131.344, 295 133.443 C 295 135.685, 295.568 137.004, 296.724 137.447 C 297.804 137.862, 298.924 137.457, 299.724 136.363 C 300.426 135.403, 301 133.402, 301 131.916 C 301 130.430, 300.410 128.988, 299.690 128.711 C 298.969 128.435, 297.619 128.634, 296.690 129.154 M 92.500 132.954 C 91.400 133.409, 89.543 134.843, 88.373 136.141 C 87.203 137.438, 85.782 140.075, 85.213 142 C 84.645 143.925, 83.937 148.480, 83.640 152.122 C 83.238 157.047, 82.318 160.069, 80.050 163.916 C 78.372 166.761, 77 170.402, 77 172.009 C 77 173.931, 77.702 175.305, 79.052 176.028 C 80.180 176.631, 82.086 176.985, 83.287 176.813 C 84.652 176.617, 86.350 174.901, 87.820 172.231 C 89.748 168.730, 90.228 166.188, 90.489 158.096 C 90.664 152.669, 91.290 147.326, 91.881 146.222 C 92.472 145.119, 94.350 143.042, 96.054 141.608 C 97.759 140.174, 99.794 139, 100.577 139 C 101.360 139, 102 138.295, 102 137.434 C 102 136.573, 101.534 134.998, 100.965 133.934 C 100.314 132.719, 98.921 132.024, 97.215 132.063 C 95.722 132.098, 93.600 132.499, 92.500 132.954 M 70.709 133.624 C 70.319 134.014, 70 135.128, 70 136.099 C 70 137.071, 70.945 138.165, 72.101 138.532 C 73.256 138.899, 74.648 138.752, 75.194 138.206 C 75.741 137.659, 76.028 136.377, 75.834 135.356 C 75.639 134.335, 74.566 133.369, 73.449 133.208 C 72.332 133.047, 71.099 133.235, 70.709 133.624 M 123.208 142.333 C 123.489 149.233, 123.593 149.500, 126 149.500 C 128.316 149.500, 128.522 149.107, 128.805 144.169 C 128.973 141.237, 128.621 138.248, 128.022 137.527 C 127.424 136.806, 126.030 135.980, 124.925 135.691 C 123.032 135.196, 122.933 135.579, 123.208 142.333 M 153.503 136.991 C 153.155 138.086, 153.209 139.549, 153.622 140.241 C 154.035 140.933, 155.583 143.075, 157.063 145 C 158.542 146.925, 160.230 149.949, 160.814 151.720 C 161.397 153.491, 162.146 159.341, 162.478 164.720 C 162.810 170.099, 163.315 176.410, 163.601 178.745 C 163.905 181.228, 165.171 184.238, 166.649 185.995 C 168.315 187.974, 170.103 189, 171.889 189 C 173.380 189, 175.140 188.460, 175.800 187.800 C 176.460 187.140, 177 185.193, 177 183.474 C 177 181.494, 176.146 179.546, 174.670 178.160 C 173.388 176.956, 171.334 173.957, 170.105 171.496 C 168.539 168.360, 167.628 164.098, 167.063 157.260 C 166.619 151.892, 165.721 146.150, 165.067 144.500 C 164.413 142.850, 162.467 140.037, 160.742 138.250 C 159.018 136.463, 156.826 135, 155.871 135 C 154.916 135, 153.850 135.896, 153.503 136.991 M 262.522 138.360 C 260.934 139.522, 260.789 140.272, 261.603 143.113 C 262.176 145.109, 263.324 146.631, 264.416 146.842 C 265.430 147.037, 266.633 146.594, 267.089 145.857 C 267.544 145.120, 267.655 143.388, 267.334 142.008 C 267.014 140.629, 266.225 138.933, 265.580 138.240 C 264.640 137.229, 264.037 137.253, 262.522 138.360 M 306.350 137.820 C 305.777 138.194, 305.014 139.702, 304.655 141.171 C 304.296 142.639, 304.275 144.552, 304.608 145.421 C 304.941 146.289, 306.039 147, 307.048 147 C 308.057 147, 309.081 146.662, 309.323 146.250 C 309.566 145.838, 310.072 144.069, 310.447 142.320 C 310.987 139.797, 310.742 138.932, 309.260 138.139 C 308.233 137.589, 306.923 137.446, 306.350 137.820 M 113.217 151.561 C 111.991 152.419, 110.316 154.422, 109.494 156.011 C 108.628 157.687, 108.005 161.547, 108.011 165.200 C 108.017 168.665, 108.702 173.750, 109.533 176.500 C 110.364 179.250, 112.496 183.638, 114.272 186.251 C 116.047 188.864, 119.022 191.726, 120.882 192.611 C 123.030 193.632, 125.544 194.011, 127.775 193.649 C 129.707 193.336, 132.395 192.049, 133.750 190.790 C 135.104 189.530, 137.456 186.700, 138.975 184.500 C 140.494 182.300, 142.247 178.115, 142.869 175.201 C 143.491 172.286, 144 167.040, 144 163.543 L 144 157.185 138.250 156.572 C 135.088 156.235, 130.568 155.974, 128.208 155.992 C 125.847 156.010, 122.922 155.498, 121.708 154.854 C 120.493 154.210, 118.912 152.854, 118.193 151.841 C 117.475 150.829, 116.562 150, 116.166 150 C 115.769 150, 114.442 150.702, 113.217 151.561 M 267 158.371 C 267 159.092, 267.505 163.466, 268.123 168.091 C 268.741 172.716, 270.141 178.415, 271.236 180.756 C 272.331 183.097, 274.625 186.189, 276.335 187.628 C 278.044 189.067, 280.931 190.953, 282.750 191.821 C 285.818 193.284, 286.290 193.265, 289.278 191.559 C 291.050 190.548, 293.948 188.360, 295.717 186.696 C 297.486 185.033, 299.800 181.829, 300.859 179.576 C 301.918 177.324, 303.117 171.927, 303.524 167.583 C 304.219 160.172, 304.151 159.728, 302.427 160.389 C 301.417 160.777, 298.727 161.350, 296.449 161.662 C 293.507 162.065, 291.014 161.657, 287.841 160.254 C 283.480 158.325, 283.321 158.322, 281.077 160.139 C 279.813 161.163, 277.766 162, 276.529 162 C 275.291 162, 272.641 160.889, 270.640 159.530 C 268.227 157.893, 267 157.502, 267 158.371 M 81.250 165.651 C 80.563 165.935, 80 166.974, 80 167.961 C 80 168.948, 80.675 170.315, 81.500 171 C 82.699 171.995, 83.311 171.987, 84.548 170.960 C 85.400 170.253, 85.962 168.740, 85.798 167.598 C 85.634 166.455, 84.825 165.434, 84 165.328 C 83.175 165.222, 81.938 165.367, 81.250 165.651 M 112.383 169.445 C 112.055 170.300, 112.055 171.700, 112.383 172.555 C 112.832 173.726, 114.157 174.035, 117.740 173.805 C 122.069 173.528, 122.500 173.274, 122.500 171 C 122.500 168.726, 122.069 168.472, 117.740 168.195 C 114.157 167.965, 112.832 168.274, 112.383 169.445 M 127.362 169.500 C 127.045 170.325, 127.045 171.675, 127.362 172.500 C 127.753 173.519, 129.350 174, 132.346 174 C 135.045 174, 137.238 173.418, 138 172.500 C 138.993 171.303, 138.993 170.697, 138 169.500 C 137.238 168.582, 135.045 168, 132.346 168 C 129.350 168, 127.753 168.481, 127.362 169.500 M 275.250 168.652 C 274.563 168.935, 274 170.204, 274 171.472 C 274 173.324, 274.703 173.909, 277.576 174.448 C 279.808 174.867, 281.687 174.675, 282.576 173.937 C 283.359 173.287, 283.993 172.473, 283.985 172.128 C 283.976 171.782, 283.639 170.994, 283.235 170.376 C 282.831 169.757, 281.150 169, 279.500 168.694 C 277.850 168.387, 275.938 168.368, 275.250 168.652 M 292.005 168.883 C 290.633 169.270, 289.353 170.403, 289.161 171.400 C 288.970 172.397, 289.246 173.646, 289.776 174.176 C 290.311 174.711, 292.378 174.832, 294.424 174.448 C 297.671 173.839, 298.073 173.445, 297.805 171.137 C 297.637 169.696, 296.825 168.441, 296 168.347 C 295.175 168.254, 293.377 168.495, 292.005 168.883 M 167.389 179.430 C 167.057 180.293, 167.057 181.707, 167.389 182.570 C 167.750 183.512, 168.893 184.012, 170.246 183.820 C 171.898 183.585, 172.500 182.833, 172.500 181 C 172.500 179.167, 171.898 178.415, 170.246 178.180 C 168.893 177.988, 167.750 178.488, 167.389 179.430 M 251.500 179.651 C 250.400 179.905, 248.263 180.591, 246.752 181.177 L 244.004 182.241 247.004 185.657 C 248.654 187.536, 251.135 191.307, 252.519 194.037 C 254.752 198.444, 255.396 199, 258.267 199.004 C 260.045 199.006, 262.897 199.859, 264.605 200.901 C 266.312 201.942, 268.719 204.428, 269.954 206.425 C 271.188 208.422, 272.449 211.926, 272.755 214.211 C 273.177 217.356, 274.344 219.397, 277.561 222.614 C 279.898 224.950, 283.645 227.799, 285.889 228.944 C 288.133 230.088, 291.663 231.374, 293.734 231.802 C 296.848 232.444, 297.555 233.048, 297.816 235.289 C 298.099 237.710, 297.809 238, 295.104 238 C 293.438 238, 289.585 237.068, 286.541 235.929 C 283.288 234.712, 278.810 231.851, 275.676 228.987 C 270.468 224.227, 270.307 224.160, 268.673 226.069 C 267.753 227.144, 267 228.460, 267 228.993 C 267 229.527, 270.488 233.476, 274.750 237.770 C 279.012 242.063, 285.094 247.029, 288.265 248.805 C 291.435 250.581, 295.935 252.668, 298.265 253.444 C 300.594 254.219, 305.341 255.401, 308.814 256.069 C 313.768 257.023, 316.998 257.024, 323.814 256.071 C 328.591 255.403, 334.408 254.347, 336.741 253.723 C 339.073 253.100, 342.155 251.654, 343.591 250.510 C 345.580 248.923, 346.200 247.526, 346.200 244.631 C 346.200 241.922, 345.355 239.780, 343.255 237.166 C 341.635 235.150, 339.727 231.889, 339.015 229.919 C 338.303 227.950, 337.219 225.653, 336.606 224.815 C 335.994 223.977, 334.529 222.985, 333.352 222.612 C 332.056 222.201, 330.675 222.466, 329.855 223.284 C 329.110 224.028, 326.328 226.293, 323.673 228.318 C 321.019 230.343, 318.029 232, 317.030 232 C 316.031 232, 314.913 231.216, 314.546 230.259 C 314.099 229.094, 314.643 227.896, 316.189 226.640 C 317.460 225.608, 319.606 223.890, 320.958 222.824 C 322.909 221.285, 323.198 220.535, 322.358 219.192 C 321.775 218.261, 319.933 217.363, 318.263 217.195 C 316.490 217.017, 313.830 217.743, 311.864 218.941 C 309.416 220.434, 306.787 220.994, 302.210 220.996 C 297.843 220.999, 294.696 220.375, 291.915 218.957 C 289.712 217.833, 286.082 215.262, 283.847 213.243 C 281.612 211.224, 277.938 206.856, 275.682 203.536 C 273.425 200.216, 270.143 194.198, 268.387 190.162 C 266.631 186.127, 264.363 182.245, 263.347 181.538 C 262.331 180.830, 259.700 180.012, 257.500 179.720 C 255.300 179.428, 252.600 179.397, 251.500 179.651 M 286.658 203.193 L 283.817 204.228 287.611 208.114 C 289.698 210.251, 291.652 212, 291.953 212.001 C 292.254 212.001, 292.344 209.751, 292.153 207.001 C 291.947 204.027, 291.339 202.032, 290.653 202.079 C 290.019 202.122, 288.221 202.624, 286.658 203.193 M 252.174 207.314 C 250.670 208.915, 250 210.895, 250 213.738 C 250 216.699, 250.723 218.706, 252.589 220.923 C 254.634 223.353, 255.967 224, 258.934 224 C 261.259 224, 263.275 223.333, 264.227 222.250 C 265.072 221.287, 266.075 219.477, 266.456 218.228 C 266.837 216.978, 266.862 214.648, 266.511 213.050 C 266.160 211.453, 264.715 208.988, 263.300 207.573 C 261.612 205.885, 259.631 205, 257.538 205 C 255.497 205, 253.566 205.833, 252.174 207.314 M 304.389 232.430 C 304.057 233.293, 304.057 234.707, 304.389 235.570 C 304.750 236.512, 305.893 237.012, 307.246 236.820 C 308.898 236.585, 309.500 235.833, 309.500 234 C 309.500 232.167, 308.898 231.415, 307.246 231.180 C 305.893 230.988, 304.750 231.488, 304.389 232.430 M 260.362 244.500 C 260.045 245.325, 260.057 246.705, 260.387 247.567 C 260.779 248.588, 261.946 249.023, 263.736 248.817 C 265.477 248.616, 266.614 247.811, 266.840 246.620 C 267.036 245.586, 266.590 244.355, 265.848 243.885 C 265.107 243.415, 263.698 243.024, 262.719 243.015 C 261.739 243.007, 260.678 243.675, 260.362 244.500 M 256.250 258.750 C 256.914 260.262, 259.034 264.200, 260.960 267.500 C 263.871 272.487, 264.721 275.350, 265.993 284.462 L 267.524 295.423 271.012 296.221 C 272.931 296.660, 276.975 297.482, 280 298.047 C 283.025 298.612, 290.501 299.473, 296.613 299.961 C 302.724 300.448, 309.587 300.597, 311.863 300.292 L 316 299.737 316.094 292.118 C 316.146 287.928, 316.483 280.337, 316.844 275.250 L 317.500 266 314.250 266 C 312.139 266, 311 266.488, 311 267.393 C 311 268.159, 310.222 269.085, 309.271 269.450 C 308.079 269.907, 306.757 269.201, 305.021 267.182 C 303.308 265.190, 300.233 263.529, 295.427 262.001 L 288.354 259.751 284.427 262.244 C 282.267 263.615, 278.718 266.377, 276.540 268.382 C 274.362 270.386, 272.144 271.881, 271.611 271.704 C 271.079 271.526, 270.172 270.634, 269.596 269.721 C 268.765 268.404, 269.226 267.362, 271.829 264.676 L 275.110 261.291 269.684 260.731 C 266.699 260.423, 262.315 259.233, 259.941 258.086 C 257.567 256.938, 255.494 256, 255.334 256 C 255.174 256, 255.586 257.238, 256.250 258.750 M 349.127 261.087 L 343.754 266.098 347.904 269.649 C 351.564 272.783, 351.983 273.572, 351.463 276.351 C 351.139 278.083, 351.338 282.378, 351.905 285.896 C 352.472 289.414, 354.465 295.489, 356.334 299.396 C 358.203 303.303, 361.148 311, 362.878 316.500 C 364.607 322, 366.520 328.300, 367.127 330.500 C 367.735 332.700, 368.579 335.625, 369.004 337 C 369.428 338.375, 370.298 341.425, 370.936 343.777 L 372.097 348.055 376.548 344.407 C 378.997 342.401, 381 339.934, 381 338.927 C 381 337.919, 380.446 335.835, 379.769 334.297 C 379.092 332.759, 377.311 329.530, 375.812 327.122 C 374.313 324.714, 372.620 320.439, 372.050 317.622 C 371.480 314.805, 370.301 308, 369.430 302.500 C 368.560 297, 366.932 288, 365.813 282.500 C 364.694 277, 363.539 271.375, 363.247 270 C 362.954 268.625, 360.914 264.913, 358.712 261.750 C 356.511 258.587, 354.663 256.017, 354.605 256.038 C 354.547 256.059, 352.082 258.331, 349.127 261.087 M 289.003 267.496 C 288.281 268.367, 287.647 271.131, 287.595 273.641 L 287.500 278.203 283.104 277.600 C 280.466 277.239, 278.174 277.441, 277.375 278.104 C 276.426 278.891, 276.325 279.739, 277.024 281.044 C 277.643 282.202, 279.663 283.127, 282.503 283.553 C 286.780 284.194, 287 284.387, 287 287.503 C 287 289.304, 287.848 291.826, 288.885 293.107 C 290.476 295.072, 291.015 295.232, 292.338 294.134 C 293.637 293.056, 293.871 290.575, 293.703 279.679 C 293.531 268.548, 293.255 266.479, 291.908 266.220 C 291.032 266.052, 289.725 266.626, 289.003 267.496 M 298 279.500 C 297.007 280.697, 297.007 281.303, 298 282.500 C 298.685 283.325, 300.119 284, 301.188 284 C 302.257 284, 304.002 283.534, 305.066 282.965 C 306.130 282.395, 307 281.045, 307 279.965 C 307 278.350, 306.310 278, 303.122 278 C 300.896 278, 298.715 278.639, 298 279.500 M 341.129 289.798 C 339.436 292.438, 335.567 297.050, 332.531 300.048 C 327.758 304.763, 327.011 306.017, 327.006 309.320 C 327.002 311.868, 327.942 314.531, 329.829 317.320 C 331.384 319.619, 333.475 323.525, 334.474 326 C 335.473 328.475, 337.013 333.945, 337.895 338.155 L 339.500 345.810 345.608 343.031 L 351.716 340.252 350.186 333.988 C 348.736 328.053, 348.754 327.653, 350.519 326.362 C 351.544 325.613, 353.871 325, 355.691 325 C 357.511 325, 359 324.629, 359 324.175 C 359 323.721, 357.918 320.168, 356.595 316.279 C 355.272 312.390, 352.508 305.674, 350.453 301.354 C 348.397 297.034, 346.496 291.587, 346.227 289.250 C 345.959 286.913, 345.395 285, 344.974 285 C 344.553 285, 342.823 287.159, 341.129 289.798 M 261.170 302.612 C 261.468 305.218, 262.184 305.730, 268.500 307.850 C 272.350 309.143, 279.550 310.822, 284.500 311.582 C 289.450 312.342, 297.438 312.972, 302.250 312.982 L 311 313 311 310.139 C 311 307.435, 310.713 307.244, 305.750 306.648 C 302.863 306.301, 298.250 306.006, 295.500 305.991 C 292.750 305.977, 286.675 305.332, 282 304.557 C 277.325 303.783, 271.439 302.681, 268.920 302.108 C 266.401 301.536, 263.553 300.766, 262.590 300.396 C 261.135 299.838, 260.896 300.211, 261.170 302.612 M 256.737 313.310 C 255.959 314.515, 254.576 317.525, 253.663 320 C 252.749 322.475, 251.363 327.650, 250.582 331.500 C 249.801 335.350, 248.876 342.775, 248.527 348 C 248.177 353.225, 247.683 358.509, 247.429 359.743 L 246.966 361.985 250.733 359.893 C 252.805 358.742, 255.963 356.697, 257.751 355.348 C 259.539 354, 261.701 351.545, 262.555 349.894 C 263.409 348.242, 264.739 341.804, 265.510 335.587 C 266.281 329.370, 267.529 322.492, 268.284 320.303 L 269.655 316.322 265.578 314.446 C 263.335 313.414, 260.747 312.243, 259.826 311.845 C 258.677 311.348, 257.707 311.807, 256.737 313.310 M 274.125 321.934 C 273.534 323.895, 272.619 327.975, 272.089 331 C 271.560 334.025, 270.836 341.992, 270.479 348.705 L 269.830 360.909 273.165 359.959 C 274.999 359.437, 278.275 357.766, 280.445 356.246 C 282.677 354.682, 285.469 351.386, 286.874 348.656 C 288.937 344.648, 289.432 342.014, 289.799 333.106 L 290.241 322.382 282.720 320.375 L 275.199 318.368 274.125 321.934 M 256.445 323.174 C 255.970 324.669, 256.292 325.740, 257.475 326.605 C 258.421 327.297, 259.791 327.634, 260.520 327.354 C 261.249 327.074, 262.113 326.148, 262.440 325.296 C 262.767 324.444, 262.522 323.129, 261.895 322.373 C 261.268 321.618, 259.941 321, 258.945 321 C 257.949 321, 256.824 321.978, 256.445 323.174 M 296 341.321 L 296 359.903 299.250 358.540 C 301.038 357.790, 304.239 355.717, 306.365 353.935 C 308.491 352.152, 310.853 349.202, 311.615 347.379 C 312.377 345.556, 313 342.600, 313 340.810 C 313 339.021, 312.037 334.506, 310.861 330.778 C 308.940 324.691, 308.455 323.999, 306.111 323.989 C 304.675 323.983, 301.813 323.699, 299.750 323.358 L 296 322.738 296 341.321 M 278.389 327.430 C 278.057 328.293, 278.057 329.707, 278.389 330.570 C 278.750 331.512, 279.893 332.012, 281.246 331.820 C 282.898 331.585, 283.500 330.833, 283.500 329 C 283.500 327.167, 282.898 326.415, 281.246 326.180 C 279.893 325.988, 278.750 326.488, 278.389 327.430 M 301.667 327.667 C 301.300 328.033, 301 329.383, 301 330.667 C 301 332.461, 301.553 333, 303.393 333 C 304.709 333, 306.045 332.325, 306.362 331.500 C 306.678 330.675, 306.678 329.325, 306.362 328.500 C 306.045 327.675, 305.009 327, 304.060 327 C 303.110 327, 302.033 327.300, 301.667 327.667 M 356 331.909 C 356 332.409, 358.025 340.750, 360.500 350.445 C 362.975 360.141, 365 368.267, 365 368.505 C 365 368.743, 365.688 368.673, 366.528 368.351 C 367.368 368.029, 368.519 366.898, 369.086 365.839 C 369.828 364.453, 369.694 362.455, 368.607 358.707 C 367.777 355.843, 366.361 350.800, 365.462 347.500 C 364.562 344.200, 363.392 339.718, 362.861 337.539 C 362.330 335.361, 361.414 332.999, 360.825 332.289 C 360.237 331.580, 358.910 331, 357.878 331 C 356.845 331, 356 331.409, 356 331.909 M 344.450 349.872 C 343.928 350.351, 338.775 352.561, 333 354.783 C 327.225 357.004, 318.675 359.972, 314 361.378 C 309.325 362.784, 301.559 364.846, 296.743 365.960 C 291.927 367.074, 281.352 368.449, 273.243 369.017 C 265.134 369.584, 255.800 370.562, 252.500 371.190 C 249.200 371.818, 242.900 373.834, 238.500 375.670 C 234.100 377.507, 227.425 381.106, 223.666 383.668 C 217.699 387.736, 217.064 388.456, 218.659 389.349 C 219.663 389.911, 225.340 390.570, 231.274 390.815 C 237.726 391.081, 244.565 390.761, 248.282 390.020 C 251.702 389.338, 257.200 387.865, 260.500 386.747 C 263.800 385.628, 270.775 382.557, 276 379.920 C 281.225 377.284, 290.835 373.299, 297.356 371.065 C 303.877 368.831, 312.877 366.128, 317.356 365.058 C 321.835 363.988, 328.565 362.413, 332.312 361.556 C 336.059 360.700, 340.109 359.993, 341.312 359.985 C 342.515 359.976, 344.059 359.614, 344.742 359.180 C 345.426 358.747, 346.274 356.278, 346.628 353.696 C 346.999 350.988, 346.876 349, 346.336 349 C 345.821 349, 344.972 349.392, 344.450 349.872" stroke="none" fill="#0d6efd" fill-rule="evenodd"/></svg>