<svg xmlns="http://www.w3.org/2000/svg" width="447" height="447" viewBox="0 0 447 447" version="1.1"><path d="" stroke="none" fill="#ffc107" fill-rule="evenodd"/><path d="M 240.258 69.120 C 239.953 70.287, 238.533 73.526, 237.102 76.319 C 235.671 79.112, 233.228 82.321, 231.672 83.449 C 229.166 85.267, 227.646 85.464, 218.292 85.182 C 212.479 85.006, 205.440 85.393, 202.619 86.044 C 199.804 86.693, 195.584 88.320, 193.243 89.659 C 190.901 90.997, 188.262 93.197, 187.378 94.546 C 186.493 95.896, 184.830 97, 183.682 97 C 182.533 97, 177.297 98.298, 172.047 99.884 C 166.634 101.520, 156.715 103.438, 149.139 104.314 C 138.066 105.595, 135.379 106.235, 133.445 108.051 C 132.162 109.257, 130.444 111.652, 129.627 113.374 C 128.809 115.096, 126.746 118.431, 125.042 120.783 C 123.338 123.136, 119.455 126.653, 116.414 128.598 C 113.373 130.543, 110.611 132.850, 110.275 133.725 C 109.889 134.733, 110.663 136.173, 112.388 137.658 C 114.184 139.202, 116.373 140, 118.815 140 C 122.330 140, 122.519 140.167, 122.510 143.250 C 122.501 146.175, 122.819 146.531, 125.686 146.809 C 127.439 146.978, 130.139 146.461, 131.686 145.660 C 133.234 144.858, 136.018 142.749, 137.874 140.974 C 141.016 137.968, 141.608 137.783, 146.487 138.286 C 149.368 138.584, 154.150 140.073, 157.113 141.597 C 160.076 143.120, 165.200 144.853, 168.500 145.449 C 174.460 146.524, 174.518 146.568, 177.218 152.016 C 179.293 156.202, 179.943 158.999, 179.968 163.835 L 180 170.170 175.475 166.187 C 172.987 163.997, 169.315 161.428, 167.315 160.479 C 164.594 159.188, 162.022 158.873, 157.090 159.226 C 152.468 159.557, 148.554 160.636, 143.984 162.840 C 140.400 164.569, 135.921 167.044, 134.030 168.339 L 130.591 170.695 123.870 166.347 C 120.173 163.956, 114.886 161.477, 112.122 160.839 C 107.326 159.732, 106.784 159.831, 100.298 163.002 C 94.932 165.626, 91.165 168.702, 82.415 177.603 C 75.029 185.115, 70.357 189.089, 68.415 189.509 C 66.812 189.855, 64.487 190.548, 63.250 191.048 C 62.013 191.548, 61 192.767, 61 193.756 C 61 194.745, 61.728 196.594, 62.617 197.863 C 63.506 199.133, 65.537 200.964, 67.131 201.933 C 70.024 203.693, 70.025 203.698, 68.136 206.100 C 67.095 207.423, 64.790 211.278, 63.014 214.668 C 60.667 219.144, 59.637 222.653, 59.249 227.491 C 58.778 233.354, 58.372 234.404, 55.857 236.264 C 54.286 237.426, 53 239.214, 53 240.239 C 53 241.420, 54.270 242.633, 56.468 243.551 C 58.375 244.348, 61.277 245, 62.916 245 C 65.756 245, 65.849 245.133, 64.905 247.843 C 64.360 249.406, 64.046 254.469, 64.207 259.093 L 64.500 267.500 68.500 267.500 L 72.500 267.500 72.613 273.582 C 72.697 278.116, 73.435 281.043, 75.511 285.082 C 77.043 288.062, 79.142 292.190, 80.175 294.256 C 81.207 296.322, 82.329 299.472, 82.667 301.256 C 83.005 303.040, 83.684 305.288, 84.176 306.250 C 84.668 307.213, 86.141 308, 87.450 308 C 88.796 308, 91.054 306.704, 92.645 305.018 L 95.460 302.035 99.480 305.841 C 101.691 307.934, 104.631 310.341, 106.013 311.191 C 107.663 312.205, 109.621 315.445, 111.710 320.618 C 113.460 324.953, 115.367 331.736, 115.946 335.692 C 116.526 339.647, 117 346.681, 117 351.323 L 117 359.763 113.491 362.439 C 111.561 363.911, 109.062 366.918, 107.939 369.120 C 106.532 371.878, 105.990 374.585, 106.198 377.813 L 106.500 382.500 116.549 382.783 C 123.645 382.982, 127.625 382.637, 130.088 381.608 C 132.007 380.806, 134.851 378.878, 136.406 377.325 C 137.962 375.771, 139.712 373.375, 140.295 372 C 140.878 370.625, 141.676 365, 142.068 359.500 C 142.486 353.646, 143.691 346.805, 144.975 343 C 146.181 339.425, 148.527 334.363, 150.188 331.751 C 152.181 328.616, 154.617 326.333, 157.354 325.034 C 159.634 323.951, 162.715 322.080, 164.199 320.875 L 166.899 318.685 170.528 321.454 C 172.524 322.976, 177.835 327.995, 182.329 332.607 C 186.823 337.219, 191.255 340.994, 192.177 340.996 C 193.100 340.998, 194.794 339.806, 195.941 338.347 C 197.089 336.888, 198.186 335.876, 198.379 336.097 C 198.571 336.319, 199.256 337.512, 199.900 338.750 C 200.544 339.988, 201.943 341, 203.010 341 C 204.115 341, 205.558 339.817, 206.366 338.250 C 207.145 336.738, 208.519 333.025, 209.419 330 C 210.319 326.975, 211.943 320.266, 213.028 315.091 C 214.113 309.916, 215 304.628, 215 303.341 C 215 301.667, 215.570 301, 217 301 C 218.236 301, 219.002 301.669, 219.006 302.750 C 219.009 303.712, 219.493 306.235, 220.081 308.355 C 220.670 310.475, 222.980 314.193, 225.214 316.616 C 227.448 319.040, 230.451 321.580, 231.888 322.262 C 233.328 322.945, 235.515 325.543, 236.762 328.054 C 238.006 330.559, 239.553 335.133, 240.200 338.218 C 241.146 342.728, 241.110 344.637, 240.015 347.954 C 239.239 350.307, 237.072 353.460, 234.973 355.290 C 232.949 357.056, 229.605 359.795, 227.541 361.377 C 225.477 362.959, 222.946 366.109, 221.916 368.377 C 220.886 370.645, 220.034 374.589, 220.022 377.143 C 220.006 380.469, 220.449 381.958, 221.582 382.393 C 222.452 382.727, 225.760 383, 228.933 383 C 232.106 383, 236.231 382.478, 238.101 381.840 C 239.970 381.202, 242.553 379.868, 243.840 378.875 C 245.128 377.882, 247.539 375.019, 249.200 372.513 C 250.860 370.006, 254.223 366.313, 256.673 364.305 C 259.123 362.297, 261.773 359.405, 262.564 357.877 C 263.354 356.349, 264 354.251, 264 353.215 C 264 352.178, 264.944 348.443, 266.098 344.915 C 267.251 341.387, 268.628 337.972, 269.157 337.326 C 269.888 336.434, 270.937 336.494, 273.527 337.576 C 275.448 338.378, 280.209 339, 284.433 339 C 290.563 339, 292.094 338.681, 292.830 337.250 C 293.325 336.288, 293.514 334.825, 293.250 334 C 292.973 333.133, 293.438 333.344, 294.353 334.500 C 295.580 336.049, 295.944 339.031, 295.968 347.727 C 296 358.908, 295.989 358.961, 293.250 360.662 C 291.738 361.601, 289.444 363.299, 288.153 364.435 C 286.862 365.571, 284.949 368.170, 283.903 370.210 C 282.856 372.251, 282 375.690, 282 377.853 C 282 380.517, 282.510 381.982, 283.582 382.393 C 284.452 382.727, 287.811 383, 291.047 383 C 294.283 383, 299.083 382.280, 301.715 381.399 C 304.347 380.519, 307.568 378.831, 308.873 377.649 C 310.178 376.467, 313.103 373.094, 315.373 370.153 C 317.643 367.213, 320.774 362.938, 322.331 360.653 C 324.965 356.788, 325.107 356.083, 324.385 350.500 C 323.958 347.200, 323.562 337.525, 323.505 329 C 323.418 316.168, 323.106 313.054, 321.689 310.909 C 320.748 309.483, 317.477 306.595, 314.421 304.490 C 311.365 302.385, 307.524 298.715, 305.885 296.333 L 302.906 292.003 306.823 284.752 C 308.978 280.763, 311.449 275.250, 312.315 272.500 C 313.181 269.750, 314.205 264.800, 314.590 261.500 C 315.223 256.078, 315.801 254.935, 320.597 249.632 C 323.516 246.405, 327.273 240.927, 328.946 237.458 C 330.619 233.989, 332.659 228.304, 333.479 224.825 C 334.299 221.346, 334.977 215.710, 334.985 212.299 C 334.993 208.889, 334.520 203.714, 333.934 200.799 C 333.348 197.885, 332.121 193.250, 331.207 190.500 C 330.294 187.750, 328.028 182.575, 326.172 179 C 324.316 175.425, 321.851 170.700, 320.696 168.500 C 319.057 165.380, 318.602 162.739, 318.629 156.500 C 318.654 150.616, 319.211 147.282, 320.733 143.897 C 321.871 141.365, 324.259 137.636, 326.039 135.609 C 327.818 133.582, 331.252 130.765, 333.668 129.348 C 336.085 127.932, 339.961 126.343, 342.281 125.818 C 344.602 125.292, 349.539 125.164, 353.253 125.533 C 358.735 126.077, 360.571 126.731, 363.003 129.003 C 365.085 130.948, 366 132.748, 366 134.901 L 366 138 359.136 138 C 355.362 138, 349.849 138.449, 346.886 138.998 C 343.924 139.547, 339.026 141.249, 336.002 142.779 C 331.899 144.856, 329.906 146.647, 328.147 149.836 C 326.244 153.286, 325.916 154.953, 326.445 158.482 C 326.806 160.886, 328.096 164.330, 329.312 166.135 C 330.528 167.939, 333.511 170.932, 335.942 172.786 C 339.163 175.243, 340.878 177.557, 342.272 181.328 C 343.323 184.173, 344.499 188.975, 344.884 192 C 345.270 195.025, 346.088 198.400, 346.701 199.500 C 347.314 200.600, 348.969 202.579, 350.379 203.897 C 352.507 205.887, 353.201 206.078, 354.471 205.024 C 355.312 204.326, 356 202.933, 356 201.927 C 356 200.922, 355.391 199.740, 354.646 199.300 C 353.901 198.860, 352.724 197.419, 352.030 196.098 C 350.880 193.911, 350.934 193.770, 352.634 194.518 C 353.660 194.970, 356.447 195.537, 358.827 195.777 C 363.069 196.205, 363.147 196.159, 362.827 193.392 C 362.569 191.163, 361.866 190.443, 359.479 189.959 C 357.818 189.622, 355.315 188.597, 353.918 187.682 C 352.521 186.767, 350.393 184.265, 349.189 182.123 C 347.825 179.696, 347 176.506, 347 173.661 C 347 171.149, 347.507 167.981, 348.127 166.620 C 349.027 164.646, 349.683 164.306, 351.377 164.937 C 352.545 165.372, 355.535 166.026, 358.022 166.391 C 361.282 166.869, 363.096 166.644, 364.522 165.586 C 366.106 164.410, 366.280 163.757, 365.397 162.309 C 364.680 161.134, 362.577 160.290, 359.397 159.902 C 356.703 159.573, 351.800 158.544, 348.500 157.616 C 344.506 156.493, 340.912 156.139, 337.750 156.558 C 333.551 157.115, 333 156.970, 333 155.316 C 333 154.287, 333.679 152.476, 334.509 151.291 C 335.338 150.106, 338.396 148.247, 341.302 147.160 C 344.209 146.072, 350.630 144.866, 355.571 144.480 C 361.007 144.054, 367.436 144.224, 371.849 144.909 C 377.594 145.800, 379.710 145.769, 381.813 144.761 C 383.281 144.057, 385.091 142.210, 385.836 140.656 C 386.670 138.916, 386.943 136.509, 386.546 134.394 C 386.191 132.504, 384.571 129.442, 382.945 127.590 C 381.318 125.738, 378.399 123.468, 376.457 122.547 C 374.516 121.625, 370.447 120.225, 367.415 119.436 C 364.383 118.646, 358.887 118.007, 355.201 118.015 C 351.516 118.023, 345.673 118.696, 342.219 119.511 C 338.764 120.325, 334.073 121.943, 331.794 123.105 C 329.515 124.268, 325.349 127.532, 322.537 130.359 C 319.724 133.187, 316.355 137.750, 315.050 140.500 C 313.368 144.045, 312.544 147.880, 312.217 153.680 C 311.815 160.824, 312.112 162.849, 314.568 169.680 C 316.635 175.430, 317.380 179.353, 317.382 184.500 C 317.384 189.121, 316.817 192.575, 315.713 194.662 C 314.793 196.401, 312.845 198.763, 311.385 199.912 C 309.925 201.060, 307.505 202, 306.008 202 C 303.327 202, 303.277 201.881, 302.724 194.250 C 302.338 188.909, 301.238 184.283, 299.187 179.367 C 297.549 175.444, 295.447 169.611, 294.515 166.405 C 293.384 162.512, 292.827 157.026, 292.840 149.884 C 292.857 140.622, 293.223 138.276, 295.579 132.346 C 297.074 128.581, 299.539 123.700, 301.057 121.500 C 302.574 119.300, 305.544 115.865, 307.658 113.866 C 309.771 111.868, 313.404 109.055, 315.731 107.616 C 318.059 106.176, 323.313 103.874, 327.408 102.499 C 333.408 100.485, 336.828 100, 345.032 100 C 350.843 100, 357.848 100.658, 361.356 101.534 C 364.735 102.378, 369.912 104.290, 372.861 105.784 C 375.809 107.278, 381.081 111.113, 384.576 114.307 C 389.031 118.378, 391.912 122.108, 394.215 126.786 C 397.101 132.647, 397.500 134.433, 397.500 141.479 C 397.500 148.055, 397.051 150.379, 395.009 154.377 C 393.640 157.059, 390.591 160.950, 388.235 163.025 C 385.879 165.099, 382.294 167.582, 380.269 168.543 C 378.243 169.504, 374.317 170.895, 371.543 171.633 C 368.769 172.372, 363.208 172.982, 359.184 172.988 L 351.867 173 352.184 175.750 L 352.500 178.500 362.500 178.421 C 371.394 178.350, 373.337 177.989, 380.070 175.153 C 384.449 173.308, 389.807 170.045, 392.781 167.411 C 395.837 164.705, 399.027 160.601, 400.648 157.288 C 402.736 153.019, 403.471 149.821, 403.791 143.608 C 404.124 137.136, 403.770 134.205, 402.037 129.083 C 400.843 125.554, 398.587 120.829, 397.023 118.583 C 395.459 116.337, 392.227 112.633, 389.840 110.351 C 387.453 108.070, 382.948 104.591, 379.828 102.620 C 376.708 100.650, 370.633 97.832, 366.328 96.358 C 359.564 94.042, 356.869 93.675, 346.500 93.657 C 337.732 93.643, 332.899 94.125, 328.554 95.447 C 325.284 96.442, 319.467 98.886, 315.629 100.878 C 311.324 103.112, 305.914 107.183, 301.514 111.500 C 297.068 115.861, 293.391 120.573, 291.757 124 C 290.315 127.025, 288.555 131.300, 287.846 133.500 C 287.102 135.808, 286.572 142.154, 286.593 148.500 C 286.616 155.623, 287.249 161.917, 288.388 166.357 C 289.355 170.129, 291.572 176.879, 293.313 181.357 C 295.856 187.897, 296.482 190.976, 296.490 197 C 296.498 203.040, 296.046 205.293, 294.166 208.572 L 291.832 212.643 287.443 210.421 C 285.028 209.198, 280.817 207.625, 278.084 206.925 C 273.212 205.676, 273.092 205.553, 271.905 200.576 C 271.239 197.784, 269.398 191.903, 267.815 187.507 C 266.231 183.110, 263.049 176.392, 260.744 172.576 C 258.439 168.761, 254.647 163.407, 252.319 160.680 L 248.086 155.720 250.543 153.788 C 251.894 152.725, 253 151.078, 253 150.127 C 253 149.177, 252.460 147.860, 251.800 147.200 C 251.140 146.540, 249.632 146, 248.448 146 C 247.264 146, 244.802 144.988, 242.976 143.750 C 241.150 142.512, 236.062 136.775, 231.669 131 C 227.276 125.225, 221.536 118.267, 218.913 115.538 C 216.291 112.808, 214.345 110.251, 214.589 109.855 C 214.834 109.460, 217.614 108.578, 220.767 107.896 C 223.920 107.214, 228.970 105.585, 231.990 104.277 C 235.009 102.968, 238.551 100.908, 239.860 99.699 C 241.168 98.490, 243.411 95.700, 244.843 93.500 C 247.129 89.989, 247.451 88.449, 247.474 80.901 C 247.491 75.343, 246.998 71.365, 246.081 69.651 C 245.300 68.193, 243.796 67, 242.737 67 C 241.617 67, 240.581 67.886, 240.258 69.120 M 237.279 86.588 C 234.671 89.307, 233.279 91.564, 233.636 92.494 C 233.954 93.322, 234.810 94, 235.539 94 C 236.268 94, 237.728 92.763, 238.783 91.250 C 239.839 89.737, 240.984 87.037, 241.327 85.250 C 241.669 83.463, 241.849 82.042, 241.725 82.094 C 241.601 82.146, 239.601 84.168, 237.279 86.588 M 204.250 92.166 C 201.912 92.689, 200.002 93.429, 200.004 93.809 C 200.006 94.189, 200.873 95.919, 201.930 97.653 L 203.852 100.805 208.206 99.240 C 212.312 97.763, 212.538 97.483, 212.171 94.337 C 211.899 92.009, 211.285 91.032, 210.141 91.107 C 209.238 91.166, 206.588 91.642, 204.250 92.166 M 218 93.671 C 218 94.874, 218.744 96.601, 219.654 97.511 C 220.885 98.743, 222.226 98.993, 224.904 98.493 C 226.882 98.124, 228.629 97.695, 228.787 97.540 C 228.946 97.385, 228.555 96.116, 227.918 94.720 C 226.983 92.667, 225.927 92.116, 222.381 91.834 C 218.436 91.520, 218 91.703, 218 93.671 M 191.099 100.557 C 189.944 102.514, 189 105.124, 189 106.357 C 189 107.591, 189.540 109.140, 190.200 109.800 C 190.860 110.460, 192.815 111, 194.545 111 C 196.400 111, 198.418 110.195, 199.466 109.038 C 201.176 107.148, 201.147 106.964, 198.690 104.043 C 197.286 102.375, 195.852 100.108, 195.502 99.005 C 195.152 97.902, 194.490 97, 194.031 97 C 193.573 97, 192.253 98.601, 191.099 100.557 M 173 106.127 C 168.325 107.721, 161.215 109.313, 157.200 109.664 C 150.229 110.273, 149.841 110.441, 148.579 113.401 C 147.852 115.105, 146.187 117.483, 144.879 118.683 C 143.570 119.884, 141.233 121.347, 139.685 121.933 C 138.137 122.520, 135.814 123, 134.524 123 C 133.026 123, 130.116 125.013, 126.476 128.566 L 120.774 134.133 124.389 133.455 C 127.771 132.820, 128.090 132.985, 129.367 136.022 C 130.722 139.244, 130.746 139.253, 132.616 137.284 C 133.652 136.193, 135.318 134.292, 136.318 133.060 C 137.970 131.023, 138.698 130.879, 144.318 131.478 C 147.718 131.841, 152.075 132.619, 154 133.208 C 155.925 133.796, 158.809 135.197, 160.408 136.320 C 162.095 137.504, 165.501 138.543, 168.515 138.793 C 171.505 139.041, 174.669 138.712, 175.963 138.020 C 177.744 137.067, 178.095 136.227, 177.649 133.995 C 177.278 132.142, 177.599 130.748, 178.582 129.932 C 179.708 128.997, 180.939 128.953, 183.540 129.751 C 185.443 130.335, 187 130.612, 187 130.367 C 187 130.121, 186.061 128.080, 184.914 125.832 C 183.055 122.187, 182.992 121.579, 184.337 120.235 C 185.166 119.405, 186.534 118.991, 187.377 119.315 C 188.220 119.638, 189.795 121.639, 190.878 123.761 C 191.961 125.884, 193.556 130.358, 194.423 133.704 C 195.291 137.051, 196 141.200, 196 142.926 C 196 144.852, 195.395 146.295, 194.433 146.664 C 193.571 146.995, 192.356 146.756, 191.733 146.133 C 191.110 145.510, 190.186 145, 189.680 145 C 189.160 145, 189.009 147.500, 189.334 150.750 C 189.649 153.912, 190.583 159.419, 191.409 162.987 C 192.557 167.952, 192.664 170.449, 191.863 173.631 C 191.096 176.676, 191.131 178.376, 191.994 179.988 C 192.984 181.838, 192.837 182.544, 191.076 184.419 L 188.981 186.650 193.240 190.075 C 196.962 193.067, 198.213 193.500, 203.145 193.500 C 207.138 193.500, 209.361 192.983, 210.742 191.734 C 211.815 190.763, 213.257 188.063, 213.945 185.734 C 214.634 183.405, 215.870 180.743, 216.693 179.817 C 217.515 178.892, 218.783 178.363, 219.511 178.642 C 220.238 178.922, 221.966 180.861, 223.349 182.952 C 224.733 185.043, 227.482 187.753, 229.458 188.974 C 231.434 190.195, 233.714 190.940, 234.525 190.629 C 235.366 190.306, 236 188.788, 236 187.096 C 236 185.465, 236.439 182.976, 236.975 181.565 C 237.512 180.154, 238.564 179, 239.315 179 C 240.065 179, 242.112 180.575, 243.864 182.500 C 245.615 184.425, 247.664 186, 248.417 186 C 249.170 186, 250.059 185.288, 250.393 184.418 C 250.727 183.548, 251 180.928, 251 178.596 C 251 176.264, 250.263 172.193, 249.362 169.548 C 248.281 166.377, 246.035 163.112, 242.765 159.961 C 238.880 156.216, 237.951 154.730, 238.471 153.091 C 238.836 151.941, 239.846 151, 240.715 151 C 241.636 151, 240.902 150.060, 238.959 148.750 C 237.124 147.512, 231.860 141.550, 227.261 135.500 C 222.662 129.450, 217.036 122.595, 214.759 120.268 C 211.127 116.555, 210.427 116.209, 209.057 117.448 C 208.199 118.225, 206.308 119.313, 204.855 119.865 C 203.007 120.568, 200.606 120.495, 196.857 119.623 C 193.911 118.937, 190.239 117.550, 188.699 116.540 C 187.158 115.530, 185.246 113.442, 184.449 111.901 C 183.652 110.360, 183 107.727, 183 106.050 C 183 104.372, 182.662 103.051, 182.250 103.114 C 181.838 103.177, 177.675 104.533, 173 106.127 M 137.306 113.468 C 135.147 115.368, 134.890 115.944, 136.194 115.968 C 137.126 115.986, 139.151 114.889, 140.694 113.532 C 142.853 111.632, 143.110 111.056, 141.806 111.032 C 140.874 111.014, 138.849 112.111, 137.306 113.468 M 164.667 113.667 C 164.300 114.033, 164 115.383, 164 116.667 C 164 118.716, 164.479 119, 167.933 119 C 170.981 119, 172.007 118.552, 172.497 117.009 C 172.845 115.914, 172.848 114.564, 172.506 114.009 C 172.163 113.454, 170.409 113, 168.608 113 C 166.807 113, 165.033 113.300, 164.667 113.667 M 359.750 149.668 C 358.688 149.959, 358 151.113, 358 152.605 C 358 153.957, 358.728 155.342, 359.617 155.683 C 360.506 156.025, 362.419 155.887, 363.867 155.378 C 365.753 154.715, 366.500 153.749, 366.500 151.976 C 366.500 150.043, 365.952 149.466, 364 149.345 C 362.625 149.260, 360.712 149.405, 359.750 149.668 M 337.547 166.049 C 339.472 168.059, 340.604 168.655, 340.869 167.799 C 341.090 167.084, 341.675 165.713, 342.170 164.750 C 342.958 163.218, 342.546 163, 338.848 163 L 334.626 163 337.547 166.049 M 104.500 167.682 C 103.400 167.985, 101.150 169.165, 99.500 170.303 C 97.850 171.441, 95.045 173.618, 93.267 175.141 C 91.489 176.663, 87.303 181.082, 83.965 184.961 C 80.625 188.841, 76.014 192.973, 73.712 194.147 C 69.656 196.216, 69.601 196.308, 71.922 197.167 C 73.785 197.856, 74.815 197.583, 76.569 195.936 C 77.808 194.771, 79.644 193.977, 80.649 194.171 C 81.655 194.365, 82.612 195.222, 82.776 196.076 C 82.941 196.930, 80.419 200.888, 77.172 204.872 C 73.925 208.855, 70.024 214.657, 68.502 217.763 C 66.679 221.487, 65.567 225.643, 65.238 229.956 C 64.964 233.555, 64.293 237.063, 63.747 237.750 C 63.058 238.618, 63.153 239, 64.057 239 C 64.772 239, 66.894 238.445, 68.771 237.766 C 71.810 236.667, 72.338 236.742, 73.587 238.450 C 74.746 240.036, 74.765 240.725, 73.693 242.434 C 72.980 243.570, 71.824 246.300, 71.125 248.500 C 70.425 250.700, 69.999 254.525, 70.177 257 L 70.500 261.500 75.313 256.667 C 78.260 253.707, 80.691 252.051, 81.585 252.394 C 82.388 252.703, 83.302 253.624, 83.616 254.442 C 83.930 255.260, 83.132 257.407, 81.843 259.215 C 79.992 261.810, 79.427 264.095, 79.151 270.094 C 78.873 276.158, 79.200 278.474, 80.778 281.594 C 81.865 283.742, 84.349 288.645, 86.298 292.488 C 89.465 298.732, 89.908 299.211, 90.459 296.988 C 90.799 295.620, 90.947 291.800, 90.788 288.500 C 90.527 283.056, 90.695 282.472, 92.602 282.200 C 94.011 281.999, 95.294 282.823, 96.492 284.700 C 97.475 286.240, 100.055 289.137, 102.226 291.138 C 104.396 293.139, 108.405 295.991, 111.134 297.477 C 113.863 298.962, 116.749 299.926, 117.548 299.620 C 118.429 299.282, 119 297.706, 119 295.613 C 119 293.716, 119.273 291.452, 119.607 290.582 C 119.941 289.712, 121.026 289, 122.018 289 C 123.010 289, 124.958 290.350, 126.347 292 C 127.735 293.650, 129.237 294.973, 129.685 294.939 C 130.133 294.905, 131.864 292.999, 133.532 290.703 C 135.514 287.973, 138.641 285.485, 142.565 283.514 C 145.866 281.856, 152.067 278.970, 156.345 277.100 C 160.989 275.071, 165.815 272.048, 168.320 269.600 C 170.778 267.199, 173.756 262.700, 175.508 258.742 C 177.154 255.026, 179.267 251.740, 180.204 251.440 C 181.142 251.140, 183.054 251.645, 184.454 252.562 C 186.882 254.153, 187 254.139, 187 252.280 C 187 251.208, 186.054 247.443, 184.897 243.915 C 183.741 240.387, 181.514 235.065, 179.949 232.088 C 177.719 227.848, 177.327 226.258, 178.137 224.743 C 178.962 223.202, 179.842 222.935, 182.472 223.429 C 185.381 223.974, 185.844 223.757, 186.389 221.587 C 186.728 220.234, 186.495 216.746, 185.871 213.835 C 185.247 210.924, 183.724 206.958, 182.488 205.021 C 181.251 203.084, 179.033 200.375, 177.559 199 C 176.085 197.625, 172.543 195.375, 169.689 194 C 166.207 192.322, 164.401 190.808, 164.200 189.398 C 164.009 188.060, 164.776 186.722, 166.310 185.717 C 167.635 184.848, 169.457 183.401, 170.358 182.499 C 171.495 181.362, 171.721 180.346, 171.095 179.178 C 170.599 178.252, 168.013 176.828, 165.347 176.014 C 162.681 175.200, 157.292 174.526, 153.372 174.517 C 146.756 174.501, 145.852 174.770, 140.798 178.250 C 137.804 180.313, 134.887 182, 134.318 182 C 133.748 182, 131.306 180.282, 128.891 178.182 C 126.476 176.081, 122.304 172.869, 119.620 171.044 C 116.471 168.902, 113.278 167.620, 110.620 167.428 C 108.354 167.264, 105.600 167.379, 104.500 167.682 M 224.985 207.095 C 224.976 208.418, 224.570 210.131, 224.081 210.903 C 223.331 212.089, 221.984 212.110, 215.378 211.045 C 211.079 210.351, 206.630 209.430, 205.490 208.996 C 203.505 208.242, 203.432 208.487, 203.745 214.854 C 203.924 218.509, 204.294 222.930, 204.567 224.677 C 204.861 226.561, 206.924 229.924, 209.634 232.938 C 212.316 235.921, 213.976 238.619, 213.651 239.466 C 213.347 240.260, 211.293 241.830, 209.089 242.955 C 206.884 244.080, 204.407 245, 203.584 245 C 202.263 245, 202.259 245.482, 203.544 249.126 C 204.372 251.472, 205 256.847, 205 261.588 C 205 267.521, 204.414 271.491, 202.968 275.357 C 201.850 278.345, 199.576 282.665, 197.915 284.958 C 196.064 287.514, 194.253 289.003, 193.233 288.806 C 192.319 288.630, 190.603 287.051, 189.421 285.297 L 187.272 282.107 184.638 284.856 L 182.005 287.604 186.465 289.771 C 188.918 290.963, 192.764 293.599, 195.011 295.629 C 197.747 298.100, 198.998 300.008, 198.799 301.400 C 198.634 302.544, 197.665 303.639, 196.644 303.833 C 195.600 304.033, 193.414 302.904, 191.644 301.252 C 189.915 299.638, 187.084 297.349, 185.354 296.165 C 183.624 294.981, 179.356 293.281, 175.869 292.388 C 171.723 291.326, 167.610 290.965, 163.977 291.345 C 160.923 291.664, 156.641 292.661, 154.462 293.561 C 152.283 294.461, 149.050 296.291, 147.277 297.628 C 145.505 298.966, 142.741 301.969, 141.136 304.303 C 139.530 306.637, 137.646 310.451, 136.948 312.779 C 136.250 315.108, 135.934 317.268, 136.246 317.579 C 136.558 317.891, 138.511 317.677, 140.588 317.103 C 143.806 316.215, 144.856 316.366, 147.712 318.131 C 149.790 319.415, 151.932 319.983, 153.354 319.626 C 154.614 319.310, 157.765 317.433, 160.355 315.455 C 162.946 313.477, 167.108 310.955, 169.605 309.850 C 172.103 308.746, 174.788 308.088, 175.573 308.390 C 176.358 308.691, 177 309.826, 177 310.912 C 177 311.998, 176.061 313.544, 174.913 314.348 C 172.852 315.792, 172.851 315.818, 174.815 316.441 C 175.909 316.788, 180.218 320.645, 184.390 325.012 L 191.975 332.952 194.176 329.976 C 195.386 328.339, 197.169 327, 198.138 327 C 199.108 327, 200.339 327.784, 200.875 328.742 C 201.411 329.700, 202.122 330.211, 202.455 329.878 C 202.788 329.545, 203.514 326.624, 204.069 323.386 C 204.623 320.149, 205.719 313.675, 206.504 309 C 207.288 304.325, 208.236 294.997, 208.610 288.271 C 209.214 277.399, 209.504 275.975, 211.220 275.430 C 212.282 275.093, 213.421 275.088, 213.752 275.419 C 214.083 275.750, 215.062 278.140, 215.927 280.732 C 217.298 284.838, 217.950 285.544, 221 286.227 C 222.925 286.658, 226.975 286.743, 230 286.415 C 233.025 286.088, 237.630 284.668, 240.233 283.260 C 242.836 281.852, 245.761 279.530, 246.733 278.100 C 247.705 276.670, 250.075 272.350, 252 268.500 C 254.586 263.328, 256.089 261.416, 257.754 261.180 C 259.152 260.981, 260.252 261.493, 260.649 262.527 C 261.021 263.496, 259.944 266.894, 258.076 270.648 C 256.309 274.198, 254.270 279.442, 253.545 282.301 C 252.820 285.161, 251.936 289.975, 251.582 293 C 251.227 296.025, 251.402 300.927, 251.970 303.893 C 252.538 306.859, 254.014 311.338, 255.251 313.846 C 256.488 316.355, 259.606 320.501, 262.180 323.060 C 264.753 325.620, 268.998 328.719, 271.613 329.948 C 274.227 331.177, 278.654 332.418, 281.450 332.707 L 286.533 333.232 286.517 329.866 C 286.501 326.620, 286.634 326.504, 290.250 326.614 C 292.313 326.677, 294 326.487, 294 326.193 C 294 325.898, 293.352 324.941, 292.560 324.066 C 291.767 323.190, 290.576 320.444, 289.912 317.962 C 289.176 315.208, 288.986 311.581, 289.424 308.656 C 289.863 305.728, 293.416 297.349, 298.546 287.138 C 305.128 274.040, 307.151 268.995, 307.877 263.868 C 308.386 260.267, 308.453 254.126, 308.024 250.221 C 307.531 245.730, 306.121 240.719, 304.187 236.587 C 302.506 232.993, 298.979 227.753, 296.349 224.942 C 293.720 222.132, 289.753 218.784, 287.534 217.504 C 285.315 216.223, 280.415 214.236, 276.645 213.088 C 272.874 211.940, 268.374 210.980, 266.645 210.956 C 264.915 210.932, 261.925 210.318, 260 209.591 C 258.075 208.865, 255.713 207.936, 254.750 207.528 C 253.348 206.934, 253 207.291, 253 209.326 C 253 211.030, 252.307 212.085, 250.892 212.534 C 249.732 212.902, 246.245 212.894, 243.142 212.517 C 240.039 212.139, 235.491 210.951, 233.037 209.877 C 230.582 208.803, 227.769 207.196, 226.787 206.307 C 225.118 204.797, 224.999 204.849, 224.985 207.095 M 109.001 208.761 C 107.077 210.267, 104.505 212.625, 103.285 214 C 102.064 215.375, 99.930 218.787, 98.542 221.582 C 97.153 224.377, 95.732 228.089, 95.384 229.831 C 94.802 232.742, 95.037 233.118, 98.299 234.481 L 101.849 235.964 101.319 243.232 C 100.835 249.883, 101.012 250.822, 103.395 254.294 C 104.828 256.381, 106 258.656, 106 259.349 C 106 260.042, 107.345 262.729, 108.988 265.320 C 110.632 267.912, 113.123 270.555, 114.525 271.193 C 116.564 272.122, 117.343 272.069, 118.419 270.927 C 119.159 270.142, 120.506 267.206, 121.412 264.403 C 122.482 261.091, 123.906 258.853, 125.479 258.011 C 127.442 256.961, 128.478 256.955, 130.958 257.983 C 133.438 259.010, 134.308 260.250, 135.555 264.541 C 136.401 267.451, 137.761 270.386, 138.576 271.063 C 139.704 271.999, 140.653 272.023, 142.541 271.163 C 143.907 270.541, 146.368 267.912, 148.012 265.320 C 149.655 262.729, 151 260.042, 151 259.349 C 151 258.656, 152.125 256.431, 153.500 254.405 C 155.165 251.951, 156 249.346, 156 246.604 C 156 244.339, 155.596 241.078, 155.102 239.355 C 154.240 236.350, 154.364 236.160, 158.191 234.657 C 161.991 233.165, 162.145 232.935, 161.466 229.795 C 161.074 227.983, 159.623 224.250, 158.242 221.500 C 156.860 218.750, 154.915 215.458, 153.919 214.183 C 152.922 212.909, 150.446 210.547, 148.416 208.933 C 146.028 207.035, 143.567 206, 141.445 206 C 139.642 206, 136.043 206.910, 133.449 208.022 L 128.732 210.044 123.329 208.022 C 120.357 206.910, 116.704 206.005, 115.212 206.011 C 113.721 206.017, 110.926 207.255, 109.001 208.761 M 111.914 214.412 C 109.833 215.826, 107.058 219.291, 105.174 222.826 L 101.971 228.835 105.397 229.966 C 107.281 230.588, 109.074 231.750, 109.380 232.548 C 109.687 233.347, 109.662 234.717, 109.326 235.593 C 108.813 236.929, 109.353 236.861, 112.660 235.173 C 114.830 234.066, 117.132 232.005, 117.776 230.592 C 118.848 228.240, 118.696 227.894, 115.973 226.486 C 113.891 225.409, 113 224.207, 113 222.474 C 113 220.574, 113.522 220.001, 115.250 220.004 C 116.487 220.006, 118.950 220.892, 120.723 221.973 C 122.496 223.054, 124.232 225.076, 124.581 226.467 C 124.930 227.858, 124.956 229.672, 124.639 230.498 C 124.187 231.677, 124.907 232, 127.982 232 C 130.138 232, 134.286 232.505, 137.201 233.122 C 140.115 233.739, 143.771 234.892, 145.324 235.685 C 147.921 237.012, 148.132 236.982, 147.959 235.314 C 147.855 234.316, 147.822 232.972, 147.885 232.328 C 147.948 231.683, 149.583 230.633, 151.517 229.994 L 155.034 228.834 152.329 223.863 C 150.841 221.130, 147.883 217.320, 145.755 215.397 C 142.828 212.753, 141.351 212.065, 139.693 212.574 C 138.487 212.944, 135.728 214.091, 133.562 215.123 C 131.396 216.156, 129.118 217, 128.500 217 C 127.882 217, 125.604 216.156, 123.438 215.123 C 121.272 214.091, 118.589 212.968, 117.476 212.628 C 116.182 212.232, 114.176 212.876, 111.914 214.412 M 134.314 220.107 C 132.473 220.637, 130.847 221.906, 130.464 223.113 C 130.100 224.261, 130.262 225.662, 130.826 226.226 C 131.405 226.805, 133.362 226.967, 135.325 226.599 C 137.236 226.240, 139.381 225.246, 140.092 224.390 C 141.003 223.291, 141.085 222.359, 140.371 221.226 C 139.813 220.342, 138.939 219.523, 138.429 219.405 C 137.918 219.287, 136.066 219.603, 134.314 220.107 M 112.951 242.283 C 111.166 243.502, 109.070 245.470, 108.293 246.656 C 107.024 248.593, 107.109 249.023, 109.129 250.906 C 110.857 252.516, 112.675 253, 116.989 253 C 120.075 253, 123.140 252.460, 123.800 251.800 C 124.460 251.140, 125 249.885, 125 249.012 C 125 248.138, 123.020 245.768, 120.599 243.745 L 116.198 240.066 112.951 242.283 M 136.250 243.884 C 133.912 245.903, 132 248.240, 132 249.077 C 132 249.915, 132.540 251.140, 133.200 251.800 C 133.860 252.460, 136.940 253, 140.045 253 C 144.244 253, 146.114 252.531, 147.345 251.171 C 148.255 250.165, 149 248.669, 149 247.846 C 149 247.022, 147.988 245.426, 146.750 244.299 C 145.512 243.172, 143.600 241.792, 142.500 241.231 C 140.850 240.391, 139.755 240.856, 136.250 243.884 M 262.176 253.676 C 262.435 255.935, 263 256.500, 265 256.500 C 267 256.500, 267.500 256, 267.500 254 C 267.500 252, 266.935 251.435, 264.676 251.176 C 262.108 250.882, 261.882 251.108, 262.176 253.676" stroke="none" fill="#ffc107" fill-rule="evenodd"/></svg>