<svg xmlns="http://www.w3.org/2000/svg" width="446" height="446" viewBox="0 0 446 446" version="1.1"><path d="" stroke="none" fill="#0d6efd" fill-rule="evenodd"/><path d="M 276.676 61.467 C 273.070 65.073, 273.707 128.490, 277.471 140.764 C 280.888 151.905, 289.970 157.973, 303.250 157.990 L 311 158 311 179 C 311 190.550, 310.605 200, 310.122 200 C 309.640 200, 308.663 199.299, 307.952 198.442 C 304.450 194.223, 287.070 186.430, 272.236 182.429 C 261.968 179.659, 259.598 178.475, 262.272 177.449 C 264.363 176.647, 273.526 178.540, 283.191 181.771 C 289.821 183.988, 291.112 184.152, 292.548 182.960 C 296.565 179.626, 290.385 164.185, 282.073 156.789 C 275.918 151.313, 266.623 147.054, 259.374 146.388 C 251.847 145.697, 248.223 143.936, 242.844 138.354 C 234.366 129.557, 226.374 126.030, 214.876 126.011 C 202.910 125.991, 195.194 130.151, 191.260 138.742 C 189.191 143.263, 188.863 145.192, 189.290 150.333 C 189.572 153.725, 190.124 157.512, 190.518 158.750 C 191.051 160.427, 190.836 161, 189.676 161 C 187.632 161, 186.960 159.787, 185.592 153.627 C 184.605 149.186, 184.130 148.500, 182.036 148.500 C 178.380 148.500, 174.656 156.399, 174.158 165.210 C 173.771 172.062, 173.771 172.062, 169.259 175.165 C 160.240 181.371, 146.527 197.358, 147.219 200.861 C 147.373 201.645, 148.331 202.784, 149.348 203.393 C 150.918 204.334, 151.663 203.900, 154.318 200.500 C 158.597 195.019, 173.594 180, 174.788 180 C 175.321 180, 176.286 181.276, 176.932 182.835 C 177.578 184.395, 179.449 187.141, 181.091 188.939 C 183.916 192.031, 184.040 192.523, 183.409 198.101 C 182.811 203.389, 182.399 204.208, 179.411 206.055 C 177.580 207.187, 173.981 209.848, 171.415 211.968 C 168.849 214.089, 164.711 216.602, 162.220 217.554 C 159.729 218.505, 154.996 220.806, 151.704 222.667 C 148.411 224.528, 145.623 225.927, 145.507 225.775 C 145.392 225.624, 144.117 223.025, 142.674 220 C 141.231 216.975, 139.494 213.735, 138.813 212.801 C 137.796 211.405, 137.954 210.423, 139.698 207.301 C 143.527 200.445, 145.311 192.293, 144.713 184.382 C 143.807 172.404, 139.025 164.433, 128.817 157.882 L 123.689 154.592 131.818 146.878 C 150.951 128.720, 175.213 116.346, 200.371 111.915 C 219.795 108.493, 239.721 110.113, 256.500 116.476 C 267.055 120.479, 267.163 120.498, 268.611 118.518 C 270.694 115.668, 268.764 113.611, 261.312 110.742 C 231.326 99.197, 200.012 100.629, 166.719 115.069 C 154.479 120.378, 137.628 131.870, 125.786 142.986 C 116.544 151.660, 115.904 152.073, 112.620 151.457 C 110.525 151.064, 107 151.440, 103.651 152.413 C 92.099 155.771, 84.455 165.285, 84.603 176.122 C 84.707 183.792, 87.668 188.471, 94.404 191.608 C 102.706 195.473, 109.074 194.508, 113.360 188.735 L 115.414 185.969 113.225 183.780 L 111.036 181.591 108.213 184.296 C 104.096 188.241, 99.762 187.962, 95.264 183.464 C 91.874 180.074, 91.751 179.702, 92.291 174.471 C 92.985 167.742, 95.898 163.404, 101.401 160.905 C 117.993 153.371, 136.407 169.728, 132.141 188.211 C 129.902 197.910, 122.728 206.103, 113 210.072 C 107.382 212.364, 93.507 211.872, 87.969 209.185 C 78.574 204.625, 72.944 198.286, 69.664 188.572 C 64.677 173.804, 71.602 149.199, 86.308 129.431 C 103.905 105.776, 137.398 85.250, 174 75.689 C 193.763 70.527, 199.620 69.747, 219 69.697 C 233.123 69.660, 239.127 70.049, 244.379 71.340 C 251.741 73.150, 254 72.580, 254 68.913 C 254 64.751, 243.435 62.998, 218.418 63.007 C 181.650 63.020, 152.852 70.980, 121 89.934 C 88.286 109.402, 68.053 135.413, 62.387 165.284 C 61.187 171.606, 60.085 174.309, 57.046 178.375 C 47.309 191.407, 42.553 206.519, 43.188 222.407 C 43.661 234.226, 46.676 242.330, 52.831 248.327 C 59.426 254.752, 71.573 258.518, 81 257.062 C 84.848 256.467, 85.863 256.695, 88.007 258.638 C 89.387 259.887, 92.829 262.175, 95.658 263.722 L 100.801 266.535 94.107 275.710 C 90.425 280.756, 85.230 286.806, 82.563 289.154 C 77.138 293.929, 74.055 299.696, 74.022 305.128 C 73.997 309.281, 76.155 315.054, 78.442 316.952 C 79.299 317.663, 80 319.226, 80 320.426 C 80 324.606, 85.138 332.963, 90.823 338.030 C 94.260 341.093, 100.581 345.052, 106.984 348.150 C 112.768 350.949, 118.857 353.906, 120.516 354.721 C 122.175 355.536, 124.627 357.089, 125.964 358.172 L 128.395 360.140 125.178 362.658 C 120.887 366.016, 119 369.935, 119 375.490 C 119 390.129, 133.794 398.218, 147.314 390.972 L 150.964 389.015 152.521 391.391 C 155.398 395.782, 173.208 402.506, 190.263 405.641 C 202.867 407.957, 231.247 407.989, 243 405.699 C 261.236 402.147, 266.328 400.115, 269.805 395 C 271.908 391.906, 272.096 390.862, 271.422 386 C 270.070 376.239, 270.710 371.895, 273.997 368.503 C 280.138 362.167, 280.054 354.631, 273.806 351.400 C 271.037 349.968, 270.927 349.663, 271.573 345.197 C 272.494 338.837, 274.640 334.629, 281.066 326.578 C 286.141 320.221, 296.474 312.140, 297.814 313.481 C 298.142 313.809, 298.454 315.849, 298.509 318.015 C 298.573 320.593, 299.366 322.761, 300.804 324.291 C 302.183 325.759, 303.001 327.907, 303.004 330.064 C 303.008 333.996, 305.929 339.356, 308.946 340.971 C 310.872 342.002, 311 342.969, 311 356.458 L 311 370.846 305.250 374.456 C 302.087 376.442, 296.238 379.707, 292.250 381.711 C 286.445 384.628, 285 385.808, 285 387.628 C 285 391.923, 287.840 392.106, 295.406 388.295 C 299.249 386.360, 304.096 383.702, 306.177 382.388 C 308.258 381.075, 310.194 380, 310.480 380 C 310.766 380, 311 385.384, 311 391.965 C 311 402.771, 311.187 404.030, 312.934 404.965 C 315.436 406.304, 315.569 406.288, 317.429 404.429 C 318.775 403.082, 319 399.205, 319 377.345 C 319 357.380, 319.272 351.924, 320.250 352.250 C 321.197 352.565, 321.565 358.876, 321.767 378.307 C 322.024 402.981, 322.111 403.989, 324.081 405.043 C 328.468 407.391, 329 405.270, 329 385.421 L 329 367.086 340.352 355.543 C 349.988 345.745, 352.172 344, 354.803 344 C 359.916 344, 368.130 341.926, 374.500 339.027 C 385.174 334.170, 389.192 329.324, 398.981 309.500 C 400.067 307.300, 400.966 303.955, 400.978 302.066 C 401.025 294.716, 394.104 285.713, 384.667 280.850 C 382.118 279.536, 381.021 278.387, 381.393 277.418 C 382.618 274.227, 384.882 256.864, 385.491 246 C 387.013 218.824, 381.276 185.704, 371.235 163.699 C 368.016 156.646, 367.428 155.927, 365.096 156.199 C 363.628 156.371, 362.379 157.229, 362.196 158.194 C 362.020 159.125, 363.903 164.975, 366.381 171.194 C 374.183 190.768, 377.646 207.105, 378.633 229 C 379.180 241.149, 378.019 260.577, 376.378 266.714 C 375.846 268.702, 375.355 268.344, 371.578 263.214 C 362.800 251.294, 348.712 241.169, 335.002 236.928 L 329.500 235.226 329.280 209.863 C 329.074 186.093, 329.161 184.685, 330.665 187.447 C 333.077 191.876, 336.775 207.867, 338.035 219.321 C 339.232 230.192, 340.126 232.268, 343.412 231.798 C 345.113 231.555, 345.559 230.675, 345.817 227.050 C 346.681 214.939, 341.753 194.545, 333.955 177.961 C 330.208 169.990, 329 166.273, 329 162.711 L 329 158 336.374 158 C 349.059 158, 357.036 153.714, 361.559 144.470 C 364.930 137.578, 366.136 125.106, 366.340 95 C 366.515 69.270, 365.768 61.378, 363.075 60.524 C 360.058 59.566, 358.711 60.711, 352.494 69.518 C 344.034 81.502, 343.853 82.092, 346.070 90.500 C 349.054 101.818, 350.232 111.707, 349.485 119.154 L 348.792 126.046 344.718 121.273 C 342.477 118.648, 338.024 113.943, 334.822 110.817 C 331.620 107.692, 329 104.668, 329 104.098 C 329 103.528, 329.959 101.222, 331.131 98.973 C 333.788 93.876, 333.303 88.231, 329.155 75.959 C 324.179 61.237, 321.572 57.984, 317.785 61.770 C 315.629 63.926, 310.888 75.199, 308.961 82.750 C 308.225 85.638, 307.273 88, 306.846 88 C 306.419 88, 303.937 86.648, 301.331 84.995 C 297.975 82.867, 294.884 79.439, 290.735 73.245 C 285.075 64.796, 280.831 60, 279.016 60 C 278.536 60, 277.483 60.660, 276.676 61.467 M 261.200 70.200 C 259.361 72.039, 259.770 74.807, 262.064 76.034 C 264.666 77.427, 267 75.748, 267 72.485 C 267 69.335, 263.459 67.941, 261.200 70.200 M 319.029 75.500 C 314.573 86.426, 313.962 93.250, 316.996 98.226 C 318.811 101.202, 318.993 103.272, 318.993 121 C 318.993 138.729, 318.811 140.797, 316.996 143.775 C 314.610 147.688, 311.573 149, 304.903 149 C 296.224 149, 288.163 144.120, 286.047 137.585 C 284.401 132.499, 283.207 112.031, 284.118 104.500 C 284.584 100.650, 285.712 94.315, 286.625 90.421 L 288.285 83.342 285.425 78.462 L 282.565 73.582 281.752 77.041 C 280.757 81.276, 281.765 122.836, 283.098 132.499 C 284.296 141.184, 287.292 145.995, 293.322 148.914 C 297.188 150.785, 299.198 151.032, 308.551 150.785 L 319.326 150.500 320.587 147 C 321.439 144.635, 321.873 136.725, 321.924 122.610 C 321.994 103.240, 322.159 101.402, 324.177 97.361 C 326.146 93.417, 326.249 92.440, 325.254 87.092 C 324.650 83.842, 323.277 79.229, 322.204 76.841 L 320.253 72.500 319.029 75.500 M 292.863 96.750 C 291.181 105.081, 291.237 129.159, 292.951 134.353 C 294.473 138.962, 297.315 140.895, 303.685 141.649 C 311.776 142.607, 312 142.059, 312 121.333 C 312 100.658, 311.736 99.914, 302.275 93.934 C 298.850 91.770, 295.639 90, 295.138 90 C 294.637 90, 293.613 93.037, 292.863 96.750 M 329.038 127.128 C 328.993 141.963, 329.336 142.594, 336.941 141.693 C 342.159 141.075, 345.621 139.429, 346.496 137.151 C 346.984 135.879, 341.914 129.076, 332.598 118.500 L 329.075 114.500 329.038 127.128 M 202.274 168.093 C 197.818 170.299, 194.396 174.770, 193.417 179.665 C 192.923 182.136, 193.240 182.788, 195.415 183.779 C 199.976 185.857, 197.736 191.528, 192.858 190.253 C 191.277 189.839, 191 190.360, 191 193.744 C 191 195.931, 190.707 199.861, 190.348 202.477 C 189.713 207.112, 189.751 207.204, 191.848 206.081 C 193.531 205.180, 194 204.006, 194 200.687 C 194 194.013, 198.957 188.904, 203.250 191.153 C 205.561 192.364, 205.463 194.271, 202.976 196.522 C 199.234 199.908, 201.043 200.486, 215.408 200.493 L 229.153 200.500 228.515 193.500 C 226.941 176.245, 225.010 171.576, 217.956 167.977 C 212.961 165.429, 207.576 165.469, 202.274 168.093 M 319 238.917 C 319 299.798, 319.179 308, 320.507 308 C 321.837 308, 321.984 299.957, 321.757 239.333 C 321.555 185.473, 321.230 170.577, 320.250 170.250 C 319.258 169.919, 319 184.094, 319 238.917 M 207.750 183.547 C 204.648 185.258, 204.251 187.134, 206.582 189.068 C 207.892 190.156, 208.882 190.134, 212.332 188.941 C 215.727 187.767, 216.500 187.036, 216.500 185 C 216.500 182.941, 215.971 182.459, 213.500 182.265 C 211.850 182.136, 209.262 182.713, 207.750 183.547 M 57.696 190.618 C 52.645 198.981, 49.875 209.162, 49.818 219.574 C 49.773 227.909, 50.088 229.590, 52.765 235.312 C 57.375 245.162, 64.934 249.912, 76 249.912 C 90.506 249.912, 100.738 240.389, 101.773 225.925 L 102.269 219 98.723 219 C 94.035 219, 83.939 215.805, 80.187 213.133 C 76.255 210.333, 75.918 210.400, 73.099 214.539 C 70.194 218.804, 70.123 223.568, 72.922 226.366 C 74.738 228.182, 75.345 228.277, 78.305 227.207 C 82.875 225.554, 84.771 225.691, 85.830 227.750 C 87.086 230.193, 86.287 231.800, 82.959 233.521 C 79.538 235.290, 73.706 235.443, 70.684 233.843 C 62.412 229.461, 61.143 218.616, 67.825 209.402 L 70.655 205.500 67.343 200.322 C 65.521 197.474, 63.481 193.087, 62.808 190.572 C 62.135 188.058, 61.338 186, 61.035 186 C 60.733 186, 59.230 188.078, 57.696 190.618 M 261.687 211.072 C 252.493 212.563, 249.789 216.824, 253.492 223.985 C 255.679 228.213, 266.227 235.904, 274.390 239.222 C 283.709 243.009, 289.382 246.389, 294.795 251.379 C 309.611 265.035, 313.125 284.114, 304.087 301.829 C 302.939 304.079, 302 306.358, 302 306.893 C 302 308.338, 305.470 309.171, 308.415 308.432 L 311 307.783 311 270.607 L 311 233.432 305.750 228.310 C 292.576 215.458, 275.596 208.815, 261.687 211.072 M 144.316 235.906 C 126.764 247.665, 110.758 263.497, 99.738 280 C 96.984 284.125, 91.924 290.212, 88.494 293.526 C 81.062 300.707, 79.927 303.976, 82.865 309.736 C 85.276 314.461, 87.315 316.279, 89.690 315.821 C 92.113 315.355, 92.547 312.262, 90.507 310.008 C 88.072 307.317, 88.902 303.560, 92 303.251 C 95.278 302.924, 98.114 306.834, 98.761 312.571 C 99.192 316.395, 98.891 317.263, 96.202 319.952 C 94.525 321.629, 92.219 323, 91.077 323 C 88.521 323, 88.495 323.659, 90.893 327.593 C 94.038 332.750, 100.817 337.470, 115.391 344.654 C 129.792 351.751, 137.566 357.424, 138.615 361.601 C 139.417 364.796, 137.464 367, 133.832 367 C 126.333 367, 123.178 377.332, 128.923 383.077 C 131.256 385.410, 132.722 386, 136.189 386 C 141.120 386, 146.596 383.434, 149.208 379.899 C 150.932 377.565, 150.885 377.231, 147.437 367.500 C 143.375 356.038, 139.964 344.019, 137.504 332.500 C 134.321 317.600, 125.019 304.050, 114.618 299.160 C 109.811 296.901, 108.660 294.357, 111.413 292.073 C 112.504 291.167, 113.669 291.253, 116.535 292.450 C 121.524 294.535, 125.220 294.401, 128.238 292.027 C 131.774 289.246, 133.769 284.509, 136.140 273.263 C 139.370 257.948, 144.278 245.440, 151.624 233.803 C 152.945 231.711, 153.824 230, 153.578 230 C 153.332 230, 149.164 232.658, 144.316 235.906 M 179.194 236.790 C 176.554 239.647, 172.426 245.701, 170.022 250.242 C 167.617 254.784, 165.191 258.806, 164.629 259.180 C 163.096 260.201, 160.226 258.300, 159.452 255.751 C 158.622 253.019, 154.224 247, 153.058 247 C 150.435 247, 144.327 268.093, 142.310 284.110 C 140.823 295.927, 140.747 299.498, 141.771 309.673 C 145.702 348.758, 152.685 365.194, 170.014 376.148 C 174.607 379.051, 186.861 382.930, 193.632 383.624 L 200.313 384.308 194.571 377.540 C 187.017 368.635, 182.650 361.690, 176.953 349.519 C 167.004 328.261, 163.756 314.384, 163.726 293 C 163.706 278.992, 163.965 276.637, 166.409 268.537 C 169.757 257.445, 174.449 248.387, 181.115 240.150 C 184.882 235.495, 185.935 233.535, 185.112 232.712 C 184.289 231.889, 182.730 232.964, 179.194 236.790 M 329 274.921 C 329 302.970, 329.191 307, 330.521 307 C 331.358 307, 334.572 304.511, 337.662 301.470 C 344.161 295.074, 360.242 284, 363.030 284 C 365.194 284, 367.209 287.044, 366.164 288.735 C 365.780 289.355, 362.022 292.112, 357.811 294.861 C 353.600 297.609, 346.833 303.014, 342.773 306.870 L 335.391 313.882 320.969 314.968 C 313.037 315.564, 306.100 316.500, 305.554 317.046 C 304.897 317.703, 305.481 318.891, 307.281 320.560 C 309.532 322.647, 310 323.931, 310 328.017 C 310 334.942, 311.365 335.575, 328.500 336.604 C 356.215 338.269, 366.340 336.740, 376.931 329.291 C 383.525 324.653, 387.259 319.983, 385 319.199 C 384.175 318.913, 382.038 317.221, 380.250 315.439 C 375.832 311.035, 375.798 306.439, 380.148 301.485 C 382.233 299.110, 384.005 298.001, 385.398 298.200 C 388.440 298.634, 388.691 302.635, 385.866 305.643 C 384.058 307.567, 383.797 308.454, 384.642 309.795 C 387.406 314.177, 393.455 308.895, 393.455 302.099 C 393.455 296.900, 389.435 291.870, 382.002 287.769 C 376.912 284.960, 375.565 283.567, 372.438 277.874 C 367.373 268.653, 360.994 260.810, 354.242 255.505 C 347.665 250.337, 337.015 244.538, 332.250 243.529 L 329 242.841 329 274.921 M 203.200 313.200 C 201.107 315.293, 201.878 318.799, 206.407 327.770 C 212.004 338.855, 219.489 349.468, 226.786 356.663 C 233.217 363.003, 242.126 370, 243.769 370 C 245.119 370, 249 359.856, 249 356.329 C 249 349.904, 247.009 346.617, 241.010 343.144 C 232.631 338.291, 219.258 327.245, 211.885 319.085 C 208.373 315.199, 205.252 312.015, 204.950 312.010 C 204.648 312.004, 203.860 312.540, 203.200 313.200 M 228.083 316.116 C 233.426 323.620, 259.353 345, 263.109 345 C 263.578 345, 264.241 343.762, 264.581 342.250 C 266.609 333.244, 267.545 331.188, 271.731 326.542 L 276.272 321.500 271.386 321.257 C 263.672 320.872, 255.137 319.036, 249.517 316.550 C 245.773 314.894, 241.823 314.141, 235.242 313.826 L 226.142 313.391 228.083 316.116 M 182.667 315.667 C 179.853 318.480, 187.013 343.620, 194.722 358 C 201.494 370.630, 209.867 378.102, 220.932 381.387 C 226.668 383.091, 240.512 383.599, 241.414 382.139 C 241.707 381.665, 239.146 379.816, 235.723 378.030 C 215.936 367.705, 200.828 350.770, 188.963 325.617 C 186.209 319.778, 183.815 315, 183.644 315 C 183.473 315, 183.033 315.300, 182.667 315.667 M 329.607 343.726 C 329.273 344.060, 329 347.057, 329 350.385 L 329 356.437 334.974 350.526 C 338.259 347.275, 340.847 344.539, 340.724 344.447 C 339.950 343.870, 330.102 343.231, 329.607 343.726" stroke="none" fill="#0d6efd" fill-rule="evenodd"/></svg>