<svg xmlns="http://www.w3.org/2000/svg" width="448" height="448" viewBox="0 0 448 448" version="1.1"><path d="" stroke="none" fill="#ffc107" fill-rule="evenodd"/><path d="M 145.264 44.804 C 129.579 51.083, 123.607 63.909, 130.405 76.716 C 133.777 83.067, 133.396 86.190, 128.334 93.696 C 124.758 98.999, 124.442 103, 127.600 103 C 130.347 103, 136.391 99.941, 141.631 95.899 C 147.300 91.525, 155 82.248, 155 79.791 C 155 78.952, 153.208 77.080, 151.019 75.631 C 141.039 69.027, 147.188 60.219, 160.500 62.051 C 167.437 63.006, 172.875 62.145, 174.314 59.864 C 175.588 57.844, 174.573 55.122, 172.273 54.393 C 166.320 52.505, 162.396 50.131, 159.715 46.795 C 157.181 43.642, 156.059 43.009, 153.083 43.054 C 151.112 43.084, 147.594 43.872, 145.264 44.804 M 315.173 50.075 C 308.516 50.938, 302.262 52.659, 300.380 54.145 C 299.764 54.631, 297.796 58.003, 296.007 61.638 C 290.482 72.860, 279.234 82.535, 267.294 86.336 C 259.084 88.950, 254.806 89.184, 246.527 87.474 C 239.873 86.099, 237.600 86.033, 232.066 87.049 C 228.455 87.713, 223.983 88.873, 222.128 89.628 C 217.440 91.535, 216.641 91.351, 218.443 88.777 C 219.299 87.555, 220 85.322, 220 83.815 C 220 78.981, 223.835 70.564, 227.744 66.819 C 232.854 61.924, 237.030 60, 242.550 60 C 246.483 60, 247.712 60.512, 250.521 63.321 C 252.614 65.414, 254.105 68.096, 254.552 70.571 C 255.583 76.284, 256.521 77, 262.973 77 C 270.087 77, 274.721 75.456, 275.562 72.805 C 276.678 69.288, 274.044 67.751, 268.921 68.932 C 262.516 70.408, 262.228 70.324, 261.470 66.750 C 260.495 62.152, 256.585 57.354, 251.692 54.754 C 248.212 52.904, 245.887 52.523, 238 52.513 C 229.637 52.502, 227.827 52.830, 222.879 55.261 C 215.423 58.922, 208.880 64.821, 203.021 73.163 L 198.219 80.002 197.749 76.251 C 197.187 71.769, 198.094 69.695, 202.746 64.827 C 205.558 61.884, 206.127 60.642, 205.609 58.577 C 204.734 55.091, 201.918 55.255, 197.603 59.044 C 192.325 63.678, 189.644 70.006, 190.285 76.316 C 191.832 91.540, 184.912 102.475, 169.106 109.777 C 162.047 113.039, 148.636 118, 146.879 118 C 145.670 118, 149.790 106.916, 152.546 102.751 C 153.911 100.688, 155.520 99, 156.120 99 C 156.720 99, 158.548 100.125, 160.182 101.500 C 163.947 104.668, 168.495 104.813, 170.098 101.817 C 171.093 99.958, 170.933 99.364, 169.022 97.817 C 167.788 96.818, 166.144 96, 165.368 96 C 164.592 96, 163.445 94.875, 162.818 93.500 C 161.891 91.466, 160.964 91, 157.842 91 C 151.498 91, 143.742 99.343, 141.573 108.500 C 140.421 113.369, 136.079 119.981, 132.671 122.059 C 128.407 124.659, 128 124.539, 128 120.674 C 128 115.864, 124.595 113, 118.877 113 C 116.405 113, 113.509 113.661, 112.441 114.468 C 111.374 115.276, 108.475 115.961, 106 115.990 C 103.525 116.020, 99.538 116.934, 97.141 118.022 C 94.743 119.110, 91.143 120.007, 89.141 120.015 C 81.697 120.045, 76.698 125.036, 76.392 132.743 L 76.205 137.445 71.602 138.619 C 69.071 139.264, 67.011 139.502, 67.024 139.146 C 67.037 138.791, 67.441 136.806, 67.922 134.735 C 68.609 131.777, 68.441 130.531, 67.139 128.924 C 64.911 126.172, 63.272 127.006, 58.052 133.547 C 52.233 140.840, 41.892 149.187, 32.309 154.327 C 23.983 158.792, 22.505 160.979, 26.189 163.380 C 30.808 166.391, 54.170 168.110, 63.500 166.125 C 67.105 165.359, 68.242 161.381, 65.441 159.334 C 63.404 157.843, 63.145 157.975, 73.750 155.096 C 80.440 153.280, 81.001 153.258, 81.010 154.814 C 81.027 157.868, 85.698 166.617, 88.478 168.804 L 91.207 170.951 88.198 178.225 C 78.991 200.484, 73.514 225.476, 72.358 250.500 C 71.821 262.141, 71.379 264.975, 69.736 267.322 C 68.650 268.875, 67.134 272.228, 66.368 274.773 C 63.295 284.981, 70.071 295.530, 81.318 298.047 C 85.591 299.003, 88.851 299.024, 95.737 298.141 C 100.631 297.514, 105.462 297, 106.473 297 C 108.173 297, 108.190 297.133, 106.693 298.787 C 103.157 302.694, 100.631 310.345, 100.680 317 C 100.776 329.990, 108.198 339.222, 120.312 341.422 C 125.478 342.360, 130.269 340.597, 133.950 336.404 C 138.945 330.715, 137.958 323.227, 131.936 321.127 C 129.517 320.284, 128.034 320.377, 125.238 321.545 C 121.192 323.236, 118.798 322.153, 120.922 319.594 C 123.077 316.998, 128.658 315.685, 132.237 316.933 C 142.851 320.633, 144.003 331.559, 134.845 341.671 C 130.466 346.507, 129.879 347.644, 130.405 350.276 C 132.511 360.805, 151.017 371.910, 164.584 370.785 L 169.885 370.345 171.986 375.922 C 173.141 378.990, 175.596 383.568, 177.441 386.096 C 180.260 389.958, 181.942 391.117, 187.965 393.350 C 211.909 402.225, 236.434 405.896, 259.500 404.057 C 274.755 402.841, 286.109 399.961, 297.569 394.400 C 305.061 390.765, 307.634 390, 312.376 390 C 321.762 390, 326.245 388.349, 333.196 382.333 C 336.663 379.332, 340.092 375.751, 340.815 374.375 C 343.393 369.471, 339.704 362.491, 333.923 361.335 C 327.386 360.027, 332.703 356.702, 343.952 355.063 C 359.256 352.833, 381.376 343.225, 386.046 336.778 C 391.849 328.767, 392.042 318.326, 386.543 309.924 C 385.256 307.958, 383.219 302.783, 382.017 298.424 C 377.146 280.764, 370.810 266.707, 364.110 258.698 L 360.093 253.895 363.340 249.642 C 376.876 231.909, 372.914 211.114, 354.236 201.861 C 349.964 199.744, 348.067 199.503, 334.873 199.393 C 326.829 199.325, 319.729 198.950, 319.095 198.559 C 318.462 198.167, 317.165 196.194, 316.214 194.174 C 314.057 189.593, 312.261 189.516, 310.143 193.912 C 306.673 201.116, 298.008 204.022, 291.673 200.107 C 287.609 197.595, 284.561 191.885, 285.432 188.415 C 286.328 184.844, 289 185.316, 289 189.045 C 289 190.985, 289.936 193.027, 291.576 194.667 C 293.745 196.836, 294.784 197.158, 298.154 196.706 C 300.355 196.411, 303.082 195.344, 304.216 194.335 C 308.890 190.172, 310.347 181.159, 307.462 174.254 C 304.374 166.863, 300.360 164.319, 290.424 163.456 C 278.874 162.453, 273.296 158.266, 270.444 148.457 C 266.795 135.903, 257.326 127.286, 244.594 124.933 C 240.330 124.145, 238.275 124.270, 234.511 125.548 C 230.985 126.745, 229.112 126.895, 227.142 126.139 C 221.698 124.050, 217.979 123.865, 212.767 125.424 C 202.491 128.499, 192.976 138.692, 186.613 153.442 C 182.148 163.794, 178.516 167.451, 170.130 170.041 C 162.643 172.354, 159.549 174.807, 157.930 179.712 C 155.518 187.021, 159.825 194.126, 167.546 195.575 C 174.442 196.868, 180.891 191.398, 179.413 185.509 C 178.543 182.044, 181.699 182.078, 183.018 185.548 C 184.374 189.114, 181.973 194.417, 177.810 197.050 C 174.882 198.903, 173.489 199.080, 165.740 198.583 C 155.352 197.916, 154.477 198.467, 149.905 208.550 C 147.111 214.712, 146.826 214.981, 138.519 219.293 L 130 223.716 129.984 216.108 C 129.970 208.908, 129.228 204.894, 125.533 192 C 124.666 188.975, 123.678 183.267, 123.337 179.316 L 122.718 172.132 126.352 168.704 C 131.498 163.851, 133 159.553, 133 149.681 L 133 141.297 139.550 139.524 C 147.420 137.394, 152.537 137.836, 160.016 141.294 C 168.103 145.033, 170.419 145.438, 172.401 143.456 C 174.760 141.097, 174.064 139.804, 169.208 137.526 C 164.745 135.432, 163.790 134, 166.856 134 C 167.877 134, 170.747 132.447, 173.233 130.548 C 181.913 123.921, 185.037 122.843, 198.276 121.906 C 225.493 119.979, 231.976 117.976, 227.023 113.023 C 225.910 111.910, 224.100 111, 223 111 C 220.534 111, 220.377 109.453, 222.750 108.542 C 227.429 106.743, 238.959 105, 246.171 105 C 260.171 105, 272.112 109.210, 276.012 115.520 C 279.786 121.627, 281.623 122.290, 292.500 121.474 C 300.079 120.906, 302.252 120.397, 302.991 119.017 C 303.618 117.844, 303.494 116.690, 302.608 115.479 C 301.461 113.910, 300.276 113.759, 293.303 114.297 C 284.538 114.973, 282.985 114.332, 283.022 110.050 C 283.048 107.056, 286.379 99.345, 288.805 96.662 C 289.737 95.631, 292.265 93.886, 294.423 92.785 C 299.592 90.147, 304.530 90.844, 311.223 95.157 C 322.312 102.304, 329.345 102.077, 335.662 94.368 C 339.413 89.790, 346.013 86, 350.234 86 C 354.341 86, 356 84.972, 356 82.428 C 356 78.857, 353.068 77.797, 346.811 79.107 C 340.299 80.470, 336.819 82.529, 331.042 88.439 C 324.978 94.642, 321.436 94.485, 314.260 87.694 C 307.744 81.527, 309.192 74.572, 317.784 70.771 C 321.903 68.949, 323.425 68.818, 331.949 69.549 C 337.202 69.999, 344.906 70.396, 349.068 70.432 C 356.011 70.491, 357.251 70.171, 364.068 66.563 C 368.156 64.401, 373.300 62.376, 375.500 62.065 C 379.152 61.549, 379.500 61.239, 379.500 58.500 C 379.500 55.631, 379.292 55.487, 374.760 55.196 C 370.866 54.946, 368.901 55.516, 363.760 58.388 C 348.924 66.676, 336 65.069, 336 54.936 C 336 51.578, 335.596 50.797, 333.435 49.975 C 330.497 48.858, 324.287 48.892, 315.173 50.075 M 183.200 55.200 C 181.400 57, 181.753 59.798, 183.928 60.961 C 187.664 62.961, 190.961 59.664, 188.961 55.928 C 187.798 53.753, 185 53.400, 183.200 55.200 M 282.046 59.445 C 279.957 61.962, 281.163 65.461, 284.242 65.816 C 286.361 66.060, 287.242 65.563, 288.123 63.629 C 288.750 62.253, 288.993 60.424, 288.663 59.564 C 287.909 57.599, 283.641 57.523, 282.046 59.445 M 368 94 C 365.590 96.410, 365.513 97.370, 367.564 99.421 C 368.949 100.806, 369.450 100.818, 371.943 99.530 C 375.272 97.808, 376.482 95.285, 374.895 93.373 C 373.266 91.410, 370.322 91.678, 368 94 M 354.500 104.878 C 352.300 105.886, 347.294 109.691, 343.376 113.332 C 339.458 116.974, 335.041 120.414, 333.561 120.977 C 329.773 122.417, 324.378 122.250, 317.586 120.480 C 313.179 119.332, 311.416 119.240, 310.376 120.103 C 307.522 122.471, 308.941 124.865, 315.847 129.332 C 323.294 134.150, 325.144 136.310, 329.866 145.707 C 335.787 157.489, 341.638 162, 351 162 C 356.297 162, 358.545 160.292, 357.515 157.048 C 356.979 155.360, 356.024 155, 352.080 155 C 346.181 155, 341.460 152.081, 338.282 146.470 C 337.045 144.287, 336.025 142.221, 336.016 141.879 C 336.007 141.538, 339.712 140.935, 344.250 140.541 C 348.788 140.146, 353.069 139.352, 353.764 138.777 C 354.665 138.032, 354.849 135.976, 354.405 131.616 C 353.621 123.929, 354.987 118.776, 359.486 112.449 C 363.513 106.785, 363.539 106.681, 361.429 104.571 C 359.484 102.627, 359.401 102.631, 354.500 104.878 M 77.086 109.618 C 74.728 112.616, 74.774 113.824, 77.310 115.423 C 80.500 117.436, 85.405 112.454, 83.388 109.250 C 81.668 106.519, 79.420 106.650, 77.086 109.618 M 117 120.733 C 114.599 121.640, 114.032 123.165, 114.015 128.750 C 113.999 134.227, 114.337 134.552, 118.794 133.358 C 120.911 132.791, 121.066 132.275, 120.794 126.701 C 120.501 120.682, 119.849 119.657, 117 120.733 M 97.693 125.944 C 95.699 127.221, 93.661 127.603, 90.654 127.264 C 84.715 126.595, 83.845 127.998, 84.206 137.655 C 84.492 145.278, 84.571 145.500, 87 145.500 C 89.333 145.500, 89.534 145.099, 90.004 139.500 C 90.582 132.623, 91.349 131, 94.024 131 C 96.878 131, 98 134.086, 98 141.934 C 98 148.304, 98.195 149, 99.975 149 C 101.682 149, 101.818 148.652, 100.975 146.435 C 98.908 140.996, 100.992 136, 105.329 136 C 106.705 136, 107 134.940, 107 130 L 107 124 103.750 124.073 C 101.963 124.113, 99.237 124.955, 97.693 125.944 M 179.071 140.867 C 178.486 141.960, 178.279 143.563, 178.611 144.428 C 179.428 146.559, 184.867 146.510, 185.691 144.364 C 187.222 140.374, 181.074 137.125, 179.071 140.867 M 112.190 142.178 C 107.110 143.314, 107.148 144.785, 112.322 147.258 C 116.908 149.450, 117.098 152.082, 112.887 155.081 C 111.175 156.300, 109.132 158.834, 108.347 160.711 C 107.155 163.565, 106.476 164.074, 104.210 163.813 C 102.396 163.603, 101.405 162.839, 101.213 161.500 C 100.968 159.787, 100.164 159.500, 95.611 159.500 C 90.890 159.500, 90.412 159.687, 91.341 161.175 C 91.916 162.096, 94.100 163.812, 96.193 164.989 C 98.287 166.165, 100 167.718, 100 168.440 C 100 169.161, 98.821 172.395, 97.380 175.626 C 87.476 197.836, 80.042 229.993, 80.013 250.750 L 80 260 82.599 260 C 92.256 260, 99.883 271.311, 95.374 278.944 C 93.958 281.341, 92.922 282.017, 91.009 281.793 C 88.669 281.520, 88.517 281.168, 88.759 276.588 C 89.072 270.641, 87.154 268, 82.519 268 C 79.289 268, 76.371 270.323, 74.125 274.684 C 71.490 279.801, 73.892 286.859, 79.205 289.606 C 81.868 290.983, 84.066 291.123, 92.938 290.482 C 107.770 289.411, 128.361 289.345, 135.738 290.347 L 141.976 291.194 139.588 285.794 C 136.938 279.802, 137.488 277, 141.314 277 C 143.075 277, 144.185 278.407, 146.728 283.867 C 152.187 295.582, 162.788 303.717, 178.141 307.972 C 188.354 310.802, 194.576 310.652, 199.268 307.464 C 201.321 306.069, 202.971 304.607, 202.935 304.214 C 202.899 303.821, 199.497 300.800, 195.375 297.500 C 184.679 288.938, 180.084 280.382, 181.543 271.748 C 182.099 268.452, 183.539 266.401, 189.115 260.956 C 195.392 254.826, 196 253.875, 196 250.175 C 196 245.908, 194.381 243.789, 192.904 246.122 C 192.423 246.880, 192.024 248.758, 192.015 250.295 C 191.995 254.061, 187.940 258, 184.084 258 C 178.027 258, 174.394 250.322, 175.264 239.361 C 175.753 233.203, 179.526 223.287, 182.723 219.753 C 183.958 218.388, 184.072 217.672, 183.194 216.794 C 181.702 215.302, 166.873 217.166, 158.205 219.934 C 142.892 224.827, 124.426 235.333, 118.560 242.492 C 114.597 247.329, 113.043 247.900, 110.573 245.431 C 108.557 243.414, 109.617 241.270, 115.999 234.456 C 120.124 230.052, 120.868 228.576, 121.872 222.812 C 123.193 215.226, 122.322 207.137, 119.092 197 C 117.953 193.425, 116.475 185.655, 115.808 179.732 L 114.595 168.964 119.493 164.655 C 124.320 160.407, 124.401 160.237, 125.111 152.922 C 126.154 142.159, 125.706 140.976, 120.642 141.107 C 118.364 141.166, 114.561 141.648, 112.190 142.178 M 364.200 153.200 C 362.428 154.972, 362.734 156.700, 365.115 158.368 C 368.598 160.808, 371.802 158.102, 370.455 153.859 C 369.786 151.749, 366.045 151.355, 364.200 153.200 M 222.483 158.535 C 218.527 160.488, 216.759 163.423, 215.976 169.339 C 215.399 173.700, 215.552 174.259, 217.532 175.012 C 221.968 176.699, 221.627 182, 217.082 182 C 214.612 182, 214.203 182.583, 212.344 188.750 C 210.510 194.836, 210.467 195.567, 211.905 196.180 C 214.668 197.357, 215 197.084, 215 193.635 C 215 189.356, 218.331 185, 221.604 185 C 224.866 185, 225.696 187.551, 223.593 191.111 C 221.914 193.954, 221.924 194, 224.193 194.011 C 225.462 194.017, 228.554 194.645, 231.065 195.407 C 233.576 196.170, 236.849 196.560, 238.338 196.276 C 242.164 195.544, 245 191.521, 245 186.823 C 245 182.058, 242.314 168.690, 240.469 164.272 C 237.840 157.978, 229.197 155.221, 222.483 158.535 M 228 174.694 C 225.304 175.657, 223.987 178.108, 225.074 180.138 C 227.349 184.388, 237.007 180.750, 235.560 176.188 C 234.869 174.012, 231.674 173.381, 228 174.694 M 285.440 215.451 C 282.235 220.343, 285.962 224.078, 299.393 229.431 C 306.274 232.173, 306.289 232.174, 308.893 230.240 C 315.022 225.685, 311.526 219.372, 300.705 215.458 C 291.791 212.234, 287.549 212.232, 285.440 215.451 M 275.592 239.560 C 272.287 244.537, 272 245.556, 272 252.306 C 272 261.833, 269.885 267.799, 264.310 274 C 258.511 280.451, 253.190 282.055, 250.250 278.240 C 247.450 274.606, 248.999 270.336, 254.500 266.521 C 256.080 265.426, 256.243 264.874, 255.277 263.894 C 252.262 260.837, 245.002 268.338, 245.013 274.500 C 245.016 276.150, 246.090 279.712, 247.399 282.416 C 249.371 286.489, 249.602 287.844, 248.742 290.312 C 245.594 299.341, 226.782 309.127, 215.177 307.772 C 212.013 307.403, 210.560 308.046, 204.507 312.493 C 194.242 320.036, 184.328 326.253, 172.487 332.577 C 164.419 336.885, 162 338.648, 162 340.220 C 162 342.207, 168.229 349, 170.051 349 C 172.037 349, 192.289 339.587, 202.401 333.963 C 213.721 327.669, 214.884 327.284, 216.800 329.200 C 218.935 331.335, 218.110 333.058, 211.750 339.736 C 204.741 347.095, 193.748 355.619, 183.629 361.538 C 176.948 365.446, 176.877 365.532, 177.514 368.996 C 178.556 374.661, 182.269 380.556, 184.547 380.163 C 185.621 379.977, 190.700 377.277, 195.834 374.163 C 226.050 355.831, 255.285 327.176, 265.484 305.892 C 267.418 301.858, 269 297.978, 269 297.271 C 269 296.564, 265.288 298.804, 260.750 302.248 C 250.841 309.769, 243.909 313.563, 241.655 312.698 C 238.047 311.313, 239.993 307.689, 249.765 297.591 C 260.205 286.803, 268.097 276.777, 275.026 265.500 C 279.921 257.533, 287.019 242.876, 286.962 240.853 C 286.941 240.109, 285.183 238.296, 283.054 236.825 L 279.184 234.150 275.592 239.560 M 309.393 247.082 C 306.458 247.933, 306.251 248.323, 305.643 254.138 C 305.290 257.524, 305 263.719, 305 267.907 C 305 283.836, 300.476 329.372, 297.330 345.100 C 296.743 348.033, 296.854 348.184, 299.102 347.520 C 308.671 344.692, 319.350 333.965, 321.992 324.528 C 323.440 319.357, 322.926 297.836, 320.964 281.500 C 319.655 270.596, 316.245 251.776, 314.974 248.431 C 313.965 245.779, 313.921 245.768, 309.393 247.082 M 329.235 251.445 C 327.439 252.254, 325.710 253.591, 325.394 254.416 C 325.077 255.241, 325.739 262.347, 326.863 270.208 C 327.988 278.069, 329.221 288.506, 329.604 293.402 C 330.202 301.060, 330.668 302.716, 332.932 305.250 C 334.973 307.534, 336.681 308.316, 340.532 308.729 C 346.142 309.330, 348 310.415, 348 313.087 C 348 315.191, 345.990 316.435, 341.084 317.367 C 335.346 318.458, 331.338 322.258, 330.578 327.330 C 329.511 334.445, 323.531 342.197, 314.074 348.724 C 313.840 348.886, 312.701 356.439, 311.542 365.509 L 309.436 382 315.632 382 C 321.668 382, 321.987 381.864, 327.914 376.750 C 331.261 373.863, 334 370.964, 334 370.309 C 334 368.030, 332.103 367.976, 327.671 370.129 C 319.519 374.090, 317.342 370.867, 321.933 361.634 C 326.882 351.683, 329.095 350.091, 340.942 347.963 C 357.469 344.995, 376.193 337.328, 380.259 331.864 C 383.033 328.135, 383.711 320.733, 381.576 317.475 C 377.749 311.635, 370 312.671, 370 319.023 C 370 321.617, 370.360 322, 372.800 322 C 377.852 322, 379.986 326.867, 375.895 329.056 C 369.194 332.642, 360.409 324.476, 362.406 316.518 C 363.428 312.447, 368.781 307.132, 372.576 306.420 C 376.556 305.673, 376.590 305.463, 374.054 297.375 C 369.550 283.011, 361.004 268.099, 352.271 259.366 C 344.249 251.344, 335.860 248.460, 329.235 251.445 M 293.046 260.250 C 290.175 278.582, 286.472 293.720, 281.287 308.317 C 279.369 313.716, 278.065 318.399, 278.390 318.723 C 279.083 319.416, 285.974 316.517, 291.083 313.384 L 294.665 311.186 295.830 294.343 C 298.326 258.229, 298.416 254.876, 296.906 253.921 C 294.477 252.383, 294.208 252.824, 293.046 260.250 M 178.040 298.452 C 175.075 302.025, 179.809 306.018, 185.360 304.625 C 189.333 303.627, 189.015 299.549, 184.851 298.098 C 180.695 296.649, 179.484 296.712, 178.040 298.452 M 169.557 314.824 C 169.949 315.746, 170.843 318.075, 171.542 320 C 172.242 321.925, 173.111 323.443, 173.474 323.373 C 173.837 323.303, 176.360 322.033, 179.082 320.552 C 184.115 317.812, 184.720 316, 180.600 316 C 179.345 316, 176.186 315.358, 173.580 314.574 C 169.214 313.260, 168.899 313.280, 169.557 314.824 M 225.611 319.572 C 225.279 320.437, 225.486 322.040, 226.071 323.133 C 228.074 326.875, 234.222 323.626, 232.691 319.636 C 231.867 317.490, 226.428 317.441, 225.611 319.572 M 258.496 340.927 C 249.212 351.452, 237.205 362, 226 369.474 C 216.145 376.047, 200.533 384.333, 195.750 385.529 C 194.238 385.907, 193 386.522, 193 386.894 C 193 387.674, 209.876 392.482, 217.917 393.993 C 224.260 395.186, 224.314 395.159, 235.392 385.498 C 246.987 375.385, 258.604 360.158, 267.968 342.798 L 271.923 335.465 268.550 334.409 C 265.195 333.360, 265.139 333.396, 258.496 340.927 M 278.368 346.601 C 264.801 366.716, 250.339 383.636, 239.796 391.730 C 237.209 393.716, 235.323 395.714, 235.605 396.170 C 235.887 396.627, 241.662 397, 248.438 397 L 260.758 397 267.129 390.240 C 273.729 383.237, 279.527 375.158, 282.646 368.615 C 284.344 365.055, 284.349 364.775, 282.738 363.873 C 279.296 361.947, 278.859 359.432, 281.016 353.959 C 283.183 348.463, 287.099 335, 286.532 335 C 286.345 335, 282.671 340.220, 278.368 346.601" stroke="none" fill="#ffc107" fill-rule="evenodd"/></svg>