<svg xmlns="http://www.w3.org/2000/svg" width="448" height="448" viewBox="0 0 448 448" version="1.1"><path d="" stroke="none" fill="#080404" fill-rule="evenodd"/><path d="M 65.200 47.200 C 64.320 48.080, 64 56.428, 64 78.526 L 64 108.651 66.576 111.076 C 67.993 112.409, 77.555 119.408, 87.826 126.630 C 105.066 138.752, 109.668 143, 105.558 143 C 104.684 143, 101.507 141.365, 98.497 139.367 C 93.578 136.100, 92.594 135.806, 88.762 136.451 C 86.418 136.846, 83.032 137.406, 81.237 137.695 C 78.915 138.070, 76.365 137.435, 72.392 135.491 C 67.548 133.121, 66.622 132.950, 65.378 134.193 C 63.309 136.263, 65.687 141.444, 71.338 147.176 C 75.414 151.311, 76.319 151.748, 82.042 152.347 C 85.480 152.706, 91.265 153.016, 94.897 153.035 C 104.198 153.084, 115.940 155.368, 122.626 158.429 C 127.623 160.717, 139.899 169.763, 142.879 173.354 C 143.642 174.273, 143.320 175.856, 141.719 179.063 C 140.125 182.256, 139.406 185.774, 139.155 191.612 C 138.758 200.846, 140.052 204.476, 144.994 207.996 C 146.657 209.180, 148.891 212.067, 149.959 214.411 C 151.070 216.849, 154.275 220.701, 157.450 223.413 C 162.577 227.793, 162.995 228.473, 162.939 232.327 C 162.906 234.622, 162.075 240.550, 161.093 245.500 L 159.307 254.500 155.904 254.019 C 150.717 253.287, 132.083 253.410, 126.897 254.211 L 122.293 254.922 121.050 250.711 C 119.266 244.664, 114.548 234.700, 112.771 233.225 C 110.850 231.631, 108 232.666, 108 234.958 C 108 235.917, 109.135 238.838, 110.523 241.448 C 111.911 244.058, 113.906 249.294, 114.956 253.083 C 117.499 262.259, 117.554 262.323, 122.322 261.684 C 130.481 260.589, 145.297 265.272, 152.288 271.154 L 155.076 273.500 152.650 283 C 149.098 296.906, 144.642 312.067, 137.841 333.384 C 132.004 351.682, 131.827 352.554, 132.158 361.441 C 132.465 369.671, 132.887 371.397, 136.266 378.229 C 140.282 386.349, 146.862 393.283, 153.574 396.468 C 156.846 398.021, 157.386 398.043, 158.750 396.678 C 160.883 394.545, 159.743 392.420, 155.231 390.118 C 146.045 385.432, 138.822 373.272, 138.181 361.418 C 137.862 355.510, 138.329 352.693, 141.001 344.418 C 145.149 331.575, 148.431 320.912, 152.056 308.500 C 153.662 303, 155.390 297.150, 155.895 295.500 C 156.401 293.850, 157.393 290.129, 158.101 287.230 L 159.388 281.961 163.709 290.230 C 169.318 300.966, 174.083 307.365, 178.784 310.476 C 182.542 312.963, 182.627 312.971, 190.035 311.553 C 194.141 310.767, 197.782 310.434, 198.127 310.812 C 198.472 311.190, 199.436 314.425, 200.270 318 C 201.103 321.575, 202.469 326.975, 203.304 330 C 207.629 345.659, 206.924 350.169, 198.836 358.592 C 192.643 365.042, 191.620 368.227, 195.560 368.793 C 197.937 369.135, 209.346 357.851, 210.986 353.536 C 212.594 349.308, 212.125 338.123, 210.021 330.500 C 208.958 326.650, 207.399 321.025, 206.556 318 C 204.123 309.268, 203.704 309.665, 214.750 310.240 C 220.113 310.520, 225.122 310.917, 225.883 311.124 C 226.709 311.349, 228.600 309.254, 230.574 305.927 C 235.823 297.084, 244.980 292, 255.657 292 C 265.213 292, 263.951 289.103, 248.585 275.763 C 241.787 269.862, 241.590 269.770, 236.889 270.327 C 229.812 271.165, 226.386 273.334, 217.163 282.815 C 208.845 291.365, 208.812 291.386, 203.073 291.801 C 193.805 292.471, 188.897 288.770, 177.993 272.889 C 174.741 268.153, 170.470 262.864, 168.502 261.136 C 165.120 258.166, 164.976 257.790, 165.867 254.247 C 166.385 252.186, 167.379 246.812, 168.076 242.305 L 169.342 234.110 172.198 236.513 C 175.372 239.184, 178 238.850, 178 235.775 C 178 233.627, 174.775 230.192, 163.292 220.111 C 158.681 216.063, 155.681 212.563, 154.966 210.396 C 154.331 208.473, 151.936 205.442, 149.424 203.384 C 145.331 200.030, 145.003 199.413, 145.044 195.130 C 145.125 186.505, 146.579 181.774, 150.156 178.497 C 153.898 175.068, 173.712 166, 177.461 166 C 182.615 166, 180.637 168.037, 171.012 172.642 C 161.582 177.154, 158.950 179.493, 160.494 181.991 C 161.698 183.939, 165.070 182.951, 175.825 177.500 C 187.184 171.743, 193.459 170.426, 194.657 173.548 C 195.299 175.221, 193.740 176.651, 188.063 179.594 C 186.103 180.609, 181.663 183.197, 178.197 185.344 C 173.270 188.395, 171.959 189.709, 172.197 191.363 C 172.363 192.527, 173.177 193.608, 174.005 193.766 C 174.833 193.924, 180.626 191.116, 186.878 187.526 C 203.557 177.950, 208 178.465, 208 189.970 L 208 195.072 204.341 192.586 C 201.694 190.787, 200.210 190.352, 198.976 191.013 C 196.392 192.395, 181 209.094, 181 210.514 C 181 211.197, 181.673 212.313, 182.495 212.996 C 183.698 213.995, 184.465 213.925, 186.428 212.639 C 188.795 211.088, 188.953 211.152, 191.903 214.877 C 197.416 221.839, 197.452 222.100, 197.477 255.284 C 197.496 281.041, 197.736 286.215, 198.946 286.965 C 199.810 287.500, 201.112 287.475, 202.181 286.903 C 203.825 286.023, 203.991 283.644, 204.235 257.488 L 204.500 229.031 209.500 233.694 C 212.250 236.259, 221.474 244.915, 229.997 252.929 C 238.520 260.943, 249.086 270.875, 253.477 275 C 257.867 279.125, 270.267 291.275, 281.032 302 C 301.586 322.479, 303.196 324.665, 307.538 338 L 309.655 344.500 315.077 345.312 C 326.525 347.026, 337.563 350.106, 341.457 352.674 C 343.681 354.140, 350.675 359.445, 357 364.463 C 372.389 376.672, 390.101 390.637, 396.099 395.289 C 400.179 398.454, 401.315 398.902, 402.992 398.004 C 404.096 397.413, 405 396.546, 405 396.078 C 405 395.609, 401.718 390.314, 397.707 384.310 C 391.136 374.474, 386.562 365.948, 377.139 345.962 L 374.056 339.425 367.778 338.108 C 358.090 336.075, 341.239 330.234, 333.832 326.342 C 325.948 322.199, 324.697 320.131, 321.911 306.635 C 319.905 296.913, 319.583 287.652, 320.969 279.500 C 321.631 275.604, 321.479 273.967, 320.279 272.086 C 317.367 267.521, 310.718 260.974, 304.453 256.504 C 293.420 248.630, 287.151 239.257, 284.620 226.849 C 283.298 220.372, 281.048 217.552, 278.907 219.693 C 277.105 221.495, 276.238 233.627, 277.210 243.425 C 278.283 254.248, 281.074 261.261, 285.370 263.930 C 287.091 264.999, 290.267 267.690, 292.426 269.909 C 295.562 273.132, 296.479 274.943, 296.988 278.907 C 297.581 283.527, 297.496 283.801, 295.764 282.873 C 294.740 282.326, 280.987 269.020, 265.201 253.305 C 249.416 237.591, 232.338 220.894, 227.250 216.201 C 222.162 211.508, 218 207.054, 218 206.303 C 218 202.966, 221.202 204.033, 226.550 209.151 C 229.625 212.093, 232.611 214.667, 233.186 214.872 C 235.240 215.602, 235.964 212.386, 235.408 205 C 234.706 195.666, 238.008 181.784, 243.572 170.682 L 247.280 163.284 244.765 157.892 C 243.382 154.926, 241.700 150.025, 241.028 147 C 240.356 143.975, 239.161 140.143, 238.372 138.484 C 235.338 132.106, 222.534 126.051, 208.785 124.492 C 194.143 122.831, 187.959 116.645, 186.153 101.852 C 185.605 97.358, 185.150 96.450, 183.318 96.189 C 179.582 95.658, 178.766 98.964, 179.198 112.866 C 179.526 123.400, 180 126.497, 182.048 131.500 L 184.504 137.500 191.502 138.094 C 200.672 138.871, 205.506 140.301, 211.219 143.924 C 219.248 149.016, 222.448 158.708, 219.997 170.513 C 218.659 176.961, 214.215 187.619, 214.082 184.700 C 213.852 179.642, 208.132 174, 203.235 174 C 202.103 174, 200.740 172.679, 199.768 170.640 C 198.477 167.932, 197.279 167.056, 193.607 166.131 C 191.100 165.500, 188.701 165.087, 188.275 165.214 C 187.849 165.341, 186.044 163.966, 184.264 162.159 C 181.280 159.130, 180.682 158.925, 176.614 159.535 C 172.219 160.194, 172.189 160.178, 169.600 155.761 C 166.545 150.548, 166.281 145.849, 168.834 142.154 C 172.078 137.461, 174 131.110, 174 125.087 C 174 117.925, 172.496 116.911, 167.204 120.507 C 165.187 121.878, 163.190 123, 162.768 123 C 160.632 123, 163.067 107.110, 166.656 97.626 L 168.500 92.751 160.609 85.514 L 152.718 78.277 143.601 77.733 C 134.244 77.175, 126.539 74.656, 120.047 70.034 C 110.914 63.530, 111.020 72.642, 120.194 82.594 C 124.766 87.554, 128.913 89.985, 136.144 91.943 C 138.698 92.635, 142.410 94.538, 144.394 96.173 C 149.109 100.059, 149.129 103.593, 144.500 114.276 C 142.575 118.718, 141 122.948, 141 123.676 C 141 126.164, 139.163 124.997, 130.879 117.250 C 119.099 106.234, 114.149 101.140, 100.476 85.966 C 95.712 80.679, 78.977 59.676, 73.695 52.353 C 70.655 48.140, 68.271 46, 66.618 46 C 66.498 46, 65.860 46.540, 65.200 47.200 M 100.053 55.436 C 97.782 58.173, 103.761 65.272, 106.749 63.387 C 109.330 61.758, 109.270 60.474, 106.452 57.126 C 103.565 53.695, 101.870 53.247, 100.053 55.436 M 182.950 64.450 C 181.345 66.055, 181.858 67.475, 185.646 71.900 C 189.730 76.671, 195.023 80.315, 199.464 81.413 C 212.591 84.658, 230.990 100.370, 228.688 106.369 C 227.754 108.805, 225.237 108.368, 217.588 104.443 C 211.305 101.219, 210.532 101.039, 209.105 102.467 C 206.814 104.757, 208.545 106.967, 215.296 110.372 C 223.476 114.499, 228.834 114.908, 232.567 111.692 C 235.431 109.224, 235.496 108.959, 235.316 100.333 C 235.041 87.078, 230.491 75.951, 221.714 67.068 L 218.322 63.635 201.111 63.568 C 191.475 63.530, 183.482 63.918, 182.950 64.450 M 272.667 80.667 C 271.338 81.995, 272.044 84.953, 273.931 85.963 C 276.675 87.432, 279.432 84.675, 277.963 81.931 C 276.953 80.044, 273.995 79.338, 272.667 80.667 M 344.250 108.296 C 339.245 110.706, 338.971 112.341, 342.750 117.253 C 349.315 125.786, 359.025 128.474, 366.102 123.716 C 371.130 120.336, 370.878 118.324, 364.603 111.742 C 359.224 106.099, 359.038 106.002, 353.815 106.124 C 350.746 106.196, 346.704 107.114, 344.250 108.296 M 289 115.112 C 284.067 118.382, 277.009 121.868, 267 125.978 C 262.129 127.978, 260.420 129.194, 260.180 130.828 C 259.730 133.892, 262.176 134.495, 267.761 132.697 C 277.422 129.585, 287.312 128.529, 293.658 129.932 C 301.030 131.561, 302 132.379, 302 136.967 C 302 140.126, 301.013 141.812, 295.482 148.095 C 284.124 160.999, 278.496 175.489, 277.316 194.862 C 276.747 204.192, 276.834 204.841, 278.786 205.886 C 281.692 207.441, 283.580 205.289, 284.460 199.419 C 284.846 196.845, 285.629 193.561, 286.200 192.120 C 293.061 174.807, 303.543 162.391, 316.259 156.516 C 320.465 154.573, 324.102 152.219, 324.396 151.251 C 326.909 142.970, 327.152 128.406, 324.880 122.250 C 324.145 120.260, 323.359 120, 318.062 120 C 311.811 120, 303.922 117.505, 298.927 113.948 C 295.378 111.421, 294.393 111.537, 289 115.112 M 247.046 133.444 C 244.345 136.699, 248.815 140.614, 251.811 137.618 C 253.084 136.344, 253.215 135.563, 252.376 134.231 C 250.916 131.913, 248.601 131.571, 247.046 133.444 M 104.217 163.561 C 97.436 168.310, 97.283 180.824, 103.921 187.750 C 106.220 190.148, 110.783 190.721, 113.976 189.013 C 117.151 187.314, 120.176 181.295, 120.248 176.536 C 120.329 171.176, 116.534 165.539, 111.400 163.394 C 107.224 161.649, 106.936 161.656, 104.217 163.561 M 344.089 189.393 C 342.633 191.147, 344.230 195, 346.413 195 C 348.737 195, 350.521 192.049, 349.335 190.166 C 347.926 187.929, 345.590 187.584, 344.089 189.393 M 82.752 208.322 C 76.870 216.200, 70.878 224.756, 69.435 227.337 C 66.531 232.534, 64.090 241.511, 64.036 247.201 C 63.953 255.781, 69.775 271.035, 79.700 288.241 L 84.303 296.223 87.902 295.635 C 89.881 295.312, 93.750 294.578, 96.500 294.004 C 102.806 292.686, 105.960 293.347, 113.665 297.600 C 120.029 301.113, 123 301.214, 123 297.917 C 123 296.890, 120.090 291.550, 116.534 286.052 C 111.496 278.264, 109.452 275.920, 107.284 275.445 C 94.116 272.560, 85.840 264.945, 83.021 253.122 C 81.237 245.639, 82.894 238.670, 88.099 231.757 C 92.313 226.161, 92.869 224.572, 95.535 210.500 C 98.555 194.564, 98.565 194, 95.829 194 C 93.929 194, 91.285 196.896, 82.752 208.322 M 98.465 216.057 C 97.405 217.772, 98.870 221.860, 100.942 222.969 C 102.384 223.741, 103.249 223.608, 104.423 222.434 C 105.826 221.031, 105.831 220.573, 104.467 217.936 C 102.949 215, 99.739 213.995, 98.465 216.057 M 355.394 216.454 C 353.727 217.672, 353.500 219.204, 353.500 229.211 L 353.500 240.584 357.750 245.923 C 362.815 252.286, 365 258.961, 365 268.075 C 365 275.970, 366.589 277.502, 370.611 273.480 C 375.648 268.443, 378.911 256.850, 378.964 243.798 L 379 235.096 374.635 232.093 C 372.235 230.442, 367.350 225.935, 363.780 222.079 C 357.847 215.672, 357.126 215.188, 355.394 216.454 M 93.047 336.443 C 91.060 338.838, 92.424 340.579, 97.374 341.965 C 102.704 343.457, 105 342.867, 105 340.007 C 105 336.699, 95.248 333.791, 93.047 336.443 M 311.144 359.327 C 308.671 362.306, 310.856 364, 317.173 364 C 323.085 364, 323.130 363.978, 322.816 361.250 C 322.523 358.698, 322.133 358.479, 317.411 358.203 C 313.936 358.001, 311.949 358.357, 311.144 359.327" stroke="none" fill="#040404" fill-rule="evenodd"/></svg>