<svg xmlns="http://www.w3.org/2000/svg" width="446" height="446" viewBox="0 0 446 446" version="1.1"><path d="" stroke="none" fill="#0d6efd" fill-rule="evenodd"/><path d="M 218.344 41.630 C 216.370 45.903, 213.888 51.897, 212.829 54.950 C 211.770 58.002, 210.025 64.921, 208.951 70.324 C 207.878 75.726, 207 81.600, 207 83.377 C 207 85.354, 208.116 88.136, 209.879 90.553 C 211.463 92.724, 213.289 96.975, 213.936 100 C 214.584 103.025, 215.379 110.080, 215.703 115.677 C 216.028 121.274, 215.744 132.974, 215.073 141.677 C 214.403 150.380, 213.631 158.287, 213.360 159.250 C 212.983 160.582, 211.797 161, 208.393 161 C 205.933 161, 202.251 160.141, 200.210 159.092 C 198.170 158.042, 195.337 155.904, 193.916 154.342 C 192.495 152.779, 190.422 149.896, 189.310 147.936 C 188.197 145.976, 186.355 141.476, 185.217 137.936 C 184.078 134.396, 182.583 127.450, 181.895 122.500 C 181.207 117.550, 180.678 106.525, 180.719 98 C 180.761 89.475, 181.231 79.585, 181.763 76.021 C 182.445 71.462, 182.404 69.018, 181.625 67.771 C 181.017 66.797, 179.840 66.003, 179.009 66.007 C 178.179 66.011, 176.525 67.473, 175.334 69.257 C 174.142 71.041, 171.875 74.750, 170.295 77.500 C 168.715 80.250, 165.983 85.875, 164.223 90 C 162.464 94.125, 160.365 100.396, 159.558 103.936 C 158.092 110.367, 158.093 110.377, 161.095 116.863 C 163.758 122.616, 164.201 124.955, 164.993 137.427 C 165.485 145.167, 166.410 153.284, 167.049 155.464 C 167.689 157.644, 169.671 161.708, 171.453 164.494 C 173.236 167.281, 176.845 171.454, 179.473 173.767 C 182.102 176.081, 186.558 179.055, 189.376 180.377 C 192.194 181.698, 197.819 183.711, 201.875 184.848 C 205.932 185.986, 210.099 187.684, 211.135 188.622 C 212.172 189.560, 213.690 192.586, 214.510 195.346 C 215.587 198.971, 216 205.307, 216 218.182 C 216 232.620, 215.740 236, 214.627 236 C 213.872 236, 211.104 235.049, 208.477 233.887 C 204.376 232.073, 203.165 231.934, 199.923 232.905 C 197.847 233.527, 195.007 235.391, 193.613 237.047 C 192.220 238.704, 190.800 241.548, 190.459 243.368 C 190.079 245.392, 190.419 248.068, 191.336 250.261 C 192.159 252.232, 193.948 254.575, 195.311 255.468 C 196.673 256.361, 199.349 257.345, 201.255 257.654 C 203.597 258.034, 206.227 257.551, 209.361 256.165 L 214 254.112 214.001 305.806 L 214.001 357.500 199.751 357.168 C 191.913 356.986, 182.412 357.253, 178.637 357.762 C 173.416 358.467, 170.816 358.358, 167.767 357.308 C 165.563 356.548, 162.351 355.210, 160.630 354.334 C 158.908 353.458, 155.381 351.200, 152.792 349.316 C 150.202 347.432, 145.373 342.749, 142.059 338.908 C 137.718 333.877, 135.591 330.399, 134.446 326.463 C 132.996 321.476, 132.996 320.525, 134.443 315.549 C 135.440 312.118, 137.858 307.818, 140.968 303.942 C 144.539 299.492, 146.092 296.568, 146.567 293.399 C 146.929 290.987, 146.937 287.476, 146.584 285.597 C 146.171 283.396, 144.540 280.914, 141.997 278.616 C 139.826 276.655, 136.887 274.759, 135.466 274.402 C 134.044 274.045, 130.854 273.982, 128.376 274.261 C 125.318 274.606, 122.585 275.802, 119.869 277.985 C 117.668 279.754, 115.637 280.971, 115.356 280.689 C 115.074 280.408, 114.593 275.066, 114.285 268.819 C 113.863 260.262, 114.145 255.390, 115.427 249.065 C 116.362 244.448, 118.002 238.957, 119.070 236.863 C 120.138 234.769, 122.453 231.415, 124.214 229.409 C 125.975 227.404, 129.009 224.778, 130.958 223.574 C 132.906 222.370, 136.598 220.601, 139.163 219.643 C 141.728 218.685, 145.055 216.686, 146.556 215.200 C 148.058 213.715, 150.112 210.700, 151.121 208.500 C 152.130 206.300, 152.966 202.908, 152.978 200.962 C 152.990 199.016, 151.988 195.442, 150.750 193.020 C 149.512 190.599, 147.230 187.691, 145.677 186.559 C 143.358 184.868, 141.393 184.508, 134.677 184.542 C 128.622 184.573, 125.319 185.120, 121.949 186.648 C 119.446 187.783, 115.798 190.116, 113.842 191.834 L 110.286 194.956 109.720 188.228 C 109.408 184.528, 108.390 178.464, 107.456 174.754 C 106.523 171.044, 104.351 165.681, 102.629 162.836 C 100.908 159.991, 97.787 156.290, 95.694 154.611 C 92.460 152.018, 90.880 151.508, 85.194 151.220 C 80.025 150.959, 77.703 151.317, 75 152.793 C 73.075 153.844, 70.081 156.549, 68.346 158.804 C 66.611 161.059, 64.884 164.725, 64.508 166.952 C 64.132 169.178, 64.132 172.822, 64.508 175.048 C 64.903 177.385, 66.627 180.873, 68.587 183.298 C 70.455 185.609, 73.336 189.255, 74.991 191.400 C 76.646 193.545, 78 195.733, 78 196.261 C 78 196.822, 76.514 196.944, 74.438 196.554 C 72.478 196.187, 69.321 196.399, 67.420 197.026 C 65.322 197.719, 63.383 199.292, 62.483 201.034 C 61.667 202.611, 61 205.766, 61 208.046 C 61 210.636, 61.777 213.283, 63.071 215.100 C 64.210 216.700, 67.534 219.140, 70.458 220.523 C 74.222 222.304, 76.138 223.919, 77.023 226.057 C 78.004 228.423, 78.028 231.235, 77.137 239.073 C 76.512 244.572, 76.010 252.993, 76.021 257.786 C 76.033 262.579, 76.677 271.900, 77.452 278.500 C 78.228 285.100, 79.551 293.650, 80.392 297.500 C 81.234 301.351, 83.081 307.876, 84.496 312 C 85.912 316.125, 87.317 320.231, 87.619 321.125 C 88.074 322.472, 87.058 322.868, 81.668 323.445 C 77.031 323.942, 73.840 324.984, 70.530 327.083 C 67.381 329.080, 65.273 331.386, 63.967 334.263 C 62.910 336.593, 62.034 339.683, 62.022 341.128 C 62.010 342.573, 62.668 345.273, 63.483 347.128 C 64.299 348.983, 65.802 351.473, 66.822 352.662 C 67.843 353.851, 70.431 355.763, 72.574 356.912 C 76.005 358.751, 78.204 359.003, 90.985 359.024 C 103.746 359.045, 106.165 359.321, 111.005 361.312 C 114.032 362.558, 119.057 365.585, 122.170 368.039 C 125.284 370.492, 129.028 373.334, 130.491 374.353 C 133.134 376.196, 133.138 376.215, 131.090 377.649 C 129.957 378.443, 127.844 381.116, 126.395 383.589 C 124.203 387.330, 123.833 388.977, 124.199 393.385 C 124.476 396.724, 125.476 399.860, 126.903 401.864 C 128.149 403.614, 130.913 405.935, 133.044 407.023 C 135.176 408.110, 138.303 409, 139.992 409 C 141.682 409, 144.541 408.383, 146.345 407.629 C 148.149 406.875, 151.998 404.063, 154.898 401.379 C 157.797 398.696, 161.744 395.538, 163.668 394.363 C 166.950 392.358, 167.488 392.311, 172.334 393.607 C 175.175 394.367, 184.700 395.937, 193.500 397.096 C 206.885 398.859, 212.769 399.119, 229.500 398.685 C 241.316 398.378, 252.978 397.513, 258 396.571 C 262.675 395.694, 268.819 394.307, 271.654 393.488 C 274.489 392.670, 278.230 392, 279.969 392 C 281.707 392, 285.463 392.989, 288.315 394.198 C 291.167 395.408, 297.195 399.197, 301.712 402.620 C 308.005 407.388, 311.204 409.108, 315.401 409.980 C 319.501 410.831, 321.837 410.829, 324.689 409.974 C 326.785 409.345, 329.758 407.748, 331.295 406.425 C 332.832 405.102, 334.959 402.102, 336.023 399.760 C 337.086 397.417, 337.966 394.133, 337.978 392.462 C 337.990 390.791, 336.988 387.422, 335.750 384.976 C 334.106 381.726, 331.684 379.314, 326.761 376.024 L 320.021 371.519 324.670 367.510 C 327.227 365.304, 331.835 362.506, 334.910 361.290 C 339.827 359.347, 342.252 359.093, 355.062 359.178 C 368.648 359.269, 369.901 359.117, 373.738 356.909 C 376 355.607, 379.004 352.762, 380.414 350.587 C 381.824 348.413, 383.253 345.170, 383.588 343.382 C 383.924 341.594, 383.665 338.515, 383.013 336.540 C 382.361 334.565, 380.770 331.692, 379.477 330.155 C 378.183 328.618, 375.410 326.632, 373.313 325.742 C 371.216 324.851, 366.870 323.833, 363.655 323.478 C 358.793 322.941, 357.905 322.552, 358.370 321.166 C 358.678 320.250, 360.088 316.125, 361.504 312 C 362.919 307.876, 364.766 301.351, 365.608 297.500 C 366.449 293.650, 367.772 285.100, 368.548 278.500 C 369.323 271.900, 369.967 262.579, 369.979 257.786 C 369.990 252.993, 369.488 244.572, 368.863 239.073 C 367.957 231.109, 367.989 228.440, 369.021 225.950 C 369.958 223.688, 371.797 222.123, 375.681 220.284 C 378.632 218.887, 381.936 216.495, 383.023 214.968 C 384.236 213.264, 385 210.572, 385 208 C 385 205.695, 384.270 202.572, 383.377 201.061 C 382.484 199.549, 380.250 197.769, 378.412 197.104 C 376.505 196.415, 373.553 196.181, 371.535 196.559 C 369.591 196.924, 368 196.823, 368 196.334 C 368 195.845, 368.759 194.332, 369.687 192.973 C 370.614 191.613, 373.308 188.321, 375.673 185.657 C 378.066 182.962, 380.465 178.988, 381.081 176.699 C 381.690 174.436, 381.910 170.836, 381.568 168.700 C 381.226 166.564, 380.089 163.134, 379.039 161.077 C 377.990 159.021, 375.462 156.065, 373.422 154.508 C 370.934 152.611, 368.131 151.527, 364.912 151.218 C 362.272 150.964, 358.585 151.043, 356.719 151.393 C 354.853 151.743, 351.432 153.650, 349.119 155.630 C 346.805 157.611, 343.638 161.767, 342.082 164.866 C 340.525 167.964, 338.520 173.739, 337.626 177.697 C 336.731 181.656, 336 187.215, 336 190.051 L 336 195.207 332.487 192.123 C 330.555 190.426, 326.842 188.040, 324.237 186.819 C 320.599 185.115, 317.603 184.589, 311.323 184.550 C 304.599 184.509, 302.645 184.866, 300.323 186.559 C 298.770 187.691, 296.488 190.599, 295.250 193.020 C 294.012 195.442, 293.010 199.016, 293.022 200.962 C 293.034 202.908, 293.870 206.300, 294.879 208.500 C 295.888 210.700, 297.942 213.715, 299.444 215.200 C 300.945 216.686, 304.272 218.685, 306.837 219.643 C 309.402 220.601, 313.135 222.396, 315.133 223.631 C 317.131 224.866, 320.317 227.817, 322.213 230.188 C 324.109 232.560, 326.593 236.750, 327.732 239.500 C 328.872 242.250, 330.365 248.016, 331.050 252.312 C 331.823 257.164, 332.062 263.941, 331.681 270.195 C 331.344 275.734, 330.826 280.508, 330.530 280.804 C 330.234 281.099, 328.981 280.417, 327.746 279.288 C 326.511 278.158, 324.060 276.506, 322.300 275.617 C 320.539 274.728, 317.531 274, 315.615 274 C 313.698 274, 311.026 274.420, 309.676 274.933 C 308.326 275.446, 305.611 277.281, 303.642 279.009 C 301.381 280.995, 299.825 283.416, 299.418 285.583 C 299.065 287.470, 299.075 291.016, 299.442 293.464 C 299.910 296.581, 301.313 299.352, 304.123 302.708 C 306.330 305.343, 309.058 309.274, 310.186 311.442 C 311.341 313.662, 312.268 317.422, 312.307 320.046 C 312.355 323.243, 311.489 326.524, 309.550 330.487 C 307.993 333.670, 303.978 339.046, 300.612 342.456 C 297.250 345.861, 291.800 350.465, 288.500 352.686 C 285.200 354.908, 279.689 358.144, 276.253 359.876 C 272.817 361.609, 267.493 363.966, 264.423 365.115 C 261.352 366.264, 257.639 366.984, 256.170 366.716 C 254.702 366.448, 249.563 365.221, 244.750 363.991 L 236 361.753 236 307.984 L 236 254.216 239.750 256.173 C 242.437 257.576, 244.766 257.998, 247.966 257.664 C 251.492 257.295, 253.122 256.443, 255.716 253.613 C 258.324 250.767, 259 249.176, 259 245.883 C 259 243.468, 258.157 240.371, 256.981 238.469 C 255.778 236.523, 253.344 234.554, 250.961 233.601 C 248.760 232.720, 246.389 232, 245.691 232 C 244.994 232, 242.750 232.853, 240.705 233.895 C 238.660 234.938, 236.290 236.058, 235.439 236.385 C 234.065 236.912, 233.924 234.577, 234.195 215.663 C 234.493 194.831, 234.557 194.264, 236.988 190.719 C 239.169 187.539, 240.467 186.825, 247.488 184.948 C 251.895 183.769, 258.118 181.420, 261.318 179.727 C 264.517 178.034, 269.377 174.419, 272.117 171.693 C 274.857 168.968, 278.167 164.630, 279.472 162.055 C 280.777 159.480, 282.321 154.702, 282.904 151.437 C 283.487 148.172, 284.344 140.325, 284.807 134 C 285.498 124.568, 286.153 121.445, 288.453 116.632 L 291.257 110.764 289.604 103.243 C 288.695 99.106, 285.878 91.396, 283.345 86.111 C 280.811 80.825, 277.447 74.619, 275.869 72.320 C 274.291 70.021, 273 67.706, 273 67.177 C 273 66.647, 272.338 65.960, 271.529 65.649 C 270.720 65.339, 269.313 65.829, 268.404 66.739 C 267.044 68.098, 266.863 69.621, 267.389 75.277 C 267.741 79.062, 268.309 86.745, 268.652 92.349 C 269.010 98.188, 268.753 107.606, 268.052 114.409 C 267.379 120.939, 265.932 129.705, 264.837 133.890 C 263.742 138.076, 261.700 143.610, 260.298 146.188 C 258.896 148.767, 256.367 152.291, 254.677 154.019 C 252.988 155.747, 250.007 157.959, 248.053 158.936 C 246.099 159.912, 243.077 160.982, 241.337 161.313 C 239.352 161.691, 237.788 161.449, 237.136 160.663 C 236.564 159.975, 235.574 154.257, 234.935 147.956 C 234.295 141.655, 233.722 130.425, 233.661 123 C 233.597 115.231, 234.128 106.528, 234.910 102.500 C 235.658 98.650, 236.854 94.342, 237.569 92.927 C 238.283 91.512, 239.573 89.770, 240.434 89.055 C 241.504 88.167, 242 86.033, 242 82.325 C 242 79.338, 241.283 73.656, 240.407 69.697 C 239.531 65.739, 237.945 59.575, 236.883 56 C 235.821 52.425, 233.275 46.125, 231.226 42 C 228.066 35.640, 227.077 34.451, 224.717 34.180 C 222.133 33.884, 221.678 34.415, 218.344 41.630 M 80.643 158.018 C 79.071 158.495, 76.887 159.697, 75.790 160.690 C 74.693 161.683, 73.166 163.711, 72.398 165.198 C 71.629 166.684, 71 169.303, 71 171.016 C 71 172.730, 71.514 175.114, 72.142 176.316 C 72.770 177.517, 74.988 180.368, 77.071 182.651 C 79.154 184.933, 81.791 188.631, 82.932 190.868 C 84.073 193.104, 85.496 197.216, 86.094 200.005 C 86.921 203.859, 86.891 205.427, 85.969 206.538 C 85.301 207.342, 84.092 208, 83.282 208 C 82.472 208, 80.614 207.156, 79.154 206.124 C 77.694 205.093, 75.093 203.944, 73.374 203.572 C 71.128 203.086, 69.790 203.353, 68.624 204.519 C 67.731 205.412, 67 206.725, 67 207.437 C 67 208.148, 67.905 209.881, 69.012 211.288 C 70.119 212.695, 72.301 214.127, 73.861 214.469 C 75.421 214.812, 78.077 216.534, 79.764 218.296 C 81.451 220.058, 83.322 223.362, 83.923 225.637 C 84.719 228.649, 84.707 232.591, 83.881 240.137 C 83.217 246.198, 82.988 256.727, 83.329 265.500 C 83.651 273.750, 84.334 282.181, 84.848 284.235 C 85.362 286.289, 88.190 291.318, 91.133 295.410 C 94.076 299.501, 96.652 302.681, 96.858 302.476 C 97.063 302.270, 96.713 300.617, 96.080 298.801 C 95.446 296.985, 94.269 290.809, 93.464 285.076 C 92.659 279.343, 92 269.859, 92 264 C 92 258.141, 92.681 248.500, 93.512 242.574 C 94.344 236.649, 95.886 228.583, 96.938 224.650 C 97.990 220.718, 99.785 214.842, 100.926 211.593 C 102.232 207.873, 102.993 203.246, 102.981 199.093 C 102.970 195.467, 102.353 188.207, 101.609 182.959 C 100.772 177.058, 99.230 171.249, 97.567 167.734 C 96.088 164.607, 93.668 161.194, 92.189 160.149 C 90.710 159.104, 88.150 158.002, 86.500 157.700 C 84.850 157.398, 82.214 157.541, 80.643 158.018 M 358.500 157.723 C 357.400 158.004, 355.290 159.092, 353.811 160.141 C 352.332 161.191, 349.924 164.581, 348.461 167.674 C 346.997 170.768, 345.172 177.169, 344.404 181.900 C 343.636 186.630, 343.006 193.917, 343.004 198.093 C 343.001 203.225, 343.673 207.602, 345.076 211.593 C 346.218 214.842, 348.206 221.550, 349.495 226.500 C 350.783 231.450, 352.583 240.900, 353.495 247.500 C 354.407 254.100, 355.006 261.704, 354.826 264.398 C 354.607 267.696, 353.935 269.649, 352.769 270.381 C 351.458 271.203, 350.689 271.106, 349.601 269.983 C 348.638 268.989, 347.784 264.052, 347.009 255 C 346.374 247.575, 345.006 237.450, 343.969 232.500 C 342.932 227.550, 341.220 221.003, 340.165 217.952 C 339.110 214.900, 337.272 210.493, 336.080 208.157 C 334.888 205.821, 332.245 202.060, 330.207 199.798 C 328.168 197.536, 324.250 194.636, 321.500 193.353 C 318.295 191.857, 314.635 191.016, 311.306 191.010 C 307.344 191.002, 305.497 191.534, 303.522 193.250 C 302.021 194.554, 300.695 196.992, 300.368 199.048 C 300.023 201.218, 300.411 204.048, 301.367 206.337 C 302.647 209.401, 303.980 210.541, 308.715 212.625 C 311.897 214.026, 316.010 215.921, 317.856 216.836 C 319.702 217.751, 323.226 220.726, 325.687 223.448 C 328.148 226.169, 331.085 230.207, 332.215 232.422 C 333.345 234.636, 335.112 239.385, 336.141 242.974 C 337.170 246.563, 338.288 253.775, 338.626 259 C 338.965 264.256, 338.731 272.621, 338.102 277.724 C 337.477 282.797, 336.410 288.647, 335.732 290.724 C 334.874 293.349, 333.835 294.594, 332.324 294.810 C 330.671 295.045, 329.743 294.260, 328.446 291.527 C 327.508 289.551, 324.918 286.374, 322.690 284.467 C 319.874 282.056, 317.652 281, 315.397 281 C 313.366 281, 311.003 281.968, 309.077 283.589 C 306.563 285.704, 306 286.928, 306 290.275 C 306 293.592, 306.756 295.267, 309.975 299.085 C 312.161 301.677, 315.086 305.936, 316.475 308.548 C 318.453 312.269, 319 314.753, 319 320.015 C 319 325.709, 318.460 327.811, 315.451 333.825 C 313.043 338.639, 309.621 343.191, 304.801 347.991 C 299.182 353.588, 298.299 354.837, 300.572 353.973 C 302.151 353.372, 306.080 351.475, 309.303 349.758 C 312.747 347.922, 317.431 344.133, 320.663 340.567 C 323.688 337.230, 328.203 331.437, 330.696 327.694 C 333.189 323.950, 336.970 316.975, 339.099 312.194 C 341.227 307.412, 342.976 302.683, 342.985 301.684 C 342.993 300.686, 343.466 298.998, 344.035 297.934 C 344.605 296.870, 345.899 296, 346.913 296 C 347.926 296, 349.284 296.637, 349.929 297.415 C 350.841 298.514, 350.671 300.134, 349.170 304.665 C 348.106 307.874, 346.092 313.065, 344.695 316.200 C 343.297 319.336, 340.529 324.736, 338.543 328.200 L 334.931 334.500 343.362 325.900 C 348 321.170, 352.555 315.828, 353.484 314.030 C 354.414 312.232, 355.811 308.452, 356.589 305.630 C 357.366 302.809, 358.943 295.775, 360.093 290 C 361.362 283.624, 362.395 273.572, 362.721 264.404 C 363.033 255.627, 362.778 245.235, 362.111 239.579 C 361.268 232.436, 361.257 228.740, 362.066 225.675 C 362.673 223.379, 364.549 220.058, 366.236 218.296 C 367.923 216.534, 370.579 214.812, 372.139 214.469 C 373.699 214.127, 375.881 212.695, 376.988 211.288 C 378.095 209.881, 379 208.148, 379 207.437 C 379 206.725, 378.269 205.412, 377.376 204.519 C 376.210 203.353, 374.872 203.086, 372.626 203.572 C 370.907 203.944, 368.306 205.093, 366.846 206.124 C 365.386 207.156, 363.528 208, 362.718 208 C 361.908 208, 360.698 207.341, 360.029 206.535 C 359.225 205.567, 359.051 203.660, 359.514 200.919 C 359.899 198.636, 361.066 194.845, 362.105 192.495 C 363.145 190.144, 365.953 186.034, 368.344 183.360 C 370.736 180.687, 373.212 177.517, 373.846 176.316 C 374.481 175.114, 374.998 172.639, 374.996 170.816 C 374.994 168.992, 374.116 166.062, 373.044 164.304 C 371.972 162.547, 370.061 160.453, 368.798 159.652 C 367.534 158.852, 365.150 157.975, 363.500 157.705 C 361.850 157.434, 359.600 157.443, 358.500 157.723 M 124.199 193.588 C 121.342 195.012, 117.399 198.049, 115.437 200.338 C 113.475 202.627, 110.326 207.650, 108.438 211.500 C 106.551 215.350, 104.100 222.100, 102.991 226.500 C 101.883 230.900, 100.482 239.450, 99.879 245.500 C 99.242 251.889, 99.058 262.296, 99.439 270.327 C 99.800 277.931, 100.931 288.145, 101.952 293.023 C 102.973 297.902, 105.245 305.697, 106.999 310.346 C 109.470 316.892, 111.315 319.948, 115.179 323.894 C 117.923 326.696, 122.492 330.921, 125.334 333.282 C 128.175 335.643, 131.400 338.225, 132.500 339.020 C 134.427 340.413, 134.438 340.393, 132.805 338.465 C 131.873 337.364, 130.195 334.447, 129.077 331.982 C 127.708 328.964, 127.040 325.377, 127.032 321 C 127.023 316.247, 127.650 313.156, 129.367 309.500 C 130.658 306.750, 133.579 302.258, 135.857 299.518 C 139.226 295.467, 139.994 293.786, 139.968 290.518 C 139.951 288.308, 139.388 285.786, 138.718 284.913 C 138.048 284.041, 136.517 282.803, 135.316 282.163 C 134.114 281.524, 131.753 281, 130.069 281 C 127.969 281, 125.779 282.108, 123.106 284.523 C 120.961 286.461, 118.450 289.638, 117.528 291.583 C 116.255 294.265, 115.324 295.045, 113.676 294.810 C 112.165 294.594, 111.126 293.349, 110.268 290.724 C 109.590 288.647, 108.523 282.797, 107.897 277.724 C 107.272 272.651, 107.025 264.225, 107.350 259 C 107.674 253.775, 108.793 246.563, 109.835 242.974 C 110.878 239.385, 112.652 234.660, 113.778 232.474 C 114.904 230.288, 117.505 226.552, 119.559 224.170 C 121.612 221.789, 124.914 218.821, 126.896 217.574 C 128.878 216.327, 132.300 214.725, 134.500 214.015 C 136.700 213.304, 139.705 211.877, 141.178 210.844 C 142.651 209.811, 144.383 207.370, 145.027 205.418 C 145.671 203.466, 145.912 200.343, 145.562 198.478 C 145.203 196.566, 143.793 194.195, 142.328 193.043 C 140.473 191.584, 138.253 191, 134.561 191 C 131.006 191, 127.772 191.808, 124.199 193.588 M 223 224.263 C 223 232.828, 222.727 240.548, 222.393 241.418 C 221.943 242.590, 220.388 243, 216.389 243 C 213.034 243, 209.677 242.295, 207.514 241.135 C 205.600 240.110, 202.955 239.477, 201.636 239.729 C 200.317 239.981, 198.639 241.306, 197.908 242.673 C 196.784 244.772, 196.809 245.571, 198.070 247.829 C 198.992 249.478, 200.581 250.619, 202.224 250.811 C 203.687 250.982, 206.128 250.307, 207.647 249.311 C 209.834 247.877, 212.917 247.429, 222.455 247.161 C 231.885 246.896, 235.477 247.185, 239 248.493 C 241.475 249.412, 244.528 250.408, 245.785 250.705 C 247.201 251.041, 248.817 250.571, 250.035 249.468 C 251.116 248.490, 252 246.721, 252 245.536 C 252 244.352, 251.424 242.594, 250.719 241.630 C 249.992 240.636, 248.046 239.839, 246.216 239.787 C 244.444 239.737, 242.146 240.463, 241.109 241.401 C 239.684 242.691, 237.796 243.033, 233.362 242.803 L 227.500 242.500 227.225 227.382 C 226.977 213.800, 226.749 212.083, 224.975 210.477 C 223.016 208.705, 223 208.820, 223 224.263 M 139.462 231.028 C 137.792 231.533, 135.245 233.196, 133.802 234.724 C 132.359 236.251, 130.232 239.338, 129.075 241.584 C 127.918 243.830, 126.881 247.738, 126.771 250.268 C 126.630 253.498, 127.104 255.457, 128.359 256.844 C 129.342 257.931, 131.194 259.083, 132.473 259.404 C 134.094 259.811, 137.368 258.620, 143.287 255.472 C 149.682 252.069, 152.082 250.217, 153.016 247.961 C 153.722 246.256, 154.033 242.986, 153.738 240.366 C 153.399 237.363, 152.399 234.945, 150.860 233.407 C 149.562 232.110, 147.150 230.837, 145.500 230.578 C 143.850 230.320, 141.133 230.522, 139.462 231.028 M 296.096 232.573 C 294.397 234.002, 292.585 236.826, 292.020 238.925 C 291.265 241.731, 291.347 243.709, 292.339 246.602 C 293.519 250.042, 294.703 251.059, 302.405 255.252 C 308.627 258.639, 311.812 259.834, 313.493 259.412 C 314.791 259.087, 316.655 257.933, 317.636 256.849 C 318.791 255.574, 319.365 253.493, 319.264 250.955 C 319.178 248.796, 318.161 244.892, 317.005 242.278 C 315.848 239.664, 313.912 236.449, 312.701 235.134 C 311.491 233.818, 309.052 232.125, 307.282 231.371 C 305.512 230.617, 302.959 230, 301.609 230 C 300.258 230, 297.777 231.158, 296.096 232.573 M 138.255 240.362 C 136.581 242.269, 134.669 245.472, 134.006 247.481 C 133.343 249.490, 133.085 251.418, 133.432 251.766 C 133.780 252.113, 137 250.950, 140.589 249.180 L 147.113 245.963 146.807 241.731 C 146.537 238.013, 146.185 237.463, 143.899 237.198 C 141.969 236.974, 140.514 237.790, 138.255 240.362 M 299.667 237.667 C 299.300 238.033, 299 240.063, 299 242.176 C 299 245.908, 299.186 246.110, 305.468 249.208 C 309.025 250.962, 312.180 252.153, 312.479 251.855 C 312.777 251.556, 312.324 249.336, 311.472 246.920 C 310.620 244.505, 308.731 241.284, 307.274 239.764 C 305.818 238.244, 303.660 237, 302.480 237 C 301.299 237, 300.033 237.300, 299.667 237.667 M 48.968 254.921 C 47.576 255.355, 45.433 256.337, 44.206 257.103 C 42.980 257.869, 41.253 260.390, 40.369 262.705 C 39.282 265.550, 38.988 268.143, 39.460 270.707 C 39.844 272.793, 40.958 276.323, 41.935 278.551 C 42.912 280.779, 45.124 284.211, 46.851 286.178 C 48.578 288.144, 51.343 290.314, 52.995 290.998 C 55.378 291.985, 56.615 291.988, 58.967 291.014 C 60.599 290.338, 62.401 289.222, 62.972 288.533 C 63.544 287.845, 64.232 282.381, 64.503 276.391 C 64.912 267.329, 64.701 264.924, 63.247 262.071 C 62.286 260.185, 60.375 257.843, 59 256.866 C 57.625 255.889, 55.375 254.875, 54 254.611 C 52.625 254.347, 50.361 254.487, 48.968 254.921 M 389.020 255.738 C 387.106 256.707, 384.492 259.068, 383.212 260.984 C 380.998 264.297, 380.916 265.032, 381.535 275.984 C 382.149 286.840, 382.339 287.629, 384.843 289.745 C 386.304 290.980, 388.400 291.991, 389.500 291.991 C 390.600 291.992, 392.949 291.109, 394.720 290.029 C 396.491 288.950, 399.304 286.182, 400.973 283.879 C 402.641 281.576, 404.530 277.849, 405.172 275.596 C 405.813 273.343, 406.363 269.925, 406.395 268 C 406.426 266.075, 405.881 263.123, 405.184 261.441 C 404.486 259.758, 402.697 257.672, 401.208 256.806 C 399.718 255.940, 397.150 254.949, 395.500 254.604 C 393.539 254.194, 391.294 254.587, 389.020 255.738 M 49.354 262.244 C 48.173 262.777, 46.964 264.430, 46.666 265.918 C 46.369 267.405, 46.492 270.248, 46.940 272.235 C 47.388 274.222, 48.661 277.119, 49.770 278.674 C 50.878 280.228, 52.704 282.332, 53.829 283.348 C 54.954 284.364, 56.352 284.900, 56.937 284.539 C 57.564 284.151, 58 280.075, 58 274.596 C 58 266.991, 57.683 265.038, 56.250 263.807 C 55.288 262.980, 53.825 262.073, 53 261.790 C 52.175 261.507, 50.534 261.712, 49.354 262.244 M 390.548 263.141 C 388.141 265.034, 388 265.665, 388 274.514 C 388 280.051, 388.435 284.151, 389.063 284.539 C 389.648 284.900, 391.046 284.364, 392.171 283.348 C 393.296 282.332, 395.138 280.206, 396.265 278.625 C 397.392 277.044, 398.664 273.894, 399.091 271.625 C 399.518 269.356, 399.631 266.517, 399.342 265.316 C 399.043 264.074, 397.582 262.701, 395.956 262.134 C 393.620 261.320, 392.627 261.505, 390.548 263.141 M 222.557 277.223 C 221.431 278.830, 221 281.908, 221 288.345 C 221 296.012, 221.201 297.078, 222.452 296.040 C 223.251 295.377, 224.826 295.127, 225.952 295.485 C 227.908 296.106, 228 295.747, 228 287.502 C 228 282.753, 227.534 277.998, 226.965 276.934 C 226.395 275.870, 225.521 275, 225.022 275 C 224.522 275, 223.413 276, 222.557 277.223 M 347.601 281.303 C 346.601 282.034, 345.948 283.502, 346.150 284.566 C 346.387 285.813, 347.492 286.613, 349.264 286.817 C 351.133 287.033, 352.220 286.589, 352.665 285.431 C 353.024 284.494, 352.877 283.029, 352.338 282.174 C 351.798 281.319, 350.921 280.474, 350.388 280.296 C 349.855 280.118, 348.601 280.571, 347.601 281.303 M 222.655 304.829 C 221.367 306.252, 221 308.702, 221 315.878 C 221 324.136, 221.172 325.003, 222.642 324.180 C 223.545 323.675, 225.120 323.480, 226.142 323.747 C 227.847 324.193, 228 323.520, 228 315.551 C 228 310.776, 227.534 305.998, 226.965 304.934 C 226.395 303.870, 225.565 303, 225.120 303 C 224.674 303, 223.565 303.823, 222.655 304.829 M 222.557 333.223 C 221.362 334.929, 221 338.181, 221 347.223 C 221 355.971, 221.322 359.004, 222.250 359.014 C 222.938 359.021, 224.512 359.299, 225.750 359.630 C 227.999 360.233, 228 360.228, 228 347.188 C 228 336.662, 227.697 333.839, 226.429 332.571 C 225.564 331.707, 224.690 331, 224.485 331 C 224.281 331, 223.413 332, 222.557 333.223 M 167 368.556 C 160.125 370.955, 153.668 372.937, 152.651 372.959 C 151.634 372.982, 149.159 373.751, 147.151 374.670 C 145.143 375.588, 141.538 377.909, 139.140 379.827 C 136.741 381.746, 133.930 384.707, 132.893 386.407 C 131.856 388.108, 131.006 390.862, 131.004 392.527 C 131.002 394.193, 131.657 396.493, 132.460 397.640 C 133.263 398.786, 135.280 400.287, 136.941 400.975 C 138.602 401.664, 141.122 401.935, 142.540 401.579 C 143.958 401.223, 147.004 399.237, 149.309 397.164 C 151.614 395.092, 155.300 392.049, 157.500 390.401 C 159.700 388.753, 164.200 386.005, 167.500 384.294 C 170.800 382.582, 176.875 380.128, 181 378.841 C 187.736 376.738, 190.385 376.501, 207 376.512 C 222.861 376.522, 226.855 376.852, 235 378.825 C 240.225 380.090, 249.155 382.498, 254.844 384.175 C 264.463 387.010, 265.600 387.142, 271.080 386.064 C 274.321 385.426, 278.666 384.283, 280.736 383.523 C 283.932 382.350, 284.122 382.129, 282 382.063 C 280.625 382.020, 276.800 381.128, 273.500 380.080 C 270.200 379.033, 265.025 377.232, 262 376.079 C 258.975 374.926, 252.450 372.900, 247.500 371.575 C 242.550 370.251, 236.025 368.658, 233 368.035 C 229.975 367.412, 222.579 366.249, 216.564 365.451 C 210.549 364.653, 199.749 364.043, 192.564 364.097 C 179.833 364.191, 179.182 364.304, 167 368.556" stroke="none" fill="#0d6efd" fill-rule="evenodd"/></svg>