<svg xmlns="http://www.w3.org/2000/svg" width="445" height="445" viewBox="0 0 445 445" version="1.1"><path d="" stroke="none" fill="#080404" fill-rule="evenodd"/><path d="M 303.451 44.915 C 300.674 46.508, 297.806 48.529, 297.078 49.406 C 296.351 50.282, 294.348 51.003, 292.628 51.006 C 290.907 51.009, 287.731 51.502, 285.569 52.103 C 282.991 52.818, 279.892 55, 276.569 58.439 C 273.781 61.324, 270.724 65.218, 269.776 67.092 C 268.828 68.966, 267.157 72.638, 266.062 75.250 C 264.801 78.259, 263.451 80, 262.380 80 C 261.450 80, 259.167 81.161, 257.307 82.580 C 255.446 83.999, 252.888 86.811, 251.622 88.830 C 250.356 90.848, 249.015 93.735, 248.642 95.244 C 248.168 97.165, 246.849 98.454, 244.246 99.542 C 242.201 100.396, 239.465 102.086, 238.166 103.298 C 236.868 104.509, 234.987 107.096, 233.986 109.047 C 232.986 110.997, 231.854 114.259, 231.472 116.295 C 230.927 119.204, 229.965 120.454, 226.981 122.131 C 224.593 123.473, 222.618 125.607, 221.659 127.882 C 220.820 129.872, 219.878 133.083, 219.565 135.018 C 219.252 136.953, 219.404 141.780, 219.902 145.746 L 220.807 152.957 216.904 156.861 C 214.757 159.008, 213 161.738, 213 162.928 C 213 164.881, 212.636 165.025, 209.250 164.413 C 207.188 164.041, 201.767 162.666, 197.204 161.359 C 192.642 160.052, 185.710 157.402, 181.801 155.470 C 177.892 153.538, 171.881 149.950, 168.443 147.497 C 165.005 145.043, 159.864 140.440, 157.019 137.268 C 154.073 133.984, 149.955 127.624, 147.455 122.500 C 145.040 117.550, 142.060 109.450, 140.833 104.500 C 138.887 96.648, 138.617 93.058, 138.719 76.348 C 138.834 57.582, 138.790 57.151, 136.536 55.034 C 135.271 53.845, 132.857 52.834, 131.172 52.786 C 129.487 52.738, 126.993 53.430, 125.630 54.323 C 124.267 55.216, 122.862 56.859, 122.508 57.973 C 122.052 59.412, 121 60, 118.883 60 C 117.243 60, 114.596 60.675, 113.002 61.499 C 111.408 62.323, 108.998 64.461, 107.648 66.249 C 106.297 68.037, 104.454 71.975, 103.551 75 C 102.392 78.881, 101.963 83.738, 102.092 91.500 L 102.276 102.500 98.303 106.619 C 95.143 109.895, 94.056 112.024, 92.997 117.013 C 91.837 122.482, 91.884 124.519, 93.368 132.894 C 94.304 138.177, 95.097 143.175, 95.130 144 C 95.162 144.825, 94.487 148.200, 93.630 151.500 C 92.773 154.800, 92.065 160.200, 92.057 163.500 C 92.047 167.312, 92.918 171.983, 94.445 176.308 C 95.766 180.052, 98.716 185.591, 100.999 188.615 C 103.283 191.640, 108.297 196.676, 112.142 199.807 C 118.385 204.892, 119.073 205.798, 118.583 208.287 C 118.282 209.820, 118.642 212.745, 119.383 214.787 C 120.124 216.829, 121.038 219.219, 121.414 220.098 C 121.951 221.355, 120.804 222.168, 116.043 223.904 C 111.775 225.460, 108.293 226.022, 104.244 225.806 C 98.915 225.522, 98.477 225.665, 98.176 227.786 C 97.997 229.043, 99.029 232.080, 100.468 234.536 C 101.907 236.991, 102.826 239, 102.510 239 C 102.194 239, 100.410 238.363, 98.546 237.584 C 96.681 236.804, 94.480 235.117, 93.654 233.834 C 92.829 232.550, 91.688 228.931, 91.118 225.792 C 90.549 222.652, 89.206 218.377, 88.133 216.292 C 87.061 214.206, 84.904 211.313, 83.342 209.862 C 81.779 208.412, 79.466 206.912, 78.202 206.530 C 76.865 206.125, 75.297 206.339, 74.452 207.040 C 73.546 207.792, 73 210.078, 73 213.122 C 73 215.805, 72.567 218, 72.039 218 C 71.510 218, 70.559 216.087, 69.925 213.750 C 69.001 210.342, 69.077 208.087, 70.313 202.365 C 71.160 198.441, 73.233 192.366, 74.919 188.865 C 76.605 185.364, 79.110 180.670, 80.486 178.433 C 82.646 174.920, 82.805 174.115, 81.649 172.535 C 80.712 171.253, 79.591 170.889, 77.906 171.320 C 76.583 171.659, 72.485 174.666, 68.799 178.003 C 64.953 181.485, 60.208 187.145, 57.663 191.285 C 55.224 195.253, 52.389 200.975, 51.364 204 C 49.939 208.204, 49.523 212.211, 49.599 221 C 49.671 229.237, 50.201 233.918, 51.468 237.500 C 52.441 240.250, 54.646 245.411, 56.368 248.968 C 58.091 252.525, 62.200 258.338, 65.500 261.886 C 68.800 265.433, 74.168 270.067, 77.428 272.183 C 80.688 274.298, 86.248 276.923, 89.783 278.015 C 93.318 279.107, 99.041 280, 102.500 280 C 105.974 280, 111.701 279.101, 115.295 277.991 C 118.872 276.886, 124.550 274.145, 127.910 271.901 C 131.271 269.657, 136.379 265.103, 139.260 261.781 C 142.142 258.459, 146.303 253.747, 148.506 251.308 C 151.740 247.729, 153.349 246.763, 156.863 246.292 L 161.214 245.708 160.823 258.104 C 160.507 268.144, 160.018 271.412, 158.250 275.302 C 157.049 277.943, 153.239 283.049, 149.783 286.649 L 143.500 293.194 143.402 308.397 C 143.348 316.758, 143.016 326.277, 142.665 329.550 C 142.314 332.822, 142.441 337.267, 142.948 339.428 C 143.650 342.421, 145.874 345.360, 152.302 351.787 C 158.985 358.471, 161.154 360.086, 162.759 359.577 C 163.873 359.223, 165.052 357.936, 165.378 356.717 C 165.705 355.498, 165.973 351.350, 165.973 347.500 C 165.974 343.172, 165.183 338.019, 163.901 334 C 162.761 330.425, 161.754 324.575, 161.664 321 C 161.574 317.425, 162.146 312.275, 162.934 309.555 C 163.902 306.219, 165.876 303.047, 169.001 299.805 C 171.548 297.162, 174.278 295.017, 175.066 295.038 C 175.855 295.059, 177.839 296.971, 179.476 299.288 C 182.083 302.978, 182.499 304.531, 182.832 311.827 C 183.158 318.980, 182.828 321.205, 180.494 327.605 C 178.033 334.352, 177.887 335.493, 178.941 339.679 C 179.581 342.222, 180.812 345.697, 181.677 347.401 C 182.542 349.105, 184.768 352.376, 186.625 354.668 C 189.664 358.421, 190 359.468, 190.002 365.168 C 190.003 369.192, 190.640 372.776, 191.752 375 C 192.713 376.925, 195.681 379.957, 198.346 381.739 C 201.011 383.520, 204.968 385.509, 207.139 386.160 C 210.419 387.142, 211.337 387.092, 212.568 385.861 C 213.383 385.046, 214.325 382.047, 214.663 379.197 C 215.001 376.347, 214.715 370.524, 214.028 366.257 C 213.341 361.991, 212.077 356.745, 211.221 354.600 C 210.364 352.455, 208.206 348.535, 206.426 345.890 C 204.646 343.245, 202.885 339.279, 202.513 337.077 C 202.074 334.478, 202.404 331.121, 203.455 327.508 C 204.344 324.448, 205.945 320.493, 207.011 318.722 C 208.076 316.950, 209.910 313.732, 211.086 311.571 C 212.676 308.649, 213.252 305.752, 213.335 300.257 L 213.448 292.871 220.974 293.557 C 225.113 293.935, 228.555 294.301, 228.622 294.372 C 228.689 294.442, 228.318 297.875, 227.797 302 C 227.276 306.125, 227.046 311.525, 227.285 314 C 227.524 316.475, 229.189 321.650, 230.984 325.500 C 232.779 329.350, 235.092 335.424, 236.124 338.997 C 237.343 343.220, 238 348.668, 238 354.565 C 238 359.696, 237.356 365.780, 236.518 368.568 C 235.703 371.281, 233.228 376.148, 231.018 379.385 C 228.127 383.620, 227 386.299, 227 388.939 C 227 391.272, 228.059 394.278, 229.907 397.192 C 231.506 399.713, 234.859 403.183, 237.360 404.903 C 239.860 406.624, 243.240 408.298, 244.871 408.624 C 247.411 409.132, 248.043 408.807, 249.278 406.359 C 250.071 404.786, 251.061 402.150, 251.479 400.500 C 251.897 398.850, 252.589 394.800, 253.016 391.500 C 253.444 388.200, 254.577 383.475, 255.533 381 C 256.693 378, 257.366 372.999, 257.551 366 C 257.704 360.225, 258.520 351.709, 259.364 347.074 C 260.720 339.630, 260.730 337.767, 259.450 331.074 C 258.653 326.909, 258.003 320.575, 258.006 317 C 258.009 313.425, 258.471 308.845, 259.033 306.823 C 259.594 304.800, 261.504 300.975, 263.277 298.323 C 265.389 295.163, 267.340 293.381, 268.937 293.156 C 270.827 292.889, 272.512 294.045, 276.449 298.309 C 280.695 302.908, 282.503 304.078, 287.512 305.471 C 290.805 306.387, 294.036 307.307, 294.692 307.515 C 295.347 307.723, 296.646 309.056, 297.578 310.479 C 298.510 311.901, 299.273 314.836, 299.273 317 C 299.273 319.164, 298.540 322.053, 297.644 323.421 C 296.573 325.055, 294.728 326.113, 292.258 326.509 C 290.191 326.840, 287.094 327.727, 285.376 328.479 C 283.314 329.382, 281.515 331.371, 280.082 334.330 C 278.315 337.980, 277.967 340.249, 278.206 346.551 C 278.436 352.598, 278.880 354.528, 280.237 355.381 C 281.632 356.258, 284.289 355.339, 293.737 350.709 C 300.207 347.539, 306.581 344.395, 307.903 343.723 C 309.224 343.050, 311.195 341.303, 312.281 339.839 C 313.687 337.946, 314.494 334.614, 315.078 328.287 C 315.690 321.647, 316.671 317.762, 318.948 312.948 C 320.626 309.401, 321.999 305.443, 321.999 304.151 C 322 302.859, 321.278 300.282, 320.397 298.423 C 319.457 296.444, 316.868 293.863, 314.147 292.193 C 311.591 290.626, 307.293 288.503, 304.595 287.476 C 301.897 286.450, 298.435 284.554, 296.902 283.264 L 294.115 280.919 296.563 277.312 C 297.909 275.328, 299.908 270.799, 301.005 267.247 C 302.463 262.530, 303.004 257.921, 303.015 250.145 C 303.023 244.290, 303.696 236.673, 304.511 233.219 C 305.325 229.764, 306.863 225.264, 307.928 223.219 C 308.993 221.173, 311.038 218.262, 312.473 216.750 C 313.907 215.237, 315.470 214, 315.946 214 C 316.422 214, 318.181 216.068, 319.855 218.595 C 321.530 221.123, 323.423 225.735, 324.063 228.845 C 324.702 231.955, 325.679 236.021, 326.234 237.881 C 326.788 239.740, 328.844 243.035, 330.802 245.203 C 332.761 247.371, 336.117 250.039, 338.259 251.132 L 342.155 253.119 345.827 250.324 C 347.847 248.787, 351.217 245.981, 353.315 244.090 C 355.413 242.198, 357.820 239.314, 358.665 237.681 C 359.514 236.040, 360.200 232.187, 360.200 229.063 C 360.200 225.955, 359.480 220.988, 358.600 218.025 C 357.659 214.855, 357 208.986, 357 203.769 C 357 198.193, 357.513 193.898, 358.382 192.200 C 359.142 190.715, 360.078 187.606, 360.463 185.292 C 360.932 182.467, 361.772 180.890, 363.019 180.494 C 364.041 180.170, 366.255 178.335, 367.938 176.417 C 369.622 174.500, 371 171.911, 371 170.665 C 371 169.419, 370.460 167.860, 369.800 167.200 C 369.140 166.540, 366.593 166, 364.141 166 C 359.965 166, 359.294 165.595, 353.556 159.596 C 349.056 154.893, 346.321 152.894, 343.254 152.068 C 339.669 151.103, 338.938 150.436, 338.087 147.354 C 337.542 145.379, 336.330 142.917, 335.393 141.882 C 334.456 140.847, 333.121 140, 332.426 140 C 331.730 140, 328.699 142.250, 325.690 145 C 321.590 148.748, 319.443 150, 317.121 150 C 315.416 150, 311.654 150.941, 308.761 152.090 C 305.867 153.240, 300.783 154.278, 297.461 154.397 C 293.127 154.553, 289.548 155.491, 284.782 157.721 C 281.129 159.431, 276.146 162.668, 273.709 164.915 C 271.271 167.162, 268.539 169, 267.638 169 C 266.737 169, 266 168.308, 266 167.463 C 266 166.617, 268.137 163.841, 270.750 161.292 C 273.486 158.624, 278.563 155.240, 282.725 153.311 C 286.698 151.469, 290.411 149.101, 290.975 148.047 C 291.566 146.942, 292.006 138.384, 292.015 127.816 C 292.025 115.066, 292.486 107.564, 293.531 103.129 C 294.357 99.625, 296.224 93.775, 297.680 90.129 C 299.136 86.483, 302.166 80.418, 304.414 76.651 C 306.661 72.884, 310.633 67.259, 313.240 64.151 C 315.846 61.043, 318.720 57.085, 319.625 55.356 C 320.679 53.340, 321.027 51.245, 320.594 49.519 C 320.223 48.039, 318.832 45.742, 317.505 44.414 C 315.923 42.832, 313.955 42.003, 311.795 42.009 C 309.983 42.015, 306.228 43.322, 303.451 44.915 M 128.075 62.735 C 127.389 64.240, 126.431 69.302, 125.946 73.985 C 125.461 78.668, 125.303 86.550, 125.596 91.500 C 125.888 96.450, 126.822 103.537, 127.671 107.249 C 128.520 110.961, 128.944 114.703, 128.613 115.566 C 128.221 116.589, 127.053 117.024, 125.256 116.817 C 122.860 116.541, 122.338 115.848, 121.260 111.500 C 120.578 108.750, 119.505 102.675, 118.877 98 C 118.215 93.079, 117.984 84.762, 118.330 78.250 C 118.658 72.063, 118.593 67, 118.186 67 C 117.778 67, 116.482 67.674, 115.306 68.498 C 114.129 69.322, 112.342 72.135, 111.333 74.748 C 110.015 78.166, 109.520 82.028, 109.571 88.500 C 109.611 93.450, 110.419 100.875, 111.369 105 C 112.318 109.125, 114.266 115.875, 115.698 120 C 117.130 124.125, 119.633 130.200, 121.260 133.500 C 122.888 136.800, 126.603 143.100, 129.516 147.500 C 132.429 151.900, 135.946 156.559, 137.331 157.853 L 139.849 160.207 140.887 156.447 C 141.458 154.379, 141.633 152.195, 141.276 151.594 C 140.919 150.992, 138.873 148.160, 136.730 145.299 C 134.588 142.439, 132.988 139.289, 133.176 138.299 C 133.379 137.228, 134.559 136.378, 136.092 136.200 C 138.147 135.960, 139.205 136.711, 141.326 139.916 C 142.787 142.125, 146.575 146.565, 149.742 149.783 C 152.909 153.001, 158.200 157.454, 161.500 159.679 C 164.800 161.903, 169.750 164.860, 172.500 166.249 C 175.250 167.639, 180.875 169.906, 185 171.288 C 189.125 172.670, 195.021 174.562, 198.103 175.491 C 201.184 176.421, 205.909 178.841, 208.603 180.869 C 211.296 182.897, 215.150 187.019, 217.167 190.028 C 220.298 194.699, 221.380 195.573, 224.565 196 C 226.617 196.275, 228.751 197.226, 229.307 198.114 C 229.863 199.002, 230.036 200.464, 229.691 201.364 C 229.260 202.485, 227.856 203, 225.231 203 C 223.124 203, 220.860 203.540, 220.200 204.200 C 219.540 204.860, 219 206.582, 219 208.026 C 219 209.477, 220.035 211.624, 221.314 212.826 C 222.784 214.206, 224.911 215, 227.140 215 C 229.512 215, 231.312 214.270, 232.687 212.750 C 233.807 211.513, 235.235 208.970, 235.861 207.101 C 236.488 205.231, 237 201.607, 237 199.047 C 237 196.044, 236.081 192.549, 234.410 189.195 C 232.985 186.336, 230.173 182.631, 228.160 180.963 C 226.147 179.294, 222.236 176.815, 219.469 175.454 C 216.703 174.093, 210.403 172.036, 205.469 170.883 C 200.536 169.730, 194.025 168.094, 191 167.248 C 187.975 166.402, 181.557 163.667, 176.739 161.171 C 171.194 158.300, 165.254 154.124, 160.560 149.799 C 156.481 146.040, 151.037 140.163, 148.463 136.739 C 145.889 133.315, 142.479 127.930, 140.885 124.772 C 139.291 121.614, 137.346 117.111, 136.563 114.765 C 135.779 112.419, 134.338 107.575, 133.360 104 C 131.956 98.870, 131.574 93.547, 131.550 78.750 C 131.529 65.806, 131.179 60, 130.420 60 C 129.816 60, 128.760 61.231, 128.075 62.735 M 101.323 114.750 C 100.112 117.635, 99.878 120.576, 100.309 127.500 C 100.617 132.450, 101.739 138.985, 102.803 142.022 C 103.866 145.060, 105.974 150.010, 107.487 153.022 C 109.001 156.035, 112.161 161.200, 114.510 164.500 C 116.860 167.800, 122.093 173.682, 126.141 177.572 C 130.188 181.462, 136.200 186.462, 139.500 188.684 C 142.800 190.905, 147.848 193.910, 150.717 195.362 C 153.586 196.813, 156.173 198, 156.467 198 C 156.760 198, 157 196.935, 157 195.633 C 157 193.991, 155.811 192.479, 153.121 190.699 C 150.987 189.287, 147.672 186.189, 145.753 183.816 C 143.834 181.442, 141.818 178.600, 141.273 177.500 C 140.728 176.400, 140.021 174.150, 139.703 172.500 C 139.345 170.647, 136.693 167.016, 132.764 163 C 129.266 159.425, 124.467 153.644, 122.099 150.154 C 119.732 146.664, 115.629 139.287, 112.980 133.760 C 110.332 128.233, 107.346 120.851, 106.345 117.356 C 105.344 113.860, 104.159 111, 103.711 111 C 103.264 111, 102.189 112.688, 101.323 114.750 M 126.930 124.584 C 125.981 125.728, 125.906 126.630, 126.659 127.834 C 127.232 128.750, 128.855 129.639, 130.265 129.808 C 132.149 130.035, 133.005 129.558, 133.497 128.010 C 133.868 126.841, 133.629 125.258, 132.960 124.452 C 132.297 123.653, 130.965 123, 130 123 C 129.035 123, 127.653 123.713, 126.930 124.584 M 327.203 153.104 C 325.533 154.811, 322.780 158.812, 321.084 161.994 C 319.388 165.176, 318 168.899, 318 170.268 C 318 171.636, 318.675 173.315, 319.500 174 C 320.325 174.685, 321 176.035, 321 177 C 321 177.965, 320.327 179.313, 319.505 179.996 C 318.301 180.995, 317.534 180.925, 315.570 179.638 C 313.133 178.041, 313.126 178.047, 311.065 183.557 C 309.929 186.592, 309 190.577, 309 192.413 C 309 194.248, 309.293 197.216, 309.652 199.009 C 310.099 201.245, 311.254 202.774, 313.331 203.884 C 314.997 204.773, 318.344 207.282, 320.769 209.460 C 323.195 211.638, 326.211 215.463, 327.472 217.960 C 328.733 220.457, 330.525 225.927, 331.453 230.116 C 332.875 236.533, 333.747 238.324, 336.991 241.491 L 340.840 245.250 343.803 243.140 C 345.433 241.980, 348.169 239.433, 349.883 237.480 C 352.431 234.578, 353 233.068, 353 229.209 C 353 226.612, 352.514 222.915, 351.919 220.993 C 351.325 219.072, 350.537 213.900, 350.169 209.500 L 349.500 201.500 345.500 201.500 L 341.500 201.500 341.500 193.769 C 341.500 186.389, 341.354 185.892, 338.265 182.804 C 335.727 180.265, 334.769 179.831, 333.815 180.785 C 333.147 181.453, 331.845 182, 330.922 182 C 330 182, 328.681 181.320, 327.991 180.489 C 326.965 179.253, 327.207 177.931, 329.319 173.224 C 330.739 170.059, 332.203 165.585, 332.571 163.281 C 332.939 160.977, 332.934 157.046, 332.559 154.546 C 332.184 152.046, 331.508 150, 331.057 150 C 330.606 150, 328.872 151.397, 327.203 153.104 M 99.169 163 C 99.452 171.114, 99.923 173.336, 102.403 178.229 C 104.177 181.731, 108.133 186.700, 112.576 191.008 C 118.115 196.379, 121.908 199.024, 128.504 202.115 C 133.266 204.346, 137.404 205.929, 137.701 205.632 C 137.998 205.335, 137.934 203.044, 137.558 200.541 C 136.932 196.361, 136.383 195.655, 130.822 191.879 C 127.492 189.618, 122.091 185.091, 118.819 181.819 C 115.548 178.548, 110.425 172.119, 107.436 167.532 C 104.446 162.946, 101.986 158.812, 101.968 158.347 C 101.951 157.881, 101.239 156.600, 100.388 155.500 C 98.963 153.661, 98.865 154.263, 99.169 163 M 153.559 163.774 C 153.252 164.082, 153 165.401, 153 166.707 C 153 168.012, 153.887 170.818, 154.971 172.943 C 156.055 175.068, 158.643 178.212, 160.721 179.929 C 162.799 181.647, 166.477 184.012, 168.893 185.185 C 171.310 186.358, 178.261 188.583, 184.342 190.130 C 190.422 191.677, 197.895 194.194, 200.948 195.722 C 205.450 197.975, 206.500 198.970, 206.500 200.986 C 206.500 202.559, 205.857 203.596, 204.750 203.810 C 203.787 203.995, 200.637 203.012, 197.750 201.626 C 194.862 200.239, 188.115 197.956, 182.754 196.552 C 177.394 195.148, 172.782 194, 172.504 194 C 172.227 194, 172 195.040, 172 196.311 C 172 197.583, 172.885 199.573, 173.966 200.733 C 175.048 201.894, 176.735 203.079, 177.716 203.366 C 178.697 203.653, 182.200 204.368, 185.500 204.953 C 188.800 205.539, 193.764 207.124, 196.530 208.475 C 199.297 209.827, 202.825 212.252, 204.370 213.864 C 206.748 216.347, 207.007 217.119, 206.054 218.898 C 205.436 220.054, 204.305 221, 203.542 221 C 202.778 221, 200.815 219.873, 199.178 218.497 C 197.542 217.120, 194.245 215.105, 191.852 214.019 C 189.458 212.933, 186.262 212.034, 184.750 212.022 C 182.326 212.003, 182 212.375, 182 215.155 C 182 217.526, 182.978 219.240, 185.935 222.053 C 188.166 224.176, 192.171 226.570, 195.185 227.584 C 198.535 228.711, 203.643 229.396, 209 229.436 C 215.791 229.487, 218.188 229.096, 220.920 227.491 C 222.801 226.386, 224.508 224.977, 224.713 224.360 C 224.919 223.743, 224.016 222.970, 222.706 222.641 C 221.396 222.312, 219.162 221.129, 217.741 220.011 C 216.320 218.893, 214.379 215.941, 213.428 213.451 C 211.919 209.501, 211.860 208.251, 212.965 203.647 C 214.120 198.831, 214.050 198.017, 212.153 194.300 C 211.011 192.061, 208.147 188.809, 205.788 187.073 C 203.157 185.137, 197.070 182.533, 190.039 180.337 C 183.735 178.368, 175.410 175.299, 171.539 173.517 C 167.667 171.736, 162.164 168.689, 159.309 166.746 C 156.454 164.804, 153.867 163.467, 153.559 163.774 M 291.705 195.335 C 290.363 198.726, 288.965 203.162, 288.598 205.194 C 288.132 207.771, 287.272 209.096, 285.751 209.579 C 283.987 210.139, 282.679 209.300, 278.880 205.168 C 275.366 201.346, 274.042 200.447, 273.606 201.586 C 273.285 202.421, 272.528 207.244, 271.925 212.303 C 271.321 217.361, 270.632 222.512, 270.394 223.750 C 270.094 225.315, 269.253 226, 267.634 226 C 266.330 226, 263.732 224.470, 261.724 222.520 L 258.141 219.040 254.600 223.863 C 252.653 226.516, 249.359 229.852, 247.280 231.276 C 245.201 232.700, 242.291 234.404, 240.814 235.064 C 239.336 235.723, 237.386 235.978, 236.479 235.630 C 235.055 235.084, 234.928 233.951, 235.545 227.359 C 236.068 221.778, 235.957 219.909, 235.131 220.419 C 234.509 220.804, 234 221.732, 234 222.482 C 234 223.233, 232.455 225.871, 230.566 228.346 C 228.677 230.820, 226.465 234.133, 225.651 235.707 C 224.837 237.281, 223.849 240.354, 223.454 242.535 C 223.060 244.716, 222.316 247.315, 221.801 248.311 C 221.232 249.411, 220.008 249.999, 218.682 249.811 C 217.019 249.574, 216.424 248.708, 216.181 246.169 C 216.005 244.336, 216.297 241.587, 216.830 240.058 L 217.798 237.280 208.149 236.730 C 202.842 236.428, 197.233 235.690, 195.685 235.090 C 194.137 234.491, 188.436 234, 183.016 234 L 173.163 234 171.186 237.250 C 170.098 239.037, 168.663 242.984, 167.997 246.019 C 166.996 250.579, 167.054 252.965, 168.333 259.744 C 169.228 264.490, 171.581 271.579, 173.913 276.555 C 176.130 281.287, 180.434 288.712, 183.478 293.055 C 187.202 298.370, 189.374 302.647, 190.124 306.141 C 190.736 308.995, 190.950 313.771, 190.599 316.753 C 190.249 319.736, 189.070 324.823, 187.981 328.057 C 186.891 331.291, 186 335.104, 186 336.530 C 186 337.957, 187.130 341.458, 188.511 344.312 C 189.893 347.165, 191.805 350.414, 192.761 351.531 C 193.718 352.648, 195.613 354.335, 196.973 355.281 C 198.332 356.226, 200.695 357, 202.223 357 C 203.750 357, 205 356.612, 205 356.138 C 205 355.663, 203.607 353.526, 201.905 351.388 C 200.203 349.249, 198.394 346.725, 197.885 345.777 C 197.375 344.829, 196.522 341.751, 195.988 338.936 C 195.250 335.046, 195.390 332.182, 196.569 326.996 C 197.510 322.860, 199.758 317.481, 202.278 313.337 C 205.940 307.316, 206.483 305.636, 206.827 299.260 C 207.171 292.883, 206.996 291.952, 205.359 291.443 C 204.336 291.125, 201.637 290.025, 199.361 288.999 C 197.085 287.973, 193.636 285.741, 191.698 284.039 C 189.759 282.337, 186.737 278.706, 184.981 275.971 C 183.225 273.235, 180.915 268.188, 179.847 264.756 C 178.779 261.324, 178.160 257.500, 178.471 256.258 C 178.866 254.684, 179.779 254, 181.484 254 C 182.878 254, 184.375 254.831, 184.965 255.934 C 185.534 256.998, 186 258.846, 186 260.041 C 186 261.236, 187.358 265.060, 189.018 268.538 C 190.852 272.380, 193.772 276.390, 196.459 278.755 C 199.329 281.281, 202.920 283.223, 206.690 284.288 C 209.886 285.191, 215.121 286.097, 218.324 286.303 C 223.855 286.658, 224.114 286.571, 223.466 284.588 C 223.091 283.440, 222.300 279.934, 221.709 276.798 C 220.915 272.582, 220.938 270.432, 221.796 268.548 C 222.466 267.077, 223.787 266, 224.920 266 C 225.999 266, 227.151 266.436, 227.481 266.969 C 227.810 267.502, 228.256 270.716, 228.473 274.113 C 228.799 279.236, 229.493 281.199, 232.553 285.642 L 236.241 290.996 235.141 301.748 C 234.513 307.899, 234.396 313.998, 234.868 316 C 235.322 317.925, 236.881 321.836, 238.333 324.691 C 239.785 327.546, 241.963 333.396, 243.173 337.691 C 244.741 343.257, 245.370 348.228, 245.365 355 C 245.360 360.844, 244.746 366.475, 243.768 369.632 C 242.265 374.481, 242.282 374.935, 244.074 377.882 C 245.117 379.597, 246.599 381, 247.367 381 C 248.184 381, 249.226 379.158, 249.881 376.557 C 250.497 374.114, 250.998 368.151, 250.995 363.307 C 250.993 358.463, 251.748 350.844, 252.674 346.376 C 254.271 338.671, 254.265 337.857, 252.555 330.596 C 251.281 325.187, 250.882 320.474, 251.193 314.535 C 251.562 307.513, 252.182 305.052, 254.964 299.570 C 256.796 295.963, 260.305 290.767, 262.763 288.024 C 265.221 285.281, 268.013 281.566, 268.967 279.769 C 269.921 277.971, 271.489 274.112, 272.450 271.193 C 274.031 266.394, 274.452 265.916, 276.849 266.193 C 279.188 266.464, 279.488 266.921, 279.401 270.080 C 279.347 272.050, 278.136 276.207, 276.712 279.318 L 274.122 284.976 277.619 283.515 C 279.542 282.711, 282.327 281.186, 283.808 280.125 C 285.289 279.064, 287.491 277.133, 288.701 275.835 C 289.912 274.537, 291.874 271.277, 293.063 268.591 C 294.792 264.681, 295.383 260.694, 296.025 248.604 C 296.512 239.429, 297.493 231.341, 298.524 228 C 299.457 224.975, 301.081 220.810, 302.133 218.745 C 303.834 215.407, 303.890 214.685, 302.643 212.245 C 301.872 210.735, 300.932 208.067, 300.555 206.315 C 300.178 204.564, 300.286 201.624, 300.795 199.782 C 301.649 196.687, 301.432 196.158, 297.932 192.802 L 294.144 189.171 291.705 195.335 M 326.200 190.200 C 325.540 190.860, 325 191.907, 325 192.526 C 325 193.145, 326.087 194.672, 327.415 195.920 C 329.026 197.434, 330.493 197.978, 331.823 197.556 C 332.919 197.208, 334.077 196.241, 334.398 195.406 C 334.733 194.531, 333.946 192.855, 332.535 191.444 C 331.191 190.100, 329.485 189, 328.745 189 C 328.005 189, 326.860 189.540, 326.200 190.200 M 145 202.615 C 145 203.503, 146.198 206.430, 147.661 209.119 C 149.125 211.808, 151.712 215.067, 153.411 216.360 C 155.110 217.653, 158.300 219.619, 160.500 220.727 C 162.700 221.836, 165.503 223.053, 166.728 223.432 L 168.956 224.121 167 219.810 C 165.924 217.440, 165.034 214.566, 165.022 213.424 C 165.010 212.283, 163.988 210.400, 162.750 209.241 C 161.512 208.082, 157.421 205.753, 153.657 204.067 C 149.893 202.380, 146.406 201, 145.907 201 C 145.408 201, 145 201.727, 145 202.615 M 343.485 228.048 C 343.127 229.174, 343.395 230.771, 344.080 231.596 C 344.765 232.421, 346.218 232.962, 347.310 232.798 C 348.402 232.634, 349.766 231.750, 350.340 230.834 C 351.095 229.630, 351.020 228.729, 350.070 227.584 C 349.347 226.713, 347.716 226, 346.445 226 C 344.995 226, 343.893 226.763, 343.485 228.048 M 117 231.139 C 115.625 231.758, 112.925 232.587, 111 232.979 C 108.054 233.580, 107.816 233.809, 109.500 234.428 C 110.600 234.832, 112.513 235.566, 113.750 236.060 C 115.023 236.568, 116 237.816, 116 238.936 C 116 240.217, 114.452 241.823, 111.614 243.486 C 109.201 244.900, 103.464 247.434, 98.864 249.117 C 93.864 250.947, 87.615 252.399, 83.328 252.727 C 79.167 253.046, 74.184 252.780, 71.457 252.093 C 68.872 251.442, 66.517 251.150, 66.224 251.443 C 65.930 251.736, 67.898 254.184, 70.597 256.883 C 73.867 260.152, 76.916 262.170, 79.738 262.929 C 83.093 263.833, 85.117 263.771, 89.486 262.630 C 92.519 261.838, 96.980 260.030, 99.398 258.612 C 101.817 257.195, 109.355 251.708, 116.148 246.419 C 122.942 241.130, 129.822 236.117, 131.439 235.278 L 134.377 233.754 131.651 232.325 C 130.152 231.540, 126.804 230.698, 124.213 230.454 C 121.621 230.211, 118.375 230.519, 117 231.139 M 133.530 242.158 C 130.797 243.873, 123.959 249.007, 118.334 253.565 C 112.709 258.124, 105.951 263.116, 103.316 264.660 C 100.682 266.204, 96.305 268.220, 93.590 269.139 L 88.653 270.810 92.576 271.900 C 94.734 272.499, 99.099 272.991, 102.275 272.994 C 105.451 272.997, 110.477 272.147, 113.443 271.105 C 116.409 270.062, 120.785 267.863, 123.168 266.219 C 125.551 264.574, 130.168 260.502, 133.429 257.171 C 136.689 253.839, 139.772 250.372, 140.279 249.466 C 140.785 248.561, 140.903 245.836, 140.539 243.410 C 140.175 240.985, 139.568 239.009, 139.189 239.019 C 138.810 239.029, 136.264 240.442, 133.530 242.158" stroke="none" fill="#040404" fill-rule="evenodd"/></svg>