<svg xmlns="http://www.w3.org/2000/svg" width="446" height="446" viewBox="0 0 446 446" version="1.1"><path d="" stroke="none" fill="#080404" fill-rule="evenodd"/><path d="M 221.975 58.031 C 220.607 58.397, 217.915 59.507, 215.994 60.497 C 214.072 61.487, 211.076 63.379, 209.335 64.702 C 207.594 66.026, 205.231 69.104, 204.085 71.543 C 202.938 73.982, 202.014 77.446, 202.032 79.239 C 202.049 81.033, 202.612 83.214, 203.282 84.087 C 203.952 84.959, 205.483 86.197, 206.684 86.837 C 207.886 87.476, 211.564 88, 214.858 88 C 219.832 88, 221.364 88.436, 223.904 90.573 C 225.716 92.098, 227.417 94.835, 228.078 97.290 C 228.757 99.811, 228.930 104.258, 228.519 108.641 C 227.936 114.864, 227.391 116.370, 224.526 119.674 L 221.209 123.500 218.651 117.731 C 217.244 114.558, 213.796 108.639, 210.989 104.578 C 208.181 100.517, 203.323 94.761, 200.192 91.787 C 197.062 88.813, 191.584 84.407, 188.019 81.996 C 184.454 79.585, 178.604 76.380, 175.019 74.874 C 171.434 73.368, 165.238 71.394, 161.250 70.488 C 155.611 69.206, 154 68.447, 154 67.075 C 154 66.104, 153.050 64.453, 151.890 63.405 C 150.270 61.943, 148.443 61.539, 144.035 61.668 C 140.875 61.761, 135.966 62.527, 133.125 63.370 C 130.284 64.214, 125.340 66.300, 122.138 68.007 C 118.936 69.714, 114.186 73.273, 111.582 75.917 C 107.996 79.557, 106.717 81.689, 106.313 84.699 C 105.961 87.329, 106.332 89.742, 107.411 91.828 C 108.308 93.562, 110.194 95.736, 111.603 96.660 C 113.657 98.005, 117.074 98.385, 128.832 98.576 C 137.565 98.718, 145.928 99.411, 149.500 100.290 C 152.800 101.102, 157.914 102.732, 160.864 103.913 C 163.814 105.094, 168.099 107.348, 170.387 108.922 C 172.674 110.496, 176.417 113.813, 178.703 116.294 C 180.990 118.775, 183.778 122.817, 184.898 125.276 C 186.018 127.735, 187.403 131.942, 187.975 134.624 C 188.547 137.306, 189.225 140.433, 189.482 141.573 C 189.882 143.349, 189.552 143.588, 187.182 143.240 C 185.660 143.017, 182.121 143.251, 179.317 143.761 L 174.219 144.687 170.030 138.316 C 167.726 134.812, 163.514 130.188, 160.670 128.042 C 157.827 125.895, 153.064 123.010, 150.086 121.631 C 147.108 120.252, 141.549 118.565, 137.732 117.883 C 132.191 116.892, 129.569 116.895, 124.717 117.898 C 121.375 118.588, 116.134 120.428, 113.070 121.988 C 110.007 123.547, 105.643 126.678, 103.373 128.946 C 99.586 132.728, 99.032 132.972, 96.668 131.894 C 94.673 130.986, 93.411 131.001, 91.089 131.963 C 89.130 132.775, 87.742 134.300, 87.094 136.353 C 86.547 138.084, 85.806 141.170, 85.446 143.211 C 84.902 146.299, 84.096 147.266, 80.646 148.972 C 78.366 150.099, 74.370 152.590, 71.766 154.508 C 69.163 156.426, 65.007 160.576, 62.532 163.730 C 60.056 166.884, 56.637 172.081, 54.933 175.278 C 53.229 178.475, 51.387 182.533, 50.841 184.295 C 50.295 186.058, 49.223 189.975, 48.460 193 C 47.696 196.025, 47.055 202.866, 47.036 208.201 C 47.016 213.537, 47.632 220.330, 48.405 223.297 C 49.178 226.265, 50.941 230.899, 52.324 233.596 C 53.706 236.293, 56.433 240.172, 58.384 242.216 C 60.335 244.259, 63.711 247.055, 65.887 248.428 C 68.062 249.802, 72.466 251.797, 75.671 252.861 C 78.877 253.926, 84.200 255.078, 87.500 255.422 C 91.445 255.833, 95.303 255.555, 98.764 254.610 C 101.659 253.820, 106.008 252.014, 108.427 250.596 C 110.846 249.178, 113.790 246.457, 114.969 244.550 C 116.148 242.643, 117.345 239.601, 117.630 237.791 C 117.915 235.981, 117.552 232.744, 116.824 230.597 C 116.081 228.406, 113.965 225.466, 112 223.894 C 109.469 221.869, 106.563 220.789, 101.500 219.991 C 97.650 219.385, 92.700 217.834, 90.500 216.546 C 88.300 215.257, 85.042 212.807, 83.259 211.101 C 81.477 209.396, 79.635 208, 79.167 208 C 78.699 208, 77.770 209.824, 77.102 212.053 L 75.888 216.106 71.490 215.446 C 67.416 214.835, 67.047 214.966, 66.481 217.220 C 66.145 218.559, 66.012 220.969, 66.185 222.577 C 66.439 224.938, 66.116 225.500, 64.500 225.500 C 62.798 225.500, 62.456 224.734, 62.202 220.361 C 61.937 215.797, 62.204 214.985, 64.586 213.111 C 66.062 211.950, 68.504 211, 70.014 211 C 72.122 211, 73.046 210.302, 74.005 207.987 C 74.692 206.330, 76.209 204.752, 77.377 204.479 C 78.544 204.206, 80.826 204.100, 82.447 204.242 C 85.187 204.482, 85.447 204.202, 86.142 200.270 C 86.553 197.943, 87.797 193.986, 88.908 191.476 C 90.018 188.966, 91.874 185.582, 93.031 183.956 C 94.889 181.348, 95.732 181, 100.200 181 C 103.533 181, 106.380 180.310, 108.528 178.982 C 110.324 177.873, 112.525 175.848, 113.420 174.482 C 114.730 172.483, 115.868 172.002, 119.273 172.012 C 121.598 172.018, 125.750 172.623, 128.500 173.356 C 131.250 174.089, 134.919 175.422, 136.653 176.320 L 139.806 177.951 137.752 184.225 C 136.214 188.925, 135.584 194.045, 135.241 204.625 C 134.832 217.263, 135.073 220.123, 137.532 231.790 C 139.043 238.963, 140.030 245.479, 139.726 246.270 C 139.423 247.062, 137.672 247.961, 135.837 248.267 C 134.002 248.573, 128.658 250.221, 123.961 251.930 C 119.265 253.638, 111.507 257.391, 106.723 260.268 C 101.938 263.146, 95.655 267.497, 92.762 269.938 C 89.868 272.380, 85.537 276.655, 83.138 279.438 C 80.739 282.222, 77.053 287.349, 74.948 290.831 C 72.843 294.313, 70.127 300.163, 68.913 303.831 C 67.259 308.828, 66.704 312.890, 66.701 320.033 C 66.699 325.277, 67.280 332.027, 67.993 335.033 C 68.706 338.040, 70.347 342.828, 71.639 345.673 C 72.931 348.518, 75.209 351.806, 76.701 352.979 C 78.609 354.480, 80.168 354.925, 81.957 354.479 C 83.356 354.130, 85.288 353.134, 86.250 352.267 C 87.718 350.944, 88 348.890, 88 339.500 C 88 331.354, 88.497 326.805, 89.826 322.777 C 90.830 319.733, 93.339 314.944, 95.401 312.135 C 97.463 309.325, 100.354 306.080, 101.825 304.923 L 104.499 302.819 105.217 307.022 C 105.611 309.334, 107.018 312.646, 108.344 314.384 C 110.011 316.570, 112.716 318.233, 117.127 319.782 C 122.277 321.591, 125.649 322.018, 134.701 322.010 C 140.970 322.004, 148.236 321.392, 151.201 320.619 C 154.116 319.859, 158.105 318.567, 160.067 317.746 L 163.634 316.255 160.398 322.378 C 158.618 325.745, 156.143 331.650, 154.899 335.500 C 153.203 340.746, 152.633 344.881, 152.626 352 C 152.617 360.165, 152.988 362.311, 155.262 367.270 C 156.791 370.606, 160.069 375.145, 163.031 378.030 C 165.849 380.775, 170.225 383.964, 172.757 385.117 C 175.288 386.270, 180.471 387.645, 184.273 388.172 C 188.197 388.715, 210.285 388.964, 235.343 388.746 C 266.300 388.478, 280.696 387.997, 283.500 387.140 C 285.700 386.467, 290.376 384.511, 293.892 382.792 C 297.407 381.073, 303.077 377.053, 306.491 373.860 C 309.905 370.666, 314.879 364.802, 317.545 360.829 C 320.210 356.856, 323.407 350.807, 324.649 347.387 C 325.890 343.967, 327.291 337.516, 327.762 333.053 C 328.249 328.433, 328.233 321.635, 327.725 317.269 C 327.234 313.052, 325.756 306.739, 324.439 303.242 C 323.123 299.744, 320.164 294.200, 317.863 290.921 C 315.563 287.641, 311.543 283.423, 308.930 281.545 C 306.317 279.668, 302.451 277.273, 300.340 276.223 C 298.228 275.173, 294.475 273.804, 292 273.181 C 289.525 272.557, 286.375 271.924, 285 271.774 C 282.523 271.503, 282.501 271.412, 282.559 262 C 282.591 256.775, 283.201 249.575, 283.914 246 C 284.628 242.425, 286.295 235.900, 287.620 231.500 C 288.944 227.100, 291.484 220.592, 293.264 217.037 C 295.764 212.045, 298.171 209.176, 303.845 204.426 C 307.884 201.044, 314.409 196.689, 318.345 194.748 C 322.280 192.807, 328.585 190.270, 332.355 189.110 C 336.126 187.949, 341.172 187, 343.570 187 C 346.701 187, 348.194 187.494, 348.868 188.753 C 349.384 189.717, 349.962 192.044, 350.153 193.924 C 350.490 197.248, 350.338 197.409, 344.616 199.725 C 341.380 201.035, 336.064 203.919, 332.803 206.134 C 329.541 208.349, 324.974 212.115, 322.652 214.504 C 320.331 216.892, 317.434 220.843, 316.216 223.283 C 314.997 225.723, 314 229.155, 314 230.909 C 314 232.664, 314.726 235.539, 315.614 237.300 C 316.502 239.060, 318.393 241.745, 319.817 243.266 C 321.240 244.787, 324.172 246.508, 326.331 247.089 C 328.686 247.723, 333.308 247.865, 337.879 247.444 C 342.070 247.057, 348.530 245.722, 352.233 244.476 C 355.936 243.230, 361.104 240.957, 363.718 239.425 C 366.332 237.893, 370.620 234.630, 373.246 232.173 C 375.872 229.717, 379.356 225.373, 380.989 222.520 C 382.621 219.668, 384.696 214.446, 385.601 210.917 C 386.798 206.248, 387.093 202.185, 386.682 196 C 386.371 191.325, 385.528 185.925, 384.808 184 C 384.088 182.075, 382.443 178.475, 381.154 176 C 379.864 173.525, 377.699 170.031, 376.343 168.236 C 374.986 166.440, 371.542 163.247, 368.688 161.140 C 365.835 159.033, 361.025 156.373, 358 155.231 C 354.975 154.088, 350.076 152.609, 347.114 151.944 C 343.993 151.244, 338.302 150.949, 333.582 151.243 C 328.186 151.580, 322.423 152.790, 316.506 154.830 C 311.594 156.523, 307.378 157.711, 307.137 157.470 C 306.896 157.229, 309.266 153.680, 312.404 149.583 C 315.542 145.486, 319.794 140.612, 321.854 138.751 C 323.913 136.890, 328.051 133.521, 331.049 131.264 C 334.047 129.007, 340.100 125.366, 344.500 123.173 C 348.900 120.979, 356.192 118.270, 360.704 117.152 C 365.216 116.034, 369.748 114.670, 370.774 114.121 C 371.800 113.572, 373.256 111.256, 374.009 108.974 C 375.179 105.428, 375.169 104.219, 373.939 100.662 C 372.768 97.274, 371.558 95.995, 367.435 93.785 C 364.649 92.292, 359.717 90.380, 356.475 89.535 C 353.233 88.691, 346.931 88, 342.471 88 C 338.012 88, 332.034 88.692, 329.188 89.537 C 325.408 90.659, 323.644 91.805, 322.644 93.787 C 321.891 95.279, 321.475 97.063, 321.721 97.750 C 321.995 98.520, 324.055 99, 327.083 99 C 329.914 99, 332 99.455, 332 100.072 C 332 100.661, 330.855 103.098, 329.456 105.485 C 328.056 107.873, 327.272 110.050, 327.713 110.323 C 328.154 110.595, 330.199 111.134, 332.258 111.521 C 334.447 111.931, 336 112.799, 336 113.611 C 336 114.654, 334.380 115, 329.500 115 L 323 115 323 112.065 C 323 110.451, 323.436 107.984, 323.968 106.583 C 324.771 104.471, 324.592 103.852, 322.919 102.957 C 321.473 102.183, 319.965 102.186, 317.590 102.970 C 315.768 103.572, 311.178 106.130, 307.389 108.656 C 303.600 111.182, 298.178 115.218, 295.341 117.625 C 292.503 120.031, 289.863 122, 289.474 122 C 289.085 122, 288.953 119.080, 289.180 115.511 C 289.467 111.008, 290.224 108.177, 291.653 106.261 C 292.785 104.742, 294.564 103.382, 295.606 103.238 C 296.648 103.094, 299.975 102.460, 303 101.829 C 306.025 101.198, 310.846 99.603, 313.714 98.285 C 316.680 96.922, 320.647 93.936, 322.916 91.359 C 325.792 88.091, 327.092 85.571, 327.580 82.315 C 327.985 79.611, 327.764 76.156, 327.028 73.700 C 326.353 71.445, 324.378 68.178, 322.641 66.441 C 320.694 64.494, 317.316 62.652, 313.837 61.641 C 310.732 60.738, 306.686 60.005, 304.846 60.012 C 303.006 60.018, 299.084 60.667, 296.131 61.453 C 293.178 62.239, 288.403 64.036, 285.519 65.447 C 282.635 66.858, 277.308 70.732, 273.680 74.056 C 270.052 77.380, 265.519 82.676, 263.607 85.824 C 261.694 88.972, 259.447 93.562, 258.613 96.024 C 257.780 98.486, 256.798 102.378, 256.433 104.674 C 255.990 107.460, 255.346 108.686, 254.498 108.361 C 253.633 108.029, 253.098 104.783, 252.822 98.187 C 252.495 90.398, 251.899 87.379, 249.777 82.780 C 248.325 79.633, 245.108 75.086, 242.627 72.675 C 240.145 70.263, 236.739 67.720, 235.058 67.024 C 233.376 66.327, 232 65.012, 232 64.101 C 232 63.190, 231.338 61.500, 230.529 60.345 C 229.720 59.189, 228.024 58.047, 226.760 57.805 C 225.497 57.564, 223.344 57.665, 221.975 58.031 M 294.657 68.433 C 290.893 69.767, 286.090 71.998, 283.983 73.393 C 281.875 74.787, 278.516 77.364, 276.517 79.119 C 274.518 80.874, 271.643 84.153, 270.128 86.405 C 268.613 88.657, 266.390 92.923, 265.187 95.883 C 263.984 98.844, 263 102.461, 263 103.921 C 263 105.381, 264.238 108.039, 265.750 109.828 C 267.585 111.998, 269.703 113.269, 272.118 113.649 C 274.512 114.026, 276.980 113.629, 279.411 112.475 C 281.839 111.323, 283.579 109.549, 284.543 107.244 C 285.344 105.325, 286 103.586, 286 103.378 C 286 103.170, 285.403 103, 284.674 103 C 283.945 103, 282.318 101.903, 281.059 100.563 C 279.317 98.709, 278.769 96.955, 278.769 93.236 C 278.769 90.547, 279.483 86.967, 280.355 85.280 C 281.227 83.594, 284.092 80.641, 286.720 78.719 C 289.349 76.796, 293.201 74.273, 295.280 73.112 C 297.360 71.950, 300.172 71, 301.530 71 C 302.889 71, 304.910 71.910, 306.023 73.023 C 307.597 74.597, 308.469 74.819, 309.953 74.025 C 311.376 73.263, 312.249 73.392, 313.388 74.531 C 314.228 75.371, 314.684 76.659, 314.402 77.393 C 314.121 78.128, 312.769 79.240, 311.398 79.865 C 310.027 80.489, 307.535 81, 305.859 81 C 303.654 81, 302.668 80.448, 302.290 79 C 302.002 77.900, 301.348 77, 300.835 77 C 300.323 77, 297.507 78.533, 294.577 80.408 C 291.647 82.282, 288.339 84.793, 287.226 85.987 C 286.113 87.182, 284.986 89.293, 284.721 90.679 C 284.456 92.065, 284.463 94.054, 284.736 95.100 C 285.159 96.715, 286.185 97, 291.568 97 C 295.052 97, 300.431 96.341, 303.521 95.537 C 306.611 94.732, 310.980 93.044, 313.231 91.787 C 315.481 90.529, 318.162 88.364, 319.188 86.977 C 320.213 85.589, 321.315 82.835, 321.636 80.858 C 322.019 78.496, 321.641 76.045, 320.532 73.709 C 319.472 71.474, 317.482 69.503, 315.173 68.399 C 313.153 67.434, 309.250 66.501, 306.500 66.327 C 303.087 66.110, 299.328 66.779, 294.657 68.433 M 142.500 67.665 C 140.850 67.857, 137.700 68.481, 135.500 69.053 C 133.300 69.624, 129.052 71.308, 126.059 72.796 C 123.067 74.283, 118.679 77.335, 116.309 79.579 C 113.452 82.282, 112 84.505, 112 86.174 C 112 87.558, 112.912 89.515, 114.027 90.524 C 115.763 92.096, 118.093 92.392, 130.277 92.592 C 139.312 92.740, 147.053 93.433, 151.500 94.492 C 155.350 95.409, 160.750 97.108, 163.500 98.267 C 166.250 99.425, 170.975 102.057, 174 104.114 C 177.025 106.171, 181.484 109.966, 183.909 112.547 C 186.334 115.128, 190.609 118.306, 193.409 119.610 C 196.675 121.131, 200.292 121.971, 203.500 121.955 C 206.250 121.941, 209.489 121.379, 210.698 120.707 C 212.889 119.489, 212.882 119.464, 208.198 111.818 C 205.614 107.600, 201.475 101.957, 199 99.277 C 196.525 96.598, 192.475 92.786, 190 90.808 C 187.525 88.829, 183.233 85.881, 180.463 84.256 C 177.693 82.632, 172.968 80.395, 169.963 79.286 C 166.958 78.176, 162.887 76.977, 160.917 76.620 C 157.423 75.988, 157.333 76.051, 157.333 79.142 C 157.333 81.234, 156.559 82.939, 155.056 84.156 C 153.604 85.331, 151.163 86, 148.323 86 C 144.052 86, 143.880 85.886, 144.184 83.250 C 144.447 80.959, 145.042 80.448, 147.750 80.187 C 150.049 79.965, 151 79.365, 151 78.137 C 151 77.181, 150.502 75.902, 149.893 75.293 C 149.284 74.684, 148.485 72.715, 148.117 70.917 C 147.749 69.120, 147.010 67.574, 146.474 67.483 C 145.938 67.391, 144.150 67.473, 142.500 67.665 M 216.507 72.636 C 215.458 73.685, 215.217 74.617, 215.835 75.235 C 216.365 75.765, 217.744 75.899, 218.899 75.532 C 220.079 75.158, 221 74.018, 221 72.933 C 221 71.870, 220.357 71, 219.571 71 C 218.786 71, 217.407 71.736, 216.507 72.636 M 127.529 76.355 C 126.394 77.185, 125.920 78.348, 126.306 79.355 C 126.722 80.438, 128.106 81, 130.362 81 C 132.602 81, 134.002 80.437, 134.410 79.373 C 134.754 78.479, 134.522 77.129, 133.895 76.373 C 133.268 75.618, 131.996 75, 131.069 75 C 130.141 75, 128.548 75.610, 127.529 76.355 M 295 83.982 C 292.993 85.535, 292.711 86.258, 293.571 87.648 C 294.161 88.601, 295.105 89.535, 295.670 89.723 C 296.235 89.912, 297.778 89.179, 299.099 88.096 C 301.021 86.519, 301.286 85.775, 300.429 84.372 C 299.839 83.408, 298.939 82.490, 298.429 82.333 C 297.918 82.176, 296.375 82.918, 295 83.982 M 350.350 100.531 C 349.983 101.486, 350.307 102.587, 351.104 103.100 C 351.872 103.593, 353.175 103.879, 354 103.735 C 354.825 103.591, 355.500 102.579, 355.500 101.486 C 355.500 100.187, 354.721 99.389, 353.246 99.180 C 351.846 98.981, 350.748 99.494, 350.350 100.531 M 240.324 115.638 C 238.028 116.451, 234.187 118.843, 231.791 120.953 C 229.394 123.063, 226.208 127.039, 224.711 129.790 C 223.214 132.540, 220.875 137.750, 219.514 141.367 C 218.152 144.984, 216.355 151.219, 215.520 155.222 C 214.585 159.704, 214.001 167.833, 214.001 176.385 C 214 184.021, 214.491 193.246, 215.091 196.885 C 215.691 200.523, 217.287 208.675, 218.638 215 C 219.990 221.325, 221.587 228.712, 222.187 231.416 C 222.995 235.051, 224.392 237.445, 227.551 240.604 C 230.345 243.397, 233.082 245.112, 235.459 245.558 C 237.459 245.933, 240.981 245.939, 243.286 245.570 C 245.591 245.202, 248.495 243.944, 249.739 242.776 C 250.982 241.607, 251.994 239.717, 251.987 238.576 C 251.980 237.434, 250.846 232.966, 249.467 228.647 C 248.087 224.328, 246.081 216.855, 245.009 212.039 C 243.936 207.223, 242.517 198.092, 241.856 191.747 C 240.937 182.932, 240.925 178.002, 241.804 170.845 C 242.438 165.693, 243.904 158.457, 245.063 154.764 C 246.222 151.070, 249.304 144.537, 251.911 140.245 C 254.518 135.953, 257.179 130.925, 257.825 129.071 C 258.471 127.218, 259 124.384, 259 122.774 C 259 120.871, 257.976 118.823, 256.077 116.923 C 253.707 114.553, 252.335 114.015, 248.827 114.079 C 246.447 114.122, 242.621 114.824, 240.324 115.638 M 122.776 124.420 C 120.178 125.168, 116.128 126.911, 113.776 128.295 C 111.424 129.678, 108.460 131.924, 107.188 133.285 L 104.876 135.761 107.874 136.806 C 109.592 137.405, 111.566 139.194, 112.499 140.997 C 113.769 143.454, 113.866 144.457, 112.940 145.572 C 112.288 146.357, 111.146 147, 110.401 147 C 109.656 147, 108.320 145.891, 107.432 144.537 C 105.908 142.211, 105.685 142.161, 103.435 143.634 C 101.440 144.942, 100.843 144.977, 99.763 143.848 C 99.054 143.106, 97.664 141.235, 96.673 139.688 C 95.683 138.141, 94.350 137.050, 93.712 137.263 C 93.074 137.475, 91.997 140.316, 91.320 143.575 C 90.642 146.834, 90.068 152.256, 90.044 155.624 C 90.020 158.993, 90.690 163.705, 91.534 166.096 C 92.377 168.487, 94.031 171.468, 95.208 172.722 C 96.673 174.281, 98.494 175, 100.978 175 C 103.802 175, 105.262 174.279, 107.554 171.750 C 109.174 169.963, 110.994 167.600, 111.598 166.500 C 112.202 165.400, 114.118 159.918, 115.856 154.317 C 117.678 148.448, 120.123 142.819, 121.628 141.030 C 123.064 139.323, 125.815 137.268, 127.742 136.463 C 129.668 135.659, 132.472 135, 133.973 135 C 135.474 135, 138.231 135.519, 140.101 136.153 C 141.970 136.787, 144.772 138.192, 146.327 139.276 C 148.198 140.580, 149.490 140.910, 150.147 140.253 C 150.697 139.703, 150.846 137.695, 150.481 135.748 C 150.118 133.816, 148.985 130.860, 147.963 129.179 C 146.761 127.203, 144.760 125.728, 142.302 125.006 C 140.211 124.392, 136.025 123.703, 133 123.475 C 129.975 123.247, 125.374 123.672, 122.776 124.420 M 129.241 142.325 C 127.999 143.015, 126.286 144.574, 125.435 145.790 C 123.889 147.996, 123.897 148, 129.845 148 C 135.529 148, 135.851 147.865, 136.821 145.085 C 137.379 143.482, 137.573 141.907, 137.252 141.585 C 136.930 141.263, 135.504 141.016, 134.083 141.035 C 132.662 141.055, 130.484 141.635, 129.241 142.325 M 257.827 142.702 C 256.963 143.691, 255.728 145.522, 255.082 146.771 C 254.436 148.020, 254.180 149.482, 254.513 150.021 C 254.846 150.559, 257.743 151, 260.952 151 C 265.036 151, 266.948 151.421, 267.324 152.403 C 267.620 153.174, 267.285 154.595, 266.580 155.560 C 265.485 157.057, 264.247 157.227, 258.171 156.718 L 251.045 156.120 250.076 159.810 C 249.543 161.840, 248.970 164.835, 248.803 166.467 C 248.508 169.358, 248.666 169.471, 254.915 170.839 C 260.093 171.974, 262.358 172.014, 266.665 171.051 L 272 169.857 271.984 159.678 C 271.969 150.977, 271.639 148.919, 269.708 145.500 C 267.729 141.995, 266.951 141.463, 263.423 141.202 C 260.526 140.988, 258.956 141.409, 257.827 142.702 M 142.235 147.189 C 141.219 149.880, 141.287 150.660, 142.671 152.189 C 143.572 153.185, 144.636 154, 145.034 154 C 145.432 154, 146.320 152.641, 147.008 150.980 C 148.140 148.249, 148.041 147.770, 145.977 145.980 C 144.721 144.891, 143.636 144, 143.566 144 C 143.496 144, 142.897 145.435, 142.235 147.189 M 176.169 150.515 C 173.237 151.332, 168.399 153.619, 165.418 155.598 C 162.436 157.577, 158.310 161.126, 156.249 163.485 C 154.187 165.844, 151.032 170.218, 149.238 173.205 C 147.444 176.192, 144.994 181.305, 143.792 184.568 C 142.056 189.283, 141.526 193.295, 141.211 204.124 C 140.869 215.852, 141.170 219.475, 143.374 230.173 C 144.783 237.008, 146.632 244.268, 147.484 246.307 C 148.336 248.346, 150.413 251.333, 152.101 252.946 C 153.788 254.559, 156.481 256.166, 158.085 256.519 C 159.688 256.871, 162.463 256.842, 164.250 256.455 C 166.037 256.068, 168.788 254.840, 170.363 253.727 C 171.938 252.614, 173.850 250.209, 174.613 248.383 C 175.376 246.558, 175.989 242.912, 175.976 240.282 C 175.962 237.652, 175.483 233.475, 174.912 231 C 174.340 228.525, 173.235 222.900, 172.455 218.500 C 171.675 214.100, 171.033 207.350, 171.029 203.500 C 171.025 199.650, 171.656 194.409, 172.432 191.852 C 173.208 189.296, 174.537 185.862, 175.385 184.222 C 176.234 182.581, 178.280 180.100, 179.933 178.710 C 181.586 177.319, 185.137 175.451, 187.825 174.558 C 190.513 173.665, 193.641 171.937, 194.775 170.717 C 195.909 169.498, 197.238 166.932, 197.728 165.015 C 198.263 162.923, 198.240 159.610, 197.669 156.725 C 197.140 154.050, 195.984 151.527, 195.061 151.032 C 194.148 150.544, 190.724 149.894, 187.451 149.587 C 183.616 149.227, 179.604 149.557, 176.169 150.515 M 98.667 153.667 C 98.300 154.033, 98 155.847, 98 157.698 C 98 159.779, 98.577 161.284, 99.513 161.643 C 100.345 161.963, 101.695 161.668, 102.513 160.989 C 103.331 160.311, 104 158.775, 104 157.578 C 104 156.380, 103.460 154.860, 102.800 154.200 C 102.140 153.540, 101.090 153, 100.467 153 C 99.843 153, 99.033 153.300, 98.667 153.667 M 328.500 157.681 C 327.400 157.927, 323.989 158.746, 320.920 159.500 C 317.851 160.254, 312.901 161.988, 309.920 163.353 C 306.939 164.718, 301.125 168.082, 297 170.829 C 292.875 173.576, 287.617 177.618, 285.316 179.811 C 282.738 182.267, 280.746 185.277, 280.127 187.649 C 279.574 189.767, 278.820 193.188, 278.450 195.250 C 278.020 197.649, 278.160 199, 278.838 199 C 279.421 199, 282.059 196.921, 284.699 194.380 C 287.340 191.840, 292.875 187.528, 297 184.798 C 301.125 182.068, 306.939 178.718, 309.920 177.353 C 312.901 175.988, 318.032 174.182, 321.321 173.339 C 325.340 172.310, 329.079 172.029, 332.722 172.484 C 335.704 172.857, 339.631 173.784, 341.451 174.544 C 343.270 175.304, 346.185 177.126, 347.928 178.593 C 349.672 180.060, 352.271 183.564, 353.705 186.380 C 355.550 190.004, 356.451 193.619, 356.788 198.750 L 357.263 206 363.663 206 C 368.432 206, 370.210 206.383, 370.639 207.502 C 370.956 208.327, 370.400 211.723, 369.405 215.048 C 368.409 218.372, 367.086 221.514, 366.465 222.029 C 365.746 222.625, 364.709 222.508, 363.613 221.706 C 362.164 220.647, 362.041 219.775, 362.839 216.223 L 363.787 212 358.594 212 C 355.737 212, 352.860 211.460, 352.200 210.800 C 351.540 210.140, 351 208.310, 351 206.733 C 351 204.219, 350.722 203.951, 348.750 204.562 C 347.512 204.945, 344.448 206.290, 341.941 207.550 C 339.433 208.810, 335.038 211.693, 332.174 213.957 C 329.310 216.221, 325.410 220.194, 323.508 222.787 C 321.474 225.558, 320.039 228.697, 320.025 230.405 C 320.001 233.148, 320.101 233.219, 321.815 231.667 C 322.813 230.764, 324.987 229.552, 326.647 228.973 C 328.776 228.231, 330.502 228.240, 332.512 229.004 C 334.887 229.908, 336.071 229.710, 339.646 227.813 C 343.695 225.665, 344.168 225.621, 348.144 227.019 C 350.459 227.834, 352.519 229.010, 352.722 229.634 C 352.924 230.258, 352.388 231.469, 351.530 232.327 C 350.293 233.564, 349.359 233.672, 347.002 232.851 C 344.525 231.987, 343.429 232.190, 340.376 234.077 C 337.115 236.092, 336.271 236.215, 332.609 235.208 C 329.072 234.236, 328.152 234.332, 326 235.897 C 324.625 236.897, 323.550 238.117, 323.612 238.608 C 323.674 239.099, 324.799 240.071, 326.112 240.769 C 327.757 241.644, 330.834 241.855, 336 241.449 C 340.125 241.124, 346.403 239.955, 349.950 238.851 C 353.498 237.747, 357.773 236.148, 359.450 235.298 C 361.128 234.447, 364.319 232.278, 366.543 230.478 C 368.766 228.679, 371.854 225.376, 373.404 223.139 C 374.954 220.902, 377.297 216.110, 378.611 212.491 C 380.308 207.816, 381 203.801, 381 198.633 C 381 194.448, 380.288 189.266, 379.324 186.436 C 378.402 183.730, 376.730 179.938, 375.610 178.008 C 374.489 176.079, 371.657 172.456, 369.317 169.958 C 366.977 167.460, 362.236 164.022, 358.781 162.319 C 355.326 160.616, 350.115 158.723, 347.201 158.112 C 344.286 157.500, 339.336 157.052, 336.201 157.116 C 333.065 157.180, 329.600 157.434, 328.500 157.681 M 247 181.734 C 247 186.286, 247.499 188.365, 249.073 190.365 C 250.688 192.419, 252.018 193, 255.105 193 C 257.282 193, 260.558 192.376, 262.383 191.613 C 264.209 190.850, 266.654 188.890, 267.816 187.258 C 268.979 185.625, 270.225 182.446, 270.585 180.192 L 271.240 176.095 267.386 177.159 C 265.267 177.744, 261.500 177.960, 259.016 177.639 C 256.532 177.318, 252.813 176.759, 250.750 176.397 L 247 175.738 247 181.734 M 323.750 178.716 C 322.065 178.971, 321 179.755, 321 180.738 C 321 181.620, 321.680 183.094, 322.512 184.013 C 323.924 185.573, 324.372 185.564, 329.262 183.875 C 332.143 182.880, 335.486 182.051, 336.691 182.033 C 337.896 182.015, 339.128 181.602, 339.429 181.116 C 339.729 180.629, 337.981 179.729, 335.545 179.116 C 333.108 178.502, 330.076 178.067, 328.807 178.150 C 327.538 178.232, 325.262 178.487, 323.750 178.716 M 306.996 185.805 C 302.084 188.681, 300.584 190.075, 300.843 191.518 C 301.031 192.568, 301.727 194.200, 302.389 195.145 C 303.494 196.723, 303.995 196.586, 308.546 193.467 C 311.271 191.599, 313.973 190.055, 314.550 190.035 C 315.127 190.016, 316.094 189.506, 316.698 188.902 C 317.494 188.106, 317.343 187.011, 316.148 184.909 C 315.241 183.316, 314.273 182.010, 313.996 182.006 C 313.718 182.003, 310.568 183.712, 306.996 185.805 M 190.063 186.250 C 190.098 186.938, 191.343 189.975, 192.829 193 C 195.086 197.593, 196.020 198.556, 198.498 198.839 C 200.129 199.025, 203.159 198.670, 205.232 198.049 C 207.800 197.279, 209 196.339, 209 195.095 C 209 194.091, 208.060 192.075, 206.912 190.615 C 205.763 189.155, 203.535 187.294, 201.961 186.480 C 200.387 185.666, 197.052 185, 194.550 185 C 191.543 185, 190.021 185.424, 190.063 186.250 M 182.874 192.750 C 182.282 194.262, 181.552 197.239, 181.252 199.364 C 180.746 202.946, 180.863 203.183, 182.853 202.614 C 184.034 202.276, 185.900 201.745, 187 201.433 C 188.100 201.121, 189 200.421, 189 199.878 C 189 199.335, 188.089 196.890, 186.975 194.445 C 185.861 192, 184.725 190, 184.450 190 C 184.175 190, 183.466 191.238, 182.874 192.750 M 287.376 200.293 L 280.734 206.585 282.360 209.729 C 283.254 211.458, 284.426 213.145, 284.963 213.477 C 285.501 213.809, 288.790 211.073, 292.273 207.397 L 298.606 200.713 297.053 197.389 C 296.199 195.561, 295.167 194.050, 294.759 194.033 C 294.352 194.015, 291.029 196.832, 287.376 200.293 M 206.500 204 C 205.400 204.473, 203.059 204.891, 201.298 204.930 L 198.096 205 199.567 209.750 C 200.376 212.363, 201.320 218.845, 201.664 224.156 C 202.244 233.089, 202.470 233.893, 204.692 234.906 C 206.013 235.508, 208.562 236, 210.356 236 C 212.150 236, 214.377 235.438, 215.305 234.750 C 216.670 233.740, 216.821 232.829, 216.094 230 C 215.599 228.075, 214.923 225.288, 214.592 223.807 C 214.070 221.469, 213.431 221.074, 209.745 220.807 C 205.966 220.534, 205.500 220.226, 205.500 218 C 205.500 215.910, 206.034 215.449, 208.750 215.187 C 210.537 215.014, 212 214.486, 212 214.013 C 212 213.540, 211.473 210.868, 210.828 208.076 C 210.184 205.284, 209.396 203.032, 209.078 203.070 C 208.760 203.109, 207.600 203.527, 206.500 204 M 186.236 207.942 C 183.192 208.832, 181.154 209.959, 181.405 210.613 C 181.644 211.235, 182.159 213.876, 182.550 216.482 L 183.260 221.219 186.736 220.655 C 188.647 220.345, 191.329 219.359, 192.694 218.465 C 194.656 217.180, 195.042 216.302, 194.534 214.280 C 194.181 212.872, 193.354 210.524, 192.696 209.061 L 191.500 206.401 186.236 207.942 M 343.250 214.674 C 342.012 215.538, 341 217.059, 341 218.055 C 341 219.050, 341.932 220.161, 343.072 220.523 C 344.395 220.943, 345.840 220.550, 347.072 219.435 C 348.132 218.475, 349 216.908, 349 215.952 C 349 214.996, 348.288 213.941, 347.418 213.607 C 346.548 213.273, 345.761 213.024, 345.668 213.052 C 345.576 213.081, 344.488 213.811, 343.250 214.674 M 190.500 225.888 C 187.750 226.712, 185.340 227.497, 185.144 227.632 C 184.948 227.768, 185.584 229.961, 186.556 232.507 C 188.162 236.711, 188.561 237.078, 190.912 236.502 C 192.335 236.154, 194.090 235.292, 194.811 234.587 C 195.616 233.801, 196.002 231.584, 195.811 228.848 L 195.500 224.389 190.500 225.888 M 88 231.883 C 88 232.991, 88.919 234.007, 90.233 234.351 C 91.461 234.672, 92.882 234.518, 93.390 234.010 C 93.957 233.443, 93.819 232.487, 93.035 231.542 C 92.331 230.694, 90.910 230, 89.878 230 C 88.705 230, 88 230.708, 88 231.883 M 194.669 241.373 C 190.135 243.310, 189.872 243.625, 190.399 246.469 C 190.708 248.136, 191.259 252.754, 191.624 256.732 L 192.286 263.963 195.719 264.607 C 197.607 264.961, 201.182 264.973, 203.664 264.633 C 206.146 264.292, 210.621 262.548, 213.608 260.757 L 219.040 257.500 218.398 250 C 218.045 245.875, 217.580 242.306, 217.363 242.068 C 217.147 241.831, 214.614 241.744, 211.735 241.876 C 208.856 242.007, 204.925 241.483, 203 240.711 C 199.831 239.440, 199.043 239.503, 194.669 241.373 M 228.941 259.929 C 226.433 260.885, 221.999 262.964, 219.087 264.549 C 216.174 266.134, 211.770 269.211, 209.298 271.387 L 204.805 275.342 207.463 276.735 C 209.080 277.582, 209.988 278.789, 209.780 279.814 C 209.520 281.094, 208.418 281.479, 205.197 281.412 C 201.528 281.336, 200.876 281.645, 200.358 283.709 C 200.029 285.020, 200.019 286.352, 200.335 286.669 C 200.652 286.985, 203.293 287.407, 206.205 287.606 C 209.117 287.806, 212.850 288.046, 214.500 288.141 C 216.150 288.236, 218.949 287.828, 220.720 287.235 C 223.601 286.270, 224.751 286.569, 231.654 290.078 C 238.378 293.497, 240.239 294, 246.150 294 C 252.371 294, 253.235 293.732, 256.624 290.757 C 258.655 288.974, 261.366 285.261, 262.649 282.507 C 263.931 279.753, 264.985 276.503, 264.990 275.285 C 264.996 274.063, 264.074 272.575, 262.933 271.964 C 261.328 271.105, 260.330 271.209, 258.468 272.429 C 257.149 273.293, 255.574 274.927, 254.968 276.061 C 254.262 277.379, 253.078 278.009, 251.682 277.811 C 249.707 277.529, 249.530 277.002, 249.822 272.250 L 250.143 267 245.226 267 C 241.812 267, 239.826 266.465, 238.725 265.248 C 237.853 264.285, 236.669 262.260, 236.094 260.748 C 235.520 259.237, 234.701 258.043, 234.275 258.095 C 233.849 258.148, 231.448 258.973, 228.941 259.929 M 190.725 278.657 C 189.801 283.451, 187.521 290.551, 185.657 294.436 C 183.794 298.321, 179.468 305.099, 176.044 309.499 C 172.621 313.898, 168.322 320.198, 166.492 323.499 C 164.662 326.799, 162.227 332.387, 161.082 335.915 C 159.826 339.786, 159 344.964, 159 348.969 C 159 354.602, 159.447 356.313, 161.948 360.258 C 163.698 363.016, 166.443 365.689, 168.698 366.830 C 170.789 367.888, 174.975 369.282, 178 369.927 C 181.025 370.573, 191.825 371.366, 202 371.689 C 213.918 372.067, 223.622 371.856, 229.277 371.097 C 234.104 370.449, 240.873 369.048, 244.319 367.983 C 247.765 366.919, 252.717 364.635, 255.323 362.909 C 257.929 361.183, 261.348 357.901, 262.920 355.616 C 264.492 353.331, 266.251 349.749, 266.829 347.656 C 267.714 344.453, 267.576 343.352, 265.960 340.694 C 264.905 338.958, 263.310 335.054, 262.416 332.019 C 261.522 328.984, 260.634 325.957, 260.443 325.294 C 260.204 324.463, 258.755 324.830, 255.798 326.468 C 253.434 327.777, 248.350 329.895, 244.500 331.174 C 238.400 333.201, 235.572 333.497, 222.500 333.473 C 213.788 333.458, 205.194 332.902, 202 332.148 C 198.975 331.433, 195.262 330.378, 193.750 329.803 C 192.238 329.228, 191 328.192, 191 327.501 C 191 326.810, 191.643 325.711, 192.430 325.058 C 193.545 324.133, 195.363 324.271, 200.680 325.686 C 205.920 327.080, 211.091 327.490, 223 327.455 C 236.862 327.415, 239.129 327.162, 244.455 325.057 C 247.731 323.762, 252.343 321.535, 254.705 320.109 L 259 317.515 259 307.328 L 259 297.141 254.750 299.491 C 252.412 300.783, 247.800 302.637, 244.500 303.609 C 240.254 304.861, 235.284 305.355, 227.500 305.301 C 220.746 305.254, 213.798 304.561, 209.500 303.507 C 205.650 302.563, 201.490 301.154, 200.255 300.376 C 199.021 299.597, 197.283 297.282, 196.393 295.230 C 195.503 293.179, 194.718 288.942, 194.648 285.817 C 194.539 280.917, 194.965 279.503, 197.740 275.567 L 200.959 271 198.061 271 C 196.467 271, 194.543 270.762, 193.785 270.471 C 192.747 270.073, 191.990 272.098, 190.725 278.657 M 227.294 275.315 C 225.531 275.967, 223.617 276.974, 223.040 277.554 C 222.310 278.289, 222.402 279.168, 223.346 280.458 C 224.594 282.166, 225.064 282.202, 229.394 280.923 C 233.523 279.704, 234.053 279.235, 233.794 277.027 C 233.632 275.647, 232.825 274.430, 232 274.323 C 231.175 274.216, 229.057 274.662, 227.294 275.315 M 131.225 279.793 C 127.223 281.832, 122.379 284.762, 120.459 286.305 C 117.339 288.812, 117.129 289.272, 118.484 290.627 C 119.318 291.461, 119.993 292.448, 119.985 292.821 C 119.976 293.195, 119.576 294.122, 119.094 294.882 C 118.478 295.855, 117.187 296.070, 114.732 295.609 C 111.713 295.043, 111.169 295.247, 110.677 297.126 C 110.365 298.320, 110.371 300.605, 110.691 302.204 C 111.128 304.388, 111.673 304.943, 112.886 304.440 C 113.774 304.071, 116.032 303.403, 117.905 302.955 C 120.299 302.383, 122.479 302.608, 125.243 303.714 C 128.843 305.154, 129.466 305.148, 132.621 303.644 C 134.517 302.740, 136.902 302, 137.922 302 C 138.941 302, 142.837 303.433, 146.579 305.184 C 150.361 306.954, 155.631 308.554, 158.448 308.787 C 163.482 309.205, 163.547 309.172, 168.757 303.664 C 172.675 299.521, 174 297.364, 174 295.131 C 174 293.488, 173.293 291.436, 172.429 290.571 C 171.564 289.707, 170.134 289, 169.250 289 C 168.365 289, 166.123 289.549, 164.266 290.221 C 161.518 291.214, 160.736 291.191, 160.058 290.093 C 159.599 289.352, 159.457 287.011, 159.741 284.891 C 160.154 281.814, 159.898 280.898, 158.472 280.351 C 157.490 279.974, 153.739 280.451, 150.136 281.411 C 143.885 283.076, 143.528 283.075, 142.294 281.387 C 141.582 280.414, 141 278.804, 141 277.809 C 141 276.814, 140.438 276.019, 139.750 276.043 C 139.063 276.067, 135.226 277.755, 131.225 279.793 M 134.250 289.584 C 132.190 290.485, 131 291.715, 131 292.944 C 131 294.010, 131.498 295.190, 132.107 295.566 C 132.715 295.942, 134.942 295.679, 137.054 294.982 C 139.167 294.285, 141.152 293.047, 141.465 292.230 C 141.778 291.414, 141.522 290.129, 140.895 289.373 C 140.268 288.618, 139.248 288.037, 138.628 288.082 C 138.007 288.126, 136.037 288.803, 134.250 289.584 M 268.365 291.750 C 266.781 294.086, 266.510 296.380, 266.566 307 C 266.610 315.344, 267.150 321.162, 268.191 324.500 C 269.048 327.250, 270.787 331.750, 272.055 334.500 C 273.324 337.250, 275.669 341.438, 277.268 343.807 C 278.866 346.176, 282.003 349.438, 284.237 351.057 C 287.550 353.457, 289.305 354, 293.746 354 C 297.716 354, 300.010 353.417, 302.212 351.849 C 303.874 350.666, 306.071 347.853, 307.095 345.599 C 308.118 343.345, 308.966 340.218, 308.978 338.651 C 308.990 337.084, 308.326 334.384, 307.501 332.651 C 306.677 330.918, 304.036 328.258, 301.631 326.740 C 299.227 325.222, 295.227 322.192, 292.744 320.006 C 290.260 317.820, 286.833 313.856, 285.127 311.198 C 283.422 308.540, 280.916 303.304, 279.558 299.561 C 278.201 295.819, 276.325 291.912, 275.390 290.879 C 274.455 289.845, 272.912 289, 271.960 289 C 271.009 289, 269.391 290.238, 268.365 291.750 M 203 294.051 C 203 294.629, 204.688 295.832, 206.750 296.725 C 209.336 297.844, 214.535 298.481, 223.500 298.779 L 236.500 299.210 230.648 296.105 C 227.430 294.397, 224.012 293, 223.052 293 C 222.092 293, 219.856 293.724, 218.083 294.609 C 215.119 296.087, 214.516 296.087, 210.645 294.609 C 208.329 293.724, 205.661 293, 204.717 293 C 203.772 293, 203 293.473, 203 294.051 M 117.179 309.521 C 115.353 310.314, 114.135 311.409, 114.472 311.955 C 114.810 312.501, 117.398 313.635, 120.224 314.474 C 123.410 315.420, 129.189 315.983, 135.432 315.955 C 141.756 315.927, 146.616 315.399, 148.500 314.536 C 150.150 313.781, 150.909 313.126, 150.187 313.081 C 149.465 313.037, 146.405 311.791, 143.388 310.314 C 138.092 307.720, 137.802 307.686, 135.046 309.314 C 133.476 310.241, 130.686 310.986, 128.846 310.968 C 127.006 310.951, 124.626 310.276, 123.559 309.468 C 122.491 308.661, 121.366 308.018, 121.059 308.039 C 120.751 308.061, 119.006 308.727, 117.179 309.521 M 178.152 318.871 C 177.410 319.349, 176.964 320.586, 177.160 321.620 C 177.389 322.825, 178.527 323.616, 180.332 323.824 C 182.889 324.117, 183.117 323.889, 182.824 321.332 C 182.646 319.784, 181.825 318.401, 181 318.260 C 180.175 318.118, 178.893 318.393, 178.152 318.871" stroke="none" fill="#040404" fill-rule="evenodd"/></svg>