<svg xmlns="http://www.w3.org/2000/svg" width="445" height="445" viewBox="0 0 445 445" version="1.1"><path d="" stroke="none" fill="#ffc107" fill-rule="evenodd"/><path d="M 331.143 73.984 C 328.189 76.204, 322.951 78.861, 319.315 79.984 C 314.648 81.426, 309.990 82, 302.960 82 C 297.554 82, 290.064 81.358, 286.315 80.573 C 282.567 79.788, 274.184 78.654, 267.687 78.053 C 259.269 77.274, 252.084 77.264, 242.687 78.016 C 235.434 78.597, 224.360 80.221, 218.079 81.625 C 211.797 83.029, 202.797 85.538, 198.079 87.202 C 193.360 88.865, 185.450 92.122, 180.500 94.439 C 175.550 96.756, 167.900 100.826, 163.500 103.484 C 159.100 106.142, 151.450 111.365, 146.500 115.090 C 141.550 118.816, 133.845 125.382, 129.378 129.682 C 124.911 133.982, 118.424 140.860, 114.963 144.968 C 111.501 149.075, 105.860 156.725, 102.426 161.968 C 98.992 167.210, 94.365 174.875, 92.144 179 C 89.923 183.125, 86.294 191.074, 84.081 196.665 C 81.867 202.255, 79.122 210.312, 77.981 214.570 C 76.840 218.827, 75.206 225.728, 74.349 229.905 C 73.467 234.205, 72.581 245.093, 72.307 255 C 71.902 269.648, 72.175 274.782, 73.982 286.500 C 75.169 294.200, 76.393 303.046, 76.701 306.158 C 77.009 309.270, 76.691 314.895, 75.994 318.658 C 75.297 322.421, 73.832 327.300, 72.738 329.500 C 71.644 331.700, 69.230 335.585, 67.374 338.134 C 65.518 340.683, 64 343.518, 64 344.434 C 64 345.350, 64.654 347.364, 65.453 348.909 C 66.252 350.454, 68.268 352.283, 69.933 352.972 C 71.599 353.662, 74.037 353.956, 75.353 353.626 C 76.668 353.296, 80.442 351.040, 83.739 348.613 C 87.676 345.715, 90.970 342.165, 93.335 338.272 C 95.315 335.012, 97.670 329.679, 98.568 326.422 C 99.499 323.043, 100.352 315.392, 100.555 308.605 L 100.910 296.709 191.955 206.265 C 260.158 138.513, 283 115.243, 283 113.518 C 283 112.251, 282.286 110.940, 281.414 110.605 C 280.542 110.271, 279.248 110.335, 278.539 110.748 C 277.830 111.162, 237.481 151.016, 188.875 199.314 L 100.500 287.127 99.808 283.314 C 99.427 281.216, 99.089 273.708, 99.058 266.628 C 99.026 259.549, 99.707 248.974, 100.572 243.128 C 101.436 237.283, 103.494 227.624, 105.144 221.663 C 106.795 215.703, 108.953 208.953, 109.940 206.663 C 110.927 204.374, 112.783 200.250, 114.065 197.500 C 115.348 194.750, 118.515 188.889, 121.103 184.476 C 123.692 180.063, 128.378 173.088, 131.516 168.976 C 134.654 164.864, 140.435 158.198, 144.361 154.162 C 148.287 150.126, 154.650 144.227, 158.500 141.053 C 162.350 137.879, 168.650 133.259, 172.500 130.787 C 176.350 128.315, 182.875 124.514, 187 122.340 C 191.125 120.166, 198.410 116.926, 203.189 115.141 C 207.968 113.356, 213.368 111.458, 215.189 110.923 C 217.010 110.389, 222.550 108.972, 227.500 107.776 C 235.969 105.728, 238.918 105.597, 277.500 105.550 C 313.836 105.506, 319.039 105.303, 323.238 103.766 C 325.844 102.812, 328.994 101.462, 330.238 100.766 C 331.482 100.070, 334.162 98.245, 336.193 96.711 C 338.225 95.177, 341.712 91.188, 343.943 87.847 C 346.406 84.159, 348 80.608, 348 78.809 C 348 76.868, 346.992 74.838, 345.077 72.923 C 343.212 71.058, 341.121 70, 339.300 70 C 337.526 70, 334.439 71.508, 331.143 73.984 M 335.500 79.591 C 333.850 80.976, 330.911 82.944, 328.970 83.963 C 327.028 84.982, 322.866 86.565, 319.719 87.479 L 313.999 89.142 314.639 93.321 C 314.990 95.619, 315.446 97.693, 315.651 97.929 C 315.856 98.165, 318.430 97.599, 321.371 96.672 C 324.312 95.745, 328.543 93.665, 330.772 92.050 C 333.002 90.435, 336.254 87.038, 337.999 84.502 C 339.744 81.965, 340.922 79.240, 340.617 78.445 C 340.312 77.650, 339.711 77.016, 339.281 77.036 C 338.852 77.056, 337.150 78.205, 335.500 79.591 M 240 85.628 C 237.525 85.856, 231.225 86.738, 226 87.588 C 220.775 88.439, 214.025 89.818, 211 90.653 C 207.975 91.488, 202.125 93.297, 198 94.672 C 193.875 96.047, 186.450 99.081, 181.500 101.414 C 176.550 103.747, 168.450 108.170, 163.500 111.244 C 158.550 114.317, 150.148 120.470, 144.829 124.917 C 139.509 129.364, 131.342 137.164, 126.680 142.251 C 122.017 147.338, 116.412 153.780, 114.223 156.566 C 112.035 159.352, 107.860 165.427, 104.947 170.066 C 102.034 174.705, 97.760 182.550, 95.451 187.500 C 93.141 192.450, 90.086 199.991, 88.662 204.257 C 87.237 208.524, 85.179 215.771, 84.089 220.362 C 82.999 224.953, 81.355 235.187, 80.437 243.104 C 79.249 253.349, 78.961 260.816, 79.438 269 C 79.806 275.325, 80.421 280.792, 80.804 281.148 C 81.187 281.505, 83.799 282.101, 86.610 282.473 L 91.719 283.149 92.280 263.825 C 92.674 250.288, 93.450 241.505, 94.872 234.500 C 95.989 229, 97.794 221.456, 98.885 217.736 C 99.975 214.015, 101.750 208.615, 102.829 205.736 C 103.908 202.856, 105.936 198.001, 107.335 194.946 C 108.734 191.891, 111.775 186.041, 114.092 181.946 C 116.410 177.851, 120.791 171.125, 123.828 167 C 126.866 162.875, 131.859 156.630, 134.925 153.122 C 137.991 149.615, 145.132 142.796, 150.793 137.971 C 156.454 133.145, 165.904 126.301, 171.793 122.762 C 177.682 119.223, 185.621 114.874, 189.435 113.097 C 193.249 111.320, 200.996 108.318, 206.651 106.427 C 212.305 104.535, 220.022 102.337, 223.799 101.542 C 227.576 100.748, 234.679 99.596, 239.583 98.982 C 244.487 98.369, 254.966 97.874, 262.870 97.883 L 277.239 97.900 276.787 92.451 C 276.539 89.454, 276.056 86.722, 275.713 86.380 C 275.371 86.038, 268.208 85.635, 259.796 85.486 C 251.383 85.337, 242.475 85.401, 240 85.628 M 294.186 130.078 C 289.766 134.030, 284.753 139.208, 283.047 141.583 C 281.341 143.959, 279.255 147.837, 278.411 150.201 C 277.470 152.835, 276.994 156.917, 277.181 160.740 L 277.485 166.980 266.510 177.990 C 259.980 184.541, 254.717 189.018, 253.517 189.045 C 252.408 189.070, 250.292 189.632, 248.815 190.295 C 247.339 190.958, 240.589 196.873, 233.815 203.440 C 227.042 210.006, 208.450 227.997, 192.500 243.420 C 176.550 258.842, 156.525 278.220, 148 286.480 C 139.475 294.741, 131.324 303.164, 129.886 305.198 C 128.449 307.231, 126.988 310.673, 126.641 312.845 C 126.293 315.018, 126.296 318.304, 126.646 320.148 C 126.997 321.991, 128.532 326.291, 130.058 329.703 C 131.584 333.115, 134.856 338.740, 137.330 342.203 C 139.805 345.666, 144.548 351.183, 147.871 354.462 C 151.194 357.741, 155.838 361.453, 158.191 362.712 C 160.544 363.970, 163.684 365, 165.169 365 C 166.655 365, 169.137 364.519, 170.685 363.932 C 172.233 363.344, 178.698 357.424, 185.051 350.776 C 195.713 339.617, 196.944 338.640, 201.051 338.070 C 203.498 337.730, 208.011 337.784, 211.080 338.189 C 214.150 338.594, 218.875 339.888, 221.580 341.064 C 224.286 342.239, 230.100 344.347, 234.500 345.746 C 240.418 347.629, 244.842 348.318, 251.500 348.396 C 259.655 348.490, 260.989 348.229, 265.707 345.615 C 268.571 344.028, 271.721 341.999, 272.707 341.106 C 273.693 340.214, 277.997 336.454, 282.271 332.752 C 286.545 329.049, 291.737 325.155, 293.809 324.098 C 295.881 323.041, 301.560 321.229, 306.430 320.073 C 311.300 318.916, 317.463 316.784, 320.125 315.335 C 322.788 313.886, 326.554 311.113, 328.495 309.172 C 330.436 307.231, 333.143 303.276, 334.512 300.383 C 336.415 296.361, 337 293.500, 337 288.218 C 337 284.069, 336.251 279.136, 335.123 275.858 C 334.091 272.858, 332.228 268.400, 330.983 265.952 C 329.737 263.503, 326.326 258.350, 323.403 254.500 C 320.480 250.650, 315.414 244.688, 312.147 241.250 C 308.879 237.813, 305.742 235, 305.174 235 C 304.607 235, 303.437 235.706, 302.573 236.569 C 301.471 237.672, 301.282 238.639, 301.938 239.819 C 302.452 240.744, 306.295 245.325, 310.477 250 C 314.658 254.675, 319.934 261.572, 322.200 265.327 C 324.466 269.082, 327.148 274.664, 328.160 277.732 C 329.172 280.800, 330 285.505, 330 288.187 C 330 290.870, 329.302 294.737, 328.449 296.782 C 327.596 298.827, 325.459 302.002, 323.699 303.838 C 321.940 305.673, 318.925 307.979, 317 308.961 C 315.075 309.943, 310.956 311.478, 307.846 312.373 C 304.736 313.268, 301.445 314, 300.532 314 C 299.619 314, 296.538 315.070, 293.686 316.379 C 290.834 317.687, 286.177 320.507, 283.337 322.646 C 280.498 324.784, 276.021 328.493, 273.390 330.888 L 268.606 335.242 262.119 334.721 C 256.524 334.272, 253.425 333.088, 239.566 326.107 C 230.730 321.655, 222.076 317.672, 220.336 317.256 L 217.172 316.500 233.771 299 C 242.901 289.375, 257.180 274.300, 265.502 265.500 C 273.825 256.700, 283.612 246.234, 287.251 242.243 C 291.322 237.779, 293.997 233.930, 294.201 232.243 C 294.385 230.734, 294.201 227.925, 293.792 226 C 293.071 222.598, 293.309 222.242, 302.275 213.275 L 311.500 204.050 320.015 204.025 C 326.679 204.005, 329.396 203.546, 332.515 201.910 C 334.707 200.761, 340.663 195.707, 345.750 190.680 C 351.922 184.581, 355 180.797, 355 179.308 C 355 177.573, 354.166 176.856, 351.250 176.084 C 349.188 175.537, 345.552 174.660, 343.172 174.134 C 340.792 173.608, 338.653 172.986, 338.418 172.752 C 338.184 172.517, 337.510 169.718, 336.921 166.530 C 336.332 163.343, 335.445 159.669, 334.950 158.367 C 334.455 157.065, 333.263 156, 332.302 156 C 331.340 156, 327.771 158.758, 324.370 162.129 C 318.523 167.924, 317.991 168.221, 314.593 167.583 C 312.114 167.118, 311 166.373, 311 165.180 C 311 164.228, 314.375 160.097, 318.500 156 C 322.625 151.903, 326 148.008, 326 147.346 C 326 146.684, 325.337 145.480, 324.526 144.669 C 323.715 143.858, 320.678 142.870, 317.776 142.473 C 314.874 142.076, 311.568 141.399, 310.428 140.968 C 308.808 140.356, 308.064 138.640, 307.020 133.104 C 306.265 129.105, 304.931 125.342, 303.953 124.458 C 302.356 123.012, 301.607 123.443, 294.186 130.078 M 292.783 141.477 C 287.798 146.461, 285.963 149.089, 285.115 152.457 C 284.502 154.893, 284 157.683, 284 158.659 C 284 159.921, 285.520 158.931, 289.281 155.216 C 292.186 152.347, 295.246 150, 296.081 150 C 296.917 150, 298.140 150.540, 298.800 151.200 C 299.460 151.860, 300 152.773, 300 153.230 C 300 153.686, 297.706 156.409, 294.903 159.280 C 290.007 164.295, 289.904 164.512, 292.295 164.806 C 293.664 164.974, 296.765 164.181, 299.187 163.042 C 301.608 161.904, 306.198 158.337, 309.386 155.115 L 315.183 149.257 311.342 148.588 C 309.229 148.220, 306.308 147.451, 304.852 146.880 C 302.763 146.061, 302.070 144.960, 301.572 141.671 C 301.226 139.377, 300.580 136.920, 300.138 136.212 C 299.561 135.286, 297.496 136.763, 292.783 141.477 M 322.408 174.206 C 317.704 179.159, 315.094 182.782, 314.658 184.962 C 314.296 186.770, 314 189.191, 314 190.341 C 314 192.056, 314.991 191.453, 319.518 186.982 C 324.113 182.445, 325.326 181.715, 326.768 182.624 C 327.721 183.224, 328.656 184.507, 328.846 185.475 C 329.055 186.540, 327.290 189.167, 324.384 192.118 L 319.575 197 322.722 197 C 324.454 197, 327.069 196.544, 328.536 195.986 C 330.002 195.429, 334.081 192.208, 337.601 188.828 C 341.120 185.448, 344 182.347, 344 181.935 C 344 181.524, 341.773 180.881, 339.050 180.507 C 336.328 180.133, 333.582 179.201, 332.948 178.438 C 332.314 177.674, 331.279 174.729, 330.648 171.894 L 329.500 166.739 322.408 174.206 M 272.250 182.007 C 267.163 186.951, 263 191.353, 263 191.790 C 263 192.226, 264.930 194.478, 267.290 196.794 L 271.580 201.004 275.871 196.632 C 279.941 192.484, 280.129 192.035, 279.538 187.880 C 279.167 185.275, 279.480 181.373, 280.311 178.250 C 281.079 175.363, 281.660 173.004, 281.604 173.009 C 281.547 173.013, 277.337 177.063, 272.250 182.007 M 302.500 196.536 C 300.839 197.297, 296.132 197.930, 291.953 197.955 C 284.487 198, 284.364 198.043, 280.494 202.006 C 276.982 205.602, 276.739 206.168, 278.114 207.542 C 279.489 208.917, 279.995 208.765, 283.072 206.053 C 284.958 204.391, 287.232 203.025, 288.128 203.016 C 289.023 203.007, 290.291 203.646, 290.947 204.436 C 291.807 205.472, 291.845 206.421, 291.085 207.841 C 290.505 208.924, 288.787 210.726, 287.265 211.844 C 284.626 213.785, 284.580 213.960, 286.253 215.657 C 287.931 217.358, 288.278 217.171, 294.253 211.337 C 297.689 207.983, 301.962 203.850, 303.750 202.153 C 305.538 200.456, 307 198.152, 307 197.034 C 307 195.915, 306.663 195.037, 306.250 195.081 C 305.837 195.126, 304.150 195.781, 302.500 196.536 M 247.250 217.846 C 246.662 218.209, 246.027 219.855, 245.840 221.503 C 245.548 224.078, 245.008 224.570, 242 225 C 239.333 225.381, 238.500 225.976, 238.500 227.500 C 238.500 229.024, 239.333 229.619, 242 230 C 245.111 230.444, 245.556 230.889, 246 234 C 246.381 236.667, 246.976 237.500, 248.500 237.500 C 250.024 237.500, 250.619 236.667, 251 234 C 251.444 230.889, 251.889 230.444, 255 230 C 257.667 229.619, 258.500 229.024, 258.500 227.500 C 258.500 225.976, 257.667 225.381, 255 225 C 251.929 224.561, 251.462 224.112, 251.193 221.335 C 251.024 219.594, 250.308 217.949, 249.602 217.678 C 248.896 217.407, 247.838 217.482, 247.250 217.846 M 226 241.370 C 226 244.703, 225.812 244.895, 222.250 245.190 C 218.999 245.459, 218.500 245.833, 218.500 248 C 218.500 250.167, 218.999 250.541, 222.250 250.810 C 225.812 251.105, 226 251.297, 226 254.630 C 226 257.697, 226.283 258.099, 228.250 257.820 C 229.975 257.575, 230.573 256.741, 230.813 254.250 C 231.086 251.427, 231.497 251, 233.941 251 C 235.489 251, 237.315 250.325, 238 249.500 C 238.993 248.303, 238.993 247.697, 238 246.500 C 237.315 245.675, 235.489 245, 233.941 245 C 231.497 245, 231.086 244.573, 230.813 241.750 C 230.573 239.259, 229.975 238.425, 228.250 238.180 C 226.283 237.901, 226 238.303, 226 241.370 M 205.667 259.667 C 205.300 260.033, 205 261.608, 205 263.167 C 205 265.621, 204.615 266, 202.122 266 C 200.540 266, 198.685 266.675, 198 267.500 C 197.007 268.697, 197.007 269.303, 198 270.500 C 198.685 271.325, 200.511 272, 202.059 272 C 204.503 272, 204.914 272.427, 205.187 275.250 C 205.427 277.741, 206.025 278.575, 207.750 278.820 C 209.723 279.100, 210 278.699, 210 275.570 C 210 272.461, 210.312 272, 212.418 272 C 213.748 272, 215.548 271.727, 216.418 271.393 C 217.288 271.059, 218 269.982, 218 269 C 218 268.018, 217.288 266.941, 216.418 266.607 C 215.548 266.273, 213.748 266, 212.418 266 C 210.321 266, 210 265.535, 210 262.500 C 210 259.773, 209.595 259, 208.167 259 C 207.158 259, 206.033 259.300, 205.667 259.667 M 82.607 321.582 C 82.273 322.452, 82 323.914, 81.999 324.832 C 81.999 325.749, 80.718 329.200, 79.154 332.500 C 77.589 335.800, 75.041 340.003, 73.490 341.840 C 71.235 344.511, 70.949 345.350, 72.056 346.035 C 72.941 346.581, 74.717 346.148, 76.970 344.835 C 78.912 343.705, 82.197 340.961, 84.270 338.739 C 86.344 336.516, 88.931 332.683, 90.020 330.222 C 91.109 327.760, 92 324.730, 92 323.490 C 92 321.995, 91.240 321.030, 89.750 320.630 C 88.513 320.299, 86.536 320.021, 85.357 320.014 C 84.178 320.006, 82.941 320.712, 82.607 321.582" stroke="none" fill="#ffc107" fill-rule="evenodd"/></svg>