<svg xmlns="http://www.w3.org/2000/svg" width="445" height="445" viewBox="0 0 445 445" version="1.1"><path d="" stroke="none" fill="#080404" fill-rule="evenodd"/><path d="M 80.500 75.377 C 77.750 76.674, 74.509 78.814, 73.298 80.131 C 72.086 81.449, 70.399 84.194, 69.548 86.232 C 68.696 88.269, 68 92.470, 68 95.567 C 68 98.664, 68.716 102.707, 69.591 104.552 C 70.467 106.396, 72.375 109.164, 73.831 110.703 C 75.425 112.386, 76.484 114.646, 76.490 116.379 C 76.497 118.363, 77.378 119.917, 79.324 121.379 C 81.263 122.835, 83.509 123.471, 86.490 123.406 C 88.878 123.354, 92.274 122.715, 94.036 121.985 L 97.240 120.658 115.884 139.579 C 126.138 149.986, 137.334 161.546, 140.764 165.269 C 144.194 168.992, 146.996 172.367, 146.992 172.769 C 146.988 173.171, 144.006 176.875, 140.366 181 C 136.725 185.125, 132.116 190.293, 130.123 192.484 C 126.617 196.340, 126.489 196.390, 126.157 194.057 C 125.969 192.732, 125.114 190.578, 124.259 189.272 C 123.403 187.966, 121.442 186.246, 119.901 185.449 C 118.360 184.652, 115.103 184, 112.663 184 C 109.316 184, 107.038 184.798, 103.390 187.250 C 100.730 189.037, 97.529 192.029, 96.277 193.898 C 94.561 196.458, 94 198.723, 94 203.083 C 94 206.266, 94.478 210.137, 95.061 211.685 C 95.645 213.233, 97.558 215.998, 99.311 217.828 C 101.065 219.659, 104.075 221.857, 106 222.714 C 107.939 223.577, 112.398 224.296, 116 224.326 C 121.333 224.370, 123.702 223.803, 129.198 221.164 C 134.011 218.852, 138.099 215.721, 143.722 210.037 L 151.548 202.127 153.927 205.598 C 155.235 207.507, 158.374 210.772, 160.903 212.852 C 163.431 214.933, 167.119 217.612, 169.098 218.805 C 171.077 219.999, 175.747 222.124, 179.477 223.527 C 183.206 224.931, 190.759 226.967, 196.260 228.051 C 201.762 229.136, 208.317 230.931, 210.827 232.041 C 213.336 233.152, 216.858 235.180, 218.653 236.549 C 220.488 237.949, 223.217 241.764, 224.889 245.269 C 227.311 250.346, 228.151 254.092, 229.429 265.500 C 230.291 273.200, 231.478 281.300, 232.067 283.500 C 232.656 285.700, 234.360 289.290, 235.852 291.478 C 237.345 293.665, 240.765 296.815, 243.452 298.478 C 248.170 301.396, 248.735 301.498, 259.919 301.449 C 266.288 301.421, 275.586 301.022, 280.580 300.562 C 288.006 299.878, 290.571 300.029, 294.668 301.390 C 297.423 302.305, 300.846 304.279, 302.275 305.777 C 303.704 307.275, 305.356 309.779, 305.947 311.342 C 306.537 312.906, 307.727 317.604, 308.590 321.783 C 309.454 325.962, 311.265 331.562, 312.615 334.227 C 313.965 336.892, 316.608 340.774, 318.487 342.854 C 320.366 344.934, 323.838 347.586, 326.202 348.746 C 328.566 349.907, 332.092 351.342, 334.038 351.936 C 336.031 352.544, 343.455 352.904, 351.038 352.761 C 362.937 352.536, 365.028 352.751, 369.051 354.609 C 371.554 355.765, 375.168 358.087, 377.083 359.768 C 379.755 362.114, 380.962 362.601, 382.282 361.862 C 383.227 361.333, 384 360.008, 384 358.917 C 384 357.826, 382.915 354.811, 381.589 352.217 C 380.263 349.623, 377.612 345.686, 375.698 343.468 C 373.784 341.251, 370.031 338.259, 367.359 336.821 C 364.686 335.383, 358.712 332.935, 354.083 331.381 C 348.206 329.409, 344.706 327.568, 342.486 325.283 C 340.737 323.482, 338.528 319.644, 337.577 316.755 C 336.626 313.865, 335.189 306.575, 334.385 300.556 C 333.580 294.536, 332.049 287.638, 330.982 285.226 C 329.915 282.814, 327.664 279.100, 325.979 276.973 C 324.258 274.800, 320.633 272.028, 317.708 270.647 C 314.843 269.295, 309.800 267.718, 306.500 267.141 C 303.200 266.564, 296.398 265.399, 291.384 264.551 C 286.370 263.704, 280.708 262.358, 278.802 261.562 C 276.895 260.765, 273.709 258.313, 271.721 256.113 C 269.734 253.913, 267.626 250.327, 267.038 248.143 C 266.450 245.959, 265.544 239.710, 265.024 234.256 C 264.505 228.802, 263.601 223.026, 263.016 221.420 C 262.432 219.814, 260.979 216.559, 259.787 214.188 C 258.596 211.816, 254.858 207.316, 251.481 204.188 C 247.438 200.442, 241.784 196.714, 234.921 193.269 C 229.189 190.392, 221.987 186.057, 218.917 183.635 C 215.846 181.214, 211.009 176.143, 208.169 172.366 C 205.328 168.590, 201.612 162.632, 199.912 159.126 L 196.820 152.752 201.535 147.965 L 206.249 143.178 209.970 147.089 C 213.143 150.424, 214.308 151, 217.885 151 C 220.192 151, 223.805 150.120, 225.914 149.044 C 228.023 147.968, 230.913 145.704, 232.336 144.013 C 233.759 142.322, 235.388 139.264, 235.956 137.219 C 236.524 135.174, 236.989 132.600, 236.989 131.500 C 236.989 130.400, 236.494 127.700, 235.890 125.500 C 235.214 123.040, 233.163 119.932, 230.562 117.427 C 227.924 114.885, 224.594 112.866, 221.707 112.058 C 219.162 111.345, 215.541 111.051, 213.660 111.404 C 211.778 111.757, 207.373 113.897, 203.870 116.159 C 200.366 118.421, 192.986 124.823, 187.469 130.386 C 181.952 135.949, 175.051 143.090, 172.134 146.255 L 166.829 152.011 163.935 149.755 C 162.343 148.515, 151.831 138.050, 140.574 126.500 C 129.318 114.950, 119.126 104.230, 117.925 102.679 C 116.304 100.583, 116.033 99.567, 116.871 98.729 C 117.492 98.108, 118 95.507, 118 92.948 C 118 89.749, 117.283 87.234, 115.704 84.898 C 114.072 82.483, 112.630 81.487, 110.722 81.455 C 109.245 81.430, 106.791 80.234, 105.269 78.798 C 103.746 77.361, 100.758 75.469, 98.628 74.593 C 96.498 73.717, 92.673 73.004, 90.128 73.010 C 87.364 73.016, 83.486 73.969, 80.500 75.377 M 79.763 82.565 C 78.257 83.382, 76.344 85.367, 75.513 86.976 C 74.681 88.584, 74 91.958, 74 94.472 C 74 97.713, 74.752 100.179, 76.583 102.946 C 78.004 105.093, 79.745 107.072, 80.452 107.343 C 81.158 107.614, 83.742 105.736, 86.192 103.168 C 88.643 100.601, 91.402 97.278, 92.324 95.785 C 93.246 94.292, 94 91.285, 94 89.103 C 94 85.866, 93.466 84.756, 91.096 83.068 C 89.498 81.931, 86.911 81.018, 85.346 81.040 C 83.781 81.062, 81.268 81.748, 79.763 82.565 M 105.324 92.006 C 102.477 94.191, 96.317 100.572, 91.635 106.185 C 86.954 111.798, 83.347 116.753, 83.621 117.195 C 83.894 117.638, 85.104 117.998, 86.309 117.996 C 87.514 117.994, 89.983 117.089, 91.795 115.984 C 93.607 114.879, 98.582 110.493, 102.850 106.238 C 107.893 101.209, 110.957 97.274, 111.601 95 C 112.146 93.075, 112.425 90.713, 112.222 89.750 C 112.019 88.787, 111.549 88.007, 111.177 88.016 C 110.805 88.025, 108.171 89.821, 105.324 92.006 M 204.407 122.865 C 200.608 125.540, 192.714 132.628, 186.865 138.615 C 181.016 144.602, 172.241 153.981, 167.365 159.457 C 162.489 164.933, 155.601 172.583, 152.058 176.457 C 148.515 180.331, 140.592 188.755, 134.451 195.178 C 125.525 204.515, 122.581 206.988, 119.765 207.516 C 117.423 207.956, 115.256 207.667, 113.299 206.654 C 111.679 205.817, 109.774 204.433, 109.065 203.579 C 108.356 202.724, 108.037 201.345, 108.357 200.513 C 108.676 199.681, 109.571 199, 110.346 199 C 111.121 199, 112.315 199.675, 113 200.500 C 113.685 201.325, 115.225 202, 116.422 202 C 117.620 202, 119.140 201.460, 119.800 200.800 C 120.460 200.140, 121 198.358, 121 196.839 C 121 195.286, 120.042 193.185, 118.811 192.039 C 117.509 190.826, 115.262 190, 113.262 190 C 111.413 190, 108.613 190.666, 107.039 191.480 C 105.465 192.294, 103.237 194.155, 102.088 195.615 C 100.587 197.523, 100.001 199.708, 100.004 203.385 C 100.006 206.697, 100.697 209.631, 101.965 211.710 C 103.041 213.475, 105.827 215.891, 108.156 217.079 C 111.484 218.778, 113.497 219.125, 117.567 218.705 C 120.415 218.411, 124.647 217.200, 126.972 216.014 C 129.297 214.828, 133.246 211.977, 135.748 209.679 C 138.251 207.381, 145.506 199.650, 151.873 192.500 C 158.239 185.350, 165.709 177.036, 168.474 174.023 C 171.238 171.011, 181.988 159.908, 192.362 149.348 C 202.735 138.789, 212.475 129.632, 214.004 128.998 C 215.534 128.365, 218.071 127.993, 219.643 128.173 C 221.695 128.408, 222.588 129.118, 222.812 130.695 C 223.069 132.500, 222.424 133.078, 219.181 133.951 C 216.246 134.742, 214.922 135.774, 214.005 137.989 C 213.327 139.625, 213.036 141.651, 213.358 142.491 C 213.680 143.330, 215.044 144.518, 216.388 145.131 C 218.351 146.025, 219.585 145.876, 222.653 144.372 C 224.754 143.343, 227.492 140.971, 228.737 139.102 C 230.099 137.057, 231 134.185, 231 131.886 C 231 129.786, 230.273 126.544, 229.385 124.682 C 228.497 122.819, 226.515 120.554, 224.981 119.648 C 223.311 118.661, 220.009 118, 216.753 118 C 211.859 118, 210.621 118.488, 204.407 122.865 M 186.111 172.625 L 178.042 181.250 180.054 184.076 C 181.161 185.630, 184.414 188.900, 187.283 191.343 C 190.152 193.785, 194.750 197.086, 197.500 198.679 C 200.250 200.272, 208.575 203.979, 216 206.916 C 223.425 209.854, 231.326 213.512, 233.557 215.044 C 235.789 216.577, 239.251 219.642, 241.251 221.856 C 243.251 224.069, 245.552 227.167, 246.365 228.740 C 247.179 230.312, 248.779 234.502, 249.922 238.050 C 251.065 241.597, 252.424 249.450, 252.943 255.500 C 253.462 261.550, 254.364 268.120, 254.949 270.100 C 255.533 272.080, 256.893 274.498, 257.970 275.473 C 259.048 276.448, 262.533 277.859, 265.715 278.607 C 268.897 279.356, 276.450 279.981, 282.500 279.996 C 288.550 280.011, 295.750 280.625, 298.500 281.359 C 301.250 282.094, 305.351 283.641, 307.613 284.798 C 309.874 285.954, 313.741 289.142, 316.204 291.882 C 319.026 295.021, 321.296 298.832, 322.338 302.182 C 323.248 305.107, 324.685 311.516, 325.532 316.423 C 326.378 321.331, 327.751 326.780, 328.582 328.531 C 329.413 330.282, 331.399 333.051, 332.995 334.684 C 334.592 336.317, 337.768 338.213, 340.054 338.898 C 342.340 339.583, 348.149 340.551, 352.964 341.049 C 357.778 341.547, 362.569 342.245, 363.609 342.600 C 365.335 343.190, 365.326 343.121, 363.500 341.805 C 362.400 341.013, 359.475 339.676, 357 338.835 C 354.525 337.994, 350.700 336.726, 348.500 336.017 C 346.300 335.308, 343.222 333.830, 341.661 332.733 C 340.100 331.635, 337.508 328.923, 335.901 326.705 C 334.295 324.487, 332.302 320.388, 331.473 317.596 C 330.644 314.804, 329.531 308.686, 329 304 C 328.469 299.314, 327.327 293.096, 326.461 290.181 C 325.557 287.138, 323.382 283.215, 321.352 280.968 C 319.408 278.816, 316.415 276.356, 314.701 275.501 C 312.987 274.646, 307.741 273.273, 303.042 272.450 C 298.344 271.626, 290.984 270.296, 286.686 269.493 C 282.389 268.690, 277.406 267.337, 275.613 266.486 C 273.819 265.635, 270.655 263.339, 268.581 261.382 C 266.507 259.426, 263.992 255.952, 262.992 253.663 C 261.992 251.373, 260.665 245.900, 260.042 241.500 C 259.418 237.100, 258.446 230.800, 257.880 227.500 C 257.314 224.200, 255.893 219.563, 254.721 217.196 C 253.550 214.828, 250.486 210.923, 247.914 208.516 C 245.342 206.110, 239.471 202.250, 234.868 199.937 C 230.266 197.625, 224.240 194.290, 221.478 192.525 C 218.716 190.760, 213.766 186.805, 210.478 183.736 C 207.190 180.667, 202.475 174.982, 200 171.104 C 197.525 167.226, 195.203 164.041, 194.840 164.026 C 194.477 164.012, 190.549 167.881, 186.111 172.625" stroke="none" fill="#040404" fill-rule="evenodd"/></svg>