<svg xmlns="http://www.w3.org/2000/svg" width="444" height="444" viewBox="0 0 444 444" version="1.1"><path d="" stroke="none" fill="#ffc107" fill-rule="evenodd"/><path d="M 170.654 63.459 C 170.343 64.270, 170.733 67.104, 171.521 69.757 C 172.308 72.410, 174.263 75.836, 175.864 77.369 C 177.465 78.903, 180.513 80.755, 182.637 81.484 L 186.500 82.810 186.809 94.155 C 186.979 100.395, 186.595 108.200, 185.956 111.500 C 185.317 114.800, 184.556 118.377, 184.266 119.449 C 183.876 120.893, 183.217 119.987, 181.723 115.949 C 180.615 112.952, 178.438 108.639, 176.885 106.365 C 175.333 104.091, 172.586 100.982, 170.781 99.455 C 168.977 97.929, 164.800 95.420, 161.500 93.880 C 157.955 92.225, 152.830 90.811, 148.974 90.424 C 144.349 89.960, 140.596 90.244, 136.091 91.398 C 132.592 92.295, 127.237 94.707, 124.181 96.763 C 120.932 98.949, 117.071 102.782, 114.875 106 C 112.811 109.025, 110.121 114.650, 108.897 118.500 C 107.087 124.195, 106.684 127.736, 106.736 137.500 C 106.789 147.674, 107.180 150.565, 109.304 156.500 C 110.682 160.350, 114.048 168.450, 116.784 174.500 C 119.520 180.550, 122.601 188.650, 123.629 192.500 C 125.247 198.553, 125.502 203.357, 125.518 228 C 125.530 247.081, 125.954 258.483, 126.801 262.500 C 127.497 265.800, 128.556 270.525, 129.155 273 C 129.754 275.475, 131.586 281.550, 133.227 286.500 C 134.868 291.450, 138.775 300.678, 141.910 307.006 C 145.045 313.334, 149.921 321.936, 152.745 326.123 C 155.570 330.309, 160.632 337.154, 163.995 341.333 C 167.357 345.513, 173.472 352.032, 177.582 355.820 L 185.057 362.707 180.592 364.412 C 178.136 365.350, 174.578 367.832, 172.684 369.928 C 170.791 372.024, 168.696 375.391, 168.030 377.411 C 167.363 379.430, 167.070 381.739, 167.377 382.541 C 167.859 383.797, 176.103 384, 226.500 384 C 276.897 384, 285.141 383.797, 285.623 382.541 C 285.930 381.739, 285.644 379.450, 284.985 377.455 C 284.327 375.461, 282.373 372.217, 280.644 370.247 C 278.915 368.278, 275.302 365.696, 272.615 364.510 L 267.731 362.355 272.527 358.427 C 275.165 356.267, 280.892 350.462, 285.253 345.528 C 289.615 340.593, 296.207 332.034, 299.902 326.508 C 303.597 320.982, 308.932 311.745, 311.757 305.980 C 314.582 300.216, 318.460 290.762, 320.373 284.971 C 322.287 279.180, 324.673 270.405, 325.676 265.471 C 327.212 257.914, 327.461 252.401, 327.254 230.500 C 327.109 215.199, 327.444 202.237, 328.068 199 C 328.651 195.975, 330.063 190.575, 331.205 187 C 332.348 183.425, 335.081 176.900, 337.280 172.500 C 339.480 168.100, 341.694 163.150, 342.201 161.500 C 342.708 159.850, 343.810 156.025, 344.650 153 C 345.623 149.500, 346.169 143.319, 346.154 136 C 346.135 126.971, 345.669 123.104, 343.984 118 C 342.803 114.425, 340.774 109.662, 339.474 107.416 C 338.174 105.170, 335.230 101.633, 332.930 99.556 C 330.631 97.479, 326.219 94.628, 323.125 93.220 C 318.417 91.078, 315.951 90.648, 308 90.581 C 299.366 90.507, 297.907 90.781, 292 93.587 C 288.425 95.284, 283.394 98.724, 280.820 101.231 C 278.247 103.738, 275.035 107.974, 273.683 110.644 C 272.331 113.315, 270.641 117.454, 269.927 119.843 L 268.628 124.185 267.330 119.843 C 266.617 117.454, 265.742 112.081, 265.386 107.903 C 265.029 103.725, 265.065 96.381, 265.464 91.585 C 266.034 84.742, 266.547 82.760, 267.845 82.380 C 268.755 82.113, 271.345 80.992, 273.599 79.889 C 276.108 78.660, 278.503 76.449, 279.775 74.187 C 280.917 72.154, 281.998 68.693, 282.176 66.495 L 282.500 62.500 226.860 62.242 C 178.577 62.017, 171.146 62.178, 170.654 63.459 M 177.687 69.750 C 178.030 70.713, 178.785 72.109, 179.364 72.854 C 179.944 73.599, 181.561 74.669, 182.959 75.232 C 184.357 75.795, 187.075 76.602, 189 77.025 C 190.925 77.447, 196.325 78.579, 201 79.540 C 206.937 80.760, 214.475 81.310, 226 81.364 C 241.396 81.436, 242.769 81.289, 246.517 79.168 C 248.727 77.917, 251.539 75.427, 252.767 73.635 C 253.995 71.843, 255 69.842, 255 69.188 C 255 68.291, 245.457 68, 216.031 68 C 179.347 68, 177.099 68.103, 177.687 69.750 M 192.824 97.987 L 192.500 105.869 198 107.474 C 201.025 108.357, 208.675 109.580, 215 110.191 C 221.571 110.825, 230.184 110.990, 235.095 110.574 L 243.691 109.846 242.559 104.173 L 241.428 98.500 236.464 98.220 C 233.734 98.066, 227.225 97.290, 222 96.495 C 216.775 95.701, 209.194 94.337, 205.154 93.464 C 201.113 92.591, 196.759 91.479, 195.478 90.992 C 193.176 90.117, 193.145 90.198, 192.824 97.987 M 191.072 117.345 C 190.380 120.180, 189.307 123.987, 188.686 125.805 C 187.778 128.468, 187.832 129.278, 188.965 129.978 C 189.739 130.456, 194.170 131.800, 198.812 132.964 C 203.454 134.129, 207.354 134.951, 207.478 134.791 C 207.603 134.631, 208.221 132.388, 208.852 129.807 C 209.484 127.226, 210 123.072, 210 120.576 C 210 116.433, 209.761 115.987, 207.250 115.456 C 205.738 115.136, 203.458 114.662, 202.184 114.402 C 200.093 113.975, 199.899 114.247, 200.184 117.207 C 200.418 119.634, 201.215 120.827, 203.250 121.798 C 204.815 122.544, 206 123.922, 206 124.996 C 206 126.033, 205.539 127.167, 204.976 127.515 C 204.412 127.863, 202.579 127.847, 200.903 127.479 C 199.004 127.062, 197.111 125.619, 195.884 123.655 C 194.600 121.599, 194.025 119.201, 194.231 116.770 C 194.410 114.676, 194.062 112.854, 193.439 112.615 C 192.799 112.369, 191.798 114.370, 191.072 117.345 M 141.684 115.404 C 139.585 116.177, 136.950 117.640, 135.827 118.655 C 134.705 119.670, 132.988 122.075, 132.012 124 C 131.036 125.925, 129.658 130.103, 128.952 133.284 C 127.926 137.902, 127.912 140.398, 128.884 145.672 C 129.553 149.305, 130.981 154.002, 132.056 156.111 C 133.132 158.219, 135.344 161.461, 136.972 163.315 C 138.599 165.169, 141.998 167.769, 144.525 169.093 L 149.119 171.500 152.214 168 C 153.916 166.075, 158.224 161.365, 161.788 157.533 L 168.266 150.566 167.673 142.154 C 167.176 135.113, 166.461 132.505, 163.290 126.156 C 160.747 121.066, 158.512 118, 156.495 116.836 C 154.842 115.882, 151.692 114.853, 149.495 114.550 C 147.155 114.226, 143.919 114.580, 141.684 115.404 M 299.538 115.454 C 297.359 116.255, 294.740 117.943, 293.717 119.205 C 292.695 120.467, 290.768 123.783, 289.437 126.573 C 288.105 129.363, 286.562 134.037, 286.008 136.960 C 285.453 139.882, 285.002 144.124, 285.005 146.386 C 285.010 150.137, 285.693 151.227, 292.756 158.750 C 299.996 166.462, 300.761 166.997, 304.500 166.952 C 306.700 166.926, 310.055 166.138, 311.956 165.202 C 313.857 164.266, 316.883 161.568, 318.680 159.206 C 320.478 156.844, 322.635 152.600, 323.474 149.774 C 324.313 146.949, 325 142.550, 325 140 C 325 137.450, 324.329 133.104, 323.509 130.343 C 322.689 127.582, 321 123.812, 319.756 121.966 C 318.511 120.119, 316.142 117.819, 314.492 116.855 C 312.841 115.891, 309.692 114.853, 307.495 114.550 C 305.116 114.221, 301.897 114.586, 299.538 115.454 M 243 120.986 C 243 123.728, 243.543 128.003, 244.207 130.486 C 244.871 132.969, 245.884 134.955, 246.457 134.900 C 247.031 134.845, 248.469 134.508, 249.654 134.150 L 251.808 133.500 249.322 127 C 247.955 123.425, 246.432 119.487, 245.939 118.250 C 245.446 117.013, 244.583 116, 244.021 116 C 243.460 116, 243 118.244, 243 120.986 M 215.688 123.250 C 215.357 126.688, 214.797 130.905, 214.444 132.623 L 213.801 135.746 220.264 136.438 C 223.819 136.819, 229.533 136.813, 232.961 136.425 L 239.194 135.720 238.496 132.610 C 238.112 130.899, 237.506 126.800, 237.149 123.500 L 236.500 117.500 231.750 117.195 C 227.086 116.896, 227 116.944, 227 119.847 C 227 122.234, 227.579 123.006, 230 123.850 C 231.974 124.538, 233 125.575, 233 126.881 C 233 127.972, 232.159 129.132, 231.132 129.458 C 230.105 129.784, 228.125 129.618, 226.733 129.089 C 225.341 128.559, 223.481 127.098, 222.601 125.841 C 221.720 124.584, 221 122.080, 221 120.277 C 221 117.502, 220.639 117, 218.645 117 C 216.486 117, 216.239 117.523, 215.688 123.250 M 183.542 139.250 C 182.689 141.037, 179.776 145.425, 177.069 149 C 174.363 152.575, 172.453 155.767, 172.824 156.094 C 173.196 156.421, 175.975 157.615, 179 158.747 C 182.025 159.880, 186.525 161.276, 189 161.851 C 191.475 162.425, 196.650 163.460, 200.500 164.151 C 204.611 164.888, 215.755 165.399, 227.500 165.388 C 238.900 165.378, 250.295 164.848, 254 164.154 C 257.575 163.485, 262.750 162.419, 265.500 161.786 C 268.250 161.153, 270.875 160.320, 271.333 159.935 C 271.791 159.550, 269.960 157.172, 267.265 154.651 C 264.570 152.130, 260.595 147.583, 258.432 144.547 C 255.353 140.224, 254.066 139.146, 252.500 139.577 C 251.400 139.880, 245.433 140.864, 239.239 141.764 C 229.522 143.175, 226.439 143.227, 216.739 142.150 C 210.558 141.463, 203.475 140.421, 201 139.835 C 198.525 139.249, 194.572 138.147, 192.215 137.385 C 189.858 136.623, 187.292 136, 186.512 136 C 185.732 136, 184.396 137.463, 183.542 139.250 M 164.138 163.357 L 161.079 166.514 164.419 169.780 C 166.256 171.576, 168.019 174.344, 168.336 175.931 C 168.654 177.518, 168.515 180.204, 168.029 181.900 C 167.274 184.531, 167.616 185.685, 170.351 189.742 C 172.115 192.359, 174.108 195.759, 174.779 197.297 C 175.451 198.835, 176 201.198, 176 202.547 C 176 204.802, 175.622 205, 171.317 205 C 168.741 205, 163.903 204.039, 160.567 202.865 C 157.230 201.691, 153.150 199.818, 151.500 198.704 C 149.850 197.590, 147.296 195.574, 145.825 194.224 L 143.150 191.770 140.468 197.064 C 138.992 199.975, 137.180 204.074, 136.439 206.171 C 135.111 209.937, 135.128 209.993, 137.797 210.586 C 139.284 210.916, 141.400 211.414, 142.500 211.693 C 143.600 211.972, 146.219 213.363, 148.320 214.784 C 150.420 216.206, 152.783 218.613, 153.570 220.135 C 154.356 221.656, 155 224.070, 155 225.500 C 155 226.930, 154.333 229.390, 153.517 230.966 C 152.587 232.766, 150.933 234.075, 149.076 234.483 C 147.449 234.841, 145.222 234.654, 144.128 234.069 C 143.034 233.483, 141.150 231.615, 139.941 229.917 C 138.007 227.201, 137.565 227.006, 136.273 228.298 C 135.197 229.375, 135.073 230.265, 135.811 231.633 C 136.364 232.660, 137.938 234.549, 139.310 235.832 C 140.724 237.154, 143.602 238.405, 145.957 238.721 C 148.522 239.065, 151.060 238.771, 152.590 237.952 C 154.770 236.785, 155.296 236.859, 156.949 238.562 C 157.983 239.628, 159.811 243.875, 161.010 248 C 162.869 254.393, 163.915 256.185, 168.096 260.143 C 170.793 262.697, 173 265.510, 173 266.393 C 173 267.277, 172.438 268.060, 171.750 268.134 C 171.063 268.208, 168.475 268.187, 166 268.087 C 163.525 267.987, 159.025 267.448, 156 266.888 C 152.975 266.329, 148.250 265.171, 145.500 264.316 C 142.750 263.460, 139.021 262.080, 137.214 261.249 C 135.407 260.418, 133.675 259.991, 133.366 260.301 C 133.056 260.611, 133.592 264.516, 134.556 268.980 C 135.806 274.761, 136.861 277.391, 138.226 278.121 C 139.280 278.685, 145.398 280.868, 151.821 282.973 C 158.245 285.077, 166.425 287.487, 170 288.330 C 173.575 289.172, 178.750 290.348, 181.500 290.944 C 184.250 291.540, 191.225 292.671, 197 293.456 C 202.775 294.241, 213.502 295.200, 220.837 295.588 C 231.304 296.140, 234.298 296.614, 234.750 297.790 C 235.071 298.627, 234.510 299.885, 233.480 300.639 C 232.072 301.668, 228.890 301.859, 220.067 301.444 C 213.705 301.144, 204.675 300.440, 200 299.880 C 195.325 299.319, 187 297.950, 181.500 296.838 C 176 295.726, 169.250 294.210, 166.500 293.469 C 163.750 292.728, 158.575 291.247, 155 290.179 C 151.425 289.110, 146.569 287.451, 144.209 286.493 C 141.848 285.534, 139.716 284.951, 139.469 285.197 C 139.223 285.444, 139.760 287.526, 140.663 289.824 C 142.272 293.921, 142.495 294.066, 151.902 297.122 C 157.181 298.837, 163.075 300.637, 165 301.122 C 166.925 301.607, 172.434 302.904, 177.241 304.003 C 182.049 305.102, 190.824 306.689, 196.741 307.531 C 203.454 308.485, 214.834 309.060, 227 309.058 C 239.265 309.055, 250.571 308.477, 257.471 307.498 C 263.505 306.642, 271.380 305.279, 274.971 304.470 C 278.562 303.661, 284.341 302.250, 287.814 301.334 C 293.506 299.832, 294.326 299.281, 296.134 295.737 C 297.237 293.575, 297.926 291.593, 297.666 291.332 C 297.405 291.072, 294.111 291.758, 290.346 292.858 C 286.581 293.958, 279.120 295.790, 273.767 296.929 C 268.415 298.068, 262.677 299, 261.017 299 C 258.488 299, 258 298.607, 258 296.567 C 258 295.113, 258.704 293.928, 259.750 293.621 C 260.712 293.338, 263.300 292.816, 265.500 292.461 C 267.700 292.107, 274.900 290.506, 281.500 288.905 C 288.100 287.304, 295.247 285.380, 297.383 284.630 C 300.457 283.551, 301.529 282.502, 302.527 279.599 C 303.654 276.320, 303.614 275.983, 302.144 276.409 C 301.240 276.671, 297.705 277.417, 294.290 278.065 C 290.874 278.714, 287.387 278.979, 286.540 278.654 C 285.693 278.329, 285 277.343, 285 276.464 C 285 275.585, 286.575 273.380, 288.500 271.565 C 290.746 269.447, 292 267.338, 292 265.679 C 292 264.257, 292.536 261.835, 293.191 260.297 C 293.846 258.759, 295.274 256.488, 296.365 255.250 C 297.456 254.013, 298.963 253, 299.715 253 C 300.466 253, 302.370 253.953, 303.945 255.118 C 305.521 256.283, 307.303 256.931, 307.905 256.559 C 308.507 256.187, 309 255.398, 309 254.806 C 309 254.214, 307.875 252.687, 306.500 251.412 C 304.739 249.781, 304 248.047, 304 245.551 C 304 242.877, 304.896 241.014, 307.648 237.968 L 311.296 233.930 310.635 223.849 C 310.272 218.305, 309.738 213.385, 309.449 212.917 C 309.159 212.449, 306.767 213.392, 304.133 215.013 C 301.498 216.634, 296.403 219.067, 292.809 220.420 C 289.216 221.772, 284.587 223.019, 282.524 223.190 C 279.841 223.412, 278.458 223.014, 277.670 221.795 C 276.797 220.446, 277.022 219.605, 278.750 217.766 C 279.950 216.489, 281.559 213.656, 282.325 211.472 C 283.151 209.118, 283.397 206.685, 282.929 205.500 C 282.496 204.400, 282.109 202.074, 282.070 200.332 C 282.032 198.589, 282.273 196.452, 282.607 195.582 C 282.941 194.712, 283.953 194.010, 284.857 194.022 C 285.761 194.034, 287.625 194.924, 289 196 C 290.469 197.149, 293.077 197.965, 295.323 197.978 C 298.423 197.996, 299.083 197.671, 298.812 196.261 C 298.628 195.305, 297.582 194.380, 296.489 194.205 C 295.395 194.031, 293.321 193.433, 291.880 192.876 C 290.439 192.320, 288.751 190.749, 288.130 189.385 C 287.508 188.022, 287 185.452, 287 183.675 C 287 181.899, 287.649 179.519, 288.442 178.386 C 289.789 176.464, 289.474 175.921, 283.692 170.193 L 277.500 164.059 273.277 165.515 C 270.955 166.316, 265.780 167.636, 261.777 168.448 C 257.775 169.261, 249.840 170.392, 244.144 170.963 C 238.448 171.533, 230.123 172.004, 225.644 172.010 C 221.165 172.015, 213 171.507, 207.500 170.880 C 202 170.254, 193 168.653, 187.500 167.323 C 182 165.993, 175.182 163.847, 172.349 162.553 L 167.197 160.201 164.138 163.357 M 259.441 180.855 C 255.559 182.387, 250.316 185.063, 247.790 186.800 C 245.265 188.538, 241.048 192.106, 238.421 194.730 C 235.793 197.353, 231.586 202.662, 229.072 206.528 C 226.557 210.393, 223.402 215.923, 222.060 218.818 L 219.620 224.080 210.813 215.314 C 204.079 208.611, 201.856 205.718, 201.371 203.024 C 201.022 201.086, 200.330 198.713, 199.833 197.750 C 199.336 196.787, 198.383 196.021, 197.715 196.046 C 197.047 196.072, 195.150 197.824, 193.500 199.940 C 191.850 202.057, 187.463 205.708, 183.750 208.055 C 179.777 210.566, 177 213.015, 177 214.006 C 177 214.932, 177.947 216.547, 179.104 217.595 C 180.485 218.846, 183.258 219.672, 187.183 220 L 193.159 220.500 199.370 232.500 L 205.580 244.500 200.137 254.876 L 194.694 265.252 196.417 272.562 C 197.365 276.582, 198.758 280.384, 199.512 281.010 C 200.555 281.876, 201.758 281.734, 204.528 280.420 L 208.172 278.691 207.508 272.076 L 206.843 265.461 212.172 258.790 L 217.500 252.119 227.750 252.060 C 233.387 252.027, 238 252.243, 238 252.539 C 238 252.836, 236.425 255.418, 234.500 258.276 C 232.575 261.135, 231 264.156, 231 264.991 C 231 265.825, 233.290 270.219, 236.088 274.754 C 239.991 281.080, 241.693 283, 243.397 283 C 244.618 283, 246.485 282.366, 247.546 281.590 C 249.421 280.219, 249.379 279.985, 246.001 273.002 L 242.528 265.823 249.173 259.662 C 253.203 255.925, 256.247 252.162, 256.909 250.101 C 257.509 248.231, 258 245.163, 258 243.283 L 258 239.864 260.850 241.893 C 262.417 243.009, 265.651 244.361, 268.036 244.897 C 271.294 245.629, 273.197 245.527, 275.686 244.487 C 277.509 243.725, 279 242.500, 279 241.763 C 279 241.027, 276.863 238.328, 274.250 235.764 C 271.637 233.201, 267.475 230.190, 265 229.074 C 261.267 227.390, 258.385 227.040, 248.083 227.022 C 241.254 227.010, 235.938 226.729, 236.269 226.397 C 236.601 226.066, 239.939 224.997, 243.686 224.022 C 249.694 222.459, 250.500 221.968, 250.500 219.874 C 250.500 217.743, 250.090 217.517, 246.500 217.667 C 244.300 217.758, 240.493 218.526, 238.039 219.372 C 235.586 220.219, 233.404 220.738, 233.192 220.525 C 232.979 220.312, 233.621 218.757, 234.618 217.069 C 235.615 215.381, 236.672 213.992, 236.966 213.983 C 237.260 213.973, 240.511 213.327, 244.190 212.547 C 247.870 211.767, 255.182 210.814, 260.440 210.428 C 269.601 209.755, 270 209.628, 270 207.382 C 270 205.666, 269.272 204.855, 267.286 204.357 C 265.793 203.982, 259.914 204.245, 254.222 204.940 C 248.529 205.636, 243.673 206.006, 243.430 205.763 C 243.187 205.520, 243.828 204.561, 244.854 203.632 C 246.006 202.589, 250.470 201.380, 256.523 200.472 C 261.915 199.662, 267.547 199, 269.040 199 C 270.534 199, 272.315 198.325, 273 197.500 C 273.995 196.301, 273.985 195.687, 272.949 194.439 C 271.905 193.181, 270.427 193.009, 265.327 193.555 C 261.847 193.928, 259 193.998, 259 193.711 C 259 193.424, 261.845 191.857, 265.323 190.230 C 270.136 187.977, 271.955 186.523, 272.944 184.135 C 273.982 181.629, 273.993 180.697, 272.999 179.499 C 272.315 178.675, 270.573 178.015, 269.128 178.034 C 267.682 178.053, 263.324 179.323, 259.441 180.855 M 256.468 218.101 C 256.101 219.256, 256.248 220.648, 256.794 221.194 C 257.341 221.741, 258.618 222.028, 259.632 221.832 C 260.647 221.637, 261.639 220.636, 261.837 219.608 C 262.035 218.581, 261.590 217.355, 260.848 216.885 C 260.107 216.415, 258.968 216.024, 258.317 216.015 C 257.667 216.007, 256.835 216.945, 256.468 218.101 M 186.690 238.250 C 185.759 238.938, 184.098 241.969, 182.999 244.986 C 181.899 248.003, 181 251.250, 181 252.201 C 181 253.152, 181.923 254.424, 183.052 255.028 C 184.180 255.631, 186.028 255.985, 187.159 255.813 C 188.335 255.634, 190.169 253.788, 191.443 251.500 C 193.209 248.328, 194.374 247.397, 197.074 247 C 199.020 246.714, 200.594 245.858, 200.749 245 C 200.899 244.175, 200.123 242.037, 199.025 240.250 C 197.270 237.392, 196.508 237, 192.706 237 C 190.328 237, 187.621 237.563, 186.690 238.250 M 253.196 261.298 C 251.438 263.111, 250 264.859, 250 265.181 C 250 265.503, 252.801 267.435, 256.224 269.474 L 262.447 273.181 264.724 270.535 C 265.976 269.079, 267 267.274, 267 266.522 C 267 265.771, 265.119 263.546, 262.820 261.578 C 260.521 259.610, 258.134 258, 257.516 258 C 256.898 258, 254.954 259.484, 253.196 261.298 M 244.659 296.484 C 243.793 297.350, 243.326 298.685, 243.620 299.452 C 243.914 300.218, 244.751 301.074, 245.480 301.354 C 246.209 301.634, 247.637 301.245, 248.653 300.490 C 250.095 299.418, 250.265 298.734, 249.429 297.368 C 248.839 296.406, 247.879 295.460, 247.295 295.265 C 246.710 295.070, 245.524 295.619, 244.659 296.484 M 148.601 305.063 C 149.712 306.953, 153.212 313.083, 156.378 318.684 C 159.545 324.285, 162.668 329.281, 163.318 329.785 C 163.968 330.290, 167.163 331.219, 170.417 331.851 C 173.671 332.483, 176.902 333, 177.597 333 C 178.533 333, 178.631 332.201, 177.975 329.914 C 177.489 328.217, 176.783 323.035, 176.406 318.398 C 175.754 310.353, 175.603 309.943, 173.111 309.402 C 171.675 309.090, 169.195 308.422, 167.601 307.917 C 166.006 307.413, 164.544 307, 164.351 307 C 164.158 307, 164 308.096, 164 309.435 C 164 310.774, 164.417 312.967, 164.927 314.308 C 165.446 315.673, 166.987 317.031, 168.427 317.392 C 170.125 317.818, 171 318.723, 171 320.050 C 171 321.157, 170.340 322.316, 169.533 322.626 C 168.726 322.935, 166.814 322.774, 165.283 322.267 C 163.752 321.760, 161.488 319.851, 160.250 318.025 C 158.708 315.749, 158 313.227, 158 310.010 C 158 305.381, 157.944 305.300, 153.896 304.087 C 151.639 303.411, 149.069 302.580, 148.187 302.241 C 146.857 301.731, 146.928 302.215, 148.601 305.063 M 282.750 308.689 C 281.286 309.072, 281.003 310.321, 281.017 316.323 L 281.034 323.500 283.129 320.228 C 284.332 318.350, 285.300 315.048, 285.402 312.478 C 285.500 310.015, 285.337 308.052, 285.040 308.116 C 284.743 308.180, 283.712 308.438, 282.750 308.689 M 182.035 315.951 C 182.054 318.453, 182.679 323.337, 183.422 326.804 C 184.166 330.271, 184.971 333.304, 185.211 333.544 C 185.450 333.784, 189.888 334.427, 195.073 334.973 C 200.258 335.519, 205.197 335.973, 206.049 335.983 C 207.343 335.997, 207.616 334.273, 207.710 325.497 C 207.816 315.496, 207.718 314.972, 205.661 314.541 C 204.472 314.292, 201.588 313.944, 199.250 313.767 C 195.369 313.475, 195 313.650, 195 315.789 C 195 317.078, 195.477 319.023, 196.061 320.114 C 196.644 321.204, 198.250 322.525, 199.630 323.049 C 201.458 323.744, 202.052 324.613, 201.819 326.252 C 201.557 328.099, 200.915 328.473, 198.222 328.350 C 196.420 328.267, 194.256 327.628, 193.415 326.929 C 192.573 326.231, 191.235 324.106, 190.442 322.207 C 189.649 320.309, 189 317.285, 189 315.487 C 189 312.496, 188.703 312.184, 185.500 311.810 L 182 311.402 182.035 315.951 M 265.877 312.223 L 260.253 313.189 261.028 316.623 C 261.454 318.512, 262.352 320.719, 263.024 321.528 C 263.695 322.338, 265.492 323, 267.015 323 C 268.679 323, 270.042 323.666, 270.426 324.667 C 270.778 325.584, 270.602 326.798, 270.035 327.365 C 269.467 327.933, 267.315 328.349, 265.252 328.290 C 262.225 328.205, 260.872 327.458, 258.250 324.426 C 255.959 321.776, 255 319.665, 255 317.270 C 255 314.040, 254.840 313.889, 251.750 314.187 L 248.500 314.500 248.215 325.383 L 247.930 336.266 253.715 335.676 C 256.897 335.351, 262.496 334.793, 266.158 334.436 L 272.816 333.787 273.908 329.451 C 274.509 327.066, 275 321.939, 275 318.057 C 275 311.954, 274.763 311.017, 273.250 311.128 C 272.288 311.199, 268.970 311.692, 265.877 312.223 M 213.584 320.964 C 213.203 324.332, 213.191 329.093, 213.559 331.544 L 214.227 336 228.114 336 L 242 336 242 325.369 L 242 314.738 238.250 315.358 C 236.188 315.699, 233.262 315.983, 231.750 315.989 C 229.405 315.998, 229 316.414, 229 318.809 C 229 320.354, 229.563 322.347, 230.250 323.238 C 230.938 324.129, 232.625 325.003, 234 325.179 C 235.914 325.425, 236.500 326.086, 236.500 328 C 236.500 329.998, 235.935 330.565, 233.685 330.823 C 232.137 331, 229.737 330.403, 228.352 329.495 C 226.966 328.587, 225.196 326.319, 224.416 324.454 C 223.637 322.590, 223 319.925, 223 318.532 C 223 316.577, 222.487 315.997, 220.750 315.986 C 219.512 315.979, 217.550 315.718, 216.388 315.406 C 214.456 314.887, 214.218 315.360, 213.584 320.964 M 170.001 338.618 C 170.002 339.103, 173.618 343.233, 178.037 347.795 C 182.456 352.357, 188.168 357.419, 190.731 359.045 L 195.392 362 215.718 362 C 236.024 362, 236.050 361.997, 242.459 359.091 C 245.988 357.491, 251.041 354.707, 253.687 352.904 C 256.334 351.101, 260.750 347.418, 263.500 344.719 C 268.336 339.973, 268.401 339.834, 265.500 340.487 C 263.850 340.858, 249.675 341.390, 234 341.669 C 211.783 342.063, 202.524 341.827, 192 340.596 C 184.575 339.727, 176.588 338.728, 174.250 338.376 C 171.912 338.025, 170.001 338.133, 170.001 338.618" stroke="none" fill="#ffc107" fill-rule="evenodd"/></svg>