<svg xmlns="http://www.w3.org/2000/svg" width="443" height="443" viewBox="0 0 443 443" version="1.1"><path d="" stroke="none" fill="#080404" fill-rule="evenodd"/><path d="M 148 106.455 C 143.875 107.732, 137.125 110.141, 133 111.808 C 128.875 113.475, 118.300 118.292, 109.500 122.512 C 100.700 126.732, 87.759 133.564, 80.742 137.695 C 73.725 141.826, 67.087 146.345, 65.992 147.737 C 64.706 149.372, 64 151.790, 64 154.558 C 64 157.700, 64.684 159.660, 66.560 161.889 C 68.035 163.641, 70.499 165.191, 72.371 165.542 C 75.233 166.079, 75.961 166.931, 78.466 172.683 C 80.031 176.275, 83.019 181.487, 85.107 184.264 C 88.217 188.405, 88.714 189.666, 87.859 191.263 C 87.286 192.334, 87.089 194.659, 87.421 196.430 C 87.753 198.201, 89.270 200.842, 90.791 202.300 C 92.312 203.757, 95.018 205.459, 96.804 206.081 C 98.844 206.793, 101.221 208.938, 103.200 211.857 C 104.932 214.410, 109.158 219.875, 112.591 224 C 116.023 228.125, 121.007 233.579, 123.666 236.119 C 126.325 238.660, 132.100 243.546, 136.500 246.978 C 141.031 250.512, 145.546 255.013, 146.913 257.358 C 148.241 259.636, 150.980 263.525, 153.002 266 C 155.023 268.475, 157.303 271.625, 158.069 273 C 159.082 274.820, 159.466 279.582, 159.480 290.500 L 159.500 305.500 151.489 306.023 C 145.702 306.401, 142.727 307.095, 140.772 308.523 C 139.284 309.610, 137.376 311.918, 136.533 313.651 C 135.690 315.384, 135 318.197, 135 319.901 L 135 323 125.250 323.002 C 117.944 323.003, 114.640 323.441, 112.071 324.752 C 110.185 325.713, 107.739 327.731, 106.636 329.237 C 105.322 331.029, 104.475 334.105, 104.183 338.153 C 103.810 343.306, 104.038 344.555, 105.559 345.667 C 107.053 346.759, 127.669 347, 219.620 347 C 323.702 347, 331.980 346.877, 333.549 345.308 C 334.880 343.977, 335.123 342.478, 334.688 338.267 C 334.384 335.325, 333.318 331.525, 332.318 329.822 C 331.318 328.119, 328.932 325.888, 327.016 324.863 C 324.309 323.416, 321.382 323, 313.897 323 L 304.263 323 303.722 318.962 C 303.424 316.741, 302.458 313.822, 301.576 312.476 C 300.694 311.129, 298.764 309.234, 297.288 308.264 C 295.576 307.139, 291.866 306.319, 287.051 306 L 279.500 305.500 279.500 289.820 C 279.500 275.486, 279.679 273.899, 281.588 271.320 C 282.737 269.769, 287.912 265.636, 293.088 262.136 C 298.265 258.636, 305.650 253.203, 309.500 250.063 C 315.876 244.862, 316.858 244.389, 320.511 244.759 C 323.515 245.063, 325.199 244.631, 327.223 243.039 C 328.724 241.859, 330.194 239.483, 330.529 237.696 C 330.861 235.927, 330.706 233.356, 330.183 231.983 C 329.338 229.758, 329.920 228.726, 335.528 222.508 C 341.597 215.779, 341.891 215.591, 343.740 217.265 C 344.836 218.257, 347.250 219, 349.374 219 C 352.026 219, 353.822 218.268, 355.645 216.446 C 357.725 214.366, 358.109 213.205, 357.713 210.196 C 357.446 208.163, 356.912 205.538, 356.526 204.363 C 355.939 202.572, 357.194 201.034, 364.278 194.863 C 368.927 190.813, 376.504 185.276, 381.116 182.557 C 385.727 179.839, 390.506 176.729, 391.735 175.647 C 392.964 174.565, 394.244 172.215, 394.580 170.425 C 394.941 168.503, 394.640 166.030, 393.845 164.386 C 393.105 162.854, 390.967 160.708, 389.094 159.617 C 385.760 157.675, 385.474 157.670, 375.594 159.353 C 370.042 160.299, 359.425 163.137, 352 165.659 C 344.575 168.182, 337.230 170.894, 335.677 171.686 C 333.034 173.035, 332.691 172.964, 330.291 170.563 C 328.414 168.687, 326.680 168, 323.818 168 C 320.951 168, 319.222 168.687, 317.333 170.576 C 315.121 172.788, 314.828 173.783, 315.261 177.619 L 315.764 182.086 309.726 186.186 C 304.700 189.599, 303.381 190.095, 301.858 189.143 C 300.851 188.514, 298.282 188, 296.150 188 C 293.294 188, 291.578 188.694, 289.636 190.636 C 288.186 192.086, 287 194.316, 287 195.591 C 287 197.428, 286.325 198.023, 283.750 198.456 C 281.962 198.756, 277.575 199.448, 274 199.993 C 270.425 200.539, 264.350 200.982, 260.500 200.979 C 256.650 200.976, 249.442 200.136, 244.482 199.112 C 239.523 198.089, 231.903 195.769, 227.551 193.957 C 222.744 191.956, 215.813 187.781, 209.895 183.324 C 204.537 179.288, 196.986 172.548, 193.116 168.348 C 186.267 160.915, 186.093 160.597, 186.652 156.523 C 187.045 153.656, 186.712 151.344, 185.596 149.185 C 184.700 147.452, 182.694 145.376, 181.140 144.572 C 179.235 143.587, 177.736 141.545, 176.541 138.306 C 175.565 135.662, 173.428 131.070, 171.791 128.101 C 169.296 123.575, 168.991 122.314, 169.907 120.304 C 170.508 118.985, 171 116.780, 171 115.403 C 171 114.027, 170.328 111.600, 169.506 110.011 C 168.684 108.422, 167.009 106.419, 165.783 105.561 C 164.558 104.702, 161.743 104.030, 159.527 104.066 C 157.312 104.102, 152.125 105.177, 148 106.455 M 147 114.325 C 141.225 116.103, 133.800 118.636, 130.500 119.953 C 127.200 121.271, 117.300 126.055, 108.500 130.586 C 99.574 135.182, 91.666 139.933, 90.613 141.334 C 89.575 142.714, 88.999 144.554, 89.332 145.422 C 89.665 146.290, 91.082 147, 92.481 147 C 93.881 147, 102.609 143.241, 111.878 138.647 C 123.065 133.102, 134.239 128.496, 145.115 124.945 C 154.127 122.004, 162.063 119.183, 162.750 118.676 C 163.438 118.170, 164 116.775, 164 115.578 C 164 114.380, 163.460 112.860, 162.800 112.200 C 162.140 111.540, 160.678 111.021, 159.550 111.046 C 158.422 111.071, 152.775 112.546, 147 114.325 M 155.500 128.216 C 152.200 129.348, 149.329 130.421, 149.119 130.601 C 148.910 130.781, 149.781 133.532, 151.054 136.714 C 152.328 139.896, 154.417 144.188, 155.697 146.250 C 156.978 148.313, 158.429 150, 158.924 150 C 159.418 150, 162.450 149.019, 165.661 147.821 C 168.872 146.622, 171.683 145.502, 171.906 145.331 C 172.130 145.160, 171.499 143.216, 170.505 141.010 C 169.372 138.498, 168.028 137, 166.907 137 C 165.923 137, 164.777 137.551, 164.361 138.225 C 163.945 138.899, 163.581 140.586, 163.552 141.975 C 163.513 143.857, 162.892 144.586, 161.113 144.837 C 159.800 145.023, 158.345 144.573, 157.878 143.837 C 157.412 143.102, 157.024 140.874, 157.015 138.886 C 157.004 136.302, 157.751 134.522, 159.636 132.636 C 161.086 131.186, 162.902 130, 163.672 130 C 164.760 130, 164.833 129.557, 164 128 C 163.411 126.900, 162.608 126.036, 162.215 126.079 C 161.822 126.122, 158.800 127.084, 155.500 128.216 M 133.750 136.267 C 129.470 137.946, 126 139.906, 126 140.644 C 126 141.378, 127.143 144.835, 128.541 148.326 C 129.939 151.818, 132.316 156.152, 133.824 157.958 L 136.566 161.243 144.242 157.371 L 151.919 153.500 148.942 148.724 C 146.303 144.491, 145.733 144.073, 143.927 145.039 C 142.427 145.842, 141.970 146.937, 142.195 149.187 C 142.392 151.166, 141.931 152.610, 140.886 153.281 C 139.998 153.852, 138.561 154.045, 137.691 153.712 C 136.822 153.378, 135.821 151.561, 135.467 149.674 C 135.041 147.405, 135.353 145.217, 136.389 143.215 C 137.250 141.550, 139.251 139.614, 140.836 138.912 C 142.883 138.006, 143.579 137.105, 143.238 135.803 C 142.974 134.794, 142.475 133.802, 142.129 133.597 C 141.783 133.393, 138.012 134.594, 133.750 136.267 M 110.250 146.778 C 105.913 148.967, 103 151.064, 103 151.997 C 103 152.855, 104.546 156.694, 106.436 160.528 C 108.326 164.363, 110.770 168.618, 111.867 169.984 L 113.862 172.468 121.931 168.534 C 126.369 166.370, 130 164.487, 130 164.350 C 130 164.213, 128.602 162.029, 126.894 159.497 C 124.936 156.597, 123.179 155.013, 122.144 155.216 C 121.052 155.429, 120.479 156.594, 120.439 158.688 C 120.405 160.422, 119.788 162.551, 119.066 163.420 C 118.345 164.289, 117.392 165, 116.949 165 C 116.506 165, 115.436 164.293, 114.571 163.429 C 113.707 162.564, 113 160.285, 113 158.363 C 113 156.441, 113.463 154.003, 114.030 152.945 C 114.596 151.886, 116.384 150.336, 118.003 149.499 C 120.665 148.122, 120.838 147.739, 119.813 145.488 C 119.189 144.120, 118.414 143.027, 118.089 143.059 C 117.765 143.092, 114.237 144.765, 110.250 146.778 M 164 155.873 C 156.575 159.062, 144.147 164.896, 136.381 168.838 C 128.616 172.780, 121.054 176.956, 119.577 178.118 C 117.857 179.471, 117.001 180.999, 117.196 182.365 C 117.434 184.037, 118.150 184.473, 120.500 184.376 C 122.150 184.307, 126.023 182.732, 129.108 180.876 C 132.192 179.019, 144.904 172.592, 157.358 166.593 C 169.811 160.594, 180 155.168, 180 154.534 C 180 153.901, 179.438 152.638, 178.750 151.729 C 177.616 150.229, 176.248 150.613, 164 155.873 M 167.595 170.983 C 161.768 174.824, 157 178.266, 157 178.632 C 157 178.998, 159.031 181.765, 161.513 184.780 C 165.050 189.076, 165.781 190.559, 164.891 191.631 C 164.266 192.384, 163.037 193, 162.159 193 C 161.281 193, 158.248 190.713, 155.418 187.919 L 150.273 182.838 148.046 185.669 C 146.413 187.744, 145.958 189.353, 146.339 191.700 C 146.624 193.461, 148.640 197.511, 150.817 200.700 C 152.994 203.890, 158.089 209.689, 162.138 213.587 C 166.187 217.485, 172.269 222.704, 175.653 225.185 C 179.037 227.666, 185.774 231.634, 190.623 234.003 C 195.472 236.372, 203.248 239.358, 207.903 240.639 C 212.559 241.919, 216.777 243.377, 217.277 243.877 C 217.778 244.378, 218.029 245.623, 217.835 246.644 C 217.611 247.824, 216.458 248.618, 214.668 248.823 C 213.120 249.001, 207.724 247.988, 202.677 246.571 C 197.630 245.153, 188.550 241.551, 182.500 238.564 C 176.450 235.578, 168.350 231.017, 164.500 228.429 C 160.650 225.841, 154.023 220.831, 149.774 217.295 C 145.524 213.760, 139.631 208.197, 136.678 204.933 C 133.725 201.670, 131.069 199, 130.776 199 C 130.482 199, 129.667 200.389, 128.964 202.086 C 128.261 203.784, 127.715 207.116, 127.751 209.492 C 127.787 211.867, 128.560 215.379, 129.470 217.295 C 130.379 219.212, 133.581 223.125, 136.585 225.993 L 142.047 231.205 145.485 229.574 C 147.516 228.611, 149.946 228.199, 151.421 228.569 C 152.794 228.914, 154.345 229.715, 154.867 230.348 C 155.389 230.982, 156.750 234.200, 157.890 237.500 C 159.156 241.162, 161.111 244.474, 162.906 246 C 164.524 247.375, 169.721 250.442, 174.456 252.816 C 179.191 255.189, 187.267 258.198, 192.403 259.500 C 197.538 260.803, 205.511 262.387, 210.120 263.021 C 214.729 263.654, 224.125 264.151, 231 264.125 C 237.897 264.100, 247.077 263.391, 251.479 262.544 C 255.868 261.699, 261.852 260.313, 264.778 259.462 C 269.599 258.061, 270.469 257.341, 274.054 251.796 C 276.229 248.430, 277.826 245.493, 277.603 245.270 C 277.380 245.047, 274.790 245.589, 271.849 246.475 C 268.907 247.361, 263.224 248.723, 259.221 249.500 C 255.217 250.278, 251.315 250.674, 250.548 250.380 C 249.782 250.086, 248.909 249.205, 248.609 248.423 C 248.308 247.640, 248.299 246.385, 248.587 245.633 C 248.876 244.882, 252.124 243.471, 255.806 242.498 C 259.488 241.526, 265.650 239.284, 269.500 237.516 C 273.350 235.748, 278.942 232.449, 281.927 230.186 C 284.911 227.922, 288.237 224.675, 289.316 222.970 C 290.971 220.355, 291.186 218.764, 290.688 212.816 C 290.363 208.937, 289.870 205.537, 289.593 205.260 C 289.316 204.983, 286.032 205.356, 282.295 206.088 C 278.479 206.836, 269.362 207.393, 261.500 207.359 C 250.275 207.310, 245.815 206.850, 239 205.037 C 234.325 203.793, 226.729 200.959, 222.121 198.739 C 217.512 196.518, 209.412 191.478, 204.121 187.539 C 198.829 183.600, 191.463 177.047, 187.750 172.978 C 184.037 168.908, 181 165.224, 181 164.789 C 181 164.355, 180.368 164, 179.595 164 C 178.823 164, 173.423 167.142, 167.595 170.983 M 372.721 166.595 C 368.992 167.408, 362.017 169.405, 357.221 171.033 C 352.424 172.661, 347.938 174.756, 347.250 175.688 C 346.563 176.620, 346 178.188, 346 179.172 C 346 180.218, 346.979 181.208, 348.356 181.553 C 349.751 181.903, 353.727 181.062, 358.106 179.490 C 362.173 178.029, 368.596 175.747, 372.381 174.417 C 376.165 173.088, 380.467 172, 381.940 172 C 383.413 172, 385.491 171.351, 386.559 170.559 C 388.109 169.408, 388.278 168.753, 387.399 167.309 C 386.734 166.217, 384.949 165.424, 382.899 165.309 C 381.029 165.203, 376.449 165.782, 372.721 166.595 M 322.375 175.465 C 322.053 176.303, 324.274 180.475, 327.565 185.215 C 330.728 189.772, 334.684 194.963, 336.355 196.750 C 338.025 198.537, 339.979 200, 340.696 200 C 341.413 200, 342 199.425, 342 198.723 C 342 198.020, 341.259 196.332, 340.352 194.973 C 339.446 193.613, 335.561 188.338, 331.719 183.250 C 327.877 178.162, 324.329 174, 323.835 174 C 323.341 174, 322.684 174.659, 322.375 175.465 M 317.750 188.620 C 316.238 189.414, 315 190.443, 315 190.906 C 315 191.369, 316.988 191.693, 319.418 191.624 C 323.718 191.503, 323.792 191.446, 322.179 189.500 C 321.267 188.400, 320.517 187.427, 320.511 187.338 C 320.505 187.249, 319.262 187.826, 317.750 188.620 M 321.814 196.208 C 319.955 198.140, 318.126 199, 315.878 199 C 313.920 199, 311.711 198.137, 310.318 196.829 C 309.048 195.636, 307.744 194.923, 307.421 195.246 C 307.098 195.568, 308.350 198.084, 310.204 200.836 L 313.573 205.840 320.037 200.826 C 323.591 198.068, 326.623 195.693, 326.774 195.548 C 326.925 195.404, 326.475 194.865, 325.774 194.351 C 324.890 193.703, 323.678 194.271, 321.814 196.208 M 294.362 195.500 C 294.045 196.325, 294.021 197.611, 294.307 198.358 C 294.594 199.106, 298.230 204.956, 302.387 211.358 C 306.544 217.761, 310.606 223, 311.414 223 C 312.221 223, 313.148 222.570, 313.473 222.044 C 313.798 221.518, 313.432 219.577, 312.660 217.730 C 311.889 215.882, 308.414 210.125, 304.940 204.936 C 301.466 199.746, 298.145 195.169, 297.561 194.765 C 296.978 194.361, 296.148 194.024, 295.719 194.015 C 295.289 194.007, 294.678 194.675, 294.362 195.500 M 170.724 197.134 C 169.776 197.665, 169 198.955, 169 200 C 169 201.045, 169.776 202.335, 170.724 202.866 C 171.818 203.478, 173.098 203.483, 174.224 202.880 C 175.201 202.357, 176 201.061, 176 200 C 176 198.939, 175.201 197.643, 174.224 197.120 C 173.098 196.517, 171.818 196.522, 170.724 197.134 M 149 239.903 C 149 242.665, 149.911 247.359, 151.024 250.334 C 152.156 253.360, 155.303 258.321, 158.168 261.595 C 160.984 264.813, 163.986 269.033, 164.840 270.973 C 165.952 273.503, 166.506 278.951, 166.800 290.250 L 167.210 306 170.105 306 L 173 306 172.965 289.750 C 172.941 278.886, 172.527 272.802, 171.715 271.393 C 171.047 270.235, 168.087 266.552, 165.138 263.210 C 162.188 259.868, 158.787 255.641, 157.579 253.817 C 156.371 251.992, 154.396 248.077, 153.191 245.117 C 151.986 242.156, 151 238.920, 151 237.926 C 151 236.931, 150.550 235.840, 150 235.500 C 149.384 235.119, 149 236.810, 149 239.903 M 286.614 241.500 C 285.590 245.074, 283.494 249.983, 281.956 252.408 C 280.418 254.834, 276.216 260.025, 272.618 263.946 C 268.418 268.523, 265.867 272.224, 265.492 274.287 C 265.170 276.054, 265.040 283.800, 265.203 291.500 L 265.500 305.500 268.750 305.813 L 272 306.127 272 291.189 C 272 280.566, 272.427 275.041, 273.478 272.062 C 274.291 269.758, 277.007 265.539, 279.513 262.686 C 282.019 259.834, 285.219 255.163, 286.625 252.307 C 288.094 249.320, 289.413 244.540, 289.729 241.057 C 290.031 237.721, 289.873 235, 289.376 235 C 288.881 235, 287.637 237.925, 286.614 241.500 M 231.040 245.452 C 230.377 246.251, 229.991 247.713, 230.181 248.702 C 230.422 249.952, 231.434 250.500, 233.500 250.500 C 235.566 250.500, 236.578 249.952, 236.819 248.702 C 237.009 247.713, 236.623 246.251, 235.960 245.452 C 235.297 244.653, 234.190 244, 233.500 244 C 232.810 244, 231.703 244.653, 231.040 245.452 M 179.389 272.325 C 179.710 273.521, 179.979 281.593, 179.986 290.262 L 180 306.023 219.250 305.762 L 258.500 305.500 258.778 291.167 L 259.056 276.835 252.278 277.667 C 248.550 278.125, 237.625 278.484, 228 278.465 C 215.159 278.440, 208.261 277.957, 202.090 276.653 C 197.465 275.675, 190.334 273.812, 186.244 272.513 L 178.806 270.151 179.389 272.325 M 144 315 C 142.889 316.111, 142 318.333, 142 320 L 142 323 203.500 323 L 265 323 265 319.571 C 265 317.686, 264.293 315.436, 263.429 314.571 C 262.036 313.179, 255.258 313, 203.929 313 C 147.333 313, 145.954 313.046, 144 315" stroke="none" fill="#040404" fill-rule="evenodd"/></svg>