<svg xmlns="http://www.w3.org/2000/svg" width="512" height="512" viewBox="0 0 512 512" version="1.1"><path d="" stroke="none" fill="#080404" fill-rule="evenodd"/><path d="M 177.445 62.899 C 151.832 73.662, 150.745 74.214, 148.542 77.576 C 145.057 82.896, 144.957 85.557, 147.616 102.376 C 149.118 111.871, 149.949 120.425, 149.638 123.182 C 148.567 132.686, 142.248 141.221, 132.778 145.953 C 125.259 149.710, 120.906 149.840, 101.312 146.890 C 92.921 145.627, 85.650 145.031, 83.517 145.431 C 76.786 146.694, 74.720 149.829, 64.366 174.500 C 50.605 207.291, 50.577 207.088, 70.910 222.467 C 86.569 234.310, 88.178 235.888, 90.922 242.091 C 95.287 251.957, 94.310 264.146, 88.454 272.915 C 87.136 274.887, 79.890 281.225, 72.350 287 C 55.884 299.611, 54.536 301.233, 54.672 308.275 C 54.754 312.526, 56.564 317.684, 64.376 335.935 C 69.778 348.554, 75.118 359.558, 76.583 361.087 C 81.079 365.779, 85.258 366.153, 102.696 363.422 C 121.493 360.479, 123.461 360.452, 130.389 363.044 C 139.775 366.556, 148.250 377.227, 149.619 387.256 C 149.963 389.775, 149.150 398.222, 147.620 408.032 C 144.769 426.307, 145.024 429.751, 149.562 434.290 C 151.028 435.756, 161.680 440.909, 174.799 446.498 C 206.779 460.124, 207.744 460.020, 221.798 441.459 C 236.461 422.094, 240.899 418.838, 253.529 418.173 C 268.100 417.407, 274.184 421.175, 287.834 439.419 C 299.622 455.174, 301.260 456.506, 308.823 456.483 C 313.717 456.468, 317.534 455.186, 336.500 447.184 C 359.596 437.440, 364.073 434.538, 365.640 428.299 C 366.028 426.754, 365.516 420.121, 364.498 413.500 C 361.585 394.551, 361.414 386.112, 363.835 380.641 C 366.791 373.957, 371.470 368.606, 376.980 365.607 C 385.286 361.086, 389.500 360.824, 407.655 363.700 C 434.016 367.875, 433.902 367.953, 447.161 336.500 C 455 317.903, 456.439 313.649, 456.467 309 C 456.512 301.531, 454.680 299.225, 438.801 286.769 C 421.496 273.193, 419.500 269.951, 419.500 255.422 C 419.500 245.938, 419.679 245.053, 422.541 240.424 C 424.758 236.839, 429.327 232.631, 439.393 224.905 C 446.989 219.075, 454.145 212.820, 455.294 211.004 C 459.161 204.896, 458.287 200.765, 447.991 176.500 C 442.857 164.400, 437.990 153.462, 437.176 152.192 C 436.361 150.923, 433.885 148.962, 431.673 147.833 C 427.189 145.546, 426.669 145.559, 403.500 148.535 C 390.324 150.227, 389.166 150.234, 383.816 148.658 C 377.163 146.697, 370.677 142.053, 366.797 136.471 C 361.295 128.557, 360.728 121.555, 363.868 100.311 C 365.956 86.183, 365.643 81.715, 362.243 77.077 C 360.892 75.236, 353.809 71.655, 337.426 64.533 C 316.789 55.561, 313.901 54.566, 308.500 54.568 C 304.380 54.569, 301.647 55.138, 299.779 56.381 C 298.282 57.377, 292.722 64.264, 287.422 71.686 C 274.783 89.385, 269.383 92.982, 255.428 92.994 C 247.708 93.002, 241.322 90.823, 236.194 86.434 C 233.972 84.532, 227.870 77.195, 222.633 70.129 C 207.972 50.346, 207.500 50.270, 177.445 62.899 M 238.334 155.410 C 186.946 165.242, 151.338 210.205, 154.317 261.500 C 157.566 317.449, 204.890 360.306, 260.500 357.661 C 273.773 357.029, 281.142 355.513, 292.821 351.009 C 333.446 335.342, 359.988 294.538, 357.618 251.393 C 355.036 204.397, 322.404 165.838, 277.295 156.483 C 266.449 154.233, 247.246 153.705, 238.334 155.410 M 248.500 204.980 C 234.084 207.280, 219.162 217.081, 212.304 228.755 C 191.619 263.965, 215.737 307.334, 256 307.331 C 291.889 307.328, 316.691 271.431, 304.021 237.828 C 295.575 215.426, 271.671 201.283, 248.500 204.980" stroke="none" fill="#040404" fill-rule="evenodd"/></svg>