<svg xmlns="http://www.w3.org/2000/svg" width="512" height="512" viewBox="0 0 512 512" version="1.1"><path d="" stroke="none" fill="#db0600" fill-rule="evenodd"/><path d="M 146 53.833 C 140.696 56.405, 139.888 56.500, 123.342 56.500 L 106.185 56.500 101.842 59.548 C 99.454 61.224, 97.500 63.063, 97.500 63.635 C 97.500 64.207, 112.279 77.686, 130.343 93.587 C 148.406 109.489, 163.758 122.634, 164.457 122.797 C 165.157 122.961, 167.791 120.802, 170.311 117.999 C 172.900 115.120, 175.824 110.423, 177.035 107.202 C 178.501 103.300, 179.166 99.290, 179.141 94.500 C 179.118 90.193, 178.341 85.304, 177.120 81.791 C 176.028 78.650, 173.230 72.800, 170.901 68.791 C 168.572 64.781, 165.568 60.044, 164.226 58.266 C 162.884 56.487, 160.319 54.124, 158.525 53.016 C 156.731 51.907, 154.417 51.038, 153.382 51.083 C 152.347 51.129, 149.025 52.367, 146 53.833 M 73.965 71.139 C 68.209 77.754, 61.865 85.572, 59.866 88.512 C 57.867 91.451, 55.234 96.701, 54.015 100.178 C 52.542 104.378, 51.628 109.857, 51.292 116.500 C 50.914 123.997, 51.210 128.127, 52.479 133 C 53.409 136.575, 55.815 142.650, 57.825 146.500 C 60.044 150.750, 64.054 156.084, 68.032 160.077 C 72.369 164.430, 77.021 167.873, 81.789 170.258 C 85.751 172.240, 92.433 174.627, 96.638 175.563 C 102.286 176.819, 106.372 177.090, 112.276 176.597 C 116.672 176.231, 123.021 175.007, 126.384 173.877 C 129.748 172.748, 134.979 170.322, 138.010 168.486 C 141.040 166.650, 146.674 161.852, 150.530 157.824 C 154.386 153.796, 160.641 146.994, 164.430 142.709 C 168.292 138.341, 170.919 134.568, 170.409 134.122 C 169.909 133.684, 151.045 117.165, 128.489 97.413 C 105.934 77.661, 86.793 60.963, 85.955 60.306 C 84.674 59.303, 82.753 61.039, 73.965 71.139 M 163 150.643 C 159.425 154.773, 155.032 159.879, 153.239 161.989 L 149.978 165.827 180.581 192.664 C 197.412 207.424, 211.705 219.622, 212.342 219.771 C 212.979 219.920, 214.566 218.026, 215.868 215.561 C 217.170 213.096, 220.770 208.668, 223.868 205.720 C 226.966 202.773, 230.363 199.882, 231.417 199.297 C 233.204 198.305, 233.075 198.004, 229.511 194.867 C 227.408 193.015, 213.271 180.591, 198.094 167.257 C 182.917 153.923, 170.275 143.041, 170 143.075 C 169.725 143.108, 166.575 146.514, 163 150.643 M 253.110 195.127 C 249.595 195.648, 243.758 197.503, 240.138 199.249 C 235.948 201.270, 231.142 204.799, 226.913 208.962 C 223.260 212.558, 219.135 217.750, 217.747 220.500 C 216.359 223.250, 214.498 227.944, 213.612 230.932 C 212.725 233.919, 212 239.787, 212 243.971 C 212 248.156, 212.690 254.228, 213.533 257.465 C 214.376 260.702, 216.284 265.634, 217.774 268.425 C 219.263 271.216, 223.186 276.229, 226.491 279.565 C 230.054 283.160, 235.057 286.900, 238.781 288.750 C 242.235 290.466, 247.635 292.405, 250.781 293.058 C 254.014 293.730, 260.412 294.040, 265.500 293.772 C 273.129 293.371, 275.678 292.754, 282.233 289.723 C 287.016 287.510, 292.058 284.167, 295.454 280.955 C 298.473 278.100, 302.353 273.566, 304.077 270.880 C 305.801 268.194, 308.011 263.410, 308.989 260.248 C 309.966 257.087, 311.074 251.800, 311.451 248.500 C 311.910 244.473, 311.623 240.033, 310.579 235 C 309.723 230.875, 307.621 224.729, 305.909 221.343 C 304.196 217.956, 300.595 212.939, 297.906 210.192 C 295.216 207.446, 290.894 203.794, 288.301 202.076 C 285.707 200.358, 280.866 198.116, 277.542 197.095 C 274.219 196.073, 268.800 195, 265.500 194.708 C 262.200 194.417, 256.624 194.606, 253.110 195.127 M 175.237 304.263 C 154.756 324.749, 138 341.845, 138 342.255 C 138 342.665, 138.563 343, 139.250 343.001 C 139.938 343.001, 143.425 344.384, 147 346.075 C 150.575 347.765, 155.792 350.914, 158.592 353.074 C 161.393 355.233, 164.091 357, 164.587 357 C 165.083 357, 180.412 342.082, 198.651 323.849 L 231.813 290.698 224.534 283.599 C 220.531 279.695, 216.179 274.366, 214.864 271.758 L 212.473 267.017 175.237 304.263 M 308.914 271.176 C 307.703 273.554, 303.379 278.836, 299.306 282.914 C 293.344 288.880, 292.152 290.563, 293.199 291.533 C 293.915 292.196, 309.945 306.298, 328.823 322.870 C 347.700 339.441, 363.502 353, 363.938 353 C 364.374 353, 365.873 352.101, 367.269 351.003 C 368.665 349.905, 372.664 347.652, 376.154 345.997 C 379.644 344.342, 385.087 342.451, 388.250 341.794 C 391.413 341.137, 394 340.267, 394 339.861 C 394 339.455, 376.109 323.457, 354.243 304.311 C 332.376 285.165, 313.727 268.904, 312.801 268.176 C 311.313 267.006, 310.859 267.357, 308.914 271.176 M 240 332.520 L 240 370.039 261.750 369.770 L 283.500 369.500 283.762 332.130 L 284.025 294.760 281.762 295.403 C 280.518 295.756, 276.575 296.757, 273 297.628 C 268.477 298.730, 264.067 299.045, 258.500 298.662 C 254.100 298.359, 248.531 297.411, 246.124 296.556 C 243.718 295.700, 241.355 295, 240.874 295 C 240.391 295, 240 311.770, 240 332.520 M 111.973 345.014 C 108.933 345.486, 104.208 346.618, 101.473 347.529 C 98.738 348.439, 93.254 351.190, 89.286 353.641 C 85.318 356.092, 80.091 360.438, 77.671 363.299 C 75.251 366.159, 72.030 370.490, 70.515 372.922 C 68.999 375.353, 66.702 380.365, 65.412 384.059 C 64.121 387.753, 62.783 394.313, 62.438 398.637 C 62 404.130, 62.287 408.761, 63.391 414 C 64.261 418.125, 66.621 424.875, 68.636 429 C 71.359 434.575, 74.256 438.425, 79.922 444 C 84.834 448.832, 89.850 452.646, 94.023 454.722 C 97.585 456.494, 103.182 458.632, 106.460 459.472 C 109.738 460.312, 115.904 461, 120.161 461 C 124.418 461, 130.286 460.509, 133.201 459.909 C 136.115 459.309, 141.875 457.196, 146 455.213 C 151.670 452.488, 155.463 449.642, 161.543 443.554 C 167.244 437.845, 170.534 433.543, 172.840 428.781 C 174.630 425.086, 176.793 418.786, 177.647 414.781 C 178.692 409.877, 179.028 404.726, 178.677 399 C 178.351 393.681, 177.255 388.022, 175.749 383.880 C 174.426 380.240, 172.062 375.065, 170.495 372.380 C 168.929 369.696, 164.915 364.767, 161.574 361.426 C 158.233 358.086, 152.575 353.732, 149 351.751 C 145.425 349.770, 139.800 347.474, 136.500 346.648 C 133.200 345.822, 127.575 344.923, 124 344.650 C 120.425 344.378, 115.013 344.542, 111.973 345.014 M 395.151 346.146 C 391.659 346.651, 386.081 348.170, 382.756 349.521 C 379.430 350.872, 374.637 353.312, 372.105 354.942 C 369.572 356.572, 365.164 360.289, 362.309 363.203 C 359.453 366.116, 355.497 371.200, 353.517 374.500 C 351.536 377.800, 348.942 383.650, 347.750 387.500 C 346.173 392.600, 345.585 397.079, 345.585 404 C 345.585 410.921, 346.173 415.400, 347.750 420.500 C 348.942 424.350, 351.536 430.200, 353.516 433.500 C 355.495 436.800, 359.677 442.118, 362.808 445.318 C 365.938 448.517, 371.347 452.737, 374.826 454.696 C 378.305 456.654, 383.930 459.141, 387.326 460.222 C 391.399 461.519, 396.563 462.222, 402.500 462.289 C 407.450 462.345, 413.975 461.795, 417 461.067 C 420.025 460.339, 425.875 458.124, 430 456.145 C 435.559 453.479, 439.443 450.601, 445.007 445.024 C 449.966 440.054, 453.609 435.294, 455.739 431 C 457.513 427.425, 459.647 421.818, 460.482 418.540 C 461.317 415.262, 462 408.719, 462 404 C 462 399.281, 461.316 392.794, 460.480 389.584 C 459.644 386.374, 457.509 380.767, 455.735 377.124 C 453.540 372.615, 450.115 368.095, 445.005 362.966 C 440.532 358.476, 435.031 354.139, 431.387 352.231 C 428.025 350.470, 422.625 348.385, 419.387 347.598 C 416.149 346.811, 410.800 345.956, 407.500 345.697 C 404.200 345.439, 398.643 345.640, 395.151 346.146 M 177.462 375.750 C 177.834 376.712, 179.078 380.200, 180.226 383.500 C 181.740 387.850, 182.442 392.869, 182.778 401.750 L 183.241 414 261.871 413.999 L 340.500 413.997 340.563 402.249 C 340.618 392.146, 341.003 389.439, 343.313 382.925 C 344.791 378.758, 346 375.046, 346 374.675 C 346 374.304, 307.927 374, 261.393 374 C 181.224 374, 176.821 374.092, 177.462 375.750" stroke="none" fill="#db0600" fill-rule="evenodd"/></svg>