<svg xmlns="http://www.w3.org/2000/svg" width="512" height="512" viewBox="0 0 512 512" version="1.1"><path d="" stroke="none" fill="#db0600" fill-rule="evenodd"/><path d="M 134.095 71.727 C 126.733 83.097, 120.526 93.097, 120.303 93.950 C 120.081 94.802, 122.611 120.925, 125.927 152 C 129.243 183.075, 132.233 210.637, 132.572 213.250 L 133.188 218 147.862 218 L 162.536 218 169.187 155.930 L 175.837 93.859 162.816 73.680 C 155.654 62.581, 149.274 52.950, 148.638 52.277 C 147.748 51.335, 144.410 55.799, 134.095 71.727 M 238 52.360 C 235.525 53.034, 231.378 54.650, 228.785 55.952 C 226.192 57.254, 222.200 60.116, 219.914 62.313 C 217.629 64.509, 214.080 68.903, 212.029 72.076 C 209.979 75.249, 207.299 80.959, 206.075 84.766 C 204.851 88.572, 203.996 93.016, 204.175 94.640 L 204.500 97.593 227.316 92.367 L 250.132 87.141 266.816 90.997 C 275.992 93.118, 286.300 95.424, 289.722 96.121 C 293.145 96.818, 296.162 97.171, 296.429 96.905 C 296.695 96.639, 296.277 93.385, 295.501 89.674 C 294.724 85.963, 292.667 80.039, 290.930 76.509 C 289.192 72.980, 286.241 68.305, 284.372 66.121 C 282.503 63.937, 278.842 60.588, 276.236 58.678 C 273.631 56.768, 268.613 54.259, 265.085 53.103 C 260.588 51.629, 256.252 51.020, 250.585 51.067 C 246.138 51.105, 240.475 51.686, 238 52.360 M 224.602 97.558 C 212.008 100.485, 200.459 103.396, 198.938 104.026 C 197.416 104.656, 195.720 106.370, 195.167 107.836 C 194.615 109.301, 193.900 113.064, 193.579 116.197 C 193.230 119.597, 193.452 122.897, 194.127 124.380 C 194.750 125.747, 196.439 127.326, 197.880 127.890 C 199.321 128.454, 211.690 132.120, 225.366 136.037 L 250.232 143.159 275.366 135.954 C 289.190 131.990, 301.706 128.135, 303.179 127.385 C 304.653 126.635, 306.157 125.080, 306.522 123.929 C 306.888 122.778, 306.873 118.716, 306.490 114.902 C 306.073 110.753, 305.107 107.118, 304.084 105.855 C 302.720 104.171, 297.220 102.555, 276.937 97.880 C 262.947 94.654, 250.600 92.065, 249.500 92.125 C 248.400 92.186, 237.196 94.630, 224.602 97.558 M 200.625 137.125 C 200.281 138.844, 200 141.791, 200 143.675 C 200 145.558, 200.675 148.404, 201.499 149.998 C 202.323 151.592, 204.461 153.975, 206.249 155.292 C 208.037 156.610, 218.346 162.483, 229.157 168.344 C 239.968 174.205, 249.340 179, 249.982 179 C 250.624 179, 260.454 173.983, 271.825 167.851 C 283.196 161.719, 293.352 156.119, 294.394 155.406 C 295.436 154.693, 297.120 152.848, 298.137 151.305 C 299.507 149.228, 299.989 146.617, 299.993 141.250 C 299.998 136.521, 299.607 134, 298.869 134 C 298.248 134, 287.680 136.955, 275.386 140.566 C 263.092 144.178, 251.788 147.137, 250.266 147.143 C 248.745 147.149, 237.413 144.194, 225.085 140.577 C 212.756 136.959, 202.350 134, 201.960 134 C 201.569 134, 200.969 135.406, 200.625 137.125 M 203.762 174.934 C 192.907 176.973, 183.731 178.936, 183.372 179.295 C 183.013 179.654, 185.264 201.222, 188.373 227.224 C 191.483 253.226, 194.286 276.188, 194.602 278.250 L 195.176 282 211.695 282 C 225.851 282, 228.133 281.789, 227.647 280.523 C 227.336 279.711, 226.555 275.099, 225.912 270.273 C 225.270 265.448, 225.010 258.125, 225.335 254 C 225.660 249.875, 226.840 242.900, 227.957 238.500 C 229.074 234.100, 231.813 226.786, 234.044 222.248 C 236.274 217.709, 240.725 210.734, 243.933 206.748 C 247.142 202.761, 251.966 197.649, 254.652 195.386 C 257.339 193.123, 262.115 189.622, 265.267 187.606 C 268.418 185.590, 274.317 182.611, 278.375 180.986 C 282.434 179.361, 288.134 177.521, 291.042 176.898 C 294.482 176.160, 295.835 175.497, 294.915 175.001 C 294.137 174.582, 289.360 173.541, 284.300 172.688 L 275.101 171.137 263.174 177.568 C 256.613 181.106, 250.683 184, 249.995 184 C 249.307 184, 243.426 181.075, 236.926 177.500 C 230.426 173.925, 224.745 171.051, 224.304 171.113 C 223.862 171.175, 214.618 172.895, 203.762 174.934 M 297.500 179.952 C 294.750 180.413, 289.050 181.903, 284.833 183.262 C 280.617 184.622, 274.317 187.336, 270.833 189.294 C 267.350 191.251, 262.243 194.798, 259.484 197.176 C 256.725 199.554, 252.638 203.525, 250.402 206 C 248.166 208.475, 244.883 212.647, 243.106 215.270 C 241.329 217.894, 238.564 222.844, 236.961 226.270 C 235.358 229.697, 233.095 236.100, 231.932 240.500 C 230.408 246.271, 229.811 251.565, 229.792 259.500 C 229.775 266.190, 230.399 273.243, 231.385 277.500 C 232.276 281.350, 234.206 287.425, 235.673 291 C 237.141 294.575, 240.316 300.592, 242.730 304.372 C 245.143 308.151, 249.444 313.704, 252.288 316.711 C 255.132 319.718, 261.068 324.556, 265.479 327.463 C 269.891 330.369, 276.503 333.929, 280.173 335.374 C 283.843 336.820, 289.693 338.737, 293.173 339.636 C 296.756 340.561, 303.836 341.314, 309.500 341.371 C 315 341.427, 322.650 340.862, 326.500 340.116 C 330.350 339.370, 336.875 337.396, 341 335.731 C 345.125 334.065, 351.467 330.757, 355.092 328.379 C 358.718 326.001, 364.692 321.048, 368.368 317.372 C 372.044 313.697, 377.076 307.441, 379.551 303.471 C 382.025 299.501, 385.162 293.413, 386.522 289.944 C 387.882 286.474, 389.671 280.361, 390.497 276.360 C 391.324 272.358, 392 264.848, 392 259.670 C 392 253.030, 391.293 247.471, 389.601 240.800 C 388.282 235.599, 385.754 228.454, 383.983 224.922 C 382.213 221.390, 378.845 215.800, 376.499 212.500 C 374.154 209.200, 369.565 203.960, 366.303 200.856 C 363.041 197.753, 357.902 193.633, 354.884 191.703 C 351.866 189.772, 346.720 187.067, 343.448 185.691 C 340.177 184.315, 334.800 182.454, 331.500 181.554 C 328.200 180.655, 320.325 179.738, 314 179.516 C 307.675 179.295, 300.250 179.491, 297.500 179.952 M 174.142 186.545 L 169.921 190.500 168.352 204.300 L 166.782 218.100 170.481 221.300 C 173.233 223.680, 174.402 225.653, 175.046 229 C 175.523 231.475, 175.932 237.475, 175.956 242.334 L 176 251.168 180.250 247.906 C 182.588 246.112, 184.850 244.352, 185.277 243.995 C 185.705 243.638, 184.455 230.105, 182.499 213.923 C 180.544 197.740, 178.813 184.070, 178.654 183.545 C 178.494 183.019, 176.464 184.369, 174.142 186.545 M 302.820 201.125 C 299.146 201.593, 293.610 202.922, 290.517 204.080 C 287.423 205.237, 281.538 208.428, 277.438 211.170 C 273.337 213.913, 267.893 218.709, 265.340 221.828 C 262.786 224.948, 259.212 230.650, 257.396 234.500 C 255.580 238.350, 253.347 245.268, 252.432 249.872 C 251.296 255.591, 250.985 260.187, 251.448 264.372 C 251.822 267.743, 252.600 272.525, 253.179 275 C 253.757 277.475, 255.853 282.875, 257.837 287 C 260.504 292.545, 263.407 296.459, 268.972 302.015 C 274.312 307.346, 278.680 310.621, 284 313.284 C 288.125 315.349, 294.650 317.697, 298.500 318.502 C 302.350 319.307, 307.975 319.965, 311 319.965 C 314.025 319.965, 319.650 319.304, 323.500 318.496 C 327.350 317.687, 333.783 315.410, 337.796 313.435 C 342.008 311.363, 347.715 307.384, 351.296 304.023 C 354.708 300.821, 359.010 295.694, 360.855 292.629 C 362.700 289.565, 365.293 284.375, 366.617 281.097 C 367.941 277.819, 369.504 271.571, 370.091 267.214 C 370.944 260.871, 370.851 257.521, 369.624 250.407 C 368.553 244.201, 366.832 238.983, 363.915 233.097 C 360.893 226.998, 357.912 222.850, 353.120 218.075 C 349.055 214.025, 343.751 210.041, 339.376 207.751 C 335.457 205.701, 329.607 203.383, 326.376 202.600 C 323.144 201.818, 318.025 200.974, 315 200.726 C 311.975 200.478, 306.494 200.658, 302.820 201.125 M 297.782 206.553 C 294.637 207.315, 289.455 209.256, 286.267 210.865 C 283.079 212.475, 278.305 215.581, 275.659 217.767 C 273.013 219.954, 268.868 224.388, 266.449 227.621 C 264.029 230.855, 260.859 236.650, 259.404 240.500 C 257.468 245.623, 256.622 250.082, 256.251 257.132 C 255.938 263.076, 256.218 268.820, 256.981 272.132 C 257.662 275.084, 259.718 280.672, 261.550 284.549 C 263.543 288.766, 267.216 294.089, 270.691 297.796 C 273.886 301.204, 279.200 305.586, 282.500 307.533 C 285.800 309.480, 291.425 312.005, 295 313.145 C 299.426 314.556, 304.212 315.224, 310 315.239 C 314.907 315.252, 321.247 314.536, 325 313.546 C 328.575 312.603, 334.139 310.429, 337.365 308.715 C 340.591 307.001, 345.409 303.640, 348.072 301.245 C 350.735 298.851, 354.746 294.104, 356.985 290.696 C 359.224 287.288, 362.227 280.771, 363.658 276.213 C 365.964 268.866, 366.202 266.767, 365.756 257.713 C 365.375 249.982, 364.609 245.799, 362.602 240.500 C 361.144 236.650, 357.971 230.855, 355.551 227.621 C 353.132 224.388, 348.987 219.954, 346.341 217.767 C 343.695 215.581, 338.940 212.484, 335.775 210.887 C 332.610 209.289, 327.203 207.317, 323.760 206.506 C 320.317 205.694, 314.350 205.060, 310.500 205.098 C 306.650 205.136, 300.927 205.790, 297.782 206.553 M 126.924 225.581 C 124.597 228.058, 124.500 228.720, 124.500 242.167 L 124.500 256.173 127.306 258.587 C 130.045 260.943, 130.534 261, 147.967 261 L 165.822 261 168.411 257.923 C 170.894 254.973, 171 254.335, 171 242.358 C 171 234.781, 170.542 229.009, 169.837 227.684 C 169.197 226.483, 167.959 224.952, 167.087 224.282 C 165.978 223.431, 160.055 223.054, 147.424 223.032 L 129.349 223 126.924 225.581 M 193.990 287.250 C 193.985 287.938, 191.510 306.500, 188.491 328.500 C 185.471 350.500, 183.001 369.288, 183.001 370.250 C 183 371.899, 186.881 372, 250.512 372 L 318.024 372 317.435 368.250 C 317.111 366.188, 316.318 360.450, 315.673 355.500 L 314.500 346.500 306 345.741 C 301.325 345.323, 293.900 344.061, 289.500 342.936 C 285.100 341.810, 278.354 339.452, 274.509 337.695 C 270.664 335.938, 264.067 331.944, 259.849 328.821 C 255.631 325.698, 249.193 319.641, 245.541 315.361 C 241.828 311.009, 237.021 303.818, 234.631 299.040 C 232.281 294.343, 230.095 289.488, 229.773 288.250 C 229.194 286.024, 228.999 286, 211.594 286 C 198.191 286, 193.998 286.298, 193.990 287.250 M 202 376.750 C 202.001 377.163, 203.351 395.655, 205 417.843 C 206.650 440.032, 208 458.820, 208 459.593 C 208 460.732, 210.536 461, 221.288 461 L 234.576 461 236.870 424.750 C 238.132 404.813, 239.418 385.688, 239.727 382.250 L 240.289 376 221.145 376 C 210.615 376, 202 376.337, 202 376.750 M 260.530 380.250 C 260.801 382.587, 261.920 399.125, 263.016 417 C 264.112 434.875, 265.276 452.087, 265.603 455.250 L 266.196 461 279.037 461 L 291.877 461 292.421 456.750 C 292.721 454.413, 294.102 436.750, 295.490 417.500 C 296.879 398.250, 298.012 381.038, 298.008 379.250 L 298 376 279.019 376 L 260.038 376 260.530 380.250" stroke="none" fill="#db0600" fill-rule="evenodd"/></svg>