<svg xmlns="http://www.w3.org/2000/svg" width="512" height="512" viewBox="0 0 512 512" version="1.1"><path d="" stroke="none" fill="#db0600" fill-rule="evenodd"/><path d="M 198 52.413 C 193.325 53.138, 187.697 54.280, 185.494 54.951 C 183.290 55.622, 180.640 56.790, 179.604 57.548 C 178.032 58.697, 176.009 68.733, 167.378 118.213 C 161.689 150.821, 157.027 178.434, 157.018 179.576 C 157.008 180.717, 158.050 182.637, 159.332 183.842 C 160.615 185.047, 164.103 186.887, 167.082 187.931 C 170.062 188.974, 175.875 190.518, 180 191.361 C 184.125 192.204, 192.160 193.368, 197.856 193.947 C 203.552 194.526, 209.514 195, 211.106 195 L 214 195 214 163 L 214 131 205 131 L 196 131 196 119 L 196 107 225 107 L 254 107 254 118.962 L 254 130.925 244.750 131.212 L 235.500 131.500 235.235 162.435 C 235.087 179.716, 235.366 193.766, 235.866 194.266 C 236.393 194.793, 242.260 194.696, 250.131 194.030 C 257.484 193.408, 267.367 192.057, 272.094 191.028 C 276.821 189.999, 282.802 188.163, 285.386 186.949 C 288.043 185.700, 290.652 183.603, 291.394 182.120 C 292.553 179.807, 291.497 172.650, 282.377 121 C 276.696 88.825, 271.826 61.578, 271.555 60.450 C 271.284 59.323, 269.420 57.617, 267.413 56.660 C 265.406 55.703, 260.779 54.234, 257.132 53.397 C 252.657 52.369, 243.346 51.747, 228.500 51.484 C 213.428 51.217, 203.823 51.509, 198 52.413 M 200 119 L 200 127 207.066 127 C 210.952 127, 215.002 127.466, 216.066 128.035 C 217.920 129.027, 218 130.477, 218 162.913 C 218 192.129, 217.790 196.929, 216.464 198.030 C 215.305 198.992, 211.868 199.150, 202.476 198.674 C 195.628 198.327, 185.406 197.105, 179.762 195.958 C 174.118 194.811, 166.894 192.707, 163.708 191.281 C 160.523 189.856, 156.808 187.372, 155.454 185.763 C 154.099 184.153, 152.656 182.986, 152.246 183.168 C 151.836 183.351, 149.827 184.625, 147.781 186 C 145.648 187.435, 143.856 189.565, 143.577 191 C 143.309 192.375, 140.083 220.832, 136.408 254.238 L 129.726 314.976 138.109 359.988 L 146.491 405 178.245 405 L 210 405 210 353.516 L 210 302.032 182.750 301.766 L 155.500 301.500 155.223 287.250 L 154.945 273 182.455 273 L 209.966 273 210.233 247.750 L 210.500 222.500 224.733 222.223 L 238.966 221.945 239.233 247.223 L 239.500 272.500 245.905 272.500 L 252.309 272.500 252.123 258.500 C 252.020 250.800, 252.382 239.973, 252.926 234.441 C 253.471 228.908, 254.194 223.658, 254.533 222.774 C 254.935 221.727, 257.824 220.587, 262.825 219.503 C 267.046 218.588, 274.100 216.745, 278.500 215.409 C 282.900 214.073, 290.325 211.305, 295 209.259 C 299.675 207.213, 306.391 203.955, 309.925 202.019 C 313.459 200.084, 316.476 198.050, 316.629 197.500 C 316.782 196.950, 312.404 193.231, 306.901 189.236 L 296.895 181.971 294.218 185.152 C 292.746 186.902, 288.832 189.558, 285.521 191.056 C 282.209 192.554, 275.900 194.483, 271.500 195.343 C 267.100 196.203, 259.450 197.376, 254.500 197.951 C 249.550 198.525, 242.703 198.996, 239.285 198.997 C 234.162 199, 232.888 198.660, 232.035 197.066 C 231.384 195.849, 231 183.326, 231 163.288 C 231 136.086, 231.227 131.121, 232.557 129.223 C 233.928 127.264, 234.999 127, 241.557 127 L 249 127 249 119 L 249 111 224.500 111 L 200 111 200 119 M 352.966 176.333 C 349.922 179.175, 343.172 184.727, 337.966 188.670 C 332.760 192.614, 324.900 198.029, 320.500 200.705 C 316.100 203.380, 308.147 207.666, 302.827 210.229 C 297.507 212.792, 289.407 216.207, 284.827 217.817 C 280.247 219.427, 272.839 221.531, 268.365 222.492 C 263.891 223.453, 259.666 224.588, 258.976 225.015 C 258.213 225.487, 257.353 229.843, 256.780 236.145 C 256.262 241.840, 256.101 253.942, 256.423 263.037 C 256.744 272.132, 257.669 285.235, 258.479 292.153 C 259.288 299.071, 261.123 310.287, 262.557 317.077 C 263.990 323.867, 266.736 334.615, 268.657 340.961 C 270.579 347.307, 274.413 358.004, 277.177 364.731 C 279.941 371.458, 285.476 382.572, 289.478 389.429 C 293.479 396.286, 298.475 404.282, 300.580 407.198 C 302.684 410.114, 307.936 416.642, 312.250 421.705 C 316.565 426.767, 323.111 433.696, 326.797 437.102 C 330.484 440.508, 337.942 446.620, 343.371 450.684 C 348.800 454.748, 354.545 458.748, 356.139 459.572 C 358.903 461.001, 359.256 460.921, 363.769 457.851 C 366.371 456.081, 372.100 451.912, 376.500 448.588 C 380.900 445.263, 389.261 437.758, 395.081 431.910 C 400.900 426.061, 409.007 416.827, 413.096 411.388 C 417.185 405.950, 423.134 397.129, 426.315 391.787 C 429.496 386.444, 434.503 376.769, 437.440 370.287 C 440.377 363.804, 444.878 351.975, 447.442 344 C 450.006 336.025, 453.415 322.975, 455.018 315 C 456.621 307.025, 458.623 293.875, 459.466 285.778 C 460.310 277.682, 460.997 264.407, 460.994 256.278 C 460.991 248.150, 460.701 237.810, 460.350 233.299 L 459.711 225.098 450.106 222.921 C 444.823 221.724, 436.677 219.400, 432.004 217.757 C 427.331 216.114, 418.678 212.348, 412.776 209.387 C 406.873 206.427, 399.041 202.167, 395.371 199.921 C 391.700 197.674, 386.178 193.979, 383.099 191.709 C 380.019 189.438, 374.575 185.094, 371 182.055 C 367.425 179.016, 364.271 176.297, 363.991 176.014 C 363.712 175.732, 362.362 174.525, 360.991 173.333 L 358.500 171.165 352.966 176.333 M 93.798 178.931 C 90.661 179.934, 86.093 181.927, 83.647 183.361 C 81.200 184.795, 77.359 188.057, 75.112 190.610 C 72.865 193.163, 69.911 197.610, 68.547 200.491 C 67.184 203.373, 65.562 207.929, 64.944 210.615 C 64.325 213.302, 63.843 219.775, 63.874 225 C 63.911 231.322, 64.637 237.175, 66.043 242.494 C 67.205 246.891, 68.331 250.664, 68.545 250.878 C 68.759 251.092, 83.461 236.973, 101.217 219.504 C 118.973 202.034, 133.500 187.236, 133.500 186.620 C 133.500 186.004, 130.886 184.233, 127.691 182.686 C 124.497 181.138, 118.872 179.233, 115.191 178.453 C 111.511 177.673, 106.475 177.051, 104 177.071 C 101.525 177.091, 96.934 177.928, 93.798 178.931 M 104.537 222.420 L 70.573 255.659 73.537 259.201 C 75.167 261.150, 87.300 274.479, 100.500 288.822 C 119.135 309.071, 124.654 314.521, 125.187 313.200 C 125.566 312.265, 128.820 284.080, 132.420 250.566 C 136.020 217.052, 138.861 189.531, 138.733 189.407 C 138.605 189.283, 123.217 204.139, 104.537 222.420 M 344 247.473 L 344 273 316.473 273 L 288.945 273 289.223 287.250 L 289.500 301.500 316.741 301.766 L 343.983 302.032 344.241 356.766 L 344.500 411.500 358.500 411.500 L 372.500 411.500 372.759 356.750 L 373.017 302 398.927 302 C 413.177 302, 425.548 301.727, 426.418 301.393 C 427.756 300.880, 428 298.639, 428 286.893 L 428 273 400.517 273 L 373.034 273 372.767 247.750 L 372.500 222.500 358.250 222.223 L 344 221.945 344 247.473 M 214.767 251.250 L 214.500 276.500 186.750 276.766 L 159 277.032 159 287 L 159 296.968 186.250 297.234 L 213.500 297.500 213.759 351.250 L 214.017 405 224.500 405 L 234.983 405 235.241 351.250 L 235.500 297.500 245.306 297.213 C 254.019 296.958, 255.055 296.735, 254.609 295.213 C 254.332 294.271, 253.799 289.788, 253.424 285.250 L 252.742 277 243.871 277 L 235 277 235 251.500 L 235 226 225.017 226 L 215.034 226 214.767 251.250 M 348 251.465 L 348 277 320.500 277 L 293 277 293 286.984 L 293 296.968 320.250 297.234 L 347.500 297.500 347.759 352.250 L 348.017 407 358.500 407 L 368.983 407 369.241 352.250 L 369.500 297.500 396.750 297.234 L 424 296.968 424 286.984 L 424 277 396.517 277 L 369.034 277 368.767 251.750 L 368.500 226.500 358.250 226.215 L 348 225.930 348 251.465 M 60.124 313.298 L 50.821 364.595 57.150 412.798 L 63.478 461 82.739 461 L 102 461 101.990 458.250 C 101.984 456.738, 100.861 435.072, 99.494 410.105 L 97.009 364.710 109.489 342.901 C 116.354 330.905, 122.089 320.645, 122.235 320.099 C 122.381 319.554, 110.800 306.293, 96.500 290.632 C 82.200 274.970, 70.258 262.121, 69.963 262.078 C 69.668 262.035, 65.240 285.084, 60.124 313.298 M 239 353.500 L 239 405 266.615 405 L 294.230 405 292.771 402.750 C 291.969 401.512, 289.224 396.867, 286.671 392.427 C 284.118 387.988, 279.496 379.025, 276.400 372.511 C 273.304 365.997, 268.612 354.105, 265.974 346.084 C 263.336 338.063, 260.012 325.823, 258.589 318.885 C 257.165 311.947, 256 305.310, 256 304.135 C 256 302.122, 255.513 302, 247.500 302 L 239 302 239 353.500 M 134.741 434.505 C 127.733 448.533, 122 460.233, 122 460.505 C 122 460.777, 168.125 461, 224.500 461 C 280.875 461, 327 460.770, 327 460.489 C 327 460.209, 322.999 451.996, 318.110 442.239 C 312.111 430.270, 307.203 421.979, 303.020 416.750 L 296.821 409 222.151 409 L 147.482 409 134.741 434.505" stroke="none" fill="#db0600" fill-rule="evenodd"/></svg>