<svg xmlns="http://www.w3.org/2000/svg" width="512" height="512" viewBox="0 0 512 512" version="1.1"><path d="" stroke="none" fill="#495057" fill-rule="evenodd"/><path d="M 498.174 8.314 C 496.663 9.923, 496 11.894, 496 14.780 C 496 17.996, 496.698 19.726, 499.104 22.465 C 501.493 25.186, 502.976 26, 505.547 26 C 507.864 26, 509.363 25.320, 510.443 23.777 C 511.299 22.555, 512 20.058, 512 18.228 C 512 16.398, 511.328 13.600, 510.506 12.011 C 509.684 10.422, 508.009 8.419, 506.783 7.561 C 505.558 6.702, 503.609 6, 502.452 6 C 501.295 6, 499.370 7.042, 498.174 8.314 M 383.500 77.024 L 279.500 139.860 279.218 151.430 C 279.063 157.794, 279.155 163, 279.422 163 C 279.689 163, 328.640 133.700, 388.203 97.888 C 447.767 62.076, 496.676 32.613, 496.890 32.414 C 497.105 32.216, 495.667 30.266, 493.694 28.083 C 491.719 25.897, 489.610 22.178, 489 19.807 C 488.391 17.438, 487.804 15.204, 487.696 14.843 C 487.588 14.482, 440.700 42.463, 383.500 77.024 M 253 31.500 L 253 47 262.500 47 L 272 47 272 31.500 L 272 16 262.500 16 L 253 16 253 31.500 M 253 61 C 253 67, 253 67, 262.500 67 C 272 67, 272 67, 272 61 C 272 55, 272 55, 262.500 55 C 253 55, 253 55, 253 61 M 253.703 74.631 C 253.316 75.017, 253 161.883, 253 267.667 L 253 460 262.503 460 L 272.005 460 271.753 267.250 L 271.500 74.500 262.953 74.214 C 258.252 74.057, 254.089 74.244, 253.703 74.631 M 130.966 229.542 C 68.560 267.240, 13.575 300.427, 8.778 303.292 C 0.057 308.500, 0.057 308.500, 0.028 313.615 C 0.008 317.243, 0.580 319.467, 1.994 321.265 C 3.091 322.659, 5.257 324.242, 6.807 324.783 C 9.389 325.683, 11.596 324.575, 33.011 311.633 C 56.394 297.500, 56.394 297.500, 58.258 287.500 C 59.283 282, 60.667 276.943, 61.333 276.263 C 62.266 275.311, 65.817 275.231, 76.754 275.916 L 90.964 276.806 166.930 231.069 C 208.711 205.913, 243.594 184.752, 244.448 184.043 C 245.677 183.023, 246 180.489, 246 171.878 C 246 165.895, 245.647 161, 245.216 161 C 244.785 161, 193.372 191.844, 130.966 229.542 M 242.595 212.750 C 241.619 214.813, 238.292 220.310, 235.202 224.967 C 232.112 229.624, 225.740 237.305, 221.042 242.037 C 216.344 246.769, 209.125 253.013, 205 255.913 C 200.875 258.813, 193.584 263.162, 188.799 265.578 C 184.013 267.994, 177.713 270.886, 174.799 272.004 C 171.884 273.122, 165.450 275.143, 160.500 276.494 C 155.550 277.845, 145.650 279.954, 138.500 281.180 C 127.140 283.127, 121.809 283.414, 96.238 283.454 C 71.113 283.494, 66.915 283.712, 66.544 285 C 66.306 285.825, 65.617 289.200, 65.013 292.500 C 64.408 295.800, 63.643 303.941, 63.312 310.591 L 62.711 322.681 76.106 323.316 C 83.472 323.666, 94.900 323.545, 101.500 323.048 C 108.100 322.551, 116.875 321.626, 121 320.993 C 125.125 320.359, 132.100 318.940, 136.500 317.839 C 140.900 316.738, 148.775 314.243, 154 312.294 C 159.225 310.345, 166.538 307.225, 170.251 305.362 C 173.964 303.498, 179.589 300.335, 182.751 298.333 C 185.913 296.330, 192.147 291.863, 196.604 288.406 C 201.061 284.949, 208.423 278.155, 212.963 273.310 C 217.504 268.464, 224.367 260.208, 228.214 254.963 C 232.061 249.718, 237.637 241.185, 240.604 236.001 C 246 226.575, 246 226.575, 246 217.788 C 246 212.954, 245.633 209, 245.185 209 C 244.737 209, 243.572 210.688, 242.595 212.750 M 279 217.910 C 279 226.515, 279.143 227.073, 283.152 234.160 C 285.435 238.197, 289.236 244.425, 291.598 248 C 293.960 251.575, 298.795 258.115, 302.343 262.533 C 305.891 266.952, 313.132 274.714, 318.434 279.782 C 323.735 284.851, 332.012 291.646, 336.826 294.883 C 341.640 298.120, 349.611 302.793, 354.539 305.268 C 359.468 307.743, 367.441 311.159, 372.258 312.859 C 377.075 314.559, 383.817 316.675, 387.240 317.562 C 390.664 318.449, 397.073 319.825, 401.482 320.619 C 405.892 321.413, 415.575 322.489, 423 323.011 C 430.425 323.534, 442.238 323.675, 449.250 323.326 C 462 322.692, 462 322.692, 461.983 317.596 C 461.973 314.793, 461.523 308.225, 460.983 303 C 460.443 297.775, 459.528 291.183, 458.951 288.352 C 457.900 283.204, 457.900 283.204, 435.700 283.735 C 421.794 284.068, 408.830 283.818, 401 283.064 C 394.125 282.402, 383.100 280.736, 376.500 279.360 C 369.900 277.985, 360.523 275.536, 355.662 273.919 C 350.801 272.302, 343.428 269.410, 339.278 267.493 C 335.128 265.576, 328.053 261.558, 323.555 258.566 C 319.058 255.573, 312.062 250.059, 308.010 246.312 C 303.958 242.565, 298.120 236.330, 295.037 232.456 C 291.954 228.582, 287.267 221.720, 284.621 217.206 C 281.975 212.693, 279.628 209, 279.405 209 C 279.182 209, 279 213.010, 279 217.910 M 242.259 247.750 C 241.099 249.813, 237.315 255.325, 233.850 260 C 230.384 264.675, 223.263 272.949, 218.024 278.386 C 212.786 283.823, 204.471 291.397, 199.546 295.218 C 194.621 299.038, 186.819 304.392, 182.209 307.115 C 177.599 309.838, 169.124 314.075, 163.378 316.529 C 157.631 318.984, 147.882 322.332, 141.714 323.969 C 135.547 325.606, 126.225 327.727, 121 328.681 C 113.722 330.012, 105.811 330.427, 87.181 330.459 C 62.862 330.500, 62.862 330.500, 63.511 336.500 C 63.868 339.800, 65.030 346.873, 66.092 352.217 C 67.155 357.561, 68.458 363.074, 68.987 364.467 C 69.897 366.860, 70.354 366.999, 77.225 366.984 C 81.226 366.975, 89.861 366.524, 96.414 365.981 C 102.967 365.439, 113.542 363.910, 119.914 362.585 C 126.286 361.259, 136 358.542, 141.500 356.546 C 147 354.550, 155.195 351.131, 159.711 348.949 C 164.227 346.766, 172.559 341.880, 178.226 338.091 C 183.892 334.302, 192.347 327.855, 197.014 323.766 C 201.681 319.676, 208.271 313.358, 211.659 309.726 C 215.046 306.094, 220.446 299.832, 223.659 295.811 C 226.871 291.790, 233.213 282.912, 237.750 276.081 C 246 263.662, 246 263.662, 246 253.831 C 246 248.424, 245.633 244, 245.184 244 C 244.735 244, 243.419 245.688, 242.259 247.750 M 279 253.776 C 279 263.552, 279 263.552, 283.457 270.714 C 285.909 274.653, 289.604 280.266, 291.669 283.188 C 293.735 286.110, 298.282 292.100, 301.775 296.500 C 305.268 300.900, 311.854 308.353, 316.410 313.061 C 320.967 317.770, 328.026 324.328, 332.098 327.635 C 336.169 330.943, 342.238 335.493, 345.583 337.748 C 348.929 340.003, 355.981 344.154, 361.255 346.971 C 366.528 349.789, 376.390 354.049, 383.171 356.438 C 389.952 358.828, 400.148 361.744, 405.829 362.920 C 411.509 364.095, 422.084 365.521, 429.329 366.088 C 436.573 366.656, 445.397 366.981, 448.938 366.810 C 455.377 366.500, 455.377 366.500, 456.676 361.500 C 457.391 358.750, 458.621 352.900, 459.409 348.500 C 460.198 344.100, 461.074 338.201, 461.358 335.392 C 461.872 330.283, 461.872 330.283, 445.544 330.778 C 436.318 331.058, 423.622 330.752, 416.358 330.075 C 409.286 329.416, 399.225 327.958, 394 326.834 C 388.775 325.710, 379.847 323.268, 374.161 321.408 C 368.474 319.547, 359.249 315.795, 353.661 313.070 C 348.072 310.344, 340.257 305.951, 336.294 303.307 C 332.330 300.663, 325.218 295.417, 320.488 291.649 C 315.758 287.881, 307.832 280.231, 302.876 274.649 C 297.919 269.067, 290.722 259.887, 286.882 254.250 C 283.041 248.613, 279.697 244, 279.450 244 C 279.202 244, 279 248.399, 279 253.776 M 240.854 285.247 C 239.009 288.133, 234.093 294.771, 229.929 299.997 C 225.766 305.224, 218.329 313.550, 213.403 318.500 C 208.478 323.451, 200.635 330.567, 195.974 334.315 C 191.313 338.063, 183.450 343.655, 178.500 346.740 C 173.550 349.826, 165 354.470, 159.500 357.061 C 154 359.652, 144.482 363.386, 138.350 365.360 C 132.217 367.333, 121.909 369.895, 115.443 371.052 C 108.978 372.210, 97.901 373.508, 90.830 373.937 C 83.758 374.366, 76.854 374.503, 75.486 374.242 C 73.948 373.948, 73 374.227, 73 374.975 C 73 375.639, 75.021 380.079, 77.490 384.841 C 79.960 389.604, 83.046 394.824, 84.348 396.441 C 86.717 399.383, 86.717 399.383, 96.420 398.113 C 101.757 397.415, 110.483 395.786, 115.812 394.492 C 121.140 393.199, 129.775 390.716, 135 388.975 C 140.225 387.234, 147.875 384.328, 152 382.518 C 156.125 380.708, 163.828 376.768, 169.117 373.762 C 174.406 370.756, 183.181 364.997, 188.617 360.965 C 194.053 356.933, 203.160 349.104, 208.855 343.567 C 214.550 338.030, 222.259 329.675, 225.986 325 C 229.712 320.325, 235.740 312.101, 239.380 306.725 C 246 296.950, 246 296.950, 246 288.475 C 246 283.814, 245.597 280, 245.104 280 C 244.612 280, 242.699 282.361, 240.854 285.247 M 279 288.481 C 279 296.520, 279.190 297.261, 282.652 302.731 C 284.661 305.904, 290.153 313.624, 294.857 319.887 C 299.560 326.150, 307.705 335.615, 312.955 340.921 C 318.205 346.227, 325.685 353.098, 329.579 356.190 C 333.472 359.282, 340.897 364.602, 346.079 368.012 C 351.260 371.422, 360.513 376.645, 366.639 379.619 C 372.766 382.594, 383.116 386.776, 389.639 388.914 C 396.163 391.052, 406.675 393.946, 413 395.344 C 419.325 396.743, 427.690 398.188, 431.589 398.557 C 438.678 399.227, 438.678 399.227, 442.694 392.863 C 444.902 389.363, 447.617 384.700, 448.726 382.500 C 449.836 380.300, 451.033 377.561, 451.387 376.414 C 452.011 374.392, 451.689 374.323, 440.765 374.156 C 434.569 374.061, 425.757 373.521, 421.183 372.955 C 416.608 372.390, 408.733 371.075, 403.683 370.033 C 398.632 368.991, 390.225 366.714, 385 364.973 C 379.775 363.232, 372.411 360.462, 368.636 358.817 C 364.861 357.173, 357.436 353.335, 352.136 350.288 C 346.836 347.241, 340.250 343.142, 337.500 341.178 C 334.750 339.214, 328.138 333.846, 322.807 329.249 C 317.475 324.651, 310.529 318.102, 307.371 314.695 C 304.213 311.288, 298.223 304.225, 294.060 299 C 289.897 293.775, 285.143 287.363, 283.495 284.752 C 281.848 282.140, 280.163 280.003, 279.750 280.002 C 279.337 280.001, 279 283.816, 279 288.481 M 237 323.238 C 232.875 328.852, 223.650 339.341, 216.500 346.546 C 209.350 353.751, 199.571 362.560, 194.768 366.121 C 189.966 369.683, 181.399 375.395, 175.729 378.814 C 170.060 382.234, 160.051 387.308, 153.486 390.090 C 146.921 392.872, 135.689 396.852, 128.525 398.934 C 121.361 401.016, 110.438 403.552, 104.250 404.570 C 98.063 405.587, 93 406.733, 93 407.116 C 93 407.499, 96.262 410.836, 100.250 414.530 C 104.237 418.225, 110.200 423.171, 113.500 425.522 C 116.800 427.872, 121.996 431.015, 125.046 432.506 C 130.592 435.217, 130.592 435.217, 143.186 429.543 C 150.113 426.423, 160.536 421.014, 166.348 417.523 C 172.161 414.032, 180.198 408.705, 184.208 405.686 C 188.219 402.667, 195.455 396.495, 200.289 391.971 C 205.123 387.447, 212.635 379.485, 216.981 374.278 C 221.328 369.070, 227.325 361.140, 230.308 356.655 C 233.290 352.170, 238.041 344.336, 240.865 339.248 C 245.916 330.146, 246 329.856, 246 321.498 C 246 316.824, 245.662 313.007, 245.250 313.015 C 244.838 313.022, 241.125 317.623, 237 323.238 M 279.014 321.750 C 279.027 330.087, 279.221 330.854, 283.115 338 C 285.363 342.125, 289.682 349.325, 292.714 354 C 295.745 358.675, 301.586 366.653, 305.692 371.729 C 309.799 376.805, 318.399 385.961, 324.803 392.077 C 331.998 398.948, 340.997 406.237, 348.357 411.157 C 354.908 415.536, 365.630 421.807, 372.183 425.092 C 378.737 428.377, 386.524 431.972, 389.487 433.081 C 394.875 435.097, 394.875 435.097, 399.688 432.638 C 402.334 431.286, 407.650 427.945, 411.500 425.215 C 415.350 422.485, 421.538 417.455, 425.250 414.037 C 428.962 410.619, 432 407.506, 432 407.119 C 432 406.732, 427.133 405.647, 421.183 404.707 C 415.234 403.768, 404.997 401.494, 398.433 399.656 C 391.870 397.817, 382.225 394.614, 377 392.539 C 371.775 390.463, 363.675 386.803, 359 384.406 C 354.325 382.008, 346.450 377.416, 341.500 374.201 C 336.550 370.986, 329.063 365.579, 324.862 362.187 C 320.661 358.794, 311.886 350.450, 305.362 343.646 C 298.838 336.841, 290.575 327.186, 287 322.190 C 283.425 317.194, 280.163 313.083, 279.750 313.053 C 279.337 313.024, 279.006 316.938, 279.014 321.750 M 240.671 354.467 C 238.565 358.005, 234.502 364.049, 231.643 367.897 C 228.784 371.746, 223.089 378.805, 218.987 383.583 C 214.885 388.361, 207.762 395.622, 203.158 399.719 C 198.554 403.815, 191.244 409.793, 186.915 413.003 C 182.585 416.214, 175.228 421.144, 170.567 423.960 C 165.905 426.776, 157.233 431.403, 151.295 434.242 L 140.500 439.404 148 441.776 C 152.125 443.080, 159.325 444.954, 164 445.939 C 172.500 447.731, 172.500 447.731, 179.468 444.243 C 183.300 442.325, 189.600 438.705, 193.468 436.200 C 197.336 433.695, 205.232 426.887, 211.014 421.072 C 217.043 415.010, 224.025 406.716, 227.379 401.630 C 230.597 396.751, 235.990 387.076, 239.365 380.130 C 245.417 367.670, 245.505 367.369, 245.844 357.750 C 246.033 352.387, 245.808 348.008, 245.344 348.017 C 244.880 348.027, 242.777 350.930, 240.671 354.467 M 279.159 358.250 C 279.500 368.500, 279.500 368.500, 285.668 381 C 289.061 387.875, 294.011 396.756, 296.668 400.736 C 299.326 404.716, 304.200 411.150, 307.500 415.033 C 310.800 418.917, 316.875 424.914, 321 428.359 C 325.125 431.804, 331.632 436.574, 335.459 438.959 C 339.286 441.344, 344.686 444.293, 347.459 445.514 C 352.500 447.732, 352.500 447.732, 362.500 445.442 C 368 444.182, 375.155 442.325, 378.399 441.315 C 384.298 439.479, 384.298 439.479, 370.554 432.727 C 362.995 429.013, 353.605 423.901, 349.689 421.367 C 345.772 418.833, 339.044 414.078, 334.738 410.801 C 330.433 407.523, 322.657 400.776, 317.458 395.806 C 312.260 390.836, 304.681 382.659, 300.616 377.635 C 296.552 372.611, 290.217 363.887, 286.538 358.250 C 282.860 352.613, 279.618 348, 279.334 348 C 279.050 348, 278.971 352.613, 279.159 358.250 M 242.951 390.119 C 242.240 391.835, 239.238 397.094, 236.280 401.806 C 233.322 406.518, 227.756 414.108, 223.912 418.673 C 220.068 423.238, 213.857 429.611, 210.111 432.835 C 206.365 436.059, 201.171 440.163, 198.567 441.954 C 195.964 443.745, 191.976 446.265, 189.706 447.555 C 187.016 449.083, 186.086 450.063, 187.038 450.368 C 187.842 450.625, 191.875 451.620, 196 452.580 C 200.125 453.540, 204.870 454.894, 206.544 455.590 C 209.306 456.737, 210.004 456.596, 214.077 454.061 C 216.546 452.524, 221.476 448.122, 225.033 444.278 C 229.008 439.983, 233.291 433.863, 236.148 428.395 C 238.704 423.503, 241.966 416.211, 243.398 412.190 C 245.462 406.393, 246 403.032, 246 395.940 C 246 391.023, 245.605 387, 245.121 387 C 244.638 387, 243.661 388.404, 242.951 390.119 M 279.027 396.750 C 279.052 405.694, 279.375 407.309, 282.935 416.288 C 285.070 421.671, 288.770 429.321, 291.158 433.288 C 293.546 437.254, 298.277 443.285, 301.671 446.689 C 305.065 450.093, 309.565 453.741, 311.671 454.796 C 314.976 456.452, 315.911 456.541, 318.500 455.447 C 320.150 454.751, 325.212 453.363, 329.750 452.365 C 334.288 451.366, 338 450.210, 338 449.795 C 338 449.380, 336.248 448.147, 334.107 447.055 C 331.966 445.962, 326.665 442.394, 322.326 439.125 C 317.988 435.856, 310.977 429.558, 306.746 425.129 C 302.514 420.700, 297.029 414.328, 294.556 410.969 C 292.083 407.609, 287.740 400.842, 284.905 395.930 C 282.071 391.019, 279.582 387, 279.376 387 C 279.169 387, 279.012 391.387, 279.027 396.750 M 242.588 432.750 C 241.607 434.813, 238.840 439.258, 236.439 442.628 C 234.038 445.998, 229.054 451.523, 225.363 454.904 C 221.639 458.317, 219.064 461.398, 219.576 461.829 C 220.084 462.256, 223.141 464.590, 226.369 467.016 C 229.597 469.442, 234.205 473.842, 236.610 476.794 C 239.015 479.747, 241.759 483.476, 242.707 485.081 C 243.655 486.686, 244.784 488, 245.216 488 C 245.647 488, 246 474.725, 246 458.500 C 246 442.275, 245.633 429, 245.185 429 C 244.737 429, 243.568 430.688, 242.588 432.750 M 279.056 458.750 C 279.111 488.500, 279.111 488.500, 281.306 485.597 C 282.513 484.001, 285.180 480.536, 287.234 477.897 C 289.287 475.259, 293.664 470.856, 296.960 468.113 C 300.256 465.370, 303.751 462.659, 304.726 462.089 C 306.324 461.154, 306.153 460.783, 303 458.344 C 301.075 456.855, 297.325 453.356, 294.667 450.568 C 292.009 447.781, 287.552 441.788, 284.763 437.250 C 281.973 432.712, 279.535 429, 279.345 429 C 279.155 429, 279.025 442.387, 279.056 458.750 M 253 473 C 253 478, 253 478, 262.500 478 C 272 478, 272 478, 272 473 C 272 468, 272 468, 262.500 468 C 253 468, 253 468, 253 473 M 253 496.038 C 253 506.075, 253 506.075, 262.250 505.788 C 271.500 505.500, 271.500 505.500, 271.786 495.750 C 272.072 486, 272.072 486, 262.536 486 C 253 486, 253 486, 253 496.038" stroke="none" fill="#040404" fill-rule="evenodd"/></svg>