<svg xmlns="http://www.w3.org/2000/svg" width="512" height="512" viewBox="0 0 512 512" version="1.1"><path d="" stroke="none" fill="#db0600" fill-rule="evenodd"/><path d="M 246.710 53.393 C 241.683 58.052, 231.391 81.347, 214.860 125.486 C 210.537 137.028, 207 147.071, 207 147.803 C 207 148.610, 207.689 148.922, 208.750 148.595 C 209.713 148.298, 215 147.266, 220.500 146.301 C 228.263 144.939, 236.206 144.543, 256 144.533 C 281.913 144.519, 286.809 144.979, 304.892 149.125 C 309.508 150.183, 313.475 150.859, 313.706 150.627 C 314.291 150.042, 299.054 97.663, 298.113 97.020 C 286.010 88.758, 274 79.524, 274 78.480 C 274 75.581, 276.092 76.171, 283.164 81.064 C 287.199 83.856, 292.870 87.752, 295.767 89.723 L 301.035 93.306 325.267 89.010 C 338.595 86.647, 350.400 84.375, 351.500 83.961 C 353.996 83.021, 347.690 80.034, 320.565 69.308 C 288.522 56.637, 268.695 51.027, 255.896 51.009 C 250.309 51.001, 248.894 51.369, 246.710 53.393 M 237 148.977 C 213.872 150.800, 192.675 155.947, 173.778 164.327 C 157.857 171.388, 144.805 184.572, 142.671 195.748 C 140.941 204.809, 146.711 216.592, 156.751 224.501 C 164.754 230.806, 187.173 242.161, 188.667 240.667 C 188.862 240.472, 189.477 235.498, 190.035 229.613 C 191.667 212.386, 195.861 196.162, 199.803 191.823 C 202.974 188.332, 209.481 185.596, 220 183.330 C 227.053 181.812, 233.096 181.500, 255.500 181.500 C 283.548 181.500, 290.568 182.179, 303.142 186.106 C 312.806 189.125, 315.411 192.222, 318.488 204.352 C 319.846 209.709, 321.514 219.921, 322.193 227.046 C 323.037 235.898, 323.815 240, 324.648 240 C 326.515 240, 337.760 234.986, 344.755 231.034 C 362.585 220.961, 371.695 207.552, 368.977 195.380 C 364.125 173.652, 332.085 156.162, 286 150.085 C 274.882 148.619, 248.974 148.033, 237 148.977 M 231.265 185.967 C 220.458 187.200, 209.988 189.771, 205.575 192.274 C 202.055 194.270, 201.414 195.274, 199.361 202 C 195.820 213.607, 194 226.232, 194 239.199 L 194 251.045 201.750 245.641 C 211.978 238.509, 220.024 234.564, 230.583 231.504 C 242.071 228.175, 250.495 227.501, 261.970 228.995 C 279.328 231.253, 293.733 237.329, 308.694 248.700 L 316.888 254.929 317.579 250.323 C 318.603 243.494, 317.413 219.537, 315.647 211.440 C 314.800 207.557, 313.296 201.932, 312.304 198.940 C 310.561 193.685, 310.296 193.419, 304.500 191.124 C 301.200 189.817, 295.125 188.107, 291 187.324 C 282.160 185.646, 242.056 184.735, 231.265 185.967 M 235 235.063 C 226.576 237.256, 213.362 243.279, 206.271 248.158 C 193.871 256.689, 173.469 277.869, 175.599 279.999 C 178.679 283.079, 210.704 285.232, 219.500 282.952 C 235.104 278.906, 245.638 269.334, 249.999 255.238 C 252.446 247.331, 254.437 247.538, 257.335 256 C 260.390 264.919, 264.005 270.184, 270.375 274.993 C 282.675 284.280, 302.682 286.884, 324.500 282.037 C 333.767 279.979, 333.497 280.493, 328.634 274.181 C 314.063 255.265, 290.512 239.165, 270.511 234.447 C 261.702 232.370, 244.178 232.673, 235 235.063 M 250.484 265.031 C 243.207 279.393, 225.200 288.927, 205.250 288.983 C 198.075 289.003, 198.297 288.530, 200.514 299.066 C 205.957 324.943, 216.738 350.052, 231.995 372.389 C 238.803 382.357, 254.396 401, 255.924 401 C 256.713 401, 265.023 391.804, 272.641 382.500 C 289.218 362.256, 304.848 329.174, 311.016 301.275 C 314.082 287.412, 314.918 288.510, 301.246 288.440 C 279.954 288.332, 266.003 281.403, 257.394 266.662 C 255.415 263.273, 253.647 260.343, 253.465 260.151 C 253.283 259.958, 251.942 262.155, 250.484 265.031 M 186.854 308.388 C 176.676 311.981, 169.665 316.468, 163.194 323.530 C 156.630 330.693, 151.977 338.722, 149.593 347 C 148.406 351.123, 134 455.696, 134 460.193 C 134 460.637, 143.727 461, 155.617 461 L 177.233 461 176.611 458.750 C 176.269 457.512, 175.459 449.300, 174.811 440.500 C 173.891 427.994, 173.908 419.587, 174.892 402 C 176.354 375.849, 176.942 371.500, 179.017 371.500 C 180.726 371.500, 180.741 373.914, 179.212 402.500 C 178.292 419.698, 178.970 447.602, 180.531 456.750 L 181.256 461 256.548 461 L 331.841 461 332.670 454.250 C 333.586 446.802, 333.784 404.880, 333 384.500 C 332.573 373.389, 332.718 371.500, 334 371.500 C 335.953 371.500, 336.567 376.538, 338.033 404.630 C 339.127 425.588, 338.440 447.549, 336.366 457.919 L 335.750 461 357.375 461 C 374.307 461, 379 460.722, 379 459.717 C 379 456.801, 365.034 354.100, 364.012 349.500 C 362.477 342.593, 356.795 331.438, 351.906 325.737 C 343.824 316.311, 328.334 307.640, 318.037 306.778 L 314.713 306.500 311.023 318 C 300.843 349.722, 284.738 377.319, 263.193 399.961 C 258.055 405.360, 257.091 405.973, 254.938 405.201 C 251.821 404.084, 235.202 384.877, 227.869 373.916 C 215.560 355.518, 205.123 333.324, 199.812 314.250 C 197.155 304.710, 197.207 304.734, 186.854 308.388" stroke="none" fill="#db0600" fill-rule="evenodd"/></svg>