<svg xmlns="http://www.w3.org/2000/svg" width="512" height="512" viewBox="0 0 512 512" version="1.1"><path d="" stroke="none" fill="#080404" fill-rule="evenodd"/><path d="M 102 110.379 L 102 135.759 89.750 136.187 C 78.951 136.564, 76.755 136.952, 71.209 139.463 C 66.939 141.395, 63.346 144.029, 60.029 147.659 C 57.129 150.832, 54.290 155.281, 53.049 158.599 C 50.978 164.134, 50.959 165.058, 51.228 248.846 C 51.500 333.500, 51.500 333.500, 54.270 339.142 C 55.794 342.244, 59.090 346.672, 61.595 348.981 C 64.100 351.290, 68.704 354.355, 71.825 355.791 C 76.715 358.042, 79.195 358.461, 89.750 358.822 L 102 359.241 102 377.939 C 102 392.118, 102.384 397.931, 103.590 401.991 C 104.464 404.936, 105.895 408.505, 106.770 409.922 C 107.645 411.340, 109.742 414.012, 111.430 415.859 C 113.119 417.707, 116.075 420.224, 118 421.454 C 119.925 422.683, 123.769 424.439, 126.543 425.356 C 131.159 426.882, 142.227 427.001, 257.564 426.761 C 383.543 426.500, 383.543 426.500, 390.164 423.240 C 393.827 421.437, 398.448 418.140, 400.507 415.860 C 402.555 413.594, 405.415 409.211, 406.865 406.120 C 409.402 400.709, 409.512 399.734, 409.821 379.868 L 410.142 359.237 422.424 358.828 C 433.838 358.448, 435.173 358.189, 441.301 355.173 C 445.306 353.201, 449.449 350.161, 451.853 347.430 C 454.030 344.956, 456.866 340.810, 458.156 338.216 C 460.500 333.500, 460.500 333.500, 460.500 247.500 C 460.500 161.500, 460.500 161.500, 457.338 155.500 C 455.598 152.200, 452.448 147.836, 450.338 145.802 C 448.227 143.769, 443.800 140.865, 440.500 139.351 C 435.245 136.939, 432.979 136.545, 422.250 136.178 L 410 135.759 410 110.379 L 410 85 392.583 85 L 375.167 85 366.751 110.250 L 358.335 135.500 341.668 135.774 L 325 136.048 325 127.524 L 325 119 256 119 L 187 119 187 127.524 L 187 136.048 170.332 135.774 L 153.665 135.500 145.249 110.250 L 136.833 85 119.417 85 L 102 85 102 110.379 M 86 247.500 L 86 324 256 324 L 426 324 426 247.500 L 426 171 256 171 L 86 171 86 247.500 M 154.715 205.006 C 152.083 205.467, 147.010 207.211, 143.441 208.881 C 139.544 210.704, 134.842 214.031, 131.668 217.209 C 128.761 220.119, 125.138 225.048, 123.617 228.163 C 122.095 231.278, 120.343 236.791, 119.722 240.414 C 118.864 245.422, 118.885 248.703, 119.808 254.088 C 120.477 257.985, 122.256 263.706, 123.762 266.801 C 125.268 269.897, 128.826 274.762, 131.669 277.612 C 134.535 280.485, 139.660 284.166, 143.169 285.872 C 146.651 287.564, 152.530 289.417, 156.234 289.991 C 161.512 290.808, 164.491 290.716, 170.010 289.565 C 173.883 288.758, 179.243 286.904, 181.923 285.446 C 184.602 283.987, 188.481 281.403, 190.544 279.703 C 192.607 278.003, 195.975 274.012, 198.029 270.835 C 200.082 267.657, 202.556 262.125, 203.526 258.541 C 204.806 253.812, 205.138 250.031, 204.734 244.762 C 204.427 240.768, 203.189 234.870, 201.981 231.656 C 200.774 228.442, 197.904 223.492, 195.604 220.656 C 193.304 217.820, 189.297 214.068, 186.699 212.317 C 184.101 210.567, 179.618 208.257, 176.738 207.185 C 173.857 206.113, 168.800 204.996, 165.500 204.702 C 162.200 204.408, 157.347 204.545, 154.715 205.006 M 344.500 204.665 C 342.850 204.903, 339.250 205.817, 336.500 206.697 C 333.750 207.577, 329.250 209.732, 326.500 211.485 C 323.750 213.239, 319.762 216.605, 317.638 218.964 C 315.514 221.323, 312.364 226.234, 310.638 229.877 C 307.730 236.014, 307.502 237.270, 307.532 247 C 307.558 255.597, 307.985 258.559, 309.889 263.344 C 311.167 266.558, 314.078 271.467, 316.357 274.254 C 318.636 277.041, 322.925 280.987, 325.890 283.022 C 328.854 285.057, 333.804 287.527, 336.890 288.511 C 340.030 289.511, 345.582 290.306, 349.500 290.315 C 354.098 290.326, 358.785 289.571, 363.159 288.115 C 366.821 286.895, 372.257 284.150, 375.240 282.015 C 378.222 279.879, 381.799 276.640, 383.189 274.816 C 384.579 272.992, 386.903 269.156, 388.354 266.291 C 389.805 263.426, 391.530 257.947, 392.187 254.116 C 393.093 248.834, 393.106 245.673, 392.243 241.029 C 391.616 237.662, 389.943 232.372, 388.525 229.273 C 387.106 226.175, 384.393 221.745, 382.495 219.429 C 380.598 217.113, 376.945 213.827, 374.378 212.127 C 371.811 210.427, 367.413 208.181, 364.605 207.136 C 361.797 206.091, 356.800 205.010, 353.500 204.734 C 350.200 204.458, 346.150 204.427, 344.500 204.665 M 156.001 232.123 C 154.626 232.672, 152.446 234.106, 151.155 235.310 C 149.865 236.515, 148.140 238.788, 147.322 240.361 C 146.503 241.935, 145.833 245.148, 145.833 247.500 C 145.833 249.852, 146.503 253.065, 147.322 254.639 C 148.140 256.212, 149.865 258.483, 151.155 259.683 C 152.445 260.884, 154.767 262.347, 156.315 262.933 C 157.863 263.520, 160.534 264, 162.249 264 C 163.965 264, 167.294 263.068, 169.647 261.929 C 172.154 260.715, 174.857 258.350, 176.177 256.214 C 177.751 253.667, 178.429 251.018, 178.429 247.410 C 178.429 243.575, 177.800 241.332, 175.981 238.678 C 174.636 236.714, 171.890 234.183, 169.881 233.053 C 167.846 231.909, 164.516 231.028, 162.364 231.063 C 160.239 231.098, 157.375 231.575, 156.001 232.123 M 341.337 233.455 C 338.671 235.091, 336.423 237.561, 335.087 240.321 C 333.939 242.692, 333 245.922, 333 247.500 C 333 249.078, 333.943 252.317, 335.096 254.698 C 336.526 257.652, 338.607 259.858, 341.643 261.637 C 345.322 263.793, 346.967 264.162, 351.122 263.762 C 353.887 263.497, 357.325 262.401, 358.763 261.328 C 360.200 260.255, 362.222 258.244, 363.255 256.861 C 364.288 255.477, 365.469 252.805, 365.881 250.923 C 366.292 249.040, 366.308 245.980, 365.915 244.123 C 365.522 242.265, 364.340 239.593, 363.288 238.185 C 362.237 236.776, 360.185 234.734, 358.730 233.648 C 357.127 232.451, 353.996 231.519, 350.791 231.286 C 346.448 230.970, 344.754 231.358, 341.337 233.455 M 137 375.500 L 137 392 151.500 392 L 166 392 166 375.500 L 166 359 151.500 359 L 137 359 137 375.500 M 192 375.500 L 192 392 204.500 392 L 217 392 217 375.500 L 217 359 204.500 359 L 192 359 192 375.500 M 244 375.500 L 244 392 256 392 L 268 392 268 375.500 L 268 359 256 359 L 244 359 244 375.500 M 295 375.500 L 295 392 307.500 392 L 320 392 320 375.500 L 320 359 307.500 359 L 295 359 295 375.500 M 346 375.500 L 346 392 360.500 392 L 375 392 375 375.500 L 375 359 360.500 359 L 346 359 346 375.500" stroke="none" fill="#040404" fill-rule="evenodd"/></svg>