<svg xmlns="http://www.w3.org/2000/svg" width="512" height="512" viewBox="0 0 512 512" version="1.1"><path d="" stroke="none" fill="#080404" fill-rule="evenodd"/><path d="M 289.385 46.285 C 288.221 46.953, 266.961 65.037, 242.139 86.471 L 197.009 125.442 179.567 155.995 C 167.309 177.467, 160.219 188.771, 155.716 194.024 C 152.191 198.136, 145.525 205.108, 140.903 209.517 C 136.282 213.926, 129.477 219.776, 125.782 222.517 C 122.087 225.258, 115.379 229.624, 110.875 232.220 C 106.371 234.816, 99.044 238.130, 94.593 239.584 C 90.142 241.038, 85.938 242.938, 85.250 243.805 C 84.323 244.975, 84 252.040, 84 271.134 C 84 296.612, 84.024 296.903, 86.223 298.443 C 87.445 299.299, 89.179 300, 90.076 300 C 90.973 300, 96.778 295.325, 102.975 289.610 C 112.490 280.837, 115.351 278.792, 121.371 276.465 C 125.292 274.949, 134.350 270.890, 141.500 267.444 C 148.650 263.998, 156.863 259.779, 159.750 258.069 C 163.829 255.653, 165 255.306, 165 256.513 C 165 257.367, 163.922 260.189, 162.604 262.783 C 161.287 265.377, 158.249 269.442, 155.854 271.816 C 153.459 274.190, 147.900 277.904, 143.500 280.070 C 139.100 282.235, 131.900 284.863, 127.500 285.910 C 123.100 286.957, 116.901 288.115, 113.724 288.482 C 109.106 289.016, 107.624 289.644, 106.336 291.610 C 105.221 293.311, 104.998 294.675, 105.613 296.037 C 106.101 297.119, 119.548 307.454, 135.496 319.002 C 152.293 331.166, 165.416 340, 166.689 340 C 167.898 340, 169.601 338.987, 170.474 337.750 C 171.822 335.840, 171.969 333.312, 171.447 321 L 170.833 306.500 186.136 296.500 C 194.553 291, 204.828 283.978, 208.970 280.895 L 216.500 275.290 226.198 274.629 C 231.532 274.265, 238.771 273.079, 242.283 271.994 C 245.796 270.909, 250.536 268.670, 252.816 267.018 C 255.096 265.367, 258.189 262.099, 259.689 259.758 C 261.189 257.416, 262.528 255.333, 262.663 255.129 C 262.799 254.924, 264.908 255.928, 267.349 257.359 C 269.791 258.790, 272.983 261.380, 274.442 263.114 C 275.902 264.848, 278.024 268.087, 279.159 270.311 C 280.293 272.535, 281.458 276.962, 281.747 280.147 C 282.036 283.333, 281.747 288.610, 281.104 291.875 C 280.462 295.140, 278.822 300.555, 277.460 303.907 C 276.098 307.259, 273.095 313.154, 270.787 317.007 C 268.479 320.860, 260.760 331.997, 253.634 341.756 C 246.507 351.515, 237.643 364.134, 233.935 369.798 C 230.228 375.462, 224.696 385.137, 221.643 391.298 C 218.590 397.459, 214.709 406.653, 213.018 411.730 C 211.328 416.806, 209.053 425.131, 207.963 430.230 C 206.872 435.328, 205.696 444.472, 205.348 450.550 C 204.909 458.227, 205.075 462.271, 205.893 463.800 L 207.070 466 306.835 466 C 383.097 466, 406.883 465.717, 407.800 464.800 C 408.460 464.140, 409 462.540, 409 461.245 C 409 459.950, 407.127 456.132, 404.838 452.761 C 402.549 449.390, 399.788 443.903, 398.703 440.566 C 397.231 436.039, 396.608 430.681, 396.249 419.450 C 395.889 408.203, 396.199 401.634, 397.475 393.450 C 398.415 387.428, 400.459 377.550, 402.018 371.500 C 403.577 365.450, 406.286 356.225, 408.038 351 C 409.790 345.775, 413.667 335.047, 416.652 327.160 C 419.638 319.273, 422.976 309.050, 424.070 304.443 C 425.164 299.835, 426.448 291.888, 426.923 286.783 C 427.420 281.429, 427.403 273.405, 426.882 267.824 C 426.385 262.501, 424.842 254.176, 423.455 249.324 C 422.067 244.471, 419.138 236.724, 416.945 232.110 L 412.958 223.720 418.406 224.360 C 423.436 224.951, 424.009 224.803, 425.871 222.436 C 427.157 220.802, 427.637 219.207, 427.194 218.037 C 426.812 217.028, 420.237 209.596, 412.582 201.522 L 398.663 186.842 380.082 177.603 C 369.862 172.521, 357.113 166.401, 351.750 164.002 C 346.387 161.603, 342 159.382, 342 159.068 C 342 158.754, 344.137 157.372, 346.749 155.998 C 349.361 154.624, 356.899 149.050, 363.499 143.611 C 370.100 138.172, 377.188 132.118, 379.250 130.158 C 381.760 127.772, 383 125.710, 383 123.919 C 383 122.448, 382.438 120.797, 381.750 120.249 C 381.063 119.701, 374.425 118.994, 367 118.676 C 359.575 118.359, 350.125 117.371, 346 116.482 C 341.875 115.593, 332.425 112.815, 325 110.310 C 316.049 107.290, 309.141 105.593, 304.500 105.275 C 299.079 104.903, 293.245 105.618, 278.634 108.448 C 268.258 110.457, 259.576 111.909, 259.341 111.675 C 259.106 111.440, 267.484 98.139, 277.957 82.118 C 289.503 64.456, 297 52.028, 297 50.550 C 297 49.166, 296.040 47.441, 294.777 46.557 C 293.555 45.701, 292.318 45.016, 292.027 45.035 C 291.737 45.055, 290.548 45.617, 289.385 46.285 M 235.555 106.653 C 219.850 120.212, 207 131.651, 207 132.073 C 207 132.496, 208.238 133.105, 209.750 133.427 C 211.262 133.749, 215.078 133.585, 218.230 133.062 C 221.381 132.539, 225.881 131.258, 228.230 130.214 C 230.578 129.170, 233.979 127.067, 235.786 125.539 C 237.593 124.012, 239.790 121.372, 240.669 119.674 C 241.547 117.975, 247.363 108.804, 253.594 99.293 C 259.824 89.782, 264.739 82, 264.516 82 C 264.293 82, 251.260 93.094, 235.555 106.653 M 284.500 118.438 C 278.450 119.682, 268.392 121.680, 262.150 122.879 L 250.800 125.058 245.925 130.392 C 242.946 133.651, 238.414 137.099, 234.275 139.255 C 230.117 141.421, 224.729 143.243, 220.327 143.970 C 214.271 144.970, 212.183 144.906, 206.927 143.560 C 203.503 142.683, 200.569 142.098, 200.407 142.260 C 200.245 142.422, 193.733 153.792, 185.936 167.527 C 175.909 185.192, 169.698 194.935, 164.713 200.820 C 160.837 205.395, 153.253 213.302, 147.860 218.389 C 142.466 223.477, 134.536 230.173, 130.236 233.269 C 125.936 236.365, 118.611 240.896, 113.959 243.338 C 109.306 245.779, 103.137 248.539, 100.250 249.469 L 95 251.161 95 266.080 C 95 274.286, 95.297 281, 95.660 281 C 96.022 281, 98.835 278.615, 101.910 275.699 C 105.677 272.127, 109.783 269.459, 114.500 267.518 C 118.350 265.933, 126.334 262.507, 132.242 259.903 C 138.151 257.300, 146.900 253.036, 151.686 250.427 C 156.472 247.818, 162.263 243.955, 164.556 241.842 C 167.174 239.428, 169.696 238, 171.339 238 C 173.035 238, 174.538 238.891, 175.616 240.536 C 176.961 242.589, 177.176 244.696, 176.745 251.598 C 176.319 258.441, 175.596 261.378, 173.086 266.477 C 171.366 269.971, 167.937 275.078, 165.466 277.826 C 162.995 280.574, 158.617 284.361, 155.737 286.240 C 152.857 288.120, 147.575 290.844, 144 292.293 C 140.425 293.742, 134.725 295.732, 131.333 296.714 L 125.165 298.500 141.171 310 C 149.974 316.325, 157.875 321.895, 158.728 322.378 C 160.099 323.153, 160.223 322.085, 159.797 313.224 C 159.531 307.706, 159.742 302.426, 160.265 301.491 C 160.788 300.556, 167.130 295.928, 174.358 291.207 C 181.586 286.486, 192.498 278.934, 198.607 274.423 C 204.716 269.913, 210.649 265.723, 211.792 265.112 C 212.934 264.500, 216.486 263.991, 219.684 263.980 C 222.883 263.969, 228.595 263.513, 232.379 262.966 C 236.162 262.419, 240.768 261.255, 242.615 260.378 C 244.462 259.502, 247.340 257.387, 249.011 255.678 C 250.681 253.969, 252.568 250.838, 253.202 248.719 C 253.930 246.290, 255.306 244.390, 256.928 243.575 C 258.343 242.864, 272.671 239.872, 288.769 236.926 L 318.038 231.569 306.885 220.385 C 297.041 210.512, 295.808 208.899, 296.378 206.629 C 296.733 205.215, 297.898 203.590, 298.968 203.017 C 300.384 202.259, 315.165 203.338, 353.378 206.988 C 382.235 209.745, 406.432 212, 407.149 212 C 407.866 212, 404.864 208.341, 400.477 203.869 C 392.669 195.911, 392.055 195.521, 371.500 185.495 C 359.950 179.861, 345.100 172.887, 338.500 169.999 C 331.900 167.110, 325.915 164.280, 325.199 163.709 C 324.483 163.138, 324.033 161.284, 324.199 159.590 C 324.469 156.824, 325.685 155.797, 336.144 149.505 C 342.548 145.652, 350.995 139.885, 354.915 136.689 C 358.836 133.494, 361.782 130.456, 361.463 129.939 C 361.143 129.423, 359.481 129, 357.769 129 C 356.057 129, 350.796 128.283, 346.078 127.406 C 341.360 126.529, 330.638 123.604, 322.251 120.906 C 310.798 117.221, 305.571 116.022, 301.251 116.088 C 298.088 116.137, 290.550 117.194, 284.500 118.438 M 215.395 157.765 C 214.787 158.169, 207.024 168.327, 198.145 180.338 C 189.265 192.349, 182 203.013, 182 204.037 C 182 205.061, 183.463 207.005, 185.250 208.357 C 187.037 209.709, 190.392 211.319, 192.705 211.934 C 195.766 212.749, 198.757 212.758, 203.705 211.970 C 208.003 211.285, 212.705 209.648, 216.500 207.515 C 219.800 205.661, 224.365 202.199, 226.645 199.822 C 228.925 197.445, 231.830 193.475, 233.100 191 C 234.756 187.773, 235.410 184.802, 235.410 180.500 C 235.410 176.295, 234.765 173.270, 233.255 170.387 C 232.069 168.126, 228.779 164.188, 225.942 161.637 C 223.105 159.087, 219.820 157.007, 218.642 157.015 C 217.464 157.024, 216.003 157.361, 215.395 157.765 M 208.225 184.801 C 202.243 192.885, 196.988 200.112, 196.547 200.859 C 195.899 201.960, 196.580 202.084, 200.123 201.510 C 202.531 201.120, 206.379 199.986, 208.676 198.990 C 210.972 197.993, 214.867 195.320, 217.331 193.049 C 219.794 190.779, 222.528 187.408, 223.405 185.559 C 224.282 183.710, 225 181.209, 225 180 C 225 178.791, 224.290 176.307, 223.423 174.478 C 222.555 172.650, 221.228 170.918, 220.474 170.628 C 219.578 170.285, 215.327 175.205, 208.225 184.801 M 324.750 223.246 C 330.693 229.216, 334 233.310, 334 234.697 C 334 235.885, 333.293 237.564, 332.429 238.429 C 331.564 239.293, 330.732 240, 330.579 240 C 330.426 240, 318.421 242.250, 303.901 245 C 289.380 247.750, 277.102 250, 276.615 250 C 276.128 250, 276.803 250.822, 278.115 251.827 C 279.427 252.832, 283.650 254.411, 287.500 255.336 C 291.350 256.262, 298.325 258.848, 303 261.082 C 307.675 263.317, 313.927 267.017, 316.892 269.304 C 319.858 271.591, 324.053 275.805, 326.214 278.667 C 328.375 281.530, 331.063 286.263, 332.188 289.186 C 333.312 292.109, 334.567 297.200, 334.975 300.500 C 335.384 303.800, 335.317 309.780, 334.826 313.789 C 334.336 317.798, 332.185 325.898, 330.048 331.789 C 327.910 337.680, 324.075 347.835, 321.525 354.355 C 318.975 360.875, 315.386 372.125, 313.550 379.355 C 311.713 386.585, 309.509 397.450, 308.650 403.500 C 307.792 409.550, 306.783 420.151, 306.409 427.058 C 306.035 433.965, 306.053 443.078, 306.450 447.308 L 307.171 455 349.969 455 L 392.768 455 390.263 448.798 C 388.885 445.388, 387.087 438.750, 386.268 434.048 C 385.197 427.900, 384.914 421.148, 385.260 410 C 385.619 398.435, 386.433 391.199, 388.467 381.500 C 389.966 374.350, 392.754 363.325, 394.662 357 C 396.571 350.675, 401.056 337.730, 404.628 328.233 C 408.201 318.737, 412.204 306.708, 413.524 301.503 C 414.845 296.297, 416.224 288.087, 416.588 283.257 C 416.979 278.075, 416.763 270.792, 416.061 265.488 C 415.406 260.544, 413.497 252.351, 411.819 247.281 C 410.141 242.210, 406.788 234.680, 404.368 230.546 C 401.415 225.500, 399.235 222.876, 397.734 222.560 C 396.505 222.301, 378.850 220.492, 358.500 218.540 C 338.150 216.587, 320.150 214.756, 318.500 214.471 C 315.802 214.006, 316.430 214.888, 324.750 223.246 M 291.646 273.218 C 292.391 276.088, 292.993 280.925, 292.985 283.968 C 292.977 287.011, 292.329 292.200, 291.544 295.500 C 290.759 298.800, 288.723 304.875, 287.018 309 C 285.313 313.125, 282.076 319.650, 279.824 323.500 C 277.572 327.350, 273.999 332.831, 271.885 335.681 L 268.040 340.861 273.670 341.565 C 276.767 341.951, 282.671 341.983, 286.789 341.635 C 290.908 341.287, 297.253 340.104, 300.889 339.006 C 304.525 337.908, 310.200 335.513, 313.500 333.682 C 319.264 330.486, 319.596 330.082, 321.940 323.427 C 323.846 318.016, 324.391 314.421, 324.430 307 C 324.473 298.776, 324.129 296.762, 321.873 292 C 320.440 288.975, 316.845 284.104, 313.884 281.175 C 310.435 277.765, 305.598 274.440, 300.427 271.925 C 295.987 269.766, 291.890 268, 291.323 268 C 290.657 268, 290.772 269.845, 291.646 273.218 M 303.878 349.605 C 300.236 350.883, 293.231 352.417, 288.312 353.015 C 282.217 353.757, 277.478 353.787, 273.434 353.112 C 270.170 352.567, 266.073 351.820, 264.329 351.451 C 261.257 350.803, 260.938 351.078, 254.138 360.245 C 250.276 365.450, 244.454 373.937, 241.199 379.105 C 237.944 384.272, 233.860 391.313, 232.125 394.752 C 230.389 398.190, 228.091 403.232, 227.017 405.957 L 225.065 410.910 227.864 412.903 C 229.404 414, 233.102 415.913, 236.082 417.155 C 240.697 419.078, 243.353 419.420, 254 419.457 C 265.323 419.496, 267.091 419.251, 272.779 416.855 C 276.232 415.400, 281.562 412.700, 284.622 410.855 C 287.683 409.010, 291.915 406.028, 294.027 404.229 C 297.208 401.519, 298.055 399.975, 298.966 395.229 C 299.570 392.078, 300.966 385.675, 302.068 381 C 303.170 376.325, 305.680 367.550, 307.647 361.500 C 309.614 355.450, 311.639 349.712, 312.147 348.750 C 312.806 347.502, 312.702 347.040, 311.785 347.141 C 311.078 347.218, 307.520 348.327, 303.878 349.605 M 292.003 419.144 C 290.630 420.286, 286.869 422.552, 283.647 424.178 C 280.424 425.805, 274.388 428.006, 270.234 429.068 C 266.079 430.131, 259.624 431, 255.889 431 C 252.154 431, 246.714 430.513, 243.799 429.918 C 240.885 429.324, 236.025 427.939, 233 426.842 C 229.975 425.745, 226.092 423.978, 224.370 422.916 L 221.241 420.986 220.081 425.592 C 219.443 428.125, 218.267 434.541, 217.467 439.849 C 216.666 445.157, 216.009 450.738, 216.006 452.250 L 216 455 255.750 455 L 295.500 455 295.500 436 C 295.500 425.550, 295.275 417.015, 295 417.033 C 294.725 417.052, 293.376 418.001, 292.003 419.144" stroke="none" fill="#040404" fill-rule="evenodd"/></svg>