<svg xmlns="http://www.w3.org/2000/svg" width="512" height="512" viewBox="0 0 512 512" version="1.1"><path d="" stroke="none" fill="#000000" fill-rule="evenodd"/><path d="M 245.500 90.190 C 221.300 111.121, 201.122 128.898, 200.660 129.695 C 199.259 132.112, 200.856 135.874, 203.965 137.482 C 208.214 139.679, 219.318 139.437, 226.556 136.990 C 235.877 133.839, 241.457 128.918, 248.933 117.256 C 252.545 111.622, 263.198 95.197, 272.606 80.756 C 292.037 50.930, 291.391 51.977, 290.309 52.067 C 289.864 52.104, 269.700 69.260, 245.500 90.190 M 277.500 113.715 C 251.223 118.846, 252.864 118.262, 250.118 123.462 C 243.363 136.254, 225.640 145.130, 209.523 143.793 C 205.243 143.439, 203.121 142.629, 200.090 140.193 L 196.179 137.050 181.936 162.275 C 166.946 188.821, 161.645 196.318, 148.536 209.509 C 129.286 228.882, 110.782 240.649, 90.250 246.576 C 89.294 246.852, 89 252.640, 89 271.156 L 89 295.374 91.750 292.887 C 93.263 291.519, 98.353 286.822, 103.062 282.450 C 109.375 276.589, 113.054 273.993, 117.062 272.570 C 133.529 266.727, 160.606 252.919, 167.546 246.825 L 171 243.793 170.976 250.146 C 170.948 257.629, 167.989 265.701, 162.934 272.084 C 155.537 281.423, 138.780 289.435, 120.532 292.357 C 115.802 293.114, 111.697 293.970, 111.409 294.258 C 110.897 294.770, 162.959 332.663, 165.532 333.651 C 166.582 334.053, 166.739 331.165, 166.341 318.825 L 165.846 303.500 184.018 291.500 C 194.013 284.900, 204.850 277.363, 208.100 274.750 C 213.060 270.764, 214.693 269.999, 218.255 269.992 C 240.056 269.953, 253.221 263.980, 258.301 251.822 C 259.234 249.589, 260.660 248.060, 262.142 247.704 C 263.439 247.392, 278.675 244.582, 296 241.459 C 313.325 238.335, 327.854 235.453, 328.287 235.053 C 328.720 234.653, 322.922 228.352, 315.401 221.050 L 301.728 207.775 306.614 208.396 C 309.301 208.737, 335.125 211.260, 364 214.001 C 392.875 216.743, 417.750 219.138, 419.277 219.324 C 420.804 219.509, 421.929 219.306, 421.777 218.871 C 421.625 218.437, 415.809 212.073, 408.854 204.729 C 396.934 192.145, 395.613 191.073, 385.854 186.067 C 375.951 180.987, 335.559 162.048, 331.607 160.631 C 329.289 159.801, 328.534 160.404, 340.398 153.598 C 346.033 150.366, 356.353 142.876, 364.356 136.210 L 378.416 124.500 371.958 124.268 C 353.510 123.607, 342.009 121.368, 321.360 114.421 C 305.136 108.962, 302.092 108.913, 277.500 113.715 M 216.788 157.743 C 214.025 158.371, 182.794 201.535, 183.178 204.196 C 184.006 209.944, 195.367 213.165, 205.425 210.503 C 225.163 205.278, 238.045 189.022, 234.090 174.333 C 232.142 167.100, 221.311 156.714, 216.788 157.743 M 202.322 182.814 C 187.270 203.330, 187.162 203.514, 189.271 205.154 C 196.472 210.756, 212.521 206.384, 222.918 195.987 C 231.689 187.216, 232.941 176.923, 226.224 168.795 C 222.816 164.673, 219.801 162.057, 218.500 162.097 C 217.950 162.113, 210.670 171.436, 202.322 182.814 M 324.269 223.768 C 329.621 229.140, 334 234.305, 334 235.245 C 334 236.185, 332.988 237.589, 331.750 238.365 C 330.512 239.141, 315.806 242.307, 299.070 245.401 C 282.333 248.495, 268.488 251.179, 268.302 251.365 C 267.463 252.204, 275.881 257, 278.192 257 C 282.763 257, 298.291 262.022, 305.452 265.816 C 314.492 270.606, 325.191 280.983, 328.440 288.112 C 331.911 295.729, 333.165 304.762, 331.954 313.422 C 330.729 322.181, 329.154 327.108, 322.477 343.066 C 312.194 367.642, 306.342 390, 304.063 413.424 C 302.873 425.650, 302.688 444.045, 303.652 454.250 L 304.289 461 354.145 461 C 381.565 461, 404 460.620, 404 460.155 C 404 459.690, 403.052 458.453, 401.894 457.405 C 396.054 452.124, 391.973 438.306, 391.273 421.447 C 390.112 393.478, 395.198 370.984, 414.797 317.397 C 420.627 301.457, 422.278 292.752, 422.361 277.500 C 422.462 259.107, 418.932 244.940, 410.214 228.750 C 407.560 223.821, 406.029 221.998, 404.540 221.993 C 403.418 221.989, 383.825 220.192, 361 218 C 338.175 215.808, 318.383 214.011, 317.019 214.007 C 314.875 214.001, 315.860 215.327, 324.269 223.768 M 281 262.408 C 281 262.632, 282.238 265.200, 283.750 268.114 C 285.942 272.337, 286.570 275.064, 286.846 281.555 C 287.467 296.144, 282.278 309.902, 268.502 330.192 C 262.932 338.397, 261.272 341.551, 262.216 342.138 C 267.143 345.199, 287.487 345.949, 297.356 343.434 C 304.433 341.631, 318.506 335.092, 321.618 332.163 C 325.117 328.867, 328.249 315.234, 327.843 305.061 C 327.552 297.761, 327.001 295.437, 324.226 289.803 C 318.634 278.452, 307.707 270.189, 290.575 264.357 C 283.988 262.115, 281 261.507, 281 262.408 M 312.650 342.165 C 297.248 349.979, 272.911 351.557, 259 345.644 C 257.907 345.179, 254.749 348.872, 247.363 359.253 C 235.642 375.728, 227.944 388.807, 222.556 401.401 L 218.748 410.302 221.124 412.228 C 225.852 416.062, 239.581 421.895, 246.467 422.995 C 262.299 425.524, 278.982 420.276, 294.696 407.823 C 301.407 402.506, 301.366 402.579, 303.016 393 C 305.016 381.389, 309.053 366.784, 314.055 353.060 C 316.749 345.668, 318.852 339.525, 318.727 339.409 C 318.602 339.293, 315.868 340.533, 312.650 342.165 M 295.655 412.479 C 290.483 417.049, 277.867 423.488, 270.500 425.318 C 260.828 427.722, 255.976 428.092, 247.820 427.049 C 238.099 425.806, 230.064 422.989, 223.158 418.404 C 219.324 415.859, 217.522 415.155, 217.001 415.999 C 214.585 419.908, 210.091 445.537, 210.031 455.750 L 210 461 255.111 461 L 300.223 461 299.564 457.489 C 298.663 452.689, 298.631 426.116, 299.514 416.690 C 299.911 412.460, 300.070 409.019, 299.867 409.042 C 299.665 409.065, 297.770 410.612, 295.655 412.479" stroke="none" fill="#000000" fill-rule="evenodd"/></svg>