<svg xmlns="http://www.w3.org/2000/svg" width="512" height="512" viewBox="0 0 512 512" version="1.1"><path d="" stroke="none" fill="#080404" fill-rule="evenodd"/><path d="M 173.500 47.146 C 169.100 47.632, 160.775 49.192, 155 50.612 C 149.225 52.032, 140.225 54.767, 135 56.690 C 129.775 58.613, 121.675 62.221, 117 64.708 C 112.325 67.195, 105.057 71.489, 100.849 74.250 C 96.641 77.011, 92.779 80.222, 92.267 81.385 C 91.652 82.782, 93.966 126.453, 99.084 210 L 106.831 336.500 104.166 338.667 C 102.700 339.858, 90.025 350.208, 76 361.667 C 55.615 378.321, 50.034 383.403, 48.178 387 C 46.225 390.783, 45.921 392.624, 46.265 398.555 C 46.546 403.392, 47.512 407.440, 49.340 411.432 C 50.806 414.634, 53.988 420.032, 56.411 423.427 C 58.833 426.822, 64.066 433.080, 68.038 437.334 C 72.011 441.588, 78.915 448.005, 83.381 451.594 C 87.846 455.184, 94.849 459.742, 98.943 461.723 C 104.751 464.534, 107.974 465.427, 113.616 465.789 C 119.626 466.175, 121.576 465.889, 125.173 464.098 C 128.639 462.371, 134.049 456.376, 152.356 433.971 C 174.713 406.611, 175.292 406, 178.869 406 C 180.880 406, 197.144 406.891, 215.012 407.979 C 232.881 409.068, 288.112 412.434, 337.748 415.459 C 404.476 419.526, 428.605 420.682, 430.332 419.895 C 431.616 419.309, 435.381 414.481, 438.698 409.165 C 442.015 403.849, 446.626 395.726, 448.945 391.112 C 451.264 386.499, 454.895 377.499, 457.015 371.112 C 459.135 364.726, 461.558 356.107, 462.400 351.959 C 463.242 347.812, 464.393 340.387, 464.957 335.459 C 465.522 330.532, 465.987 322.385, 465.992 317.356 C 465.996 312.327, 465.530 303.552, 464.956 297.856 C 464.381 292.160, 462.785 281.893, 461.407 275.040 C 460.030 268.187, 456.841 256.262, 454.320 248.540 C 451.799 240.818, 447.734 229.804, 445.285 224.064 C 442.837 218.324, 438.795 209.549, 436.304 204.564 C 433.814 199.579, 428.863 190.646, 425.302 184.714 C 419.284 174.686, 418.906 173.710, 419.915 170.815 C 420.512 169.103, 420.991 165.631, 420.979 163.101 C 420.967 160.570, 419.895 155.490, 418.597 151.812 C 417.299 148.133, 414.631 142.508, 412.670 139.312 L 409.103 133.500 413.735 128.779 L 418.368 124.058 423.624 129.029 C 426.515 131.763, 429.737 134, 430.785 134 C 431.833 134, 433.387 133.212, 434.240 132.250 C 435.092 131.287, 441.497 113.974, 448.473 93.776 C 455.449 73.578, 461.006 56.268, 460.821 55.310 C 460.637 54.352, 459.347 52.929, 457.954 52.148 C 455.591 50.821, 452.972 51.571, 418.461 63.457 C 394.366 71.755, 380.891 76.888, 379.750 78.204 C 378.788 79.314, 378 80.874, 378 81.671 C 378 82.468, 380.232 85.479, 382.959 88.364 L 387.919 93.607 383.357 98.169 L 378.795 102.731 373.208 99.366 C 370.135 97.516, 365.118 95.044, 362.060 93.873 C 359.002 92.702, 354.374 91.521, 351.774 91.247 C 349.175 90.974, 344.962 91.276, 342.410 91.918 C 337.880 93.059, 337.629 92.995, 331.636 89.189 C 328.261 87.046, 323.250 84.015, 320.500 82.452 C 317.750 80.890, 310.201 76.991, 303.724 73.788 C 297.247 70.584, 287.572 66.233, 282.224 64.119 C 276.876 62.004, 268.225 58.872, 263 57.159 C 257.775 55.445, 248.775 52.915, 243 51.537 C 237.225 50.158, 226.653 48.349, 219.506 47.515 C 212.359 46.682, 200.884 46.059, 194.006 46.131 C 187.128 46.203, 177.900 46.659, 173.500 47.146 M 175.500 58.029 C 172.200 58.539, 165.911 59.675, 161.524 60.554 C 157.137 61.433, 149.487 63.477, 144.524 65.096 C 139.561 66.715, 134.518 68.593, 133.317 69.270 C 131.539 70.272, 135.341 70.503, 153.817 70.514 C 173.365 70.526, 178.052 70.840, 187.727 72.790 C 193.903 74.034, 202.866 76.185, 207.647 77.571 C 212.427 78.956, 221.325 82.124, 227.419 84.611 C 233.514 87.098, 242.775 91.423, 248 94.222 C 253.225 97.020, 260.875 101.566, 265 104.323 C 269.125 107.080, 275.200 111.389, 278.500 113.898 C 281.800 116.406, 288.139 121.686, 292.587 125.630 L 300.675 132.802 314.837 117.433 C 322.627 108.981, 329 101.712, 329 101.280 C 329 100.848, 325.962 98.550, 322.250 96.172 C 318.538 93.793, 308.055 88.137, 298.955 83.601 C 289.855 79.065, 277.072 73.459, 270.549 71.144 C 264.026 68.829, 253.471 65.606, 247.094 63.980 C 240.717 62.355, 231.450 60.315, 226.500 59.447 C 221.462 58.563, 209.576 57.700, 199.500 57.485 C 189.600 57.274, 178.800 57.519, 175.500 58.029 M 419.277 74.852 L 394.053 83.575 411.277 100.759 L 428.500 117.942 436.900 93.221 C 441.520 79.625, 445.506 67.938, 445.757 67.250 C 446.008 66.563, 445.828 66.029, 445.357 66.065 C 444.886 66.100, 433.150 70.055, 419.277 74.852 M 137 81.002 C 131.775 81.473, 122.902 82.796, 117.283 83.941 C 111.664 85.087, 106.030 86.418, 104.764 86.900 L 102.462 87.775 109.678 204.138 C 113.646 268.137, 116.917 322.217, 116.947 324.315 L 117 328.129 126.126 320.665 C 131.855 315.978, 146.649 300.769, 165.876 279.801 C 182.719 261.432, 216.258 224.825, 240.406 198.452 C 264.554 172.078, 286.312 148.414, 288.757 145.863 L 293.201 141.227 288.824 137.192 C 286.417 134.973, 280.409 129.919, 275.474 125.962 C 270.538 122.004, 264.025 117.081, 261 115.022 C 257.975 112.963, 250.635 108.479, 244.689 105.057 C 238.743 101.635, 228.287 96.616, 221.452 93.903 C 214.618 91.191, 203.733 87.666, 197.263 86.070 C 190.793 84.474, 181.675 82.687, 177 82.099 C 172.325 81.511, 163.550 80.830, 157.500 80.587 C 151.450 80.344, 142.225 80.531, 137 81.002 M 372.485 124.854 C 359.827 137.859, 298.177 201.181, 235.485 265.568 C 172.793 329.955, 120.264 383.978, 118.754 385.619 L 116.008 388.602 119.896 392.399 L 123.785 396.196 187.643 333.883 C 222.764 299.611, 287.163 236.740, 330.750 194.169 C 374.337 151.598, 410 116.471, 410 116.108 C 410 115.746, 406.738 112.246, 402.750 108.329 L 395.500 101.209 372.485 124.854 M 328.729 118.640 C 320.177 127.913, 275.597 176.450, 229.663 226.500 L 146.146 317.500 152.119 323.500 L 158.093 329.500 166.771 320.500 C 171.544 315.550, 199.536 286.786, 228.975 256.579 C 258.414 226.372, 302.196 181.399, 326.270 156.638 C 350.343 131.877, 369.886 111.142, 369.697 110.559 C 369.509 109.977, 366.338 107.953, 362.650 106.062 C 357.965 103.660, 354.187 102.496, 350.112 102.202 L 344.279 101.780 328.729 118.640 M 356.325 184.700 C 332.193 208.240, 286.135 253.103, 253.974 284.396 C 221.813 315.689, 192.685 344.046, 189.244 347.411 L 182.988 353.530 188.744 359.740 L 194.500 365.949 236.584 327.225 C 259.730 305.926, 308.267 261.319, 344.443 228.098 L 410.218 167.696 409.811 162.064 C 409.532 158.213, 408.299 154.249, 405.913 149.536 C 403.993 145.743, 401.922 142.474, 401.311 142.270 C 400.701 142.067, 380.457 161.160, 356.325 184.700 M 394.903 196.770 L 379.306 211.332 389.109 222.725 C 394.501 228.992, 402.581 239.605, 407.064 246.309 C 411.547 253.014, 418.080 264.357, 421.580 271.515 C 425.081 278.673, 429.742 290.002, 431.939 296.690 C 434.135 303.379, 436.831 313.272, 437.930 318.675 C 439.030 324.079, 440.435 332.804, 441.054 338.065 C 441.672 343.326, 442.026 355.116, 441.839 364.266 C 441.576 377.179, 441.755 380.410, 442.641 378.701 C 443.268 377.491, 445.154 372.391, 446.832 367.370 C 448.509 362.348, 450.827 353.348, 451.982 347.370 C 453.138 341.391, 454.350 330.875, 454.677 324 C 455.011 316.958, 454.763 306.332, 454.108 299.666 C 453.468 293.157, 451.853 282.458, 450.518 275.890 C 449.183 269.322, 445.844 257.221, 443.097 248.999 C 440.351 240.777, 435.400 228.123, 432.094 220.879 C 428.788 213.635, 423.347 202.936, 420.001 197.104 C 416.655 191.272, 413.149 185.535, 412.209 184.354 C 410.511 182.222, 410.402 182.300, 394.903 196.770 M 348.433 239.240 C 336.330 250.383, 299.039 284.700, 265.565 315.500 C 232.090 346.300, 204.088 371.863, 203.338 372.307 C 202.589 372.750, 197.940 377.925, 193.007 383.807 C 184.314 394.173, 184.123 394.508, 186.770 394.755 C 188.271 394.895, 214.475 396.564, 245 398.464 C 275.525 400.363, 327.834 403.561, 361.242 405.569 C 394.650 407.577, 422.617 408.977, 423.392 408.680 C 424.209 408.366, 425.655 404.432, 426.833 399.320 C 427.951 394.469, 429.406 386.074, 430.067 380.665 C 430.819 374.508, 431.061 364.412, 430.715 353.665 C 430.411 344.224, 429.490 332.900, 428.669 328.500 C 427.848 324.100, 426.200 316.675, 425.007 312 C 423.814 307.325, 421.242 299.225, 419.292 294 C 417.342 288.775, 413.376 279.775, 410.479 274 C 407.582 268.225, 402.400 259.225, 398.965 254 C 395.530 248.775, 390.809 242.025, 388.473 239 C 386.137 235.975, 381.441 230.350, 378.037 226.500 C 374.633 222.650, 371.530 219.383, 371.143 219.240 C 370.755 219.097, 360.536 228.097, 348.433 239.240 M 127.818 333.223 L 118.137 341.301 118.694 353.901 C 119.001 360.830, 119.532 366.799, 119.876 367.166 C 120.219 367.532, 127.207 360.865, 135.405 352.351 L 150.309 336.871 144.436 330.935 C 141.206 327.671, 138.324 325.033, 138.031 325.073 C 137.739 325.113, 133.143 328.781, 127.818 333.223 M 82.889 370.105 C 70.025 380.612, 58.938 389.923, 58.250 390.796 C 57.562 391.668, 57 394.491, 57 397.069 C 57 399.647, 57.722 403.498, 58.605 405.628 C 59.488 407.758, 62.165 412.451, 64.554 416.058 C 66.944 419.665, 72.859 426.528, 77.699 431.309 C 82.540 436.089, 89.736 442.433, 93.691 445.406 C 97.646 448.380, 103.401 451.755, 106.479 452.906 C 109.557 454.058, 113.608 455, 115.482 455 C 117.591 455, 119.862 454.143, 121.445 452.750 C 122.851 451.512, 132.485 440.150, 142.855 427.500 L 161.709 404.500 153.605 403.832 C 149.147 403.465, 142.442 403.059, 138.705 402.929 C 132.293 402.707, 131.728 402.872, 128.658 405.847 C 126.869 407.581, 124.578 409, 123.568 409 C 122.557 409, 117.516 404.867, 112.365 399.816 C 105.456 393.040, 103 389.971, 103 388.113 C 103 386.656, 104.296 384.258, 106.077 382.421 L 109.153 379.247 108.436 365.123 C 108.042 357.356, 107.395 351, 106.999 351 C 106.603 351, 95.754 359.597, 82.889 370.105 M 159.009 376.941 L 143.519 391.796 149.009 392.357 C 152.029 392.666, 158.100 393.151, 162.500 393.435 L 170.500 393.952 178.865 383.871 L 187.229 373.789 181.396 367.895 C 178.188 364.653, 175.324 362.019, 175.031 362.043 C 174.739 362.067, 167.529 368.771, 159.009 376.941" stroke="none" fill="#040404" fill-rule="evenodd"/></svg>