<svg xmlns="http://www.w3.org/2000/svg" width="512" height="512" viewBox="0 0 512 512" version="1.1"><path d="" stroke="none" fill="#495057" fill-rule="evenodd"/><path d="M 173.577 52.071 C 151.365 55.145, 119.694 66.388, 118.368 71.670 C 118.043 72.966, 118.268 74.618, 118.868 75.341 C 120.164 76.903, 114.684 336.778, 113.329 337.973 C 112.873 338.375, 99.161 349.558, 82.858 362.823 C 60.332 381.152, 52.950 387.705, 52.108 390.120 C 48.060 401.732, 55.656 417.617, 74 435.899 C 84.729 446.591, 92.761 452.831, 101.444 457.220 C 108.408 460.740, 117.315 461.941, 122.017 459.993 C 124.147 459.111, 132.603 449.563, 149.302 429.184 C 162.611 412.943, 173.774 399.246, 174.108 398.747 C 174.449 398.239, 214.275 397.020, 264.608 395.977 C 410.719 392.949, 434.202 392.659, 437.195 393.843 C 441.131 395.399, 443.039 393.225, 447.925 381.621 C 456.251 361.842, 459.838 345.376, 460.711 322.930 C 461.970 290.557, 454.965 257.493, 439.394 222.305 C 431.929 205.435, 417.993 180.350, 415.090 178.556 C 414.153 177.977, 375 213.513, 375 214.942 C 375 215.361, 377.752 218.808, 381.117 222.602 C 414.990 260.805, 432.430 300.233, 436.175 347.080 C 437.171 359.545, 436.167 384.166, 434.598 385.735 C 434.159 386.175, 381.090 387.364, 246.500 389.951 C 215.700 390.543, 188.094 391.255, 185.154 391.534 L 179.808 392.040 185.866 384.770 L 191.925 377.500 183.729 369.244 C 179.221 364.704, 175.212 361.104, 174.820 361.244 C 174.428 361.385, 163.396 371.879, 150.304 384.563 C 137.212 397.248, 125.659 407.942, 124.630 408.328 C 123.172 408.875, 120.693 407.002, 113.380 399.830 C 107.245 393.814, 104 389.880, 104 388.461 C 104 386.987, 110.985 379.087, 125.750 363.859 C 137.713 351.522, 148.373 340.414, 149.440 339.175 L 151.379 336.923 143.029 328.529 L 134.678 320.135 127.189 326.254 L 119.699 332.374 120.333 314.937 C 120.681 305.347, 121.944 248, 123.139 187.500 C 124.334 127, 125.408 77.371, 125.527 77.212 C 125.645 77.054, 132.351 76.405, 140.428 75.770 C 180.264 72.636, 222.797 84.139, 259.121 107.870 C 270.494 115.300, 282.623 124.681, 290.702 132.296 C 293.563 134.992, 296.379 137.040, 296.959 136.847 C 298.242 136.419, 334.015 98.027, 333.964 97.133 C 333.917 96.305, 317.800 86.467, 307 80.674 C 284.142 68.413, 254.920 58.416, 227.500 53.476 C 216.751 51.539, 183.653 50.677, 173.577 52.071 M 418.500 68.898 C 399.800 75.372, 384.572 81.006, 384.661 81.420 C 385.018 83.097, 429.331 128.056, 430.305 127.732 C 430.884 127.539, 436.830 111.545, 443.518 92.190 C 453.015 64.710, 455.331 57.014, 454.089 57.065 C 453.215 57.100, 437.200 62.425, 418.500 68.898 M 341.251 97.690 C 338.320 99.322, 305.779 134.474, 180 271.873 C 157.725 296.206, 139.334 316.587, 139.131 317.164 C 138.712 318.357, 152.902 333, 154.478 333 C 155.043 333, 182.729 305.037, 216.003 270.861 C 391.818 90.273, 375.128 107.799, 373.259 105.734 C 372.331 104.708, 368.405 102.347, 364.536 100.487 C 355.485 96.136, 346.070 95.005, 341.251 97.690 M 273.853 217.776 C 209.147 284.174, 145.284 349.672, 131.936 363.326 L 107.666 388.151 115.718 396.203 L 123.770 404.255 184.656 344.877 C 233.352 297.387, 362.750 171.360, 407 128.326 L 415.500 120.059 404.016 108.530 C 397.700 102.188, 392.300 97.012, 392.016 97.026 C 391.732 97.040, 338.559 151.378, 273.853 217.776 M 322.810 216.208 C 278.089 259.841, 227.200 309.460, 209.721 326.470 L 177.943 357.398 185.721 365.224 C 190 369.528, 194.048 372.926, 194.719 372.775 C 195.389 372.624, 210.884 358.775, 229.153 342 C 366.978 215.444, 413.192 172.530, 414.610 169.788 C 417.293 164.598, 415.984 156.425, 410.837 146.242 C 408.452 141.522, 405.964 137.484, 405.310 137.267 C 404.655 137.050, 367.530 172.574, 322.810 216.208" stroke="none" fill="#495057" fill-rule="evenodd"/></svg>