<svg xmlns="http://www.w3.org/2000/svg" width="512" height="512" viewBox="0 0 512 512" version="1.1"><path d="" stroke="none" fill="#080404" fill-rule="evenodd"/><path d="M 244.633 47.853 C 243.252 49.379, 242.983 50.667, 243.521 53.183 C 243.911 55.007, 245.303 59.165, 246.615 62.422 C 247.927 65.680, 249 68.395, 249 68.457 C 249 68.519, 242.813 67.293, 235.250 65.733 C 224.148 63.444, 217.831 62.784, 202.450 62.308 C 186.813 61.824, 181.713 62.029, 173.985 63.449 C 168.806 64.401, 161.747 66.242, 158.297 67.540 C 154.848 68.838, 149.977 71.101, 147.474 72.568 C 144.971 74.035, 140.944 77.214, 138.527 79.631 C 136.109 82.049, 127.265 92.233, 118.874 102.263 C 110.482 112.293, 100.404 123.696, 96.478 127.602 C 91.817 132.241, 87.738 135.317, 84.722 136.468 C 80.969 137.902, 79.501 138.022, 76.886 137.110 C 74.290 136.205, 73.215 136.284, 71.334 137.517 C 69.725 138.571, 69 140.003, 69 142.127 C 69 144.596, 70.339 146.546, 75.756 151.963 C 79.472 155.679, 84.817 159.887, 87.634 161.314 C 90.450 162.742, 94.830 164.432, 97.365 165.070 L 101.975 166.231 99.440 170.366 C 98.046 172.640, 95.552 177.123, 93.899 180.329 C 92.245 183.534, 89.360 190.735, 87.488 196.331 C 85.615 201.927, 83.344 211.004, 82.441 216.502 C 81.262 223.678, 80.941 230.028, 81.305 239 C 81.584 245.875, 82.561 255.100, 83.477 259.500 C 84.393 263.900, 86.482 271.550, 88.119 276.500 C 89.755 281.450, 95.078 293.600, 99.947 303.500 C 104.816 313.400, 109.941 325.100, 111.336 329.500 C 112.731 333.900, 114.455 340.200, 115.167 343.500 C 115.927 347.024, 116.431 355.689, 116.388 364.500 C 116.330 376.389, 115.886 381.067, 114.248 387.055 C 113.111 391.211, 110.750 397.640, 109 401.343 C 105.924 407.854, 105.875 408.161, 107.517 410.667 C 109.081 413.054, 109.630 413.215, 114.490 412.713 C 117.392 412.414, 123.081 410.634, 127.133 408.758 C 131.185 406.883, 137.335 402.985, 140.800 400.096 C 144.265 397.207, 149.754 391.505, 152.997 387.423 C 156.240 383.342, 161.021 376.100, 163.621 371.331 C 166.220 366.562, 170.023 358.401, 172.070 353.196 L 175.793 343.731 178.956 348.099 C 180.697 350.501, 183.434 355.219, 185.040 358.584 C 186.646 361.948, 188.691 367.806, 189.585 371.600 C 190.853 376.981, 191.092 381.583, 190.671 392.500 C 190.374 400.200, 189.847 407.426, 189.500 408.557 C 189.103 409.848, 189.544 411.423, 190.684 412.782 C 192.013 414.368, 201.488 417.800, 226 425.574 C 244.425 431.417, 280.381 442.904, 305.901 451.099 C 331.422 459.295, 353.574 466, 355.128 466 C 357.017 466, 358.482 465.194, 359.545 463.571 C 361.046 461.281, 360.938 460.611, 357.647 451.821 C 355.727 446.694, 353.187 438.900, 352.002 434.500 C 350.801 430.039, 349.602 421.836, 349.292 415.959 C 348.861 407.781, 349.111 404.129, 350.408 399.668 C 351.433 396.143, 353.443 392.408, 355.602 390.018 C 357.816 387.568, 360.900 385.530, 363.902 384.533 L 368.679 382.946 386.086 391.098 C 395.660 395.582, 404.529 399.250, 405.795 399.250 C 407.061 399.250, 408.736 398.406, 409.517 397.375 C 410.297 396.344, 410.927 394.825, 410.916 394 C 410.905 393.175, 409.887 384.351, 408.653 374.391 L 406.410 356.283 424.705 316.392 C 434.767 294.453, 443 275.785, 443 274.909 C 443 274.033, 433.395 251.554, 421.656 224.958 C 409.917 198.361, 399.573 176.133, 398.669 175.563 C 397.444 174.790, 394.971 175.255, 388.970 177.387 C 384.540 178.961, 380.802 180.081, 380.664 179.875 C 380.525 179.669, 377.553 176.468, 374.059 172.763 L 367.708 166.026 370.753 160.263 C 372.427 157.093, 374.554 152.250, 375.479 149.500 C 376.404 146.750, 377.502 141.350, 377.918 137.500 C 378.334 133.650, 378.297 126.386, 377.836 121.358 C 377.375 116.330, 375.851 108.257, 374.449 103.419 C 373.047 98.582, 369.822 90.600, 367.282 85.683 C 364.742 80.765, 360.290 73.762, 357.387 70.118 C 354.484 66.475, 349.870 61.787, 347.133 59.699 C 344.396 57.612, 339.365 54.552, 335.954 52.899 C 332.542 51.247, 326.995 49.177, 323.626 48.300 C 320.001 47.356, 313.645 46.725, 308.058 46.756 C 302.865 46.785, 290.231 47.605, 279.982 48.580 C 262.193 50.272, 261.126 50.272, 256.424 48.593 C 253.716 47.626, 250.365 46.610, 248.977 46.337 C 247.261 45.999, 245.873 46.483, 244.633 47.853 M 283 59.133 C 273.375 60.179, 263.813 60.844, 261.750 60.612 C 259.088 60.313, 258 60.576, 258 61.517 C 258 62.247, 259.462 64.737, 261.250 67.050 C 263.038 69.362, 266.264 72.230, 268.419 73.422 C 270.574 74.613, 272.778 76.287, 273.316 77.140 C 273.854 77.993, 273.996 79.878, 273.632 81.330 C 273.209 83.015, 272.070 84.195, 270.481 84.594 C 269.019 84.961, 264.177 84.144, 258.746 82.614 C 253.661 81.182, 244.100 78.920, 237.500 77.587 C 230.900 76.255, 220.831 74.624, 215.124 73.962 C 209.059 73.259, 198.672 72.971, 190.124 73.269 C 181.289 73.577, 173.125 74.425, 169.500 75.411 C 166.200 76.309, 160.670 78.420, 157.211 80.104 C 153.752 81.787, 148.559 85.490, 145.671 88.332 C 142.783 91.174, 134.837 100.250, 128.014 108.500 C 121.190 116.750, 111.083 128.032, 105.554 133.571 C 100.024 139.111, 93.569 144.576, 91.209 145.716 L 86.917 147.790 89.616 149.913 C 91.101 151.080, 94.700 152.729, 97.615 153.576 C 101.864 154.812, 104.050 154.907, 108.641 154.059 C 111.790 153.476, 115.174 153, 116.161 153 C 117.147 153, 118.707 154.150, 119.628 155.555 C 121.251 158.031, 121.206 158.238, 118.155 162.305 C 116.424 164.612, 112.536 170.162, 109.514 174.638 C 106.492 179.114, 102.494 186.341, 100.629 190.698 C 98.764 195.055, 96.234 202.418, 95.006 207.060 C 93.385 213.192, 92.639 219.466, 92.281 230 C 91.918 240.646, 92.208 246.928, 93.373 253.632 C 94.245 258.655, 96.366 266.980, 98.085 272.132 C 99.805 277.284, 104.941 288.938, 109.500 298.029 C 114.058 307.120, 119.133 318.370, 120.777 323.029 C 122.421 327.688, 124.599 335.325, 125.616 340 C 127.009 346.400, 127.448 352.454, 127.396 364.500 C 127.339 377.472, 126.933 381.919, 125.249 388 C 124.106 392.125, 122.832 396.359, 122.418 397.408 C 121.731 399.149, 122.046 399.105, 126.013 396.908 C 128.404 395.584, 132.974 392.094, 136.168 389.154 C 139.362 386.213, 144.009 381.102, 146.494 377.796 C 148.979 374.490, 153.439 366.938, 156.405 361.013 C 159.371 355.089, 163.059 346.366, 164.602 341.629 L 167.407 333.015 164.325 329.758 C 162.630 327.966, 158.535 322.812, 155.226 318.304 C 151.916 313.797, 147.806 307.656, 146.091 304.659 C 144.376 301.661, 141.657 296.018, 140.049 292.119 C 138.441 288.219, 135.972 280.454, 134.562 274.862 C 133.152 269.271, 131.461 258.429, 130.805 250.769 C 129.888 240.064, 129.883 234.142, 130.784 225.171 C 131.429 218.752, 132.899 209.900, 134.052 205.500 C 135.204 201.100, 137.426 194.448, 138.990 190.718 C 140.553 186.988, 143.978 180.495, 146.600 176.288 C 149.222 172.081, 155.024 164.941, 159.492 160.422 C 163.961 155.902, 171.584 149.619, 176.433 146.458 C 181.282 143.298, 190.366 138.492, 196.621 135.779 C 202.876 133.065, 213.130 129.575, 219.408 128.023 C 225.685 126.470, 234.924 124.640, 239.939 123.954 C 245.814 123.151, 254.113 122.922, 263.278 123.310 C 271.563 123.661, 281.674 124.791, 287.500 126.017 C 293 127.175, 301.550 129.464, 306.500 131.105 C 311.450 132.746, 320.900 136.694, 327.500 139.879 C 334.100 143.063, 343.881 148.667, 349.235 152.330 L 358.971 158.992 361.510 153.980 C 362.907 151.224, 364.772 146.164, 365.655 142.735 C 366.890 137.942, 367.111 134.072, 366.614 126 C 366.258 120.225, 365.365 113.025, 364.630 110 C 363.894 106.975, 361.901 101.194, 360.202 97.153 C 358.503 93.112, 355.330 86.805, 353.151 83.138 C 350.972 79.470, 346.664 74.081, 343.577 71.162 C 340.182 67.950, 335.109 64.536, 330.733 62.518 C 326.755 60.684, 320.830 58.692, 317.566 58.092 C 314.303 57.491, 309.128 57.052, 306.066 57.115 C 303.005 57.179, 292.625 58.087, 283 59.133 M 252.500 133.731 C 250.850 133.906, 244.671 134.728, 238.769 135.556 C 232.866 136.385, 223.641 138.334, 218.269 139.886 C 212.896 141.439, 205.091 144.134, 200.925 145.875 C 196.758 147.616, 189.625 151.333, 185.072 154.135 C 180.519 156.937, 173.634 162.210, 169.772 165.854 C 165.910 169.497, 161.029 175.013, 158.925 178.110 C 156.822 181.208, 153.714 186.472, 152.018 189.808 C 150.323 193.144, 148.034 198.490, 146.932 201.687 C 145.831 204.884, 144.254 211.325, 143.428 216 C 142.568 220.872, 141.925 230.541, 141.921 238.654 C 141.918 246.503, 142.588 256.990, 143.426 262.196 C 144.257 267.359, 145.867 274.597, 147.005 278.280 C 148.142 281.963, 150.378 287.884, 151.972 291.438 C 153.567 294.992, 157.228 301.410, 160.109 305.700 C 162.990 309.990, 169.537 318.578, 174.660 324.785 C 179.782 330.992, 185.814 338.781, 188.064 342.094 C 190.314 345.407, 193.699 351.370, 195.586 355.344 C 197.474 359.319, 199.739 365.930, 200.620 370.035 C 201.519 374.228, 202.236 382.321, 202.255 388.500 C 202.273 394.550, 201.981 400.882, 201.604 402.571 L 200.920 405.643 236.210 416.954 C 255.619 423.175, 287.250 433.316, 306.500 439.489 C 325.750 445.663, 342.469 451.020, 343.653 451.394 L 345.805 452.073 343.398 444.287 C 342.074 440.004, 340.318 432.963, 339.496 428.640 C 338.673 424.316, 338.005 416.891, 338.012 412.140 C 338.018 407.388, 338.655 401.129, 339.427 398.230 C 340.198 395.332, 342.151 390.607, 343.767 387.730 C 345.383 384.854, 348.528 381.097, 350.757 379.382 L 354.810 376.264 300.155 350.558 C 259.262 331.325, 243.989 324.601, 239.500 323.852 C 236.200 323.302, 230.836 322.116, 227.581 321.216 C 224.325 320.317, 219.147 317.955, 216.073 315.968 C 212.998 313.982, 208.514 310.138, 206.107 307.428 C 203.701 304.718, 200.475 299.868, 198.939 296.651 C 197.403 293.434, 195.582 287.642, 194.891 283.780 C 193.956 278.549, 193.902 274.914, 194.679 269.524 C 195.252 265.545, 196.921 259.668, 198.388 256.464 C 199.854 253.261, 202.695 248.638, 204.700 246.190 C 206.705 243.743, 211.011 239.779, 214.268 237.381 C 217.555 234.962, 222.931 232.184, 226.345 231.139 C 229.730 230.104, 234.975 228.961, 238 228.598 C 241.025 228.235, 245.932 228.403, 248.903 228.972 L 254.307 230.006 310.903 207.877 C 342.032 195.705, 368.063 185.530, 368.752 185.266 C 369.548 184.960, 368.231 182.845, 365.133 179.456 C 362.455 176.525, 357.391 171.704, 353.881 168.744 C 350.372 165.783, 344.800 161.540, 341.500 159.314 C 338.200 157.088, 331 153.025, 325.500 150.285 C 320 147.544, 312.350 144.141, 308.500 142.722 C 304.650 141.302, 298.125 139.251, 294 138.163 C 289.875 137.076, 283.125 135.709, 279 135.126 C 274.875 134.543, 267.900 133.919, 263.500 133.739 C 259.100 133.559, 254.150 133.556, 252.500 133.731 M 329.341 212.249 L 268.182 236.274 273.841 241.533 C 276.953 244.426, 280.943 249.202, 282.708 252.146 C 284.472 255.091, 286.609 260.182, 287.458 263.460 C 288.306 266.738, 289 272.378, 289 275.992 C 289 279.607, 288.377 284.965, 287.616 287.899 L 286.232 293.234 311.366 305.494 C 325.190 312.237, 350.369 324.545, 367.319 332.846 L 398.139 347.939 400.751 342.219 C 402.188 339.074, 409.728 322.604, 417.505 305.620 L 431.647 274.740 412.573 231.398 C 399.325 201.293, 393.042 188.082, 392 188.141 C 391.175 188.187, 362.978 199.036, 329.341 212.249 M 236.228 240.058 C 233.328 240.459, 228.600 241.939, 225.721 243.348 C 222.842 244.757, 218.649 247.728, 216.404 249.951 C 214.159 252.174, 211.164 256.132, 209.749 258.747 C 208.334 261.361, 206.646 266.219, 205.999 269.542 C 205.143 273.936, 205.108 277.133, 205.872 281.267 C 206.450 284.392, 207.884 289.185, 209.059 291.916 C 210.347 294.909, 213.443 299.026, 216.852 302.277 C 220.684 305.932, 224.433 308.392, 228.477 309.905 C 232.584 311.442, 236.700 312.148, 241.671 312.167 C 245.771 312.183, 250.972 311.494, 253.698 310.573 C 256.339 309.680, 260.638 307.382, 263.252 305.464 C 265.865 303.547, 269.338 300.136, 270.969 297.884 C 272.600 295.632, 274.850 291.345, 275.968 288.357 C 277.292 284.817, 278 280.513, 278 276 C 278 271.431, 277.291 267.180, 275.916 263.505 C 274.770 260.442, 272.392 256.037, 270.632 253.718 C 268.872 251.398, 264.972 247.837, 261.966 245.804 C 258.960 243.772, 254.475 241.665, 252 241.123 C 249.525 240.581, 246.150 239.955, 244.500 239.733 C 242.850 239.510, 239.128 239.657, 236.228 240.058 M 275.938 308.746 C 272.988 311.747, 268.334 315.482, 265.596 317.046 L 260.617 319.889 273.559 325.973 C 280.676 329.319, 311.700 343.910, 342.500 358.398 C 373.300 372.887, 398.579 384.683, 398.675 384.612 C 398.771 384.542, 398.096 378.747, 397.175 371.735 L 395.500 358.986 354.500 338.890 C 331.950 327.837, 306.256 315.305, 297.401 311.042 L 281.302 303.290 275.938 308.746" stroke="none" fill="#040404" fill-rule="evenodd"/></svg>