<svg xmlns="http://www.w3.org/2000/svg" width="512" height="512" viewBox="0 0 512 512" version="1.1"><path d="" stroke="none" fill="#db0600" fill-rule="evenodd"/><path d="M 249.896 56.199 C 250.918 59.167, 252.712 63.475, 253.883 65.770 C 255.054 68.066, 257.406 71.532, 259.110 73.472 C 260.813 75.412, 261.909 77, 261.545 77 C 261.181 77, 255.622 75.679, 249.192 74.064 C 242.761 72.450, 232.775 70.405, 227 69.520 C 221.225 68.636, 209.440 67.640, 200.812 67.309 C 190.554 66.914, 182.420 67.123, 177.312 67.913 C 173.015 68.577, 167.250 69.831, 164.500 70.699 C 161.750 71.568, 156.932 73.562, 153.793 75.132 C 150.655 76.701, 146.413 79.451, 144.367 81.243 C 142.321 83.034, 132.439 94.205, 122.406 106.066 C 112.374 117.927, 101.327 130.260, 97.857 133.472 C 94.388 136.684, 89.556 140.193, 87.121 141.271 C 83.877 142.706, 81.514 143.068, 78.286 142.626 L 73.879 142.022 75.848 144.761 C 76.931 146.267, 79.096 148.692, 80.659 150.149 C 82.221 151.606, 85.695 154.174, 88.378 155.856 C 91.061 157.538, 95.593 159.437, 98.449 160.076 C 102.102 160.893, 105.031 160.942, 108.321 160.240 C 110.895 159.692, 113 159.496, 113 159.807 C 113 160.117, 112.135 161.300, 111.077 162.436 C 110.019 163.571, 106.664 168.475, 103.620 173.334 C 100.576 178.193, 96.300 186.743, 94.118 192.334 C 91.936 197.925, 89.329 206.325, 88.326 211 C 87.019 217.088, 86.501 223.757, 86.501 234.500 C 86.500 243.221, 87.078 252.430, 87.882 256.500 C 88.641 260.350, 90.753 268.092, 92.575 273.705 C 94.397 279.318, 99.547 291.196, 104.020 300.102 C 108.494 309.007, 113.675 320.840, 115.534 326.397 C 117.393 331.954, 119.661 340.775, 120.572 346 C 121.796 353.008, 122.088 358.778, 121.688 368 C 121.343 375.959, 120.388 383.318, 119.058 388.256 C 117.909 392.522, 115.845 398.554, 114.472 401.660 C 113.098 404.766, 112.184 407.517, 112.440 407.774 C 112.697 408.030, 114.390 407.961, 116.203 407.620 C 118.017 407.279, 122.200 405.691, 125.500 404.091 C 128.800 402.491, 134.098 399.101, 137.274 396.557 C 140.450 394.014, 145.978 388.236, 149.559 383.717 C 153.267 379.037, 158.399 370.764, 161.480 364.500 C 164.455 358.450, 168.096 350.016, 169.572 345.758 L 172.254 338.016 168.377 333.429 C 166.245 330.907, 161.064 324.345, 156.865 318.848 C 152.666 313.351, 147.171 304.724, 144.653 299.677 C 142.135 294.630, 138.985 287.113, 137.652 282.974 C 136.320 278.834, 134.483 271.184, 133.570 265.974 C 132.658 260.763, 131.660 250.200, 131.354 242.500 C 130.954 232.437, 131.230 225.688, 132.336 218.500 C 133.181 213, 135.080 204.675, 136.554 200 C 138.029 195.325, 140.594 188.800, 142.254 185.500 C 143.915 182.200, 147.087 176.800, 149.304 173.500 C 151.521 170.200, 156.561 164.300, 160.505 160.390 C 164.449 156.479, 171.011 151.029, 175.088 148.278 C 179.165 145.527, 185.684 141.673, 189.576 139.713 C 193.468 137.753, 201.146 134.586, 206.638 132.674 C 212.130 130.763, 221.095 128.282, 226.561 127.161 C 232.028 126.040, 240.775 124.661, 246 124.096 C 252.288 123.416, 259.727 123.392, 268 124.024 C 274.875 124.550, 284.100 125.703, 288.500 126.586 C 292.900 127.470, 301.269 129.725, 307.098 131.597 C 312.927 133.470, 322.827 137.601, 329.098 140.777 C 335.369 143.954, 343.650 148.656, 347.500 151.226 C 351.350 153.796, 356.617 157.525, 359.204 159.512 L 363.909 163.124 366.869 157.260 C 368.497 154.034, 370.587 148.789, 371.513 145.603 C 372.590 141.898, 373.186 136.331, 373.167 130.155 C 373.150 124.845, 372.395 116.928, 371.489 112.562 C 370.583 108.197, 368.809 101.881, 367.546 98.527 C 366.284 95.173, 364.023 89.970, 362.522 86.965 C 361.021 83.959, 357.351 78.281, 354.365 74.348 C 351.380 70.414, 346.579 65.375, 343.696 63.151 C 340.814 60.927, 335.507 57.728, 331.903 56.042 C 327.954 54.194, 322.080 52.499, 317.115 51.776 C 310.158 50.762, 306.131 50.858, 291.190 52.393 C 281.460 53.394, 270.507 54.446, 266.848 54.733 C 262.274 55.092, 258.837 54.779, 255.848 53.733 C 253.457 52.896, 250.721 51.894, 249.770 51.506 C 248.155 50.848, 248.163 51.161, 249.896 56.199 M 241.500 128.611 C 239.850 128.853, 234.046 129.975, 228.601 131.104 C 223.157 132.233, 214.766 134.443, 209.955 136.015 C 205.144 137.587, 197.449 140.752, 192.854 143.048 C 188.259 145.345, 181.800 149.048, 178.500 151.278 C 175.200 153.507, 170.308 157.170, 167.628 159.416 C 164.948 161.662, 159.955 166.997, 156.531 171.270 C 153.108 175.544, 148.464 182.760, 146.211 187.306 C 143.958 191.852, 141.006 199.401, 139.649 204.082 C 138.293 208.763, 136.641 217.072, 135.979 222.546 C 135.224 228.796, 135.030 236.965, 135.459 244.500 C 135.834 251.100, 136.781 260.177, 137.562 264.671 C 138.343 269.165, 140.165 276.590, 141.610 281.171 C 143.054 285.752, 145.820 292.650, 147.757 296.500 C 149.693 300.350, 153.412 306.650, 156.022 310.500 C 158.632 314.350, 165.577 323.350, 171.456 330.500 C 177.335 337.650, 183.948 346.512, 186.153 350.194 C 188.358 353.876, 191.219 359.951, 192.512 363.694 C 193.805 367.437, 195.347 374.897, 195.938 380.272 C 196.719 387.362, 196.705 392.658, 195.890 399.572 C 195.272 404.812, 195.003 409.337, 195.293 409.627 C 195.583 409.917, 211.274 415.117, 230.160 421.183 C 249.047 427.249, 284.731 438.671, 309.458 446.565 C 334.185 454.458, 354.568 460.765, 354.754 460.580 C 354.939 460.394, 353.282 454.995, 351.070 448.583 C 348.859 442.170, 346.317 433.013, 345.422 428.235 C 344.321 422.358, 343.928 416.143, 344.209 409.024 C 344.540 400.597, 345.091 397.532, 346.972 393.642 C 348.265 390.970, 350.847 387.303, 352.711 385.493 C 354.574 383.682, 357.452 381.641, 359.105 380.956 C 360.759 380.272, 361.749 379.368, 361.306 378.949 C 360.863 378.529, 336.875 367.067, 308 353.476 C 279.125 339.886, 253.025 327.641, 250 326.265 C 246.975 324.888, 240.808 323.193, 236.295 322.496 C 231.563 321.766, 225.331 319.939, 221.572 318.180 C 217.987 316.503, 212.810 313.032, 210.068 310.467 C 207.326 307.902, 203.666 303.597, 201.936 300.900 C 200.205 298.203, 197.937 293.257, 196.895 289.909 C 195.715 286.121, 195 280.868, 195 276 C 195 271.132, 195.715 265.879, 196.895 262.091 C 197.937 258.743, 200.205 253.797, 201.936 251.100 C 203.666 248.403, 207.326 244.098, 210.068 241.533 C 212.810 238.968, 218 235.491, 221.602 233.805 C 225.321 232.065, 231.368 230.278, 235.596 229.668 C 241.061 228.881, 244.504 228.903, 248.543 229.750 L 254.044 230.904 314.272 207.339 C 347.397 194.378, 374.911 183.391, 375.413 182.924 C 375.941 182.433, 372.335 178.164, 366.850 172.787 C 361.639 167.679, 353.454 160.720, 348.660 157.322 C 343.867 153.923, 335.120 148.679, 329.223 145.666 C 323.325 142.654, 313.846 138.572, 308.159 136.596 C 302.471 134.620, 293.471 132.072, 288.159 130.933 C 281.159 129.433, 273.820 128.768, 261.500 128.516 C 252.150 128.326, 243.150 128.368, 241.500 128.611 M 330.500 205.577 C 294.750 219.528, 264.406 231.433, 263.069 232.033 C 260.680 233.103, 260.724 233.172, 265.648 235.984 C 268.403 237.557, 273.001 241.409, 275.866 244.543 C 278.730 247.677, 281.782 251.611, 282.647 253.284 C 283.512 254.957, 285.070 258.798, 286.110 261.819 C 287.399 265.565, 288 270.086, 288 276.031 C 288 281.322, 287.395 286.463, 286.461 289.111 C 285.614 291.511, 285.277 293.598, 285.711 293.749 C 286.145 293.901, 312.573 306.848, 344.441 322.522 C 376.308 338.195, 402.719 350.677, 403.132 350.259 C 403.545 349.842, 411.579 332.684, 420.985 312.131 L 438.088 274.762 417.459 228.131 C 406.113 202.484, 396.531 181.210, 396.165 180.856 C 395.799 180.502, 366.250 191.626, 330.500 205.577 M 229.500 235.399 C 227.300 236.095, 223.925 237.476, 222 238.469 C 220.075 239.462, 216.838 241.580, 214.806 243.177 C 212.774 244.773, 209.500 248.275, 207.530 250.959 C 205.560 253.643, 203.096 258.313, 202.056 261.337 C 201.016 264.361, 199.869 269.234, 199.507 272.167 C 199.092 275.540, 199.396 280.072, 200.335 284.500 C 201.152 288.350, 203.081 293.750, 204.622 296.500 C 206.162 299.250, 209.682 303.710, 212.444 306.411 C 215.205 309.112, 220.172 312.580, 223.482 314.117 C 226.792 315.654, 232.313 317.357, 235.750 317.900 C 239.852 318.549, 244.148 318.551, 248.250 317.907 C 251.688 317.367, 256.946 315.704, 259.936 314.213 C 262.926 312.721, 267.792 309.291, 270.749 306.592 C 273.707 303.892, 277.291 299.392, 278.714 296.592 C 280.137 293.791, 281.903 289.250, 282.639 286.500 C 283.374 283.750, 283.982 278.994, 283.988 275.932 C 283.995 272.869, 283.275 267.919, 282.390 264.932 C 281.504 261.944, 279.910 257.792, 278.846 255.705 C 277.783 253.618, 275.245 250.057, 273.207 247.792 C 271.168 245.527, 267.159 242.172, 264.298 240.337 C 261.436 238.501, 256.504 236.324, 253.337 235.500 C 250.171 234.675, 244.412 234.030, 240.540 234.067 C 236.668 234.104, 231.700 234.703, 229.500 235.399 M 278.751 304.417 C 275.833 308.359, 271.651 312.403, 267.906 314.904 C 264.554 317.142, 259.941 319.475, 257.656 320.088 C 255.370 320.701, 253.103 321.445, 252.619 321.742 C 252.134 322.038, 255.509 324.066, 260.119 326.248 C 264.728 328.431, 298.994 344.568, 336.264 362.108 C 373.533 379.649, 404.443 394, 404.951 394 C 405.459 394, 405.666 392.538, 405.410 390.750 C 405.155 388.962, 404.091 380.355, 403.046 371.623 C 402.001 362.890, 400.775 355.434, 400.323 355.053 C 399.870 354.672, 373.607 341.679, 341.960 326.180 C 310.313 310.681, 284.213 298, 283.960 298 C 283.707 298, 281.363 300.888, 278.751 304.417" stroke="none" fill="#db0600" fill-rule="evenodd"/></svg>