<svg xmlns="http://www.w3.org/2000/svg" width="512" height="512" viewBox="0 0 512 512" version="1.1"><path d="" stroke="none" fill="#080404" fill-rule="evenodd"/><path d="M 227.500 47.627 C 222.550 48.397, 214.323 50.164, 209.217 51.554 C 204.111 52.944, 196.613 55.594, 192.555 57.443 C 188.496 59.293, 182.525 62.606, 179.285 64.806 C 176.045 67.007, 170.943 71.467, 167.947 74.720 C 164.951 77.972, 161.045 83.587, 159.266 87.199 C 157.487 90.811, 155.356 96.631, 154.531 100.133 C 153.705 103.635, 153.023 109.704, 153.015 113.619 C 153.007 117.534, 153.661 124.509, 154.470 129.119 C 155.278 133.729, 157.290 141.482, 158.940 146.348 C 160.590 151.215, 164.214 159.957, 166.993 165.775 C 169.772 171.594, 173.415 178.578, 175.087 181.295 L 178.127 186.236 175.813 188.696 C 173.748 190.892, 173.465 192.298, 173.171 201.828 C 172.860 211.900, 172.986 212.711, 175.397 216.259 L 177.952 220.018 176.371 227.759 C 175.501 232.017, 172.994 242.250, 170.799 250.500 C 167.251 263.832, 166.857 266.445, 167.250 274 C 167.519 279.158, 168.539 284.844, 169.845 288.461 C 171.029 291.739, 173.543 296.751, 175.433 299.598 L 178.870 304.773 176.685 306.720 C 175.483 307.791, 172.364 309.453, 169.754 310.415 C 167.144 311.376, 161.744 314.301, 157.754 316.915 C 153.764 319.529, 147.870 324.309, 144.656 327.537 C 141.441 330.765, 136.834 336.177, 134.418 339.563 C 132.001 342.949, 128.194 349.376, 125.958 353.844 C 123.721 358.313, 120.762 365.238, 119.382 369.234 C 118.002 373.230, 115.771 381.675, 114.425 388 C 113.078 394.325, 111.448 406.266, 110.803 414.537 C 109.939 425.606, 109.910 433.982, 110.691 446.285 C 111.351 456.680, 112.223 463.564, 112.999 464.498 C 114.096 465.821, 131.145 466, 256 466 C 378.229 466, 397.920 465.801, 398.951 464.558 C 399.627 463.744, 400.573 457.106, 401.124 449.308 C 401.781 440.026, 401.757 430.231, 401.050 419.423 C 400.472 410.581, 399.103 398.371, 398.009 392.291 C 396.914 386.210, 394.651 377.020, 392.981 371.868 C 391.311 366.715, 387.919 358.447, 385.443 353.493 C 382.966 348.539, 378.705 341.502, 375.974 337.854 C 373.242 334.206, 368.296 328.712, 364.983 325.645 C 361.671 322.578, 356.868 318.629, 354.310 316.869 C 351.752 315.110, 346.742 312.439, 343.175 310.934 C 339.211 309.262, 336.090 307.208, 335.145 305.650 C 333.746 303.344, 333.749 302.930, 335.185 301.301 C 336.058 300.310, 337.915 297.218, 339.312 294.429 C 340.710 291.639, 342.561 286.624, 343.426 283.284 C 344.292 279.944, 344.980 274.801, 344.956 271.856 C 344.932 268.910, 344.538 264.700, 344.079 262.500 C 343.621 260.300, 341.880 253.550, 340.211 247.500 C 338.541 241.450, 336.406 232.888, 335.466 228.474 L 333.756 220.449 336.378 216.585 C 338.771 213.058, 339 211.856, 339 202.809 C 339 194.614, 338.639 192.255, 336.917 189.198 L 334.833 185.500 342.252 171 C 346.332 163.025, 351.058 152.225, 352.753 147 C 354.448 141.775, 356.435 135.025, 357.168 132 C 357.935 128.832, 358.476 121.200, 358.443 114 C 358.396 103.690, 357.989 100.361, 356.120 95 C 354.873 91.425, 352.107 85.800, 349.971 82.500 C 347.836 79.200, 344.156 74.641, 341.794 72.368 C 339.432 70.095, 334.763 66.395, 331.418 64.145 C 328.074 61.895, 322.224 58.731, 318.418 57.114 C 314.613 55.496, 307.450 53.018, 302.500 51.607 C 297.550 50.195, 288.890 48.356, 283.257 47.520 C 276.662 46.541, 266.510 46.040, 254.757 46.114 C 244.688 46.176, 232.464 46.855, 227.500 47.627 M 229.500 58.528 C 224.550 59.322, 216.518 61.111, 211.650 62.502 C 206.783 63.893, 199.583 66.530, 195.650 68.361 C 191.718 70.191, 185.913 73.672, 182.751 76.095 C 179.589 78.518, 175.240 82.856, 173.087 85.735 C 170.934 88.615, 168.121 94.015, 166.836 97.735 C 164.915 103.297, 164.511 106.456, 164.564 115.500 C 164.616 124.329, 165.177 128.473, 167.410 136.500 C 168.940 142, 172.325 151.285, 174.932 157.132 C 177.539 162.980, 181.813 171.417, 184.431 175.882 L 189.190 184 214.595 184 L 240 184 240 163.079 L 240 142.159 226.917 141.829 C 215.341 141.538, 213.671 141.276, 212.417 139.559 C 211.379 138.137, 211 134.377, 211 125.500 C 211 116.623, 211.379 112.863, 212.417 111.441 C 213.671 109.724, 215.341 109.462, 226.917 109.171 L 240 108.841 240 94.992 C 240 83.735, 240.294 80.849, 241.571 79.571 C 242.837 78.306, 245.645 78, 256 78 C 266.355 78, 269.163 78.306, 270.429 79.571 C 271.706 80.849, 272 83.735, 272 94.992 L 272 108.841 285.083 109.171 C 296.659 109.462, 298.329 109.724, 299.583 111.441 C 300.621 112.863, 301 116.623, 301 125.500 C 301 134.377, 300.621 138.137, 299.583 139.559 C 298.329 141.276, 296.659 141.538, 285.083 141.829 L 272 142.159 272 163.079 L 272 184 297.414 184 L 322.828 184 326.356 177.691 C 328.296 174.221, 331.885 167.359, 334.330 162.441 C 336.775 157.523, 340.153 149.591, 341.837 144.814 C 343.521 140.036, 345.597 132.449, 346.449 127.953 C 347.302 123.457, 347.993 117.466, 347.985 114.640 C 347.977 111.813, 347.305 106.679, 346.492 103.231 C 345.679 99.783, 343.834 94.632, 342.391 91.785 C 340.948 88.937, 337.232 84.078, 334.134 80.986 C 331.035 77.894, 325.283 73.489, 321.351 71.197 C 317.418 68.905, 310.216 65.694, 305.346 64.063 C 300.476 62.431, 292.443 60.341, 287.496 59.419 C 281.585 58.318, 271.640 57.630, 258.500 57.413 C 244.430 57.180, 235.832 57.511, 229.500 58.528 M 251 102.277 C 251 112.676, 250.662 116.037, 249.443 117.777 C 247.971 119.880, 247.185 120, 234.943 120 L 222 120 222 125.500 L 222 131 234.845 131 C 246.019 131, 247.905 131.238, 249.345 132.829 C 250.791 134.426, 251 137.775, 251 159.329 L 251 184 256 184 L 261 184 261 159.723 C 261 139.368, 261.252 135.086, 262.557 133.223 C 264.029 131.120, 264.815 131, 277.057 131 L 290 131 290 125.500 L 290 120 277.057 120 C 264.815 120, 264.029 119.880, 262.557 117.777 C 261.338 116.037, 261 112.676, 261 102.277 L 261 89 256 89 L 251 89 251 102.277 M 184.417 196.355 C 184.131 197.101, 184.033 200.588, 184.199 204.105 L 184.500 210.500 256.250 210.757 L 328 211.013 328 203.007 L 328 195 256.469 195 C 197.201 195, 184.848 195.232, 184.417 196.355 M 188.569 224.250 C 188.311 225.488, 185.774 235.943, 182.932 247.485 C 178.549 265.287, 177.837 269.481, 178.242 275.136 C 178.568 279.688, 179.666 283.816, 181.707 288.151 C 183.350 291.643, 186.811 296.842, 189.398 299.703 C 191.985 302.565, 196.891 307.004, 200.300 309.566 C 203.710 312.129, 209.474 315.724, 213.110 317.556 C 216.747 319.387, 222.597 321.859, 226.111 323.049 C 229.625 324.238, 236.325 325.838, 241 326.602 C 245.675 327.367, 252.200 327.992, 255.500 327.992 C 258.800 327.992, 265.325 327.367, 270 326.602 C 274.675 325.838, 281.385 324.235, 284.912 323.041 C 288.438 321.847, 293.613 319.721, 296.412 318.317 C 299.210 316.912, 304.487 313.791, 308.137 311.380 C 311.787 308.969, 317.472 304.112, 320.770 300.587 C 324.068 297.061, 328.057 291.549, 329.633 288.338 C 331.901 283.720, 332.571 280.828, 332.839 274.500 C 333.125 267.749, 332.548 264.002, 329.140 250.500 C 326.920 241.700, 324.540 231.688, 323.851 228.250 L 322.600 222 318.693 222 C 315.372 222, 314.891 222.262, 315.487 223.750 C 315.872 224.713, 317.319 229.775, 318.702 235 C 320.611 242.217, 321.236 247.144, 321.301 255.500 C 321.370 264.511, 320.977 267.660, 319.126 272.917 C 317.883 276.446, 315.527 281.280, 313.891 283.659 C 312.254 286.037, 309.861 288.248, 308.571 288.571 C 306.839 289.006, 304.957 288.186, 301.363 285.427 C 298.689 283.375, 293.350 280.201, 289.500 278.374 C 285.650 276.548, 279.575 274.273, 276 273.319 C 271.212 272.041, 265.812 271.603, 255.500 271.656 C 244.650 271.712, 239.780 272.193, 233.856 273.796 C 229.653 274.933, 223.485 277.241, 220.150 278.924 C 216.815 280.608, 212.605 283.278, 210.793 284.858 C 208.982 286.438, 206.558 288.024, 205.407 288.383 C 204.033 288.811, 202.410 288.324, 200.683 286.966 C 199.237 285.827, 196.723 282.107, 195.097 278.698 C 193.471 275.289, 191.599 269.382, 190.937 265.571 C 190.219 261.439, 189.987 255.385, 190.363 250.571 C 190.709 246.132, 192.054 238.675, 193.350 234 C 194.646 229.325, 196.046 224.713, 196.460 223.750 C 197.108 222.246, 196.640 222, 193.126 222 C 189.692 222, 188.963 222.360, 188.569 224.250 M 205.908 231.750 C 203.360 239.549, 202.627 243.718, 202.242 252.583 C 201.875 261.052, 202.150 265.003, 203.408 269.333 C 204.315 272.450, 205.262 275, 205.513 275 C 205.764 275, 208.150 273.659, 210.814 272.019 C 213.478 270.380, 217.873 268.058, 220.579 266.858 C 223.286 265.659, 228.650 263.831, 232.500 262.796 C 236.443 261.736, 244.741 260.664, 251.500 260.341 C 260.322 259.920, 265.981 260.202, 272.868 261.405 C 278.021 262.304, 285.495 264.397, 289.477 266.055 C 293.459 267.712, 298.821 270.403, 301.393 272.034 C 303.965 273.665, 306.242 275, 306.452 275 C 306.662 275, 307.659 272.863, 308.667 270.250 C 310.048 266.672, 310.484 262.910, 310.434 255 C 310.385 247.382, 309.763 242.353, 308.167 236.678 C 306.957 232.376, 305.322 227.313, 304.534 225.428 L 303.102 222 256.098 222 L 209.094 222 205.908 231.750 M 244.571 242.571 C 243.707 243.436, 243 245.136, 243 246.349 C 243 247.562, 243.676 249.521, 244.503 250.701 C 245.330 251.881, 247.645 253.388, 249.647 254.049 C 251.761 254.746, 255.585 255.013, 258.766 254.685 C 262.498 254.300, 265.002 253.407, 266.622 251.885 C 268.142 250.457, 269 248.524, 269 246.526 C 269 244.807, 268.460 242.860, 267.800 242.200 C 267.140 241.540, 265.395 241, 263.922 241 C 262.450 241, 260.685 241.675, 260 242.500 C 259.315 243.325, 257.515 244, 256 244 C 254.485 244, 252.685 243.325, 252 242.500 C 251.315 241.675, 249.717 241, 248.449 241 C 247.181 241, 245.436 241.707, 244.571 242.571 M 244.892 281.449 C 242.358 282.148, 237.923 284.005, 235.037 285.576 C 232.151 287.147, 228.015 290.449, 225.846 292.912 C 222.803 296.370, 221.971 298.080, 222.201 300.406 C 222.421 302.622, 223.558 304.150, 226.500 306.179 C 228.700 307.697, 233.875 310.413, 238 312.214 C 244.907 315.230, 246.331 315.490, 256 315.490 C 265.676 315.490, 267.104 315.229, 274.200 312.172 C 278.435 310.348, 283.723 307.535, 285.950 305.921 C 289.051 303.675, 290 302.319, 290 300.135 C 290 298.224, 288.661 295.761, 285.947 292.678 C 283.518 289.918, 279.412 286.859, 275.697 285.042 C 272.289 283.375, 267.076 281.558, 264.114 281.005 C 261.151 280.452, 256.651 280.040, 254.114 280.089 C 251.576 280.139, 247.427 280.751, 244.892 281.449 M 247.951 292.303 C 245.448 293.010, 241.675 294.656, 239.566 295.959 C 236.041 298.138, 235.875 298.435, 237.511 299.632 C 238.491 300.348, 242.212 301.906, 245.780 303.093 C 250.710 304.734, 253.737 305.128, 258.384 304.735 C 261.748 304.451, 267.111 303.228, 270.303 302.017 C 273.549 300.786, 275.937 299.306, 275.723 298.658 C 275.513 298.021, 272.902 296.259, 269.920 294.742 C 266.499 293.002, 262.287 291.806, 258.500 291.501 C 255.077 291.224, 250.546 291.569, 247.951 292.303 M 183.758 314.805 C 182.377 316.287, 179.385 320.264, 177.109 323.643 C 174.833 327.021, 171.136 333.701, 168.893 338.488 C 166.650 343.274, 163.565 352.210, 162.037 358.345 C 160.509 364.480, 158.978 371.367, 158.634 373.650 L 158.009 377.799 206.563 415.462 C 233.268 436.176, 255.691 452.984, 256.392 452.812 C 257.093 452.640, 268.292 444.400, 281.279 434.500 C 294.265 424.600, 304.915 416.230, 304.945 415.900 C 304.975 415.570, 280.600 393.970, 250.777 367.900 C 220.954 341.830, 194.239 318.612, 191.411 316.305 L 186.269 312.109 183.758 314.805 M 322.385 314.827 C 320.671 316.297, 306.856 327.850, 291.683 340.500 C 276.511 353.150, 264.076 363.788, 264.049 364.141 C 264.022 364.493, 275.199 374.564, 288.887 386.521 C 302.574 398.477, 314.081 408.241, 314.456 408.219 C 314.831 408.196, 323.882 401.369, 334.569 393.048 C 345.256 384.726, 353.993 377.374, 353.984 376.709 C 353.976 376.044, 353.095 371.363, 352.028 366.306 C 350.960 361.249, 348.941 353.697, 347.539 349.523 C 346.138 345.349, 343.366 338.687, 341.379 334.717 C 339.392 330.748, 335.847 324.800, 333.502 321.500 C 331.156 318.200, 328.396 314.747, 327.369 313.827 C 325.607 312.249, 325.321 312.307, 322.385 314.827 M 153.165 334.750 C 149.413 338.462, 144.415 344.363, 142.058 347.863 C 139.701 351.362, 136.413 357.212, 134.752 360.863 C 133.090 364.513, 130.657 370.645, 129.344 374.488 C 128.031 378.331, 126.080 385.852, 125.008 391.200 C 123.936 396.549, 122.545 407.090, 121.917 414.626 C 121.231 422.861, 121.061 433.647, 121.491 441.663 L 122.205 455 135.682 455 L 149.159 455 148.599 452.250 C 148.291 450.738, 147.562 445.675, 146.979 441 C 146.396 436.325, 145.652 425.300, 145.326 416.500 C 144.965 406.776, 145.206 395.597, 145.941 388 C 146.605 381.125, 147.794 371.784, 148.581 367.241 C 149.369 362.699, 151.414 354.599, 153.127 349.241 C 154.839 343.884, 157.542 336.913, 159.134 333.750 C 160.726 330.587, 161.569 328, 161.008 328 C 160.446 328, 156.917 331.038, 153.165 334.750 M 351.235 329.008 C 351.584 329.828, 353.454 334.464, 355.390 339.309 C 357.327 344.153, 359.828 351.461, 360.950 355.548 C 362.071 359.635, 363.689 367.146, 364.545 372.240 C 365.401 377.333, 366.354 390.500, 366.662 401.500 C 366.994 413.324, 366.771 425.997, 366.115 432.500 C 365.506 438.550, 364.718 446.087, 364.364 449.250 L 363.720 455 376.710 455 L 389.699 455 390.348 444.250 C 390.704 438.337, 390.555 426.750, 390.016 418.500 C 389.477 410.250, 388.370 399.764, 387.556 395.197 C 386.741 390.631, 385.152 383.607, 384.025 379.589 C 382.897 375.571, 380.808 369.407, 379.381 365.892 C 377.955 362.376, 375.015 356.461, 372.848 352.746 C 370.681 349.032, 366.723 343.367, 364.052 340.158 C 361.381 336.949, 357.262 332.792, 354.898 330.919 C 352.534 329.047, 350.886 328.187, 351.235 329.008 M 232 336.382 C 232 336.592, 237.205 341.320, 243.567 346.888 L 255.135 357.013 267.101 346.873 C 273.682 341.297, 278.940 336.625, 278.784 336.491 C 278.628 336.358, 275.125 336.850, 271 337.585 C 266.875 338.319, 260.125 338.923, 256 338.925 C 251.875 338.928, 244.900 338.280, 240.500 337.485 C 236.100 336.690, 232.387 336.030, 232.250 336.020 C 232.113 336.009, 232 336.172, 232 336.382 M 156.310 411.615 C 156.647 423.102, 157.601 437.398, 158.430 443.385 C 159.258 449.371, 160.106 454.439, 160.313 454.647 C 160.521 454.854, 178.274 454.906, 199.765 454.762 L 238.839 454.500 198.823 423.500 C 176.814 406.450, 158.107 392.102, 157.252 391.615 C 155.858 390.823, 155.760 392.899, 156.310 411.615 M 314.332 422.750 L 273.500 454.500 312.405 454.762 C 333.802 454.906, 351.504 454.829, 351.743 454.591 C 351.981 454.352, 352.832 449.734, 353.633 444.329 C 354.434 438.923, 355.360 424.712, 355.691 412.750 C 356.021 400.788, 356.037 391, 355.727 391 C 355.417 391, 336.789 405.288, 314.332 422.750" stroke="none" fill="#040404" fill-rule="evenodd"/></svg>