<svg xmlns="http://www.w3.org/2000/svg" width="512" height="512" viewBox="0 0 512 512" version="1.1"><path d="" stroke="none" fill="#000000" fill-rule="evenodd"/><path d="M 234.500 51.973 C 230.650 52.436, 223.966 53.559, 219.646 54.469 C 215.326 55.379, 208.006 57.412, 203.379 58.985 C 198.752 60.559, 192.094 63.453, 188.584 65.416 C 185.074 67.379, 179.727 71.001, 176.702 73.465 C 173.677 75.929, 169.396 80.650, 167.188 83.956 C 164.980 87.263, 162.122 93.012, 160.837 96.734 C 158.873 102.420, 158.519 105.336, 158.622 115 C 158.715 123.858, 159.332 128.734, 161.308 136.226 C 162.719 141.576, 165.975 150.876, 168.544 156.893 C 171.112 162.910, 175.358 171.583, 177.979 176.167 C 180.599 180.750, 183.251 184.455, 183.872 184.400 C 184.492 184.345, 197.600 184.233, 213 184.150 L 241 184 241 162.500 L 241 141 228.071 141 C 217.652 141, 214.838 140.695, 213.571 139.429 C 212.312 138.170, 212 135.400, 212 125.500 C 212 115.600, 212.312 112.830, 213.571 111.571 C 214.838 110.305, 217.652 110, 228.071 110 L 241 110 241 95.700 C 241 85.911, 241.379 81.021, 242.200 80.200 C 243.006 79.394, 247.533 79, 256 79 C 264.467 79, 268.994 79.394, 269.800 80.200 C 270.621 81.021, 271 85.911, 271 95.700 L 271 110 283.929 110 C 294.348 110, 297.162 110.305, 298.429 111.571 C 299.688 112.830, 300 115.600, 300 125.500 C 300 135.400, 299.688 138.170, 298.429 139.429 C 297.162 140.695, 294.348 141, 283.929 141 L 271 141 271 162.500 L 271 184 299 184.150 C 314.400 184.233, 327.556 184.345, 328.237 184.400 C 328.917 184.455, 333.092 177.300, 337.516 168.500 C 341.939 159.700, 346.779 148.812, 348.270 144.304 C 349.761 139.797, 351.702 131.932, 352.583 126.828 C 353.632 120.752, 353.961 115.295, 353.536 111.024 C 353.180 107.436, 352.198 102.025, 351.355 99 C 350.512 95.975, 348.445 90.903, 346.761 87.729 C 344.998 84.407, 340.887 79.305, 337.071 75.706 C 333.083 71.944, 327.149 67.739, 322.172 65.150 C 317.623 62.783, 310.666 59.747, 306.712 58.402 C 302.759 57.058, 295.019 55.032, 289.512 53.902 C 282.074 52.374, 274.616 51.754, 260.500 51.489 C 250.050 51.293, 238.350 51.511, 234.500 51.973 M 245 98.500 L 245 114 230.500 114 L 216 114 216 125.500 L 216 137 230.500 137 L 245 137 245 160.500 L 245 184 256 184 L 267 184 267 160.500 L 267 137 281.500 137 L 296 137 296 125.500 L 296 114 281.500 114 L 267 114 267 98.500 L 267 83 256 83 L 245 83 245 98.500 M 181.025 190.975 C 179.939 192.061, 178.757 194.122, 178.397 195.555 C 178.037 196.988, 177.972 201.364, 178.252 205.280 C 178.692 211.424, 179.128 212.713, 181.436 214.699 L 184.112 217 256.419 217 L 328.727 217 331.364 214.364 C 333.829 211.898, 333.999 211.137, 333.985 202.614 C 333.976 197.601, 333.639 193.005, 333.235 192.400 C 332.831 191.795, 331.517 190.782, 330.316 190.150 C 328.728 189.314, 308.309 189, 255.566 189 C 184.645 189, 182.955 189.045, 181.025 190.975 M 183.662 221.750 C 183.411 222.162, 182.271 226.775, 181.129 232 C 179.986 237.225, 177.686 246.225, 176.017 252 C 174.348 257.775, 172.707 265.427, 172.371 269.004 C 171.949 273.486, 172.255 277.446, 173.355 281.739 C 174.232 285.166, 176.143 290.339, 177.600 293.235 C 179.174 296.363, 183.557 301.747, 188.397 306.500 C 193.293 311.308, 199.727 316.344, 204.522 319.122 C 208.910 321.664, 215.501 324.926, 219.170 326.372 C 222.838 327.817, 229.813 329.965, 234.670 331.144 C 241.289 332.752, 246.630 333.289, 256 333.289 C 265.242 333.289, 270.725 332.748, 277.037 331.214 C 281.733 330.072, 288.033 328.174, 291.037 326.995 C 294.042 325.817, 299.163 323.504, 302.417 321.856 C 305.672 320.209, 311.632 316.378, 315.663 313.345 C 319.693 310.312, 324.971 305.506, 327.392 302.665 C 329.812 299.824, 333.146 294.800, 334.801 291.500 C 336.455 288.200, 338.346 282.853, 339.003 279.617 C 339.694 276.212, 339.912 271.455, 339.521 268.326 C 339.150 265.352, 337.339 257.420, 335.497 250.699 C 333.655 243.979, 331.338 234.547, 330.348 229.740 L 328.549 221 321.168 221 C 314.546 221, 313.856 221.180, 314.464 222.750 C 314.837 223.713, 316.312 228.325, 317.743 233 C 319.978 240.304, 320.351 243.399, 320.396 255 C 320.442 266.753, 320.156 269.230, 318.192 274.145 C 316.951 277.249, 314.597 281.637, 312.961 283.895 C 311.326 286.153, 309.222 288, 308.287 288 C 307.352 288, 304.002 286.187, 300.842 283.970 C 297.682 281.754, 292.220 278.594, 288.704 276.949 C 285.189 275.304, 278.979 273.216, 274.906 272.310 C 270.064 271.232, 263.172 270.685, 255 270.727 C 245.764 270.775, 240.504 271.324, 234.856 272.828 C 230.653 273.948, 224.353 276.297, 220.856 278.048 C 217.360 279.800, 212.539 282.825, 210.142 284.772 C 206.421 287.794, 205.399 288.176, 203.142 287.387 C 201.220 286.715, 199.474 284.423, 196.737 278.982 C 194.048 273.633, 192.672 269.248, 191.913 263.601 C 191.151 257.926, 191.166 253.340, 191.967 247.320 C 192.581 242.710, 194.189 235.120, 195.541 230.454 C 196.894 225.788, 198 221.752, 198 221.485 C 198 221.218, 194.877 221, 191.059 221 C 187.241 221, 183.913 221.338, 183.662 221.750 M 199.899 230.750 C 197.230 238.895, 196.627 242.499, 196.235 252.640 C 195.858 262.401, 196.107 265.829, 197.507 270.140 C 198.464 273.088, 200.175 277.188, 201.308 279.250 C 202.441 281.313, 203.732 283, 204.175 283 C 204.619 283, 207.023 281.442, 209.517 279.539 C 212.011 277.635, 216.898 274.719, 220.376 273.059 C 223.855 271.399, 229.806 269.270, 233.600 268.327 C 238.614 267.083, 244.736 266.613, 256 266.608 C 267.815 266.603, 273.045 267.026, 278 268.389 C 281.575 269.373, 287.650 271.641, 291.500 273.429 C 295.350 275.218, 300.626 278.315, 303.224 280.314 L 307.947 283.946 310.574 279.463 C 312.019 276.997, 313.891 272.847, 314.733 270.240 C 315.614 267.512, 316.289 261.680, 316.324 256.500 C 316.360 251.210, 315.639 244.202, 314.576 239.500 C 313.582 235.100, 311.888 229.137, 310.812 226.250 L 308.856 221 255.975 221 L 203.094 221 199.899 230.750 M 246 245.878 C 246 246.910, 246.631 248.279, 247.403 248.920 C 248.175 249.560, 250.266 250.503, 252.049 251.014 C 254.029 251.582, 256.881 251.587, 259.369 251.029 C 261.610 250.525, 264.019 249.326, 264.722 248.365 C 265.425 247.404, 266 246.240, 266 245.777 C 266 245.315, 265.337 244.683, 264.526 244.371 C 263.715 244.060, 262.333 244.524, 261.454 245.403 C 260.544 246.314, 258.199 247, 256 247 C 253.879 247, 251.468 246.325, 250.643 245.500 C 249.818 244.675, 248.436 244, 247.571 244 C 246.701 244, 246 244.837, 246 245.878 M 244.230 282.486 C 241.332 283.302, 237.732 284.606, 236.230 285.384 C 234.729 286.162, 231.407 288.644, 228.848 290.898 C 226.290 293.152, 223.715 296.380, 223.125 298.071 C 222.188 300.760, 222.348 301.439, 224.406 303.497 C 225.700 304.791, 229.400 307.170, 232.629 308.785 C 235.858 310.400, 240.750 312.428, 243.500 313.292 C 246.250 314.156, 250.300 315.133, 252.500 315.465 C 254.700 315.796, 258.765 315.632, 261.534 315.101 C 264.302 314.569, 269.037 313.210, 272.055 312.081 C 275.073 310.951, 280.008 308.556, 283.021 306.758 C 286.674 304.578, 288.607 302.735, 288.822 301.228 C 288.999 299.985, 288.187 297.421, 287.019 295.530 C 285.850 293.640, 282.780 290.548, 280.197 288.660 C 277.614 286.772, 273.250 284.456, 270.500 283.512 C 267.750 282.569, 261.900 281.619, 257.500 281.400 C 252.318 281.143, 247.644 281.525, 244.230 282.486 M 245.776 286.479 C 243.178 287.194, 239.063 288.945, 236.631 290.370 C 234.200 291.795, 231.038 294.354, 229.605 296.057 C 228.172 297.760, 227 299.588, 227 300.120 C 227 300.651, 231.290 303.160, 236.534 305.695 C 244.489 309.541, 247.283 310.383, 253.405 310.776 C 258.728 311.117, 262.218 310.767, 266.121 309.500 C 269.079 308.540, 274.538 306.178, 278.250 304.253 C 281.962 302.328, 285 300.412, 285 299.997 C 285 299.581, 283.224 297.411, 281.052 295.173 C 278.881 292.936, 275.619 290.337, 273.802 289.397 C 271.986 288.457, 268.250 287.089, 265.500 286.356 C 262.750 285.623, 258.250 285.059, 255.500 285.101 C 252.750 285.144, 248.374 285.764, 245.776 286.479 M 178.513 312.250 C 176.510 314.587, 173.382 318.750, 171.563 321.500 C 169.744 324.250, 166.899 329.200, 165.242 332.500 C 163.585 335.800, 160.830 342.465, 159.121 347.312 C 157.411 352.158, 155.110 360.554, 154.006 365.969 C 152.903 371.384, 152 376.895, 152 378.216 C 152 380.204, 160.881 387.502, 203.525 420.559 C 231.864 442.526, 255.377 460.598, 255.775 460.718 C 256.174 460.838, 269.325 450.999, 285 438.854 C 300.675 426.709, 313.636 416.415, 313.802 415.979 C 313.968 415.543, 296.643 399.981, 275.302 381.397 C 253.961 362.813, 232 343.701, 226.500 338.927 C 221 334.153, 213.681 328.831, 210.235 327.102 C 206.790 325.372, 201.615 322.449, 198.735 320.607 C 195.856 318.764, 191.184 315.174, 188.353 312.628 C 185.522 310.083, 182.970 308, 182.681 308 C 182.392 308, 180.517 309.913, 178.513 312.250 M 322.194 313.906 C 318.279 317.185, 311.893 321.726, 308.004 323.998 C 304.115 326.269, 299.485 328.628, 297.716 329.239 C 295.947 329.850, 286.496 337.083, 276.712 345.312 C 266.929 353.541, 259.054 360.606, 259.212 361.012 C 259.371 361.417, 270.750 371.537, 284.500 383.501 C 298.250 395.464, 311.405 407.014, 313.733 409.166 L 317.967 413.079 338.733 396.977 C 350.155 388.121, 359.653 380.191, 359.839 379.356 C 360.025 378.521, 359.422 373.712, 358.499 368.669 C 357.575 363.626, 355.456 355.225, 353.789 350 C 352.122 344.775, 348.960 336.900, 346.763 332.500 C 344.566 328.100, 340.844 321.800, 338.492 318.500 C 336.141 315.200, 333.113 311.475, 331.764 310.222 L 329.312 307.944 322.194 313.906 M 160.992 321.231 C 157.421 323.558, 151.567 328.395, 147.981 331.981 C 144.396 335.566, 139.253 341.832, 136.552 345.905 C 133.851 349.977, 129.889 357.373, 127.747 362.341 C 125.606 367.308, 122.774 375.451, 121.455 380.436 C 120.136 385.421, 118.291 394, 117.356 399.500 C 116.133 406.689, 115.633 415.685, 115.577 431.500 C 115.535 443.600, 115.858 455.188, 116.295 457.250 L 117.091 461 134.113 461 C 149.858 461, 151.095 460.869, 150.609 459.250 C 150.320 458.288, 149.299 452.100, 148.340 445.500 C 147.071 436.768, 146.583 426.827, 146.548 409 C 146.511 390.156, 146.912 381.899, 148.287 373.235 C 149.269 367.040, 151.186 358.040, 152.546 353.235 C 153.906 348.431, 158.106 338.313, 161.879 330.750 C 165.652 323.188, 168.456 317, 168.111 317 C 167.766 317, 164.562 318.904, 160.992 321.231 M 345.376 320.803 C 346.696 322.895, 349.347 327.733, 351.266 331.553 C 353.185 335.374, 356.159 342.601, 357.875 347.613 C 359.592 352.625, 362.005 362.300, 363.239 369.113 C 365.222 380.070, 365.477 384.732, 365.442 409.500 C 365.412 430.963, 365.006 439.934, 363.702 447.926 C 362.766 453.661, 362 458.948, 362 459.676 C 362 460.721, 365.462 461, 378.420 461 L 394.841 461 395.531 454.552 C 395.911 451.005, 396.006 438.293, 395.743 426.302 C 395.424 411.790, 394.681 401.324, 393.520 395 C 392.560 389.775, 390.673 381.675, 389.326 377 C 387.979 372.325, 384.935 364.395, 382.562 359.377 C 380.189 354.360, 376.422 347.567, 374.192 344.282 C 371.961 340.998, 367.816 335.771, 364.980 332.668 C 362.144 329.566, 356.451 324.771, 352.328 322.013 C 348.206 319.256, 344.415 317, 343.904 317 C 343.393 317, 344.055 318.711, 345.376 320.803 M 229.550 335.863 C 230.072 336.337, 236.008 341.524, 242.739 347.389 L 254.979 358.053 268.451 346.821 C 275.860 340.643, 281.750 335.416, 281.539 335.205 C 281.328 334.994, 277.697 335.537, 273.471 336.411 C 269.244 337.285, 261.222 337.984, 255.643 337.965 C 250.064 337.946, 242.575 337.286, 239 336.500 C 235.425 335.714, 231.623 335.054, 230.550 335.035 C 229.391 335.014, 228.985 335.350, 229.550 335.863 M 150.583 398.213 C 150.197 405.062, 150.376 417.359, 150.988 426 C 151.592 434.525, 152.770 445.766, 153.607 450.981 C 154.444 456.195, 155.254 460.587, 155.408 460.741 C 155.561 460.894, 176.469 460.903, 201.870 460.760 L 248.054 460.500 200.340 423.500 C 174.098 403.150, 152.322 386.371, 151.951 386.213 C 151.579 386.054, 150.963 391.454, 150.583 398.213 M 312.500 423.168 L 264.500 460.500 310.435 460.760 C 343.584 460.948, 356.563 460.708, 357.063 459.898 C 357.445 459.280, 358.532 453.088, 359.478 446.137 C 360.425 439.187, 361.416 425.850, 361.680 416.500 C 361.945 407.150, 361.787 396.426, 361.331 392.668 L 360.500 385.837 312.500 423.168" stroke="none" fill="#000000" fill-rule="evenodd"/></svg>