<svg xmlns="http://www.w3.org/2000/svg" width="512" height="512" viewBox="0 0 512 512" version="1.1"><path d="" stroke="none" fill="#000000" fill-rule="evenodd"/><path d="M 250.145 120.016 C 242.546 123.235, 238 129.776, 238 137.492 C 238 149.983, 248.772 158.342, 260.750 155.148 C 280.268 149.944, 277.400 120.819, 257.225 119.360 C 254.626 119.172, 251.440 119.467, 250.145 120.016 M 250 161.597 C 250 162.385, 247.798 169.709, 245.107 177.872 C 232.371 216.507, 214.034 240.971, 188.793 253.005 C 175.686 259.253, 169.728 260.480, 153 260.374 C 133.163 260.248, 117.768 256.541, 96.989 246.886 L 88.247 242.825 83.643 246.339 C 81.112 248.271, 78.153 250.134, 77.068 250.478 C 75.176 251.079, 75.249 251.534, 78.894 261.802 C 80.982 267.686, 87.741 287.598, 93.914 306.051 C 100.086 324.504, 105.490 340.175, 105.923 340.875 C 106.534 341.864, 108.022 341.599, 112.605 339.682 C 131.926 331.600, 165.693 324.400, 200 321.047 C 270.485 314.158, 352.370 321.537, 395.333 338.649 C 400.191 340.584, 404.388 341.945, 404.659 341.674 C 405.336 340.997, 434.941 253.780, 434.974 252.365 C 434.988 251.741, 433.762 250.445, 432.250 249.486 C 430.738 248.526, 428.281 246.608, 426.792 245.223 L 424.084 242.706 413.792 247.290 C 391.704 257.129, 377.409 260.467, 357.500 260.434 C 341.355 260.408, 335.090 259.073, 322.310 252.935 C 297.136 240.843, 278.362 215.038, 265.523 174.881 L 260.850 160.262 255.425 160.213 C 251.360 160.176, 250 160.523, 250 161.597 M 136.236 164.570 C 131.922 166.719, 130.643 168.031, 128.412 172.591 C 126.315 176.877, 125.853 179.003, 126.252 182.539 C 128.144 199.333, 150.417 204.904, 159.684 190.902 C 161.996 187.408, 162.500 185.559, 162.500 180.573 C 162.500 173.019, 159.617 168.219, 152.865 164.531 C 146.991 161.323, 142.731 161.333, 136.236 164.570 M 359 164.561 C 341.085 174.565, 349.555 201.389, 369.755 198.620 C 378.263 197.454, 384.244 191.580, 385.608 183.052 C 386.808 175.544, 382.042 167.287, 374.541 163.880 C 369.024 161.374, 364.341 161.579, 359 164.561 M 153.500 201.597 C 151.850 202.319, 149.077 202.930, 147.338 202.955 C 143.769 203.006, 143.692 203.248, 142.449 218.407 C 142.092 222.755, 140.521 232.644, 138.957 240.381 C 137.394 248.118, 136.261 254.595, 136.440 254.773 C 136.619 254.952, 140.756 255.514, 145.633 256.022 C 156.086 257.111, 168.824 255.930, 178.134 253.010 C 183.836 251.221, 199 243.586, 199 242.503 C 199 242.267, 196.267 240.218, 192.926 237.950 C 184.246 232.055, 174.017 222.097, 164.756 210.524 C 160.344 205.011, 156.681 200.451, 156.617 200.392 C 156.553 200.332, 155.150 200.875, 153.500 201.597 M 350.035 207.139 C 341.515 218.311, 331.312 228.655, 321.826 235.739 C 316.950 239.381, 313.306 242.695, 313.730 243.104 C 316.341 245.625, 330.907 252.321, 337.588 254.072 C 345.978 256.270, 363.463 257.029, 371.833 255.558 C 375.904 254.842, 376.125 254.636, 375.500 252.148 C 373.299 243.393, 370.915 230.170, 369.974 221.500 C 367.792 201.379, 368.237 203, 364.907 203 C 363.273 203, 360.444 202.377, 358.620 201.615 L 355.305 200.229 350.035 207.139 M 61.502 212.575 C 54.179 216.394, 50.564 222.733, 51.218 230.610 C 51.774 237.324, 55.115 242.354, 60.889 245.171 C 69.530 249.388, 79.045 246.973, 84.465 239.188 C 89.621 231.780, 88.474 222.619, 81.484 215.380 C 77.350 211.098, 67.095 209.659, 61.502 212.575 M 434.533 212.630 C 424.495 218.251, 421.328 230.271, 427.535 239.188 C 432.955 246.973, 442.470 249.388, 451.111 245.171 C 463.125 239.309, 464.351 222.709, 453.389 214.348 C 448.807 210.853, 439.259 209.983, 434.533 212.630 M 243.651 237.940 C 237.793 245.608, 233 252.639, 233 253.566 C 233 256.547, 254.986 297.944, 256.291 297.419 C 257.760 296.827, 279 255.781, 279 253.534 C 279 251.054, 257.920 224, 255.988 224 C 254.998 224, 249.909 229.750, 243.651 237.940 M 246.622 241.479 C 241.880 247.793, 238 253.415, 238 253.972 C 238 255.322, 255.325 290, 256 290 C 256.675 290, 274 255.322, 274 253.972 C 274 252.654, 256.990 230, 256 230 C 255.585 230, 251.365 235.166, 246.622 241.479 M 220.500 323.592 C 218.300 323.801, 210.875 324.449, 204 325.032 C 170.341 327.885, 138.431 334.447, 115.681 343.193 C 109.423 345.598, 107.989 346.528, 108.496 347.849 C 108.845 348.757, 110.096 352.268, 111.277 355.652 L 113.425 361.804 117.462 359.085 C 129.173 351.199, 151.861 346.129, 192.500 342.316 C 219.547 339.778, 292.324 339.771, 319.500 342.304 C 360.519 346.127, 387.148 352.406, 395.746 360.283 C 396.981 361.415, 398.137 362.152, 398.315 361.921 C 398.932 361.115, 404 346.666, 403.751 346.421 C 402.884 345.566, 387.034 339.834, 379.500 337.650 C 359.933 331.978, 341.514 328.548, 314 325.453 C 300.359 323.918, 231.490 322.548, 220.500 323.592 M 226.500 344.586 C 177.875 346.653, 138.535 352.611, 123.709 360.154 C 109.881 367.189, 114.785 374.890, 137.237 381.396 C 155.715 386.750, 185.512 390.278, 228.250 392.171 C 280.788 394.498, 346.134 389.692, 374.763 381.396 C 418.495 368.723, 392.188 352.827, 317 346.493 C 300.213 345.079, 243.178 343.877, 226.500 344.586" stroke="none" fill="#000000" fill-rule="evenodd"/></svg>