<svg xmlns="http://www.w3.org/2000/svg" width="512" height="512" viewBox="0 0 512 512" version="1.1"><path d="" stroke="none" fill="#080404" fill-rule="evenodd"/><path d="M 120 81.553 C 116.425 82.319, 110.800 83.903, 107.500 85.072 C 104.200 86.241, 99.053 88.555, 96.062 90.214 C 90.707 93.183, 90.539 93.208, 85.062 91.865 C 82.003 91.115, 76.350 90.513, 72.500 90.527 C 68.465 90.542, 63.310 91.306, 60.329 92.330 C 57.486 93.308, 53.098 95.922, 50.579 98.139 C 47.128 101.177, 46 102.881, 46 105.058 C 46 107.530, 47.506 109.140, 56.445 116.223 L 66.890 124.500 66.945 165.737 L 67 206.975 71.250 209.666 C 73.587 211.147, 78.780 213.402, 82.788 214.679 C 86.797 215.955, 92.439 217, 95.326 217 C 98.782 217, 102.101 216.231, 105.038 214.750 C 108.432 213.039, 110.077 211.335, 111.912 207.633 C 114.021 203.378, 114.337 201.299, 114.426 191.085 C 114.522 180.029, 114.701 179.049, 117.773 172.809 C 119.559 169.182, 122.816 164.592, 125.013 162.608 C 127.876 160.021, 129.925 159.001, 132.253 159.004 C 134.039 159.006, 136.972 159.905, 138.771 161.002 C 140.570 162.098, 143.367 165.085, 144.986 167.639 C 146.606 170.193, 148.825 175.032, 149.918 178.391 C 151.011 181.751, 152.362 187.200, 152.920 190.500 C 153.478 193.800, 154.031 198.975, 154.148 202 C 154.265 205.025, 153.770 211.550, 153.047 216.500 C 152.211 222.223, 151.942 229.706, 152.307 237.052 C 152.623 243.406, 153.807 253.147, 154.939 258.700 C 156.070 264.252, 158.609 273.454, 160.580 279.148 C 162.550 284.841, 166.204 293.688, 168.698 298.806 C 171.403 304.358, 174.386 308.965, 176.093 310.227 C 177.775 311.471, 179.575 314.226, 180.464 316.921 C 181.295 319.439, 182.484 323.975, 183.105 327 C 183.869 330.713, 184.174 347.655, 184.046 379.143 L 183.857 425.786 186.151 427.393 C 187.967 428.665, 191.106 429, 201.223 429 C 212.093 429, 214.263 428.737, 215.763 427.237 C 217.112 425.888, 218.557 418.677, 221.925 396.487 L 226.325 367.500 230.055 363 C 232.106 360.525, 234.718 356.634, 235.860 354.352 C 237.002 352.071, 238.856 346.896, 239.979 342.852 C 241.102 338.809, 242.512 330.100, 243.112 323.500 C 243.712 316.900, 244.297 311.398, 244.413 311.272 C 244.528 311.147, 248.420 311.483, 253.061 312.018 C 257.702 312.553, 269.150 313.263, 278.500 313.596 C 290.726 314.031, 300.106 313.748, 311.903 312.587 C 320.925 311.700, 328.382 311.092, 328.474 311.237 C 328.565 311.382, 329.825 313.977, 331.274 317.006 C 332.723 320.034, 336.258 324.911, 339.130 327.844 C 342.001 330.776, 347.535 335.305, 351.426 337.908 C 355.317 340.511, 362.775 345.042, 368 347.978 C 373.225 350.915, 380.364 355.330, 383.865 357.791 C 388.558 361.090, 390.738 363.414, 392.164 366.638 C 393.228 369.043, 394.803 374.496, 395.664 378.756 C 396.704 383.894, 397.346 393.734, 397.574 408 C 397.908 428.877, 397.983 429.553, 400.165 431.327 C 402.125 432.921, 403.980 433.112, 414.673 432.827 C 424.388 432.568, 427.274 432.160, 428.569 430.862 C 429.857 429.573, 430.409 425.749, 431.171 412.862 C 431.703 403.863, 431.983 384.350, 431.793 369.500 L 431.448 342.500 428.107 334.500 C 426.270 330.100, 423.839 324.025, 422.706 321 C 421.123 316.772, 420.636 313.071, 420.601 305 C 420.561 295.825, 420.933 293.427, 423.551 286 L 426.546 277.500 444.471 277.226 C 458.766 277.008, 462.733 276.647, 464.063 275.443 C 465.108 274.497, 465.973 271.567, 466.380 267.592 C 466.738 264.104, 466.563 255.906, 465.991 249.375 C 465.420 242.844, 464.063 233.751, 462.976 229.170 C 461.889 224.588, 459.807 217.838, 458.349 214.170 C 456.891 210.501, 454.127 205.025, 452.207 202 C 450.286 198.975, 446.643 194.071, 444.110 191.102 C 441.576 188.133, 436.439 183.551, 432.693 180.921 C 428.947 178.290, 422.567 174.757, 418.515 173.071 C 414.463 171.384, 407.852 169.272, 403.824 168.379 C 399.796 167.485, 391.550 166.639, 385.500 166.498 C 379.450 166.357, 346.983 166.187, 313.350 166.121 L 252.200 166 247.077 157.931 C 244.259 153.492, 238.824 145.678, 234.998 140.566 C 231.172 135.453, 223.870 126.860, 218.771 121.470 C 213.672 116.080, 205.784 108.678, 201.241 105.021 C 196.699 101.363, 189.474 96.284, 185.186 93.733 C 180.897 91.182, 173.894 87.696, 169.624 85.986 C 165.353 84.276, 158.476 82.229, 154.341 81.438 C 150.207 80.647, 142.251 80.036, 136.662 80.079 C 131.073 80.123, 123.575 80.786, 120 81.553 M 140.616 96.750 C 141.360 99.912, 141.973 107.450, 141.977 113.500 C 141.983 121.033, 141.363 127.097, 140.010 132.740 C 138.924 137.273, 137.376 142.558, 136.571 144.485 C 135.124 147.947, 135.139 147.996, 137.803 148.632 C 139.287 148.986, 141.054 149.712, 141.731 150.244 C 142.574 150.908, 144.463 150.346, 147.731 148.460 C 150.354 146.946, 154.643 144.155, 157.263 142.259 C 159.882 140.363, 163.827 136.294, 166.030 133.218 C 168.233 130.142, 170.928 124.737, 172.018 121.207 C 173.242 117.242, 174 111.942, 174 107.340 L 174 99.890 168.250 97.343 C 165.088 95.943, 159.166 93.943, 155.090 92.898 C 151.015 91.854, 145.786 91, 143.471 91 L 139.263 91 140.616 96.750 M 115.149 94.469 C 111.106 95.778, 104.051 98.776, 99.473 101.131 L 91.148 105.412 85.430 103.609 C 82.285 102.618, 76.739 101.795, 73.106 101.781 C 69.473 101.767, 64.950 102.395, 63.056 103.178 L 59.612 104.601 66.667 110.300 C 71.185 113.951, 74.653 116, 76.311 116 C 77.736 116, 81.286 116.499, 84.201 117.109 C 87.115 117.718, 92.078 119.576, 95.228 121.236 C 98.378 122.897, 102.428 125.689, 104.228 127.441 C 106.028 129.194, 108.748 132.929, 110.274 135.743 C 111.800 138.557, 113.831 144.045, 114.789 147.941 L 116.530 155.023 119.624 152.197 C 121.335 150.633, 123.717 146.718, 124.955 143.435 C 126.185 140.171, 128.095 133.954, 129.200 129.621 C 130.824 123.246, 131.116 119.619, 130.728 110.621 C 130.464 104.504, 129.722 97.813, 129.077 95.750 C 128.096 92.610, 127.466 92.007, 125.203 92.045 C 123.716 92.069, 119.192 93.160, 115.149 94.469 M 184.700 113.769 C 184.378 117.471, 183.175 123.200, 182.028 126.500 C 180.881 129.800, 178.354 134.895, 176.412 137.823 C 174.471 140.751, 170.771 145.176, 168.191 147.656 C 165.611 150.137, 161.137 153.584, 158.250 155.317 C 155.363 157.049, 153 158.732, 153 159.056 C 153 159.380, 154.384 162.200, 156.075 165.322 C 157.766 168.445, 159.679 170.993, 160.325 170.985 C 160.971 170.977, 164.383 170.291, 167.907 169.460 C 171.431 168.630, 176.925 166.558, 180.117 164.857 C 183.309 163.156, 188.650 159.294, 191.986 156.274 C 195.323 153.255, 200.011 148.020, 202.405 144.642 C 204.798 141.264, 207.733 136.562, 208.927 134.194 L 211.098 129.887 208.299 126.661 C 206.760 124.886, 202.800 121.103, 199.500 118.253 C 196.200 115.403, 191.652 111.714, 189.393 110.055 L 185.287 107.038 184.700 113.769 M 78 164.061 L 78 201.071 82.300 202.914 C 84.664 203.928, 89.350 205.076, 92.712 205.467 C 98.121 206.094, 99.064 205.936, 100.912 204.088 C 102.091 202.909, 103.051 200.585, 103.117 198.750 C 103.182 196.963, 103.315 191.225, 103.414 186 C 103.512 180.775, 103.967 171.775, 104.426 166 C 105.095 157.562, 104.944 154.277, 103.656 149.272 C 102.774 145.846, 100.941 141.282, 99.582 139.129 C 98.223 136.976, 95.762 134.255, 94.113 133.081 C 92.465 131.907, 89.627 130.344, 87.808 129.609 C 85.989 128.873, 83.037 127.996, 81.250 127.661 L 78 127.050 78 164.061 M 217.589 141.828 C 216.784 143.384, 213.422 148.304, 210.116 152.763 C 206.810 157.221, 201.124 163.328, 197.480 166.334 C 193.836 169.340, 188.298 173.161, 185.174 174.827 C 182.049 176.492, 176.795 178.545, 173.496 179.388 C 170.198 180.231, 166.355 181.150, 164.956 181.428 L 162.411 181.935 163.915 190.946 L 165.419 199.957 169.460 199.368 C 171.682 199.044, 179.731 197.485, 187.348 195.902 C 194.964 194.320, 205.764 191.634, 211.348 189.933 C 216.931 188.231, 225.100 185.113, 229.500 183.002 C 233.900 180.892, 238.802 177.799, 240.393 176.129 L 243.285 173.093 238.898 165.796 C 236.485 161.783, 231.216 154.113, 227.190 148.750 C 223.164 143.387, 219.686 139, 219.461 139 C 219.235 139, 218.393 140.273, 217.589 141.828 M 255.004 211.750 C 255.007 243.663, 255.116 245.677, 256.995 248.759 C 258.088 250.552, 260.448 252.912, 262.241 254.005 C 265.349 255.900, 267.350 255.993, 305.364 255.996 C 344.498 256, 345.299 255.960, 349.114 253.816 C 351.590 252.424, 353.725 250.133, 355 247.500 C 356.875 243.627, 357 241.325, 357 210.684 L 357 178 306 178 L 255 178 255.004 211.750 M 368 210.687 C 368 236.841, 367.695 244.663, 366.523 248.612 C 365.710 251.349, 363.459 255.440, 361.520 257.705 C 359.581 259.970, 355.658 262.988, 352.801 264.412 L 347.607 267 306.054 266.978 C 266.431 266.957, 264.291 266.862, 260 264.921 C 257.525 263.802, 253.982 261.450, 252.128 259.693 C 250.273 257.937, 247.690 254.250, 246.387 251.500 C 244.066 246.597, 244.019 245.930, 244.010 217.241 L 244 187.983 238.750 190.933 C 235.863 192.555, 229.958 195.296, 225.629 197.024 C 221.299 198.751, 210.949 201.868, 202.629 203.950 C 194.308 206.032, 182.445 208.538, 176.267 209.519 L 165.034 211.303 164.272 214.901 C 163.853 216.881, 163.562 224.575, 163.626 232 C 163.707 241.543, 164.365 248.475, 165.869 255.648 C 167.039 261.229, 169.606 270.420, 171.573 276.072 C 173.540 281.723, 176.744 289.513, 178.693 293.383 C 180.641 297.252, 183.527 301.624, 185.106 303.099 C 186.685 304.574, 188.862 307.845, 189.944 310.368 C 191.025 312.891, 192.688 318.453, 193.639 322.728 C 195.158 329.555, 195.335 335.759, 195.096 373.750 L 194.823 417 201.179 417 L 207.534 417 211.684 389.453 L 215.833 361.905 220.003 357.381 C 222.297 354.892, 225.230 350.467, 226.522 347.546 C 227.814 344.626, 229.582 338.793, 230.451 334.584 C 231.320 330.375, 232.080 321.659, 232.140 315.215 C 232.218 306.745, 232.659 302.841, 233.733 301.119 C 235.120 298.895, 235.623 298.781, 241.359 299.398 C 244.737 299.761, 252 300.511, 257.500 301.065 C 263 301.619, 276.075 302.088, 286.556 302.107 C 298.105 302.129, 311.423 301.482, 320.360 300.465 C 334.382 298.870, 335.204 298.874, 337.054 300.549 C 338.124 301.517, 339.010 303.478, 339.022 304.905 C 339.034 306.332, 339.889 309.362, 340.922 311.637 C 341.956 313.912, 344.487 317.640, 346.547 319.920 C 348.607 322.201, 353.939 326.447, 358.396 329.357 C 362.853 332.267, 370.325 336.719, 375 339.249 C 379.675 341.779, 386.760 346.143, 390.744 348.947 C 396.322 352.871, 398.580 355.211, 400.560 359.118 C 401.974 361.909, 403.971 367.478, 404.999 371.495 C 406.026 375.512, 407.345 383.906, 407.930 390.149 C 408.515 396.392, 408.995 405.911, 408.997 411.302 L 409 421.105 414.250 420.802 L 419.500 420.500 420.288 405.500 C 420.722 397.250, 420.913 380.150, 420.714 367.500 L 420.351 344.500 416.206 334.950 C 413.926 329.698, 411.319 322.503, 410.412 318.963 C 409.183 314.164, 408.889 309.848, 409.258 302.012 C 409.667 293.331, 410.370 289.758, 413.292 281.500 C 415.238 276, 417.564 268.800, 418.461 265.500 C 419.358 262.200, 420.343 254.100, 420.650 247.500 C 421.103 237.741, 420.829 233.675, 419.179 225.729 C 417.913 219.626, 415.606 212.766, 413.035 207.455 C 410.185 201.566, 406.899 196.810, 402.344 191.982 C 397.809 187.174, 393.778 184.032, 389.354 181.854 C 384.454 179.441, 381.176 178.583, 375.470 178.216 L 368 177.737 368 210.687 M 408 181.594 C 408 181.916, 410.264 184.719, 413.031 187.824 C 415.937 191.084, 420.141 197.698, 422.985 203.484 C 425.693 208.993, 428.692 216.425, 429.650 220 C 430.895 224.646, 431.407 230.493, 431.446 240.500 C 431.476 248.200, 431.159 257.087, 430.741 260.250 L 429.983 266 442.641 266 L 455.300 266 454.716 252.750 C 454.294 243.176, 453.408 236.745, 451.522 229.568 C 450.087 224.106, 447.037 216.033, 444.746 211.629 C 442.305 206.936, 438.288 201.286, 435.040 197.976 C 431.993 194.871, 426.985 190.665, 423.910 188.630 C 420.836 186.595, 415.998 184.047, 413.160 182.969 C 410.322 181.890, 408 181.272, 408 181.594" stroke="none" fill="#040404" fill-rule="evenodd"/></svg>