<svg xmlns="http://www.w3.org/2000/svg" width="512" height="512" viewBox="0 0 512 512" version="1.1"><path d="" stroke="none" fill="#db0600" fill-rule="evenodd"/><path d="M 133.526 85.669 C 133.967 86.676, 135.428 90.650, 136.772 94.500 C 138.426 99.237, 139.389 104.640, 139.751 111.212 C 140.063 116.860, 139.774 124.100, 139.062 128.515 C 138.389 132.689, 136.545 139.929, 134.966 144.602 C 132.941 150.591, 132.449 153.190, 133.297 153.408 C 133.959 153.578, 136.120 154.236, 138.100 154.869 C 141.195 155.859, 142.385 155.720, 146.600 153.873 C 149.295 152.692, 153.989 149.992, 157.031 147.872 C 160.073 145.752, 164.182 142.080, 166.161 139.711 C 168.141 137.343, 170.976 133.008, 172.460 130.078 C 173.945 127.149, 175.832 121.545, 176.653 117.626 C 177.700 112.633, 177.942 108.148, 177.460 102.644 C 176.773 94.789, 176.773 94.789, 170.637 91.917 C 167.261 90.338, 161.125 88.193, 157 87.151 C 152.875 86.110, 145.725 84.938, 141.112 84.548 C 133.221 83.880, 132.772 83.947, 133.526 85.669 M 118 87.520 C 112.775 88.851, 104.450 91.971, 99.500 94.453 C 90.500 98.964, 90.500 98.964, 85 97.465 C 81.975 96.641, 76.088 95.905, 71.918 95.829 C 65.801 95.719, 63.437 96.141, 59.683 98.016 C 57.123 99.294, 54.039 101.394, 52.828 102.683 C 51.480 104.118, 50.990 105.373, 51.563 105.920 C 52.078 106.412, 56.550 109.999, 61.500 113.892 C 70.178 120.716, 70.698 120.970, 76.040 120.985 C 79.087 120.993, 84.190 121.680, 87.380 122.511 C 90.571 123.342, 95.057 125.121, 97.350 126.465 C 99.642 127.808, 102.952 130.391, 104.705 132.204 C 106.458 134.017, 109.070 138.078, 110.509 141.228 C 112.092 144.691, 113.561 150.425, 114.226 155.728 L 115.325 164.500 121.143 158.879 C 124.539 155.597, 127.810 151.276, 129.001 148.498 C 130.123 145.880, 131.884 140.519, 132.915 136.583 C 133.946 132.648, 135.104 126.065, 135.490 121.955 C 135.975 116.772, 135.704 111.666, 134.603 105.288 C 133.730 100.232, 131.912 93.598, 130.563 90.547 C 129.214 87.496, 127.973 85.022, 127.805 85.049 C 127.637 85.076, 123.225 86.188, 118 87.520 M 181.464 108.252 C 181.437 116.219, 180.922 119.989, 179.153 125.190 C 177.901 128.870, 175.162 134.495, 173.066 137.690 C 170.971 140.886, 167.511 145.141, 165.378 147.147 C 163.245 149.153, 159.025 152.353, 156 154.258 C 152.975 156.163, 149.488 158.040, 148.250 158.428 C 147.012 158.817, 146 159.494, 146 159.933 C 146 160.371, 146.838 161.803, 147.863 163.115 C 148.887 164.427, 150.727 167.474, 151.953 169.887 C 154.180 174.273, 154.180 174.273, 161.840 173.741 C 166.727 173.401, 171.853 172.261, 176 170.590 C 179.575 169.150, 185.594 165.650, 189.377 162.811 C 193.159 159.973, 198.821 154.420, 201.960 150.470 C 205.098 146.520, 209.283 140.398, 211.259 136.865 C 213.235 133.332, 215.143 129.278, 215.500 127.856 C 216.074 125.570, 215.162 124.367, 207.636 117.479 C 202.954 113.194, 195.444 107.059, 190.948 103.844 C 186.451 100.630, 182.486 98.001, 182.136 98.002 C 181.786 98.004, 181.484 102.616, 181.464 108.252 M 72 164.725 L 72 204.727 77.750 207.272 C 80.913 208.671, 86.108 210.344, 89.295 210.988 C 92.482 211.633, 96.862 211.861, 99.028 211.495 C 101.632 211.055, 103.804 209.833, 105.443 207.886 C 106.805 206.266, 108.144 203.492, 108.418 201.721 C 108.692 199.949, 109.200 188.516, 109.547 176.313 C 110.090 157.252, 109.943 153.316, 108.506 148.372 C 107.586 145.207, 105.489 140.664, 103.846 138.276 C 102.203 135.889, 99.204 132.842, 97.180 131.507 C 95.156 130.171, 91.558 128.395, 89.184 127.560 C 86.810 126.725, 81.973 125.746, 78.434 125.383 L 72 124.724 72 164.725 M 215.580 137.665 C 213.447 141.808, 209.907 147.515, 207.712 150.348 C 205.517 153.182, 202.097 157.245, 200.111 159.378 C 198.125 161.511, 193.218 165.423, 189.207 168.072 C 185.196 170.721, 179.419 173.822, 176.368 174.963 C 173.317 176.105, 167.487 177.535, 163.411 178.141 C 159.179 178.770, 156.015 179.727, 156.035 180.372 C 156.054 180.992, 156.714 184.425, 157.500 188 C 158.286 191.575, 158.946 196.601, 158.965 199.168 C 158.984 201.736, 159.248 204.482, 159.551 205.272 C 160.026 206.509, 161.297 206.522, 168.801 205.362 C 173.585 204.622, 184.025 202.621, 192 200.915 C 199.975 199.208, 211.204 196.241, 216.952 194.321 C 222.701 192.400, 229.676 189.692, 232.452 188.302 C 235.229 186.913, 238.963 184.679, 240.750 183.337 C 243.511 181.265, 244.001 180.266, 244.006 176.699 C 244.010 174.390, 244.637 171.302, 245.402 169.837 C 246.714 167.322, 246.515 166.744, 241.809 159.398 C 239.069 155.122, 233.474 147.249, 229.377 141.903 C 225.279 136.558, 221.371 131.723, 220.692 131.159 C 219.765 130.390, 218.487 132.017, 215.580 137.665 M 249 208.804 C 249 245.607, 249 245.607, 251.500 250.554 C 253.022 253.564, 255.664 256.674, 258.250 258.500 C 262.500 261.500, 262.500 261.500, 305.573 261.500 C 348.646 261.500, 348.646 261.500, 352.768 258.772 C 355.035 257.272, 358.152 253.897, 359.695 251.272 C 362.500 246.500, 362.500 246.500, 362.796 209.250 L 363.091 172 306.046 172 L 249 172 249 208.804 M 367 208.179 C 367 238.265, 366.733 245.428, 365.472 249.128 C 364.632 251.594, 362.598 255.246, 360.952 257.242 C 359.306 259.239, 355.381 262.139, 352.230 263.686 C 346.500 266.500, 346.500 266.500, 306 266.500 C 274.088 266.500, 264.670 266.207, 261.584 265.118 C 259.430 264.357, 255.648 261.882, 253.179 259.618 C 250.710 257.353, 247.747 253.475, 246.595 251 C 244.644 246.810, 244.477 244.463, 244.173 216.926 L 243.846 187.352 235.173 191.672 C 230.403 194.048, 221.673 197.568, 215.774 199.495 C 209.874 201.421, 198.399 204.322, 190.274 205.942 C 182.148 207.562, 171.817 209.410, 167.317 210.049 C 161.712 210.845, 158.949 211.690, 158.549 212.732 C 158.228 213.569, 157.694 218.809, 157.362 224.377 C 157.027 229.997, 157.266 238.726, 157.899 244 C 158.526 249.225, 160.189 258.152, 161.594 263.838 C 163 269.524, 166.159 279.176, 168.615 285.287 C 171.071 291.397, 174.419 298.737, 176.056 301.598 C 177.692 304.458, 179.679 307.047, 180.470 307.350 C 181.262 307.654, 182.774 309.612, 183.831 311.701 C 184.888 313.791, 186.566 318.875, 187.560 323 C 189.190 329.771, 189.339 334.997, 189.093 376.750 L 188.819 423 200.910 423 C 209.903 423, 213.006 422.680, 213.023 421.750 C 213.036 421.063, 214.967 408.091, 217.313 392.925 C 221.579 365.350, 221.579 365.350, 225.252 360.868 C 227.272 358.403, 230.299 353.449, 231.978 349.860 C 233.658 346.270, 235.713 339.779, 236.544 335.436 C 237.375 331.093, 238.155 322.437, 238.277 316.201 C 238.500 304.864, 238.500 304.864, 241.483 305.453 C 243.123 305.778, 248.748 306.559, 253.983 307.190 C 259.217 307.821, 272.725 308.267, 284 308.183 C 295.275 308.098, 310.800 307.401, 318.500 306.635 C 326.200 305.869, 332.837 305.439, 333.250 305.680 C 333.663 305.921, 334.010 307.104, 334.022 308.309 C 334.034 309.514, 334.875 312.329, 335.890 314.565 C 336.906 316.801, 339.259 320.367, 341.118 322.489 C 342.978 324.611, 347.650 328.669, 351.500 331.509 C 355.350 334.348, 364.742 340.232, 372.371 344.585 C 380.001 348.938, 388.150 354.171, 390.482 356.212 C 392.945 358.369, 395.645 362.072, 396.925 365.048 C 398.137 367.865, 399.824 373.620, 400.674 377.835 C 401.732 383.088, 402.263 392.027, 402.359 406.245 L 402.500 426.989 413.633 426.995 C 424.767 427, 424.767 427, 425.371 424.250 C 425.704 422.738, 426.267 406.425, 426.624 388 C 427.045 366.216, 426.903 352.177, 426.219 347.857 C 425.640 344.203, 423.952 338.353, 422.468 334.857 C 420.984 331.361, 418.824 326.025, 417.667 323 C 415.934 318.470, 415.564 315.296, 415.564 305 C 415.565 293.688, 415.835 291.787, 418.410 285 C 419.974 280.875, 422.393 273.675, 423.784 269 C 426.040 261.425, 426.317 258.705, 426.338 244 C 426.360 228.898, 426.134 226.755, 423.672 218.703 C 422.192 213.865, 419.684 207.340, 418.099 204.203 C 416.513 201.067, 413.207 195.774, 410.752 192.443 C 408.297 189.112, 403.521 184.306, 400.137 181.763 C 396.754 179.219, 391.402 176.164, 388.243 174.973 C 385.084 173.781, 379.012 172.561, 374.750 172.260 L 367 171.714 367 208.179 M 397.427 174.292 C 399.036 175.506, 402.634 178.325, 405.421 180.555 C 408.208 182.786, 413.078 188.411, 416.243 193.055 C 419.408 197.700, 423.308 204.875, 424.911 209 C 426.513 213.125, 428.538 219.969, 429.412 224.208 C 430.292 228.480, 430.997 236.726, 430.994 242.708 C 430.991 248.644, 430.520 256.200, 429.948 259.500 C 429.376 262.800, 428.645 266.962, 428.323 268.750 C 427.738 272, 427.738 272, 444.369 272 L 461 272 460.994 260.750 C 460.991 254.563, 460.340 245.225, 459.548 240 C 458.755 234.775, 457.138 227.350, 455.954 223.500 C 454.769 219.650, 451.948 212.900, 449.683 208.500 C 446.670 202.646, 443.411 198.348, 437.533 192.475 C 432.119 187.067, 427.217 183.266, 422.500 180.817 C 418.650 178.819, 412.350 176.278, 408.500 175.171 C 404.650 174.064, 399.925 172.917, 398 172.621 C 394.500 172.084, 394.500 172.084, 397.427 174.292" stroke="none" fill="#db0600" fill-rule="evenodd"/></svg>