<svg xmlns="http://www.w3.org/2000/svg" width="512" height="512" viewBox="0 0 512 512" version="1.1"><path d="" stroke="none" fill="#dc3545" fill-rule="evenodd"/><path d="M 247.126 56.102 C 242.387 59.018, 235.079 64.909, 230.067 69.852 C 225.245 74.608, 219.375 81.372, 217.024 84.881 C 214.672 88.391, 211.013 94.964, 208.893 99.488 C 206.773 104.012, 204.133 111.490, 203.026 116.107 C 201.919 120.723, 201.011 125.287, 201.007 126.250 C 201 127.896, 204.283 128, 256 128 L 311 128 311 125.160 C 311 123.598, 310.124 118.896, 309.054 114.711 C 307.984 110.527, 305.578 103.792, 303.708 99.745 C 301.839 95.698, 298.661 89.810, 296.647 86.662 C 294.632 83.513, 289.281 77.079, 284.754 72.364 C 279.837 67.242, 272.657 61.217, 266.917 57.396 C 261.633 53.878, 256.884 51, 256.363 51 C 255.842 51, 251.686 53.296, 247.126 56.102 M 195.500 133.195 C 194.400 133.819, 193.169 134.818, 192.765 135.415 C 192.361 136.012, 192.024 139.713, 192.015 143.639 C 192.003 149.194, 192.424 151.302, 193.911 153.139 L 195.822 155.500 254.161 155.784 C 286.248 155.941, 313.481 155.828, 314.680 155.533 C 315.879 155.238, 317.567 154.291, 318.430 153.427 C 319.607 152.251, 320 149.759, 320 143.485 C 320 135.968, 319.773 134.955, 317.777 133.557 C 315.826 132.190, 308.366 132.004, 256.527 132.030 C 214.415 132.052, 196.927 132.386, 195.500 133.195 M 174.213 149.096 C 174.592 156.205, 175.396 160.208, 177.506 165.500 C 179.042 169.350, 181.617 174.434, 183.229 176.797 C 184.842 179.161, 187.715 182.648, 189.614 184.547 C 191.513 186.446, 193.502 188, 194.033 188 C 194.565 188, 195.008 185.637, 195.017 182.750 C 195.027 179.863, 195.692 174.399, 196.494 170.610 C 197.297 166.820, 198.207 162.922, 198.517 161.948 C 198.946 160.596, 198.365 160.019, 196.066 159.515 C 194.410 159.151, 191.917 157.502, 190.527 155.850 C 188.579 153.535, 188 151.727, 188 147.962 C 188 143.151, 187.942 143.062, 184.196 142.053 C 182.103 141.489, 178.888 140.728, 177.051 140.360 L 173.711 139.692 174.213 149.096 M 333.500 140.681 C 332.400 140.928, 330.038 141.586, 328.250 142.143 C 325.248 143.078, 325 143.481, 325 147.430 C 325 150.212, 324.215 152.864, 322.750 155.025 C 321.512 156.851, 319.150 158.780, 317.500 159.310 C 315.850 159.840, 314.394 160.356, 314.264 160.456 C 314.135 160.556, 314.689 163.757, 315.497 167.569 C 316.305 171.381, 316.973 177.286, 316.983 180.691 C 316.992 184.096, 317.412 187.137, 317.915 187.448 C 318.419 187.759, 320.297 186.780, 322.089 185.272 C 323.881 183.764, 327.055 179.889, 329.141 176.661 C 331.227 173.433, 333.892 168.251, 335.063 165.146 C 336.234 162.041, 337.620 156.575, 338.144 153 C 338.667 149.425, 338.829 145.037, 338.502 143.250 C 338.176 141.463, 337.367 140.052, 336.705 140.116 C 336.042 140.180, 334.600 140.434, 333.500 140.681 M 202.875 162.750 C 202.284 164.262, 201.186 168.875, 200.435 173 C 199.684 177.125, 199.054 183.762, 199.035 187.750 C 199.016 191.738, 199.235 195, 199.522 195 C 199.809 195, 203.681 193.171, 208.126 190.937 C 212.571 188.702, 220.242 185.555, 225.172 183.944 C 230.694 182.139, 238.517 180.558, 245.548 179.825 C 254.433 178.899, 259.277 178.905, 267.414 179.850 C 273.163 180.519, 281.609 182.178, 286.183 183.537 C 290.757 184.897, 298.663 188.013, 303.750 190.462 L 313 194.914 312.994 187.207 C 312.991 182.968, 312.574 176.971, 312.068 173.880 C 311.562 170.790, 310.647 166.402, 310.035 164.130 L 308.923 160 256.437 160 L 203.950 160 202.875 162.750 M 243.500 184.045 C 240.200 184.556, 233.505 186.115, 228.623 187.510 C 223.741 188.906, 215.791 192.013, 210.957 194.415 C 206.123 196.817, 199.543 200.519, 196.335 202.641 C 193.128 204.763, 187.206 209.627, 183.175 213.450 C 177.064 219.246, 176.150 220.508, 177.674 221.055 C 178.678 221.416, 183.937 222.291, 189.360 222.999 C 195.365 223.783, 203.575 224.063, 210.360 223.714 C 217.584 223.343, 223.960 222.373, 228.500 220.955 C 232.350 219.753, 237.839 217.218, 240.697 215.323 C 243.555 213.427, 247.265 209.806, 248.941 207.276 C 250.617 204.745, 252.538 201.155, 253.210 199.296 C 254.104 196.824, 254.954 195.996, 256.378 196.209 C 257.658 196.400, 258.869 198.011, 259.912 200.909 C 260.786 203.334, 263.477 207.522, 265.892 210.215 C 268.308 212.907, 272.463 216.214, 275.126 217.564 C 277.788 218.913, 282.533 220.685, 285.671 221.503 C 288.809 222.320, 296.804 223.260, 303.438 223.592 C 311.907 224.016, 318.425 223.749, 325.322 222.693 C 330.724 221.866, 335.449 220.873, 335.822 220.486 C 336.195 220.098, 333.575 217.115, 330 213.855 C 326.425 210.596, 320.230 205.663, 316.234 202.894 C 312.237 200.124, 304.812 195.891, 299.734 193.487 C 294.655 191.084, 286.170 187.994, 280.879 186.620 C 274.804 185.044, 267.247 183.938, 260.379 183.620 C 254.395 183.344, 246.800 183.535, 243.500 184.045 M 253.515 208.602 C 252.448 210.583, 249.588 213.953, 247.159 216.091 C 244.730 218.230, 240.430 221.110, 237.604 222.493 C 234.777 223.876, 229.323 225.673, 225.483 226.486 C 221.642 227.300, 216.250 227.980, 213.500 227.998 C 210.750 228.016, 207.914 228.402, 207.197 228.857 C 206.171 229.508, 206.520 231.252, 208.848 237.092 C 210.473 241.166, 213.337 247.200, 215.213 250.500 C 217.089 253.800, 219.932 258.525, 221.530 261 C 223.128 263.475, 226.638 268.200, 229.331 271.500 C 232.024 274.800, 238.297 281.175, 243.272 285.666 C 248.247 290.157, 253.336 294.377, 254.581 295.043 C 256.634 296.142, 257.539 295.688, 264.304 290.160 C 268.407 286.808, 274.573 281.013, 278.007 277.282 C 281.442 273.552, 286.486 267.350, 289.218 263.500 C 291.949 259.650, 295.903 253.102, 298.003 248.949 C 300.103 244.797, 302.955 238.610, 304.340 235.201 L 306.859 229.003 304.679 228.562 C 303.481 228.319, 299.034 227.851, 294.798 227.523 C 290.562 227.194, 284.673 226.092, 281.711 225.073 C 278.749 224.054, 274.790 222.429, 272.913 221.462 C 271.036 220.495, 268.033 218.588, 266.239 217.225 C 264.446 215.862, 261.558 212.553, 259.821 209.873 C 258.084 207.193, 256.391 205, 256.059 205 C 255.727 205, 254.582 206.621, 253.515 208.602 M 203.335 249.760 C 201.045 251.267, 195.645 255.022, 191.335 258.105 C 187.026 261.188, 181.576 265.803, 179.225 268.360 C 176.874 270.917, 173.198 275.720, 171.056 279.034 C 168.914 282.348, 165.811 288.309, 164.159 292.280 C 162.508 296.251, 160.389 303.296, 159.450 307.936 C 158.089 314.665, 157.862 319.420, 158.329 331.436 C 158.650 339.721, 159.513 349.200, 160.246 352.500 L 161.579 358.500 174.790 358.779 C 182.055 358.932, 188 358.856, 188 358.610 C 188 358.363, 187.265 355.313, 186.366 351.831 C 185.251 347.511, 184.728 341.212, 184.720 332 C 184.714 323.974, 185.423 313.949, 186.470 307.277 C 187.438 301.104, 188.756 295.618, 189.399 295.084 C 190.041 294.551, 191.128 294.461, 191.813 294.885 C 192.797 295.492, 192.696 297.642, 191.337 305.077 C 190.180 311.401, 189.595 319.926, 189.557 331 C 189.520 341.755, 189.949 348.980, 190.789 351.750 L 192.077 356 255.961 356 L 319.845 356 321.172 352.250 C 322.107 349.609, 322.466 343.175, 322.384 330.500 C 322.310 318.981, 321.718 309.620, 320.740 304.500 C 319.529 298.162, 319.467 296.230, 320.442 295.200 C 321.450 294.134, 321.876 294.146, 322.808 295.268 C 323.432 296.021, 324.665 301.331, 325.547 307.068 C 326.428 312.806, 327.211 323.800, 327.285 331.500 C 327.387 341.925, 326.984 347.116, 325.711 351.831 C 324.770 355.313, 324 358.363, 324 358.610 C 324 358.856, 329.958 358.932, 337.240 358.779 L 350.479 358.500 352.202 349.500 C 353.217 344.198, 353.940 335.542, 353.962 328.434 C 353.983 321.797, 353.527 313.697, 352.949 310.434 C 352.371 307.170, 350.965 301.575, 349.825 298 C 348.685 294.425, 346.209 288.523, 344.323 284.884 C 342.437 281.245, 338.780 275.646, 336.197 272.442 C 333.613 269.238, 329.202 264.790, 326.393 262.558 C 323.584 260.326, 318.409 256.429, 314.893 253.899 C 311.377 251.368, 307.578 248.813, 306.451 248.221 C 304.597 247.247, 303.998 247.831, 300.150 254.358 C 297.812 258.325, 293.584 264.660, 290.756 268.437 C 287.927 272.214, 283.136 277.979, 280.108 281.250 C 277.081 284.520, 271.430 289.781, 267.552 292.941 C 263.673 296.102, 259.451 299.243, 258.168 299.923 C 256.132 301.001, 255.307 300.803, 251.668 298.357 C 249.376 296.817, 242.078 290.144, 235.452 283.528 C 226.806 274.897, 221.440 268.481, 216.452 260.811 C 212.628 254.932, 209.050 249.424, 208.500 248.571 C 207.627 247.218, 206.970 247.369, 203.335 249.760 M 193.262 372.742 C 193.564 379.759, 194.546 388.983, 195.444 393.240 C 196.342 397.497, 198.203 404.472, 199.580 408.740 C 200.956 413.008, 203.938 420.438, 206.207 425.250 L 210.332 434 232.147 434 L 253.962 434 254.231 411.250 C 254.461 391.814, 254.718 388.500, 256 388.500 C 257.282 388.500, 257.539 391.814, 257.769 411.250 L 258.038 434 280.004 434 L 301.971 434 305.120 427.763 C 306.851 424.333, 309.354 418.640, 310.682 415.112 C 312.010 411.584, 314.175 404.378, 315.492 399.099 C 316.809 393.819, 318.396 385, 319.017 379.500 C 319.638 374, 320.001 367.475, 319.823 365 L 319.500 360.500 256.106 360.242 L 192.712 359.985 193.262 372.742 M 162.544 366.250 C 162.930 368.038, 164.274 371.525, 165.530 374 C 166.786 376.475, 169.093 379.714, 170.657 381.197 C 172.221 382.680, 175.173 384.593, 177.218 385.447 C 179.263 386.301, 183.015 387, 185.556 387 L 190.176 387 189.629 383.250 C 189.328 381.188, 188.792 375.788, 188.437 371.250 L 187.792 363 174.816 363 L 161.841 363 162.544 366.250 M 323.993 368.250 C 323.989 371.137, 323.699 376.538, 323.348 380.250 L 322.711 387 326.105 386.994 C 327.972 386.991, 331.219 386.511, 333.321 385.928 C 335.422 385.344, 338.856 383.318, 340.951 381.425 C 343.047 379.532, 345.657 375.850, 346.753 373.242 C 347.848 370.634, 349.035 367.262, 349.391 365.750 L 350.038 363 337.019 363 L 324 363 323.993 368.250 M 183.678 436.385 C 181.577 437.171, 179.228 438.643, 178.460 439.657 C 177.692 440.671, 177.002 442.625, 176.926 444 C 176.850 445.375, 176.861 447.850, 176.950 449.500 C 177.038 451.150, 177.571 453.962, 178.133 455.750 L 179.155 459 216.578 459 L 254 459 254 448.500 L 254 438 230.565 438 C 217.004 438, 205.996 437.569, 204.438 436.977 C 202.958 436.414, 198.541 435.729, 194.623 435.454 C 189.793 435.116, 186.270 435.416, 183.678 436.385 M 312.500 436.193 C 310.300 436.787, 297.250 437.549, 283.500 437.887 L 258.500 438.500 258.500 448.500 L 258.500 458.500 296 458.500 L 333.500 458.500 334.941 452.809 C 335.973 448.731, 336.115 446.065, 335.441 443.405 C 334.917 441.337, 333.335 438.827, 331.870 437.740 C 330.079 436.411, 327.210 435.681, 322.870 435.451 C 319.367 435.265, 314.700 435.599, 312.500 436.193" stroke="none" fill="#dc3545" fill-rule="evenodd"/></svg>