<svg xmlns="http://www.w3.org/2000/svg" width="512" height="512" viewBox="0 0 512 512" version="1.1"><path d="" stroke="none" fill="#080404" fill-rule="evenodd"/><path d="M 247.424 49.834 C 244.082 51.850, 239.105 55.163, 236.364 57.196 C 233.623 59.229, 227.804 64.629, 223.433 69.196 C 219.063 73.763, 213.761 80.114, 211.651 83.308 C 209.542 86.503, 206.090 92.803, 203.982 97.308 C 201.874 101.814, 199.215 109.072, 198.074 113.438 C 196.934 117.804, 196 122.757, 196 124.444 C 196 126.856, 195.390 127.782, 193.147 128.774 C 191.579 129.469, 189.441 131.632, 188.397 133.582 C 186.809 136.550, 186.093 137.037, 184 136.570 C 182.625 136.263, 179.427 135.729, 176.892 135.384 C 172.816 134.828, 172.095 135.026, 170.642 137.100 C 169.493 138.741, 169.004 141.554, 169.015 146.473 C 169.023 150.338, 169.693 156.314, 170.504 159.754 C 171.315 163.193, 173.620 169.268, 175.627 173.254 C 178.119 178.203, 181.565 182.789, 186.497 187.722 L 193.719 194.944 187.609 199.470 C 184.249 201.959, 178.012 207.458, 173.750 211.690 C 168.867 216.539, 166 220.181, 166 221.537 C 166 222.721, 166.787 224.399, 167.750 225.265 C 168.713 226.132, 174.360 227.777, 180.301 228.920 C 186.241 230.064, 192.991 231.007, 195.301 231.015 C 197.610 231.024, 199.973 231.361, 200.551 231.765 C 201.130 232.169, 202.415 234.665, 203.407 237.311 C 204.400 239.957, 205.052 242.251, 204.856 242.408 C 204.660 242.566, 199.550 246.107, 193.500 250.278 C 187.450 254.448, 179.955 260.479, 176.844 263.680 C 173.734 266.881, 169.373 272.124, 167.154 275.330 C 164.935 278.537, 161.740 284.474, 160.055 288.523 C 158.369 292.573, 156.032 299.849, 154.862 304.693 C 153.252 311.356, 152.735 316.665, 152.735 326.500 C 152.736 334.348, 153.410 343.265, 154.437 349 C 155.373 354.225, 156.583 361.200, 157.126 364.500 C 157.670 367.800, 159.287 372.823, 160.721 375.661 C 162.155 378.500, 164.685 382.274, 166.343 384.048 C 168.001 385.823, 171.640 388.298, 174.429 389.548 C 177.218 390.798, 181.300 392.112, 183.500 392.467 L 187.500 393.112 189.645 401.930 C 190.824 406.779, 193.348 414.629, 195.253 419.374 L 198.717 428 192.108 428.006 C 188.474 428.009, 183.826 428.476, 181.781 429.044 C 179.736 429.612, 176.637 431.276, 174.895 432.742 C 173.153 434.207, 171.114 436.876, 170.364 438.671 C 169.614 440.467, 169.016 444.313, 169.035 447.218 C 169.055 450.123, 170.067 455.425, 171.285 459 L 173.500 465.500 255.723 465.756 L 337.946 466.012 339.432 463.744 C 340.250 462.496, 341.619 458.455, 342.475 454.763 C 343.383 450.851, 343.772 446.425, 343.408 444.152 C 343.065 442.007, 341.821 438.547, 340.642 436.464 C 339.393 434.255, 336.833 431.807, 334.500 430.590 C 331.639 429.098, 328.132 428.402, 322.183 428.147 C 314.929 427.835, 313.955 427.579, 314.556 426.145 C 314.935 425.240, 316.712 420.450, 318.506 415.500 C 320.300 410.550, 322.339 403.800, 323.036 400.500 C 323.734 397.200, 324.997 393.938, 325.844 393.250 C 326.690 392.563, 328.534 391.996, 329.941 391.990 C 331.349 391.985, 334.753 390.931, 337.507 389.649 C 340.261 388.366, 344.041 385.579, 345.906 383.454 C 347.772 381.330, 350.390 377.204, 351.726 374.287 C 353.062 371.370, 354.533 366.400, 354.997 363.242 C 355.460 360.084, 356.566 353.450, 357.454 348.500 C 358.345 343.534, 359.073 334.121, 359.078 327.500 C 359.083 320.561, 358.403 311.915, 357.466 307 C 356.574 302.325, 354.729 295.701, 353.366 292.280 C 352.002 288.859, 349.225 283.054, 347.193 279.381 C 345.162 275.707, 340.469 269.448, 336.764 265.471 C 333.059 261.495, 325.225 254.825, 319.354 250.651 C 313.484 246.476, 308.315 242.934, 307.868 242.780 C 307.421 242.626, 308.055 239.920, 309.277 236.767 L 311.500 231.034 316.640 231.017 C 319.466 231.008, 325.541 230.304, 330.140 229.453 C 334.738 228.602, 339.966 227.441, 341.758 226.873 C 343.549 226.305, 345.462 225.005, 346.008 223.986 C 346.553 222.966, 347 221.604, 347 220.959 C 347 220.314, 343.738 216.413, 339.750 212.290 C 335.762 208.167, 329.475 202.537, 325.777 199.779 L 319.053 194.765 325.359 188.632 C 328.827 185.260, 333.237 179.797, 335.159 176.493 C 337.080 173.189, 339.641 167.564, 340.850 163.993 C 342.073 160.379, 343.285 153.731, 343.582 149 C 343.966 142.904, 343.736 139.793, 342.770 138 C 341.636 135.894, 340.721 135.508, 336.962 135.549 C 334.508 135.575, 330.813 135.963, 328.750 136.410 C 325.417 137.132, 325 137.005, 325 135.265 C 325 134.188, 322.975 131.465, 320.500 129.212 C 317.509 126.490, 316 124.297, 316 122.670 C 316 121.325, 314.905 116.461, 313.567 111.862 C 312.228 107.263, 309.949 100.834, 308.502 97.575 C 307.055 94.316, 303.947 88.691, 301.596 85.075 C 299.245 81.459, 295.011 75.748, 292.187 72.385 C 289.363 69.021, 284.003 63.776, 280.276 60.728 C 276.549 57.681, 270.146 53.120, 266.046 50.594 C 261.946 48.067, 257.446 46.038, 256.046 46.084 C 254.646 46.130, 250.766 47.818, 247.424 49.834 M 247.334 63.225 C 243.025 66.099, 236.468 71.515, 232.763 75.261 C 229.058 79.007, 224.282 84.643, 222.151 87.786 C 220.020 90.929, 217.025 95.975, 215.494 99 C 213.964 102.025, 211.680 107.533, 210.419 111.241 C 209.157 114.949, 207.821 120.011, 207.449 122.491 L 206.773 127 256.264 127 L 305.756 127 304.428 120.750 C 303.698 117.313, 302.234 112.003, 301.174 108.952 C 300.114 105.900, 298.232 101.400, 296.992 98.952 C 295.751 96.503, 292.492 91.242, 289.750 87.260 C 287.007 83.277, 281.672 77.103, 277.894 73.539 C 274.116 69.975, 267.987 65.021, 264.273 62.529 C 260.560 60.038, 256.992 58, 256.344 58 C 255.697 58, 251.642 60.351, 247.334 63.225 M 198 144 L 198 150.016 256.250 149.758 L 314.500 149.500 314.500 144 L 314.500 138.500 256.250 138.242 L 198 137.984 198 144 M 180.261 152.750 C 180.558 155.912, 181.742 160.975, 182.893 164 C 184.044 167.025, 186.676 171.725, 188.743 174.444 C 190.809 177.164, 192.950 179.414, 193.500 179.444 C 194.050 179.475, 194.780 177.250, 195.122 174.500 C 195.464 171.750, 196.249 167.700, 196.866 165.500 C 197.484 163.300, 197.991 161.162, 197.994 160.750 C 197.997 160.338, 197.055 160, 195.900 160 C 194.745 160, 192.270 158.470, 190.400 156.600 C 188.530 154.730, 187 152.244, 187 151.075 C 187 149.715, 186.078 148.600, 184.435 147.975 C 183.024 147.439, 181.387 147, 180.796 147 C 180.093 147, 179.908 148.985, 180.261 152.750 M 327.816 147.677 C 326.890 147.921, 325.846 149.423, 325.497 151.014 C 325.148 152.604, 324.008 154.991, 322.965 156.318 C 321.921 157.644, 319.671 159.308, 317.963 160.015 C 315.285 161.125, 314.952 161.658, 315.537 163.901 C 315.910 165.330, 316.753 169.875, 317.411 174 L 318.605 181.500 323.240 175.225 C 325.789 171.773, 328.758 166.590, 329.837 163.707 C 330.915 160.824, 332.120 155.885, 332.514 152.732 C 333.165 147.526, 333.059 147.011, 331.365 147.116 C 330.339 147.180, 328.742 147.432, 327.816 147.677 M 207.508 168.240 C 206.597 172.233, 205.591 178.579, 205.273 182.341 L 204.695 189.183 210.597 186.231 C 213.844 184.608, 219.425 182.337, 223 181.185 C 226.575 180.033, 233.262 178.395, 237.860 177.545 C 242.459 176.695, 250.612 176, 255.979 176 C 261.347 176, 269.509 176.672, 274.119 177.493 C 278.729 178.315, 285.200 179.844, 288.500 180.891 C 291.800 181.939, 297.143 183.967, 300.374 185.398 C 303.605 186.829, 306.485 188, 306.773 188 C 307.061 188, 307.012 184.287, 306.663 179.750 C 306.315 175.213, 305.431 169.250, 304.700 166.500 L 303.370 161.500 256.267 161.240 L 209.165 160.981 207.508 168.240 M 237.500 188.475 C 234.200 189.199, 228.586 190.777, 225.024 191.982 C 221.463 193.187, 214.952 195.968, 210.557 198.161 C 206.161 200.355, 200.300 203.774, 197.532 205.760 C 194.765 207.746, 190.116 211.366, 187.202 213.804 C 184.288 216.242, 182.042 218.375, 182.211 218.544 C 182.380 218.713, 187.977 219.354, 194.649 219.968 C 203.412 220.774, 209.185 220.785, 215.446 220.007 C 220.213 219.414, 226.497 218.038, 229.412 216.947 C 232.326 215.857, 236.744 213.618, 239.230 211.971 C 241.715 210.325, 244.861 207.295, 246.221 205.239 C 247.581 203.183, 249.317 199.772, 250.080 197.660 C 250.843 195.548, 252.304 193.373, 253.326 192.825 C 254.349 192.278, 256.269 192.102, 257.592 192.434 C 259.332 192.870, 260.794 194.761, 262.879 199.269 C 264.464 202.696, 267.426 207.172, 269.461 209.215 C 271.496 211.259, 275.487 214.023, 278.330 215.358 C 281.174 216.693, 286.200 218.349, 289.500 219.038 C 292.800 219.728, 300.225 220.338, 306 220.396 C 311.775 220.453, 319.650 220.113, 323.500 219.641 L 330.500 218.782 326 214.772 C 323.525 212.567, 318.800 208.835, 315.500 206.480 C 312.200 204.124, 305.450 200.186, 300.500 197.728 C 295.550 195.271, 289.250 192.536, 286.500 191.651 C 283.750 190.767, 278.208 189.358, 274.185 188.521 C 269.861 187.622, 262.090 187.033, 255.185 187.079 C 248.758 187.123, 240.800 187.751, 237.500 188.475 M 251.226 216.636 C 248.222 219.707, 243.527 223.078, 239.735 224.888 C 236.209 226.571, 230.438 228.628, 226.912 229.459 C 223.385 230.290, 219.064 230.977, 217.309 230.985 C 215.554 230.993, 213.879 231.387, 213.587 231.860 C 213.294 232.333, 214.862 236.455, 217.069 241.021 C 219.277 245.586, 223.474 252.962, 226.395 257.411 C 229.317 261.860, 234.577 268.608, 238.086 272.407 C 241.594 276.206, 247.096 281.503, 250.311 284.179 L 256.157 289.044 260.033 285.974 C 262.166 284.285, 266.784 280.112, 270.297 276.702 C 273.811 273.291, 279.372 266.862, 282.656 262.415 C 285.940 257.968, 290.684 250.318, 293.197 245.415 C 295.710 240.512, 298.065 235.518, 298.429 234.318 C 299.030 232.340, 298.644 232.074, 294.296 231.473 C 291.658 231.108, 286.800 230.139, 283.500 229.320 C 280.200 228.502, 274.925 226.463, 271.777 224.791 C 268.629 223.118, 263.861 219.431, 261.180 216.597 L 256.307 211.444 251.226 216.636 M 299.204 257.456 C 297.459 260.373, 293.887 265.616, 291.266 269.106 C 288.645 272.596, 283.800 278.345, 280.500 281.880 C 277.200 285.416, 270.968 291.164, 266.650 294.654 C 262.023 298.395, 257.842 301, 256.466 301 C 255.113 301, 251.054 298.525, 246.816 295.116 C 242.792 291.880, 236.756 286.368, 233.403 282.866 C 230.049 279.365, 225.241 273.908, 222.719 270.739 C 220.196 267.571, 216.494 262.283, 214.493 258.989 C 212.492 255.695, 210.366 253, 209.768 253 C 209.171 253, 206.298 254.800, 203.384 257 C 200.470 259.200, 197.704 261, 197.237 261 C 196.771 261, 193.415 263.453, 189.779 266.452 C 186.144 269.451, 181.159 274.738, 178.703 278.202 C 176.246 281.666, 172.887 287.200, 171.238 290.500 C 169.589 293.800, 167.272 300.380, 166.088 305.122 C 164.471 311.597, 163.933 316.812, 163.926 326.066 C 163.921 332.843, 164.448 341.675, 165.096 345.694 L 166.274 353 174.744 353 C 182.422 353, 183.146 352.836, 182.485 351.250 C 182.084 350.288, 181.529 343.843, 181.252 336.928 C 180.971 329.919, 181.279 319.743, 181.949 313.928 C 182.610 308.193, 183.605 301.356, 184.161 298.735 C 184.717 296.115, 185.840 293.302, 186.657 292.485 C 187.474 291.668, 189.166 291, 190.416 291 C 191.667 291, 193.469 291.860, 194.420 292.912 C 196.061 294.725, 196.060 295.386, 194.404 305.662 C 193.414 311.801, 192.622 322.353, 192.578 330 C 192.535 337.425, 192.866 345.641, 193.312 348.258 L 194.125 353.015 255.741 352.758 L 317.356 352.500 318.296 349.500 C 318.813 347.850, 319.264 340.425, 319.298 333 C 319.336 324.690, 318.653 314.792, 317.522 307.253 C 315.747 295.427, 315.747 294.938, 317.497 293.003 C 318.494 291.901, 320.295 291, 321.500 291 C 322.705 291, 324.435 291.823, 325.346 292.830 C 326.353 293.943, 327.639 298.742, 328.628 305.080 C 329.522 310.811, 330.309 322.025, 330.377 330 C 330.445 337.975, 330.157 346.413, 329.738 348.750 L 328.976 353 337.385 353 L 345.793 353 347.022 344.346 C 347.769 339.080, 348.044 330.563, 347.724 322.596 C 347.434 315.393, 346.479 306.800, 345.601 303.500 C 344.724 300.200, 341.949 293.380, 339.435 288.345 C 336.767 283.002, 332.587 276.674, 329.396 273.148 C 326.388 269.825, 320.906 265.053, 317.214 262.543 C 313.521 260.034, 308.672 256.670, 306.438 255.066 L 302.377 252.151 299.204 257.456 M 169.043 367.148 C 169.539 368.880, 170.970 371.836, 172.223 373.717 C 173.475 375.598, 176.170 378.006, 178.210 379.068 C 180.251 380.131, 182.895 381, 184.085 381 C 185.976 381, 186.171 380.605, 185.625 377.875 C 185.281 376.156, 185 372.331, 185 369.375 L 185 364 176.570 364 L 168.140 364 169.043 367.148 M 196.372 373.494 C 196.739 378.715, 197.727 386.613, 198.568 391.044 C 199.408 395.475, 201.013 402.115, 202.134 405.800 C 203.255 409.485, 205.983 416.663, 208.195 421.750 L 212.218 431 231.609 431 L 251 431 251 409.934 C 251 397.325, 251.416 388.092, 252.035 386.934 C 252.694 385.703, 254.127 385, 255.978 385 C 257.850 385, 259.441 385.792, 260.443 387.223 C 261.731 389.061, 262 393.036, 262 410.223 L 262 431 281.057 431 L 300.114 431 303.405 423.750 C 305.215 419.762, 307.705 413.575, 308.940 410 C 310.174 406.425, 312.054 399.675, 313.119 395 C 314.183 390.325, 315.333 381.438, 315.675 375.250 L 316.297 364 256.001 364 L 195.705 364 196.372 373.494 M 327.667 364.667 C 327.300 365.033, 327 368.858, 327 373.167 C 327 379.553, 327.284 381, 328.540 381 C 329.387 381, 331.749 380.131, 333.790 379.068 C 335.830 378.006, 338.525 375.598, 339.777 373.717 C 341.030 371.836, 342.461 368.880, 342.957 367.148 L 343.860 364 336.097 364 C 331.827 364, 328.033 364.300, 327.667 364.667 M 186.582 438.974 C 184.427 439.395, 182.064 440.559, 181.332 441.561 C 180.599 442.563, 180.006 444.984, 180.014 446.941 C 180.021 448.899, 180.299 451.512, 180.630 452.750 L 181.233 455 215.617 455 L 250 455 250 448.500 L 250 442 229.250 441.989 C 214.732 441.982, 207.149 441.572, 204 440.627 C 201.525 439.883, 197.475 439.035, 195 438.742 C 192.525 438.449, 188.737 438.553, 186.582 438.974 M 309 440.552 C 305.713 441.588, 298.774 441.974, 283.250 441.985 L 262 442 262 448.500 L 262 455 296.433 455 C 329.897 455, 330.883 454.944, 331.495 453.016 C 331.841 451.924, 332.151 449.137, 332.183 446.822 C 332.227 443.630, 331.702 442.177, 330.010 440.807 C 328.301 439.423, 326.106 439.016, 320.639 439.067 C 316.713 439.104, 311.475 439.772, 309 440.552" stroke="none" fill="#040404" fill-rule="evenodd"/></svg>