<svg xmlns="http://www.w3.org/2000/svg" width="512" height="512" viewBox="0 0 512 512" version="1.1"><path d="" stroke="none" fill="#080404" fill-rule="evenodd"/><path d="M 247.500 47.435 C 245.300 48.253, 242.481 50.177, 241.237 51.711 C 239.992 53.245, 236.982 58.550, 234.549 63.500 C 232.115 68.450, 226.336 81.950, 221.705 93.500 C 217.075 105.050, 210.422 122.381, 206.921 132.013 L 200.556 149.526 191.528 152.357 C 186.563 153.914, 179.149 156.575, 175.054 158.269 C 170.959 159.963, 163.679 163.978, 158.877 167.190 C 153.825 170.569, 148.379 175.235, 145.951 178.265 C 143.643 181.144, 140.841 185.525, 139.724 188 C 138.337 191.073, 137.672 194.731, 137.625 199.536 C 137.568 205.282, 138.063 207.608, 140.323 212.228 C 141.845 215.339, 145.102 220.121, 147.560 222.855 C 150.018 225.589, 155.510 230.053, 159.764 232.775 C 164.019 235.497, 171.100 239.293, 175.500 241.210 C 179.900 243.127, 184.738 244.997, 186.250 245.367 C 188.424 245.897, 189 246.617, 189 248.798 C 189 250.870, 187.371 253.169, 182.458 258.029 C 178.859 261.588, 173.528 267.650, 170.611 271.500 C 167.694 275.350, 165.036 279.266, 164.704 280.201 C 164.372 281.137, 164.865 282.842, 165.800 283.991 C 166.847 285.277, 170.289 286.795, 174.761 287.943 C 178.754 288.968, 184.717 290.119, 188.011 290.501 C 192.822 291.060, 194 291.546, 194 292.973 C 194 293.950, 194.270 296.101, 194.600 297.751 C 195.185 300.677, 195.066 300.785, 189.885 302.028 C 186.962 302.729, 182.563 304.190, 180.111 305.275 C 177.658 306.360, 173.368 308.726, 170.576 310.533 C 167.784 312.341, 163.182 316.222, 160.349 319.160 C 157.516 322.097, 153.587 327.052, 151.618 330.172 C 149.649 333.292, 146.932 339.142, 145.579 343.172 C 143.740 348.654, 141.342 364.042, 136.060 404.244 C 132.177 433.804, 129 459.251, 129 460.794 C 129 462.337, 129.540 464.140, 130.200 464.800 C 131.121 465.721, 160.533 466, 256.500 466 C 352.467 466, 381.879 465.721, 382.800 464.800 C 383.460 464.140, 384 462.145, 384 460.366 C 384 458.588, 381.089 434.715, 377.531 407.316 C 373.973 379.917, 370.571 355.025, 369.971 352 C 369.371 348.975, 367.924 344.025, 366.756 341 C 365.589 337.975, 362.880 332.694, 360.737 329.265 C 358.593 325.836, 353.922 320.357, 350.355 317.089 C 346.453 313.513, 340.611 309.539, 335.685 307.110 C 331.183 304.890, 325.650 302.784, 323.388 302.431 C 321.126 302.078, 318.761 301.470, 318.131 301.081 C 317.379 300.616, 317.207 298.770, 317.629 295.687 C 318.104 292.227, 318.710 291, 319.946 291 C 320.866 291, 325.417 290.050, 330.060 288.889 C 334.702 287.728, 339.288 286.083, 340.250 285.234 C 341.212 284.385, 341.992 282.747, 341.983 281.595 C 341.973 280.443, 339.610 276.487, 336.733 272.803 C 333.855 269.120, 329.362 263.672, 326.750 260.695 C 322.201 255.513, 322.026 255.091, 322.623 250.731 C 323.243 246.208, 323.289 246.163, 329.374 243.959 C 332.743 242.739, 338.650 240.164, 342.500 238.238 C 346.350 236.312, 351.413 233.424, 353.751 231.819 C 356.090 230.215, 360.315 226.589, 363.142 223.763 C 366.124 220.781, 369.527 215.962, 371.248 212.283 C 373.864 206.693, 374.171 205.087, 373.836 198.721 C 373.573 193.705, 372.714 189.976, 371.023 186.510 C 369.685 183.766, 365.636 178.591, 362.027 175.010 C 358.296 171.309, 352.055 166.576, 347.563 164.041 C 343.218 161.588, 335.801 158.080, 331.081 156.245 C 326.362 154.411, 321.864 152.568, 321.088 152.151 C 320.282 151.718, 316.461 140.133, 312.191 125.176 C 308.075 110.757, 304.955 98.712, 305.257 98.409 C 305.560 98.107, 317.365 95.716, 331.491 93.097 C 348.282 89.984, 357.485 87.845, 358.072 86.918 C 358.566 86.138, 358.976 84.557, 358.985 83.405 C 358.993 82.253, 358.212 80.643, 357.250 79.828 C 356.288 79.013, 350.775 76.278, 345 73.751 C 339.225 71.223, 328.875 66.907, 322 64.159 C 315.125 61.412, 304.775 57.522, 299 55.517 C 293.225 53.511, 284 50.768, 278.500 49.422 C 273 48.075, 264.675 46.743, 260 46.461 C 253.867 46.092, 250.386 46.363, 247.500 47.435 M 251.710 56.650 C 250.619 56.962, 247.620 61.911, 244.027 69.331 C 240.786 76.024, 236.694 85.100, 234.933 89.500 C 233.172 93.900, 227.553 108.524, 222.447 121.998 C 217.340 135.472, 213.295 146.628, 213.457 146.790 C 213.618 146.952, 216.619 146.619, 220.125 146.052 C 223.631 145.484, 233.511 144.533, 242.080 143.939 C 253.314 143.160, 261.542 143.165, 271.580 143.957 C 279.236 144.560, 289.775 145.730, 295 146.555 C 300.225 147.380, 305.231 148.280, 306.125 148.555 C 307.421 148.954, 306.454 144.537, 301.358 126.778 C 297.842 114.525, 294.512 102.836, 293.958 100.802 C 293.095 97.633, 291.377 95.991, 281.975 89.348 C 272.736 82.819, 271 81.175, 271 78.951 C 271 77.499, 271.823 75.565, 272.829 74.655 C 273.835 73.745, 275.327 73, 276.145 73 C 276.963 73, 282.370 76.340, 288.161 80.423 L 298.691 87.845 316.285 84.730 C 325.962 83.016, 333.673 81.279, 333.419 80.870 C 333.166 80.460, 326.106 77.441, 317.730 74.160 C 309.353 70.880, 297.550 66.589, 291.500 64.626 C 285.450 62.662, 276.675 60.163, 272 59.073 C 267.325 57.983, 261.250 56.876, 258.500 56.614 C 255.750 56.352, 252.695 56.368, 251.710 56.650 M 238.500 155.109 C 232.450 155.564, 223 156.677, 217.500 157.582 C 212 158.487, 202.100 160.770, 195.500 162.656 C 188.900 164.542, 179.865 167.842, 175.421 169.988 C 170.978 172.135, 164.600 175.953, 161.247 178.473 C 157.895 180.993, 153.796 185.103, 152.138 187.605 C 150.481 190.107, 148.827 193.511, 148.463 195.169 C 148.099 196.828, 148.091 200.122, 148.446 202.490 C 148.801 204.858, 150.455 208.854, 152.122 211.370 C 153.788 213.886, 157.930 218.050, 161.326 220.624 C 164.722 223.198, 171.100 226.986, 175.500 229.042 C 179.900 231.098, 184.473 233.072, 185.662 233.430 C 187.452 233.967, 187.914 233.600, 188.350 231.289 C 188.639 229.755, 189.157 225.800, 189.501 222.500 C 189.845 219.200, 191.283 212, 192.697 206.500 C 194.111 201, 195.875 195.298, 196.619 193.829 C 197.362 192.360, 199.232 190.259, 200.775 189.160 C 202.318 188.062, 206.329 186.237, 209.688 185.105 C 213.048 183.973, 221.355 182.315, 228.148 181.419 C 237.617 180.171, 245.519 179.907, 262 180.288 C 276.200 180.617, 286.346 181.353, 291.883 182.457 C 296.493 183.376, 302.654 185.021, 305.572 186.113 C 308.630 187.257, 312.130 189.523, 313.831 191.461 C 316.112 194.058, 317.388 197.352, 319.443 205.945 C 320.905 212.063, 322.371 220.877, 322.700 225.534 C 323.028 230.190, 323.603 234, 323.976 234 C 324.350 234, 327.320 232.906, 330.578 231.568 C 333.835 230.230, 339.089 227.720, 342.254 225.991 C 345.419 224.261, 350.507 220.561, 353.562 217.770 C 356.616 214.978, 360.042 210.879, 361.173 208.660 C 362.397 206.262, 363.231 202.698, 363.231 199.868 C 363.231 197.036, 362.357 193.303, 361.073 190.652 C 359.887 188.201, 356.797 184.214, 354.208 181.792 C 351.619 179.370, 346.588 175.682, 343.029 173.596 C 339.470 171.510, 333.358 168.533, 329.447 166.979 C 325.536 165.425, 318.098 163.014, 312.918 161.621 C 307.738 160.227, 299.450 158.410, 294.500 157.582 C 289.550 156.754, 279.200 155.611, 271.500 155.042 C 263.800 154.474, 255.700 154.070, 253.500 154.145 C 251.300 154.220, 244.550 154.654, 238.500 155.109 M 235 191.637 C 232.525 191.868, 226.736 192.744, 222.136 193.582 C 217.537 194.421, 212.109 195.773, 210.075 196.587 C 206.426 198.047, 206.341 198.209, 203.660 208.895 C 202.166 214.852, 200.563 224.849, 200.099 231.112 C 199.634 237.376, 199.318 242.584, 199.397 242.687 C 199.476 242.789, 202.304 241.116, 205.683 238.968 C 209.061 236.820, 215.577 233.528, 220.163 231.653 C 224.748 229.778, 230.975 227.626, 234 226.872 C 237.362 226.033, 244.943 225.504, 253.500 225.510 C 265.070 225.518, 268.870 225.914, 275.395 227.796 C 279.737 229.049, 286.487 231.564, 290.395 233.386 C 294.303 235.208, 300.597 238.791, 304.382 241.349 C 308.168 243.907, 311.492 246, 311.770 246 C 312.048 246, 312.015 239.588, 311.696 231.750 C 311.378 223.912, 310.380 214.125, 309.478 210 C 308.577 205.875, 307.312 201.375, 306.667 200 C 305.861 198.280, 303.885 196.965, 300.330 195.785 C 297.490 194.842, 292.316 193.572, 288.833 192.964 C 285.350 192.355, 272.825 191.713, 261 191.537 C 249.175 191.360, 237.475 191.405, 235 191.637 M 235 238.039 C 230.875 239.100, 223.703 241.874, 219.062 244.205 C 214.421 246.536, 206.771 251.422, 202.062 255.063 C 197.353 258.703, 190.421 265.200, 186.658 269.500 C 181.041 275.918, 180.096 277.474, 181.377 278.191 C 182.236 278.672, 186.890 279.554, 191.719 280.152 C 196.549 280.749, 204.325 280.983, 209 280.671 C 213.675 280.359, 219.779 279.413, 222.564 278.568 C 225.350 277.724, 230.138 275.236, 233.204 273.040 C 236.271 270.844, 240.197 266.908, 241.929 264.293 C 243.661 261.679, 245.790 257.055, 246.660 254.020 C 247.530 250.984, 248.692 247.938, 249.243 247.250 C 249.794 246.563, 251.427 246.007, 252.872 246.015 C 254.318 246.024, 256.048 246.379, 256.717 246.804 C 257.387 247.230, 258.844 250.523, 259.957 254.124 C 261.069 257.724, 263.306 262.503, 264.929 264.743 C 266.552 266.984, 269.976 270.417, 272.537 272.373 C 275.099 274.329, 279.739 276.904, 282.847 278.095 C 286.776 279.600, 291.635 280.414, 298.780 280.763 C 304.740 281.054, 312.303 280.746, 316.780 280.029 C 321.026 279.350, 325.114 278.456, 325.865 278.043 C 326.857 277.497, 324.546 274.494, 317.420 267.070 C 310.890 260.266, 304.413 254.740, 298.054 250.546 C 292.799 247.079, 285.414 243.030, 281.643 241.547 C 277.871 240.064, 271.796 238.217, 268.143 237.443 C 264.489 236.668, 257.225 236.052, 252 236.072 C 245.992 236.096, 239.743 236.819, 235 238.039 M 250.047 272.077 C 248.263 274.831, 244.484 278.813, 241.651 280.926 C 238.818 283.039, 235.150 285.434, 233.500 286.248 C 231.850 287.063, 228.250 288.464, 225.500 289.361 C 222.750 290.259, 217.200 291.407, 213.166 291.914 C 209.133 292.420, 205.660 293.007, 205.448 293.218 C 205.237 293.430, 206.198 298.072, 207.584 303.534 C 208.970 308.996, 211.268 316.848, 212.690 320.983 C 214.113 325.117, 216.988 332.397, 219.079 337.160 C 221.170 341.923, 224.349 348.448, 226.144 351.660 C 227.938 354.872, 231.407 360.647, 233.852 364.494 C 236.298 368.340, 241.719 375.718, 245.900 380.888 C 250.080 386.058, 254.034 390.946, 254.688 391.750 C 255.694 392.988, 256.356 392.664, 259.022 389.628 C 260.753 387.656, 264.435 383.221, 267.204 379.772 C 269.973 376.322, 274.519 370.133, 277.306 366.018 C 280.093 361.903, 285.133 353.128, 288.506 346.518 C 291.878 339.908, 296.108 330.450, 297.905 325.500 C 299.703 320.550, 302.481 311.550, 304.080 305.500 C 305.679 299.450, 306.990 293.938, 306.994 293.250 C 306.998 292.366, 304.879 291.996, 299.750 291.985 C 295.762 291.977, 289.615 291.290, 286.088 290.459 C 282.562 289.628, 276.937 287.639, 273.588 286.039 C 270.240 284.439, 265.517 281.430, 263.094 279.353 C 260.670 277.276, 257.474 273.662, 255.990 271.323 L 253.292 267.069 250.047 272.077 M 188.126 314.550 C 184.071 315.938, 178.700 318.486, 176.192 320.212 C 173.683 321.938, 169.658 325.409, 167.247 327.925 C 164.835 330.441, 161.588 334.750, 160.030 337.500 C 158.473 340.250, 156.492 344.617, 155.627 347.204 C 154.762 349.791, 151.118 374.355, 147.527 401.790 C 143.937 429.225, 141 452.421, 141 453.336 C 141 454.818, 142.730 455, 156.803 455 L 172.605 455 171.887 449.250 C 171.492 446.087, 171.145 434.050, 171.116 422.500 C 171.086 410.950, 171.671 394.634, 172.416 386.242 C 173.186 377.558, 174.302 370.341, 175.007 369.492 C 175.688 368.671, 177.529 368, 179.099 368 C 180.962 368, 182.459 368.782, 183.408 370.250 C 184.621 372.126, 184.680 373.912, 183.766 381 C 183.163 385.675, 182.631 403, 182.585 419.500 C 182.538 436, 182.846 450.738, 183.269 452.250 L 184.038 455 256.458 455 L 328.877 455 329.689 450.250 C 330.135 447.637, 330.463 434.700, 330.419 421.500 C 330.374 408.300, 329.787 391.713, 329.113 384.640 C 327.993 372.867, 328.034 371.620, 329.600 369.890 C 330.540 368.851, 332.253 368.007, 333.405 368.015 C 334.557 368.024, 336.096 368.408, 336.824 368.870 C 337.552 369.331, 338.535 371.462, 339.008 373.605 C 339.481 375.747, 340.411 385.825, 341.074 396 C 341.757 406.482, 342.035 422.518, 341.716 433 C 341.406 443.175, 340.845 452.288, 340.469 453.250 C 339.836 454.873, 340.959 455, 355.893 455 C 368.381 455, 372 454.710, 372 453.710 C 372 453, 369.074 430.032, 365.497 402.670 C 361.292 370.496, 358.269 350.766, 356.941 346.823 C 355.811 343.470, 353.389 338.385, 351.557 335.522 C 349.726 332.660, 346.489 328.621, 344.364 326.548 C 342.239 324.475, 338.619 321.478, 336.320 319.889 C 334.022 318.301, 328.542 315.815, 324.143 314.366 C 319.744 312.916, 315.437 312.002, 314.572 312.334 C 313.708 312.666, 313 313.629, 313 314.473 C 313 315.318, 311.147 321.070, 308.881 327.255 C 306.616 333.440, 302.403 343.228, 299.520 349.006 C 296.636 354.784, 292.356 362.659, 290.008 366.506 C 287.660 370.353, 282.548 377.775, 278.649 383 C 274.749 388.225, 268.380 395.762, 264.495 399.750 C 260.611 403.738, 256.772 407.001, 255.966 407.002 C 255.160 407.004, 251.220 403.563, 247.211 399.357 C 243.202 395.151, 236.869 387.613, 233.137 382.605 C 229.405 377.597, 224.273 370.125, 221.734 366 C 219.195 361.875, 214.424 352.875, 211.133 346 C 207.841 339.125, 203.553 328.775, 201.602 323 C 199.652 317.225, 197.481 312.393, 196.778 312.263 C 196.075 312.133, 192.182 313.162, 188.126 314.550" stroke="none" fill="#040404" fill-rule="evenodd"/></svg>