<svg xmlns="http://www.w3.org/2000/svg" width="512" height="512" viewBox="0 0 512 512" version="1.1"><path d="" stroke="none" fill="#080404" fill-rule="evenodd"/><path d="M 197.500 47.109 C 194.200 47.585, 188.539 48.870, 184.921 49.964 C 181.303 51.058, 177.158 53.051, 175.711 54.392 C 174.265 55.732, 172.834 57.880, 172.533 59.165 C 172.232 60.449, 167.712 86.250, 162.488 116.500 C 157.265 146.750, 152.759 172.514, 152.476 173.753 C 152.188 175.010, 149.280 177.956, 145.898 180.417 L 139.835 184.829 131.668 180.912 C 127.175 178.758, 120.350 176.330, 116.500 175.515 C 112.650 174.701, 107.649 174.027, 105.386 174.017 C 103.124 174.008, 98.849 174.452, 95.886 175.005 C 92.924 175.558, 87.778 177.342, 84.452 178.968 C 81.126 180.595, 76.229 184.071, 73.570 186.692 C 70.911 189.313, 67.590 193.268, 66.190 195.479 C 64.790 197.691, 62.654 202.425, 61.444 206 C 60.234 209.575, 58.940 215.650, 58.568 219.500 C 58.196 223.350, 58.357 229.711, 58.926 233.636 C 59.495 237.560, 61.119 244.439, 62.535 248.922 L 65.110 257.072 55.353 310.617 L 45.596 364.163 51.908 412.832 C 55.803 442.870, 58.760 462.361, 59.633 463.750 C 61.027 465.969, 61.339 466, 82.452 466 C 100.578 466, 104.098 465.759, 105.429 464.429 C 106.419 463.438, 106.991 461.127, 106.975 458.179 C 106.961 455.605, 105.864 433.752, 104.537 409.616 L 102.125 365.733 113.707 342.616 L 125.288 319.500 133.663 364.220 L 142.037 408.941 129.519 433.963 C 122.633 447.725, 117 459.856, 117 460.921 C 117 461.986, 117.707 463.564, 118.571 464.429 C 119.980 465.837, 131.013 466, 225.048 466 L 329.954 466 331.609 463.473 C 333.216 461.021, 333.115 460.639, 328.192 450.512 L 323.119 440.078 332.809 448.120 C 338.139 452.543, 345.800 458.375, 349.834 461.081 C 353.867 463.786, 358.083 466, 359.203 466 C 360.322 466, 364.897 463.452, 369.369 460.338 C 373.841 457.223, 380.908 451.851, 385.074 448.398 C 389.239 444.946, 396.664 437.918, 401.574 432.781 C 406.483 427.643, 413.138 419.932, 416.363 415.644 C 419.587 411.357, 424.952 403.511, 428.284 398.209 C 431.617 392.907, 436.919 383.154, 440.067 376.535 C 443.214 369.916, 447.803 358.650, 450.264 351.500 C 452.725 344.350, 455.913 333.550, 457.348 327.500 C 458.783 321.450, 460.835 311.325, 461.907 305 C 462.980 298.675, 464.403 287.035, 465.070 279.134 C 465.792 270.589, 466.074 256.718, 465.766 244.898 C 465.364 229.462, 464.909 224.511, 463.727 222.707 C 462.546 220.903, 460.342 219.992, 453.853 218.625 C 449.259 217.657, 440.775 215.268, 435 213.315 C 429.225 211.363, 419.721 207.369, 413.880 204.439 C 408.039 201.510, 397.914 195.530, 391.380 191.151 C 384.846 186.771, 375.335 179.320, 370.244 174.594 C 365.113 169.829, 360.109 166, 359.014 166 C 357.928 166, 353.993 168.770, 350.270 172.156 C 346.546 175.542, 341.250 180.100, 338.500 182.286 C 335.750 184.471, 330.897 188.028, 327.716 190.190 L 321.932 194.121 309.519 185.310 C 302.382 180.244, 296.913 175.650, 296.652 174.500 C 296.402 173.400, 291.781 146.883, 286.385 115.572 C 277.880 66.230, 276.271 58.287, 274.309 55.956 C 273.065 54.476, 269.791 52.296, 267.035 51.110 C 264.279 49.925, 257.631 48.293, 252.262 47.483 C 245.927 46.528, 235.655 46.053, 223 46.128 C 212.275 46.192, 200.800 46.633, 197.500 47.109 M 196.500 58.455 C 192.100 59.192, 187.262 60.280, 185.750 60.873 C 184.238 61.465, 183 62.270, 183 62.660 C 183 63.050, 178.480 89.236, 172.956 120.850 C 167.432 152.463, 163.125 178.883, 163.384 179.559 C 163.644 180.236, 166.701 181.734, 170.178 182.888 C 173.655 184.042, 181 185.629, 186.500 186.413 C 192 187.197, 199.088 188.024, 202.250 188.252 L 208 188.665 208 162.832 L 208 137 200.035 137 C 193.184 137, 191.926 136.730, 191.035 135.066 C 190.458 133.988, 190 126.716, 190 118.637 C 190 106.794, 190.287 103.855, 191.571 102.571 C 192.933 101.210, 197.316 101, 224.380 101 C 249.780 101, 255.981 101.265, 257.559 102.419 C 259.330 103.715, 259.500 105.144, 259.500 118.766 C 259.500 129.948, 259.156 134.108, 258.128 135.346 C 257.063 136.628, 254.985 137, 248.878 137 L 241 137 241 162.853 L 241 188.706 246.250 188.291 C 249.137 188.062, 256.009 187.246, 261.519 186.476 C 267.029 185.707, 274.591 184.135, 278.322 182.982 C 282.053 181.830, 285.335 180.290, 285.615 179.560 C 285.896 178.830, 281.814 153.445, 276.544 123.150 C 271.275 92.855, 266.696 66.731, 266.370 65.098 C 266.043 63.464, 265.039 61.819, 264.138 61.441 C 263.237 61.063, 259.800 60.097, 256.500 59.295 C 252.425 58.303, 243.122 57.720, 227.500 57.476 C 211.392 57.224, 202.103 57.517, 196.500 58.455 M 201 119 L 201 126 208 126 C 213.667 126, 215.381 126.381, 217 128 C 218.919 129.919, 219 131.333, 219 163 C 219 194.157, 218.893 196.107, 217.088 197.912 C 215.423 199.577, 214.105 199.761, 206.838 199.341 C 202.252 199.077, 193.432 198.200, 187.238 197.394 C 181.043 196.587, 173.168 195.051, 169.738 193.979 C 166.307 192.907, 161.717 190.942, 159.539 189.612 L 155.578 187.194 151.087 190.347 C 148.617 192.081, 146.259 193.738, 145.847 194.029 C 145.435 194.319, 142.601 217.719, 139.548 246.029 C 136.495 274.338, 133.998 299.097, 133.998 301.050 C 133.999 303.002, 138.050 326.580, 143 353.445 C 147.950 380.309, 152 402.675, 152 403.145 C 152 403.615, 164.375 404, 179.500 404 L 207 404 207 354.500 L 207 305 181.155 305 C 157.387 305, 155.177 304.853, 153.655 303.171 C 152.274 301.645, 152 298.924, 152 286.728 C 152 272.759, 152.098 272.045, 154.223 270.557 C 156.092 269.247, 160.463 269, 181.723 269 L 207 269 207 245.571 C 207 225.606, 207.232 221.911, 208.571 220.571 C 209.854 219.289, 212.781 219, 224.500 219 C 236.219 219, 239.146 219.289, 240.429 220.571 C 241.768 221.911, 242 225.606, 242 245.571 L 242 269 246.796 269 L 251.592 269 251.198 259.750 C 250.981 254.662, 251.272 244.213, 251.845 236.528 C 252.678 225.356, 253.226 222.308, 254.584 221.315 C 255.517 220.632, 259.705 219.322, 263.891 218.403 C 268.076 217.484, 275.550 215.419, 280.500 213.814 C 285.450 212.209, 294.337 208.599, 300.250 205.792 C 306.163 202.984, 310.982 200.420, 310.960 200.094 C 310.938 199.767, 307.077 196.869, 302.381 193.653 L 293.841 187.806 287.966 190.937 C 284.735 192.660, 278.133 194.929, 273.295 195.981 C 268.458 197.033, 257.620 198.446, 249.210 199.121 C 235.132 200.252, 233.785 200.213, 232.210 198.639 C 230.664 197.092, 230.500 193.672, 230.500 162.884 C 230.500 130.337, 230.585 128.776, 232.441 127.419 C 233.668 126.523, 236.889 126, 241.191 126 L 248 126 248 119 L 248 112 224.500 112 L 201 112 201 119 M 355.869 181.673 C 354.566 183.078, 350.350 186.813, 346.500 189.973 C 342.650 193.133, 334.903 198.730, 329.284 202.412 C 323.666 206.093, 313.541 211.737, 306.784 214.955 C 300.028 218.173, 289.325 222.415, 283 224.382 C 276.675 226.349, 269.632 228.423, 267.348 228.991 L 263.196 230.024 262.478 241.515 C 262.083 247.835, 262.065 258.742, 262.438 265.753 C 262.811 272.764, 263.771 284.018, 264.571 290.763 C 265.370 297.508, 266.944 307.789, 268.067 313.611 C 269.191 319.433, 271.636 329.447, 273.501 335.866 C 275.367 342.285, 278.879 352.478, 281.307 358.518 C 283.735 364.558, 287.410 372.853, 289.475 376.951 C 291.539 381.049, 295.419 387.935, 298.097 392.254 C 300.776 396.572, 305.552 403.569, 308.712 407.803 C 311.872 412.036, 319.417 420.612, 325.479 426.859 C 331.540 433.106, 340.965 441.588, 346.422 445.706 C 351.879 449.825, 356.939 453.423, 357.665 453.702 C 358.392 453.981, 362.682 451.574, 367.199 448.354 C 371.717 445.134, 380.549 437.550, 386.826 431.500 C 393.103 425.450, 400.962 417.125, 404.291 413 C 407.619 408.875, 413.208 401.136, 416.711 395.803 C 420.214 390.469, 426.167 379.669, 429.940 371.803 C 433.713 363.936, 438.454 352.550, 440.477 346.500 C 442.500 340.450, 445.456 330.100, 447.046 323.500 C 448.636 316.900, 450.881 305.200, 452.036 297.500 C 453.484 287.848, 454.297 276.357, 454.655 260.500 C 454.941 247.850, 454.786 235.739, 454.311 233.587 L 453.447 229.675 442.696 226.871 C 436.784 225.329, 427.200 222.177, 421.400 219.867 C 415.600 217.557, 406.117 213.032, 400.327 209.812 C 394.536 206.592, 386.807 201.832, 383.149 199.234 C 379.492 196.636, 372.391 191.047, 367.369 186.814 L 358.239 179.117 355.869 181.673 M 92.735 187.248 C 89.564 188.499, 84.754 191.432, 82.046 193.764 C 78.867 196.503, 76.047 200.218, 74.087 204.253 C 72.418 207.689, 70.575 213.581, 69.991 217.346 C 69.233 222.243, 69.246 226.495, 70.039 232.282 C 70.648 236.732, 71.676 241.631, 72.323 243.168 L 73.500 245.964 102.174 219.232 C 129.264 193.976, 130.727 192.432, 128.674 191.267 C 127.478 190.589, 123.669 189.136, 120.209 188.037 C 116.750 186.939, 110.450 185.800, 106.209 185.507 C 99.724 185.058, 97.585 185.334, 92.735 187.248 M 106.454 230.418 C 92.179 243.849, 80.500 255.309, 80.500 255.886 C 80.500 256.463, 89.945 264.600, 101.490 273.968 C 113.034 283.335, 122.710 291, 122.992 291 C 123.275 291, 125.541 271.875, 128.028 248.500 C 130.516 225.125, 132.519 206, 132.479 206 C 132.440 206, 120.729 216.988, 106.454 230.418 M 342.200 220.200 C 341.334 221.066, 341 228.022, 341 245.200 L 341 269 315.250 269.015 C 301.087 269.024, 288.966 269.370, 288.313 269.786 C 287.659 270.201, 286.647 271.798, 286.063 273.335 C 285.478 274.873, 285 281.022, 285 287 C 285 292.978, 285.478 299.127, 286.063 300.665 C 286.647 302.202, 287.659 303.799, 288.313 304.214 C 288.966 304.630, 301.087 304.976, 315.250 304.985 L 341 305 341 358.066 C 341 392.733, 341.359 411.802, 342.035 413.066 C 342.988 414.845, 344.263 415, 357.964 415 C 370.170 415, 373.141 414.716, 374.429 413.429 C 375.818 412.039, 376 405.667, 376 358.429 L 376 305 401.845 305 C 425.613 305, 427.823 304.853, 429.345 303.171 C 430.726 301.645, 431 298.924, 431 286.728 C 431 272.759, 430.902 272.045, 428.777 270.557 C 426.908 269.247, 422.537 269, 401.277 269 L 376 269 376 245.571 C 376 225.606, 375.768 221.911, 374.429 220.571 C 373.142 219.285, 370.185 219, 358.129 219 C 348.006 219, 343.025 219.375, 342.200 220.200 M 218 252.277 C 218 271.727, 217.744 275.920, 216.443 277.777 C 214.903 279.977, 214.619 280, 188.943 280 L 163 280 163 287 L 163 294 188.500 294 C 212.667 294, 214.105 294.105, 216 296 C 217.950 297.950, 218 299.333, 218 351 L 218 404 224.475 404 L 230.949 404 231.225 350.419 C 231.490 298.702, 231.568 296.789, 233.441 295.419 C 234.786 294.436, 238.222 294, 244.619 294 L 253.855 294 253.345 288.250 C 253.064 285.087, 252.661 281.938, 252.448 281.250 C 252.180 280.381, 249.522 280, 243.723 280 C 238.103 280, 234.749 279.537, 233.441 278.582 C 231.628 277.258, 231.480 275.576, 231.199 253.082 L 230.899 229 224.449 229 L 218 229 218 252.277 M 351.801 253.082 C 351.520 275.576, 351.372 277.258, 349.559 278.582 C 348.004 279.718, 342.575 280, 322.309 280 L 297 280 297 287 L 297 294 322.309 294 C 342.584 294, 348.004 294.282, 349.559 295.419 C 351.432 296.789, 351.510 298.702, 351.775 350.419 L 352.051 404 358.525 404 L 365 404 365 351.223 C 365 305.073, 365.196 298.166, 366.557 296.223 C 368.097 294.023, 368.381 294, 394.057 294 L 420 294 420 287 L 420 280 394.057 280 C 368.381 280, 368.097 279.977, 366.557 277.777 C 365.256 275.920, 365 271.727, 365 252.277 L 365 229 358.551 229 L 352.101 229 351.801 253.082 M 65.601 315.830 L 56.703 364.652 62.631 409.576 L 68.560 454.500 82.342 454.779 L 96.125 455.057 95.507 445.779 C 95.166 440.675, 94.046 420.174, 93.018 400.221 L 91.147 363.941 105.564 334.721 C 113.494 318.649, 119.986 304.980, 119.991 304.344 C 119.996 303.708, 110.003 295.046, 97.785 285.094 C 85.567 275.142, 75.330 267.002, 75.035 267.004 C 74.741 267.006, 70.496 288.978, 65.601 315.830 M 242 354.500 L 242 404 267 404 C 280.750 404, 292 403.650, 292 403.223 C 292 402.795, 291.383 401.557, 290.629 400.473 C 289.874 399.388, 287.018 394.450, 284.282 389.500 C 281.546 384.550, 277.444 376.351, 275.167 371.279 C 272.890 366.208, 269.191 356.758, 266.947 350.279 C 264.702 343.801, 261.579 333.100, 260.006 326.500 C 258.433 319.900, 256.837 312.363, 256.460 309.750 L 255.773 305 248.886 305 L 242 305 242 354.500 M 141.738 434.507 C 136.382 445.235, 132 454.235, 132 454.507 C 132 454.778, 173.852 455, 225.005 455 L 318.010 455 308 435 L 297.990 415 224.733 415 L 151.476 415 141.738 434.507" stroke="none" fill="#040404" fill-rule="evenodd"/></svg>